<svg width="309" height="88" viewBox="0 0 309 88" fill="none" xmlns="http://www.w3.org/2000/svg">
<path d="M78.4773 51V27.7273H87.125C88.7841 27.7273 90.1591 27.9962 91.25 28.5341C92.3485 29.0644 93.1667 29.7917 93.7045 30.7159C94.25 31.6326 94.5227 32.6667 94.5227 33.8182C94.5227 34.7803 94.3409 35.5947 93.9773 36.2614C93.6212 36.9205 93.1439 37.4545 92.5455 37.8636C91.947 38.2652 91.2841 38.5568 90.5568 38.7386V38.9659C91.3447 39.0114 92.1098 39.2614 92.8523 39.7159C93.6023 40.1705 94.2197 40.8182 94.7045 41.6591C95.1894 42.5 95.4318 43.5189 95.4318 44.7159C95.4318 45.9053 95.1477 46.9735 94.5795 47.9205C94.0189 48.8674 93.1553 49.6174 91.9886 50.1705C90.822 50.7235 89.3409 51 87.5455 51H78.4773ZM82.2045 47.8295H87.1136C88.75 47.8295 89.9242 47.5152 90.6364 46.8864C91.3485 46.25 91.7045 45.4545 91.7045 44.5C91.7045 43.7727 91.5227 43.1136 91.1591 42.5227C90.7955 41.9242 90.2803 41.4508 89.6136 41.1023C88.947 40.7538 88.1515 40.5795 87.2273 40.5795H82.2045V47.8295ZM82.2045 37.7386H86.75C87.5152 37.7386 88.2045 37.5947 88.8182 37.3068C89.4394 37.0114 89.9318 36.5985 90.2955 36.0682C90.6591 35.5303 90.8409 34.8977 90.8409 34.1705C90.8409 33.2311 90.5076 32.447 89.8409 31.8182C89.1818 31.1894 88.1818 30.875 86.8409 30.875H82.2045V37.7386ZM106.787 51.3523C105.06 51.3523 103.571 50.9848 102.321 50.25C101.071 49.5076 100.109 48.4659 99.4347 47.125C98.7604 45.7765 98.4233 44.197 98.4233 42.3864C98.4233 40.5909 98.7604 39.0152 99.4347 37.6591C100.109 36.2955 101.052 35.2311 102.264 34.4659C103.484 33.7008 104.912 33.3182 106.548 33.3182C107.563 33.3182 108.537 33.4848 109.469 33.8182C110.408 34.1439 111.245 34.6591 111.98 35.3636C112.715 36.0682 113.295 36.9773 113.719 38.0909C114.151 39.2045 114.366 40.5417 114.366 42.1023V43.3295H100.344V40.7045H110.832C110.832 39.8485 110.654 39.0871 110.298 38.4205C109.95 37.7462 109.457 37.2159 108.821 36.8295C108.185 36.4432 107.438 36.25 106.582 36.25C105.666 36.25 104.863 36.4735 104.173 36.9205C103.491 37.3674 102.961 37.9508 102.582 38.6705C102.211 39.3902 102.026 40.1705 102.026 41.0114V43.125C102.026 44.2462 102.226 45.2008 102.628 45.9886C103.029 46.7765 103.586 47.3788 104.298 47.7955C105.018 48.2121 105.859 48.4205 106.821 48.4205C107.457 48.4205 108.033 48.3295 108.548 48.1477C109.063 47.9659 109.507 47.697 109.878 47.3409C110.257 46.9773 110.548 46.5303 110.753 46L114.162 46.5341C113.904 47.5038 113.442 48.3523 112.776 49.0795C112.109 49.7992 111.268 50.3598 110.253 50.7614C109.238 51.1553 108.082 51.3523 106.787 51.3523ZM118.04 57.5455V33.5455H121.585V36.3864H121.858C122.063 36.0076 122.35 35.5795 122.722 35.1023C123.1 34.625 123.619 34.2083 124.278 33.8523C124.938 33.4962 125.801 33.3182 126.869 33.3182C128.256 33.3182 129.498 33.6705 130.597 34.375C131.695 35.0795 132.562 36.1023 133.199 37.4432C133.835 38.7841 134.153 40.4053 134.153 42.3068C134.153 44.2008 133.839 45.822 133.21 47.1705C132.581 48.5114 131.718 49.5417 130.619 50.2614C129.528 50.9735 128.282 51.3295 126.881 51.3295C125.843 51.3295 124.991 51.1553 124.324 50.8068C123.657 50.4583 123.131 50.0455 122.744 49.5682C122.358 49.0909 122.063 48.6591 121.858 48.2727H121.665V57.5455H118.04ZM121.597 42.2727C121.597 43.4697 121.767 44.5189 122.108 45.4205C122.456 46.322 122.956 47.0265 123.608 47.5341C124.267 48.0341 125.066 48.2841 126.006 48.2841C126.991 48.2841 127.813 48.0227 128.472 47.5C129.131 46.9773 129.631 46.2614 129.972 45.3523C130.313 44.4432 130.483 43.4167 130.483 42.2727C130.483 41.1439 130.316 40.1326 129.983 39.2386C129.65 38.3447 129.15 37.6439 128.483 37.1364C127.824 36.6212 126.998 36.3636 126.006 36.3636C125.051 36.3636 124.244 36.6098 123.585 37.1023C122.934 37.5871 122.438 38.2727 122.097 39.1591C121.763 40.0455 121.597 41.0833 121.597 42.2727ZM149.739 40.7386V43.8068H140.33V40.7386H149.739ZM141.375 33.5455V51H137.852V33.5455H141.375ZM152.216 33.5455V51H148.693V33.5455H152.216ZM158.281 57.5455C157.759 57.5455 157.281 57.5038 156.849 57.4205C156.418 57.3371 156.084 57.2462 155.849 57.1477L156.713 54.2386C157.327 54.4129 157.872 54.4886 158.349 54.4659C158.834 54.4432 159.262 54.2689 159.634 53.9432C160.005 53.625 160.327 53.0985 160.599 52.3636L161.009 51.2727L154.634 33.5455H158.497L162.793 46.9773H162.974L167.281 33.5455H171.156L164.02 53.2614C163.687 54.178 163.259 54.9545 162.736 55.5909C162.221 56.2348 161.596 56.7197 160.861 57.0455C160.126 57.3788 159.266 57.5455 158.281 57.5455ZM173.261 36.6136V33.5455H188.159V36.6136H182.477V51H178.955V36.6136H173.261ZM194.259 39.4432H199.361C201.52 39.4432 203.187 39.9773 204.361 41.0455C205.535 42.1136 206.126 43.4962 206.134 45.1932C206.126 46.3068 205.857 47.303 205.327 48.1818C204.804 49.053 204.039 49.7424 203.031 50.25C202.024 50.75 200.8 51 199.361 51H191.634V33.5455H195.156V47.9318H199.361C200.308 47.9318 201.088 47.6856 201.702 47.1932C202.315 46.6932 202.622 46.0568 202.622 45.2841C202.622 44.4735 202.315 43.8106 201.702 43.2955C201.088 42.7803 200.308 42.5227 199.361 42.5227H194.259V39.4432ZM217.284 51.3523C215.587 51.3523 214.125 50.9697 212.898 50.2045C211.67 49.4318 210.727 48.3712 210.068 47.0227C209.409 45.6667 209.08 44.1098 209.08 42.3523C209.08 40.572 209.417 39.0038 210.091 37.6477C210.765 36.2917 211.712 35.2311 212.932 34.4659C214.159 33.7008 215.602 33.3182 217.261 33.3182C218.61 33.3182 219.811 33.5682 220.864 34.0682C221.924 34.5606 222.777 35.2576 223.42 36.1591C224.064 37.053 224.443 38.1023 224.557 39.3068H221.057C220.883 38.4811 220.477 37.7765 219.841 37.1932C219.212 36.6098 218.371 36.3182 217.318 36.3182C216.402 36.3182 215.598 36.5606 214.909 37.0455C214.227 37.5303 213.693 38.2197 213.307 39.1136C212.928 40 212.739 41.053 212.739 42.2727C212.739 43.5152 212.924 44.5909 213.295 45.5C213.674 46.4015 214.205 47.0985 214.886 47.5909C215.576 48.0758 216.386 48.3182 217.318 48.3182C217.947 48.3182 218.519 48.2008 219.034 47.9659C219.549 47.7311 219.981 47.3939 220.33 46.9545C220.678 46.5076 220.92 45.9697 221.057 45.3409H224.557C224.443 46.5 224.076 47.5341 223.455 48.4432C222.841 49.3447 222.011 50.0568 220.966 50.5795C219.92 51.0947 218.693 51.3523 217.284 51.3523ZM238.52 51V36.5795H234.474C233.497 36.5795 232.74 36.8068 232.202 37.2614C231.664 37.7159 231.395 38.303 231.395 39.0227C231.395 39.7424 231.645 40.322 232.145 40.7614C232.645 41.2008 233.353 41.4205 234.27 41.4205H239.599V44.25H234.27C232.952 44.25 231.812 44.0341 230.849 43.6023C229.895 43.1705 229.156 42.5606 228.634 41.7727C228.118 40.9773 227.865 40.0417 227.872 38.9659C227.865 37.8598 228.126 36.9015 228.656 36.0909C229.194 35.2803 229.955 34.6553 230.94 34.2159C231.933 33.7689 233.111 33.5455 234.474 33.5455H241.918V51H238.52ZM227.122 51L232.02 42.1364H235.679L230.781 51H227.122Z" fill="#8B836E"/>
<rect x="0.5" y="0.5" width="308" height="87" rx="43.5" fill="#EDEAC6" fill-opacity="0.3" stroke="black"/>
</svg>
