<svg width="650" height="99" viewBox="0 0 650 99" fill="none" xmlns="http://www.w3.org/2000/svg">
<rect width="650" height="99" rx="30" fill="#D9D9D9" fill-opacity="0.4"/>
<path d="M34.4276 35.7074V17.4545H37.446V35.7074H34.4276ZM34.4276 32.2131C33.5895 32.2131 32.8248 32.0781 32.1335 31.8082C31.4422 31.5336 30.8456 31.1477 30.3438 30.6506C29.8419 30.1487 29.4536 29.5545 29.179 28.8679C28.9044 28.1766 28.767 27.4167 28.767 26.5881C28.767 25.75 28.9044 24.9877 29.179 24.3011C29.4536 23.6098 29.8419 23.0156 30.3438 22.5185C30.8456 22.0166 31.4422 21.6307 32.1335 21.3608C32.8248 21.0862 33.5895 20.9489 34.4276 20.9489H34.9886V32.2131H34.4276ZM34.4276 29.8551H34.7614V23.3068H34.4276C34.0204 23.3068 33.6581 23.392 33.3409 23.5625C33.0237 23.733 32.7562 23.9673 32.5384 24.2656C32.3205 24.5592 32.1548 24.9048 32.0412 25.3026C31.9323 25.7003 31.8778 26.1288 31.8778 26.5881C31.8778 27.1941 31.9773 27.7457 32.1761 28.2429C32.375 28.7353 32.6662 29.1283 33.0497 29.4219C33.4332 29.7107 33.8925 29.8551 34.4276 29.8551ZM37.446 32.2131H36.8849V20.9489H37.446C38.2841 20.9489 39.0488 21.0862 39.7401 21.3608C40.4313 21.6307 41.0279 22.0166 41.5298 22.5185C42.0317 23.0156 42.42 23.6098 42.6946 24.3011C42.9692 24.9877 43.1065 25.75 43.1065 26.5881C43.1065 27.4167 42.9692 28.1766 42.6946 28.8679C42.42 29.5545 42.0317 30.1487 41.5298 30.6506C41.0279 31.1477 40.4313 31.5336 39.7401 31.8082C39.0488 32.0781 38.2841 32.2131 37.446 32.2131ZM37.446 29.8551C37.8532 29.8551 38.2154 29.7723 38.5327 29.6065C38.8499 29.4361 39.1174 29.2017 39.3352 28.9034C39.553 28.6051 39.7188 28.2595 39.8324 27.8665C39.946 27.4687 40.0028 27.0426 40.0028 26.5881C40.0028 25.9773 39.901 25.4257 39.6974 24.9332C39.4986 24.4361 39.2098 24.0407 38.831 23.7472C38.4522 23.4536 37.9905 23.3068 37.446 23.3068H37.1122V29.8551H37.446ZM46.6026 36.0909C46.2191 36.0909 45.8593 36.0601 45.5231 35.9986C45.1916 35.9418 44.917 35.8684 44.6992 35.7784L45.381 33.5199C45.7362 33.6288 46.0558 33.688 46.3398 33.6974C46.6287 33.7069 46.8772 33.6406 47.0856 33.4986C47.2987 33.3565 47.4715 33.1151 47.604 32.7741L47.7816 32.3125L43.8683 21.0909H47.0501L49.3086 29.1023H49.4222L51.7021 21.0909H54.9052L50.6651 33.179C50.4615 33.7661 50.1845 34.2775 49.8342 34.7131C49.4885 35.1534 49.0505 35.492 48.5202 35.7287C47.9899 35.9702 47.3507 36.0909 46.6026 36.0909ZM64.0458 25.3381V27.7173H58.3498V25.3381H64.0458ZM59.3441 21.0909V32H56.4535V21.0909H59.3441ZM65.9421 21.0909V32H63.0728V21.0909H65.9421ZM68.2894 32V21.0909H71.315V25.3239H72.1673L75.136 21.0909H78.6871L74.8306 26.5028L78.7298 32H75.136L72.4442 28.1293H71.315V32H68.2894ZM89.5465 21.0909V29.9119H91.2866V35.5085H88.3462V32H80.0082V21.0909H82.8988V29.6207H86.6914V21.0909H89.5465ZM96.0433 28.0085L99.9709 21.0909H102.954V32H100.07V25.0611L96.157 32H93.1527V21.0909H96.0433V28.0085ZM111.771 32V23.4631H109.726C109.172 23.4631 108.75 23.5909 108.462 23.8466C108.173 24.1023 108.031 24.4053 108.036 24.7557C108.031 25.1108 108.168 25.4115 108.447 25.6577C108.732 25.8991 109.148 26.0199 109.697 26.0199H112.78V28.0653H109.697C108.765 28.0653 107.957 27.9233 107.276 27.6392C106.594 27.3551 106.068 26.9598 105.699 26.4531C105.33 25.9418 105.147 25.3475 105.152 24.6705C105.147 23.9602 105.33 23.3376 105.699 22.8026C106.068 22.2628 106.596 21.8437 107.283 21.5455C107.974 21.2424 108.788 21.0909 109.726 21.0909H114.591V32H111.771ZM104.839 32L107.872 26.3182H110.763L107.737 32H104.839ZM126.791 35.7074V17.4545H129.809V35.7074H126.791ZM126.791 32.2131C125.953 32.2131 125.188 32.0781 124.497 31.8082C123.806 31.5336 123.209 31.1477 122.707 30.6506C122.205 30.1487 121.817 29.5545 121.542 28.8679C121.268 28.1766 121.13 27.4167 121.13 26.5881C121.13 25.75 121.268 24.9877 121.542 24.3011C121.817 23.6098 122.205 23.0156 122.707 22.5185C123.209 22.0166 123.806 21.6307 124.497 21.3608C125.188 21.0862 125.953 20.9489 126.791 20.9489H127.352V32.2131H126.791ZM126.791 29.8551H127.125V23.3068H126.791C126.384 23.3068 126.021 23.392 125.704 23.5625C125.387 23.733 125.119 23.9673 124.902 24.2656C124.684 24.5592 124.518 24.9048 124.404 25.3026C124.296 25.7003 124.241 26.1288 124.241 26.5881C124.241 27.1941 124.341 27.7457 124.539 28.2429C124.738 28.7353 125.029 29.1283 125.413 29.4219C125.797 29.7107 126.256 29.8551 126.791 29.8551ZM129.809 32.2131H129.248V20.9489H129.809C130.647 20.9489 131.412 21.0862 132.103 21.3608C132.795 21.6307 133.391 22.0166 133.893 22.5185C134.395 23.0156 134.783 23.6098 135.058 24.3011C135.333 24.9877 135.47 25.75 135.47 26.5881C135.47 27.4167 135.333 28.1766 135.058 28.8679C134.783 29.5545 134.395 30.1487 133.893 30.6506C133.391 31.1477 132.795 31.5336 132.103 31.8082C131.412 32.0781 130.647 32.2131 129.809 32.2131ZM129.809 29.8551C130.217 29.8551 130.579 29.7723 130.896 29.6065C131.213 29.4361 131.481 29.2017 131.699 28.9034C131.916 28.6051 132.082 28.2595 132.196 27.8665C132.309 27.4687 132.366 27.0426 132.366 26.5881C132.366 25.9773 132.264 25.4257 132.061 24.9332C131.862 24.4361 131.573 24.0407 131.194 23.7472C130.815 23.4536 130.354 23.3068 129.809 23.3068H129.475V29.8551H129.809ZM140.34 28.0085L144.268 21.0909H147.251V32H144.367V25.0611L140.454 32H137.45V21.0909H140.34V28.0085ZM149.037 32L149.023 29.5994H149.385C149.641 29.5994 149.861 29.5379 150.045 29.4148C150.235 29.2869 150.391 29.081 150.514 28.7969C150.637 28.5128 150.734 28.1364 150.805 27.6676C150.876 27.1941 150.924 26.6117 150.947 25.9205L151.125 21.0909H159.42V32H156.537V23.4702H153.845L153.675 26.8011C153.632 27.715 153.521 28.5009 153.341 29.1591C153.166 29.8172 152.922 30.357 152.609 30.7784C152.297 31.1951 151.92 31.5028 151.48 31.7017C151.04 31.9006 150.528 32 149.946 32H149.037ZM166.695 32.2131C165.592 32.2131 164.638 31.9787 163.833 31.5099C163.033 31.0365 162.415 30.3783 161.979 29.5355C161.543 28.688 161.326 27.7055 161.326 26.5881C161.326 25.4612 161.543 24.4763 161.979 23.6335C162.415 22.786 163.033 22.1278 163.833 21.6591C164.638 21.1856 165.592 20.9489 166.695 20.9489C167.798 20.9489 168.75 21.1856 169.55 21.6591C170.355 22.1278 170.975 22.786 171.411 23.6335C171.846 24.4763 172.064 25.4612 172.064 26.5881C172.064 27.7055 171.846 28.688 171.411 29.5355C170.975 30.3783 170.355 31.0365 169.55 31.5099C168.75 31.9787 167.798 32.2131 166.695 32.2131ZM166.709 29.8693C167.211 29.8693 167.63 29.7273 167.966 29.4432C168.302 29.1544 168.556 28.7614 168.726 28.2642C168.901 27.767 168.989 27.2012 168.989 26.5668C168.989 25.9323 168.901 25.3665 168.726 24.8693C168.556 24.3722 168.302 23.9792 167.966 23.6903C167.63 23.4015 167.211 23.2571 166.709 23.2571C166.203 23.2571 165.776 23.4015 165.431 23.6903C165.09 23.9792 164.832 24.3722 164.657 24.8693C164.486 25.3665 164.401 25.9323 164.401 26.5668C164.401 27.2012 164.486 27.767 164.657 28.2642C164.832 28.7614 165.09 29.1544 165.431 29.4432C165.776 29.7273 166.203 29.8693 166.709 29.8693ZM178.961 32.2131C177.843 32.2131 176.882 31.9763 176.077 31.5028C175.277 31.0246 174.661 30.3617 174.23 29.5142C173.804 28.6667 173.591 27.6913 173.591 26.5881C173.591 25.4706 173.807 24.4905 174.238 23.6477C174.673 22.8002 175.291 22.1397 176.091 21.6662C176.891 21.188 177.843 20.9489 178.946 20.9489C179.898 20.9489 180.731 21.1217 181.446 21.4673C182.161 21.813 182.727 22.2983 183.144 22.9233C183.56 23.5483 183.79 24.2822 183.833 25.125H180.978C180.897 24.5805 180.684 24.1425 180.338 23.8111C179.998 23.4749 179.55 23.3068 178.996 23.3068C178.527 23.3068 178.118 23.4347 177.767 23.6903C177.422 23.9413 177.152 24.3082 176.958 24.7912C176.764 25.2741 176.667 25.8589 176.667 26.5455C176.667 27.2415 176.761 27.8333 176.951 28.321C177.145 28.8087 177.417 29.1804 177.767 29.4361C178.118 29.6918 178.527 29.8196 178.996 29.8196C179.342 29.8196 179.652 29.7486 179.926 29.6065C180.206 29.4645 180.435 29.2585 180.615 28.9886C180.8 28.714 180.921 28.3849 180.978 28.0014H183.833C183.785 28.8348 183.558 29.5687 183.151 30.2031C182.748 30.8329 182.192 31.3253 181.482 31.6804C180.772 32.0355 179.931 32.2131 178.961 32.2131ZM190.699 32.2131C189.596 32.2131 188.642 31.9787 187.837 31.5099C187.036 31.0365 186.419 30.3783 185.983 29.5355C185.547 28.688 185.33 27.7055 185.33 26.5881C185.33 25.4612 185.547 24.4763 185.983 23.6335C186.419 22.786 187.036 22.1278 187.837 21.6591C188.642 21.1856 189.596 20.9489 190.699 20.9489C191.802 20.9489 192.754 21.1856 193.554 21.6591C194.359 22.1278 194.979 22.786 195.415 23.6335C195.85 24.4763 196.068 25.4612 196.068 26.5881C196.068 27.7055 195.85 28.688 195.415 29.5355C194.979 30.3783 194.359 31.0365 193.554 31.5099C192.754 31.9787 191.802 32.2131 190.699 32.2131ZM190.713 29.8693C191.215 29.8693 191.634 29.7273 191.97 29.4432C192.306 29.1544 192.56 28.7614 192.73 28.2642C192.905 27.767 192.993 27.2012 192.993 26.5668C192.993 25.9323 192.905 25.3665 192.73 24.8693C192.56 24.3722 192.306 23.9792 191.97 23.6903C191.634 23.4015 191.215 23.2571 190.713 23.2571C190.206 23.2571 189.78 23.4015 189.435 23.6903C189.094 23.9792 188.836 24.3722 188.661 24.8693C188.49 25.3665 188.405 25.9323 188.405 26.5668C188.405 27.2012 188.49 27.767 188.661 28.2642C188.836 28.7614 189.094 29.1544 189.435 29.4432C189.78 29.7273 190.206 29.8693 190.713 29.8693ZM203.256 35.7074V17.4545H206.274V35.7074H203.256ZM203.256 32.2131C202.418 32.2131 201.653 32.0781 200.962 31.8082C200.27 31.5336 199.674 31.1477 199.172 30.6506C198.67 30.1487 198.282 29.5545 198.007 28.8679C197.732 28.1766 197.595 27.4167 197.595 26.5881C197.595 25.75 197.732 24.9877 198.007 24.3011C198.282 23.6098 198.67 23.0156 199.172 22.5185C199.674 22.0166 200.27 21.6307 200.962 21.3608C201.653 21.0862 202.418 20.9489 203.256 20.9489H203.817V32.2131H203.256ZM203.256 29.8551H203.589V23.3068H203.256C202.848 23.3068 202.486 23.392 202.169 23.5625C201.852 23.733 201.584 23.9673 201.366 24.2656C201.149 24.5592 200.983 24.9048 200.869 25.3026C200.76 25.7003 200.706 26.1288 200.706 26.5881C200.706 27.1941 200.805 27.7457 201.004 28.2429C201.203 28.7353 201.494 29.1283 201.878 29.4219C202.261 29.7107 202.721 29.8551 203.256 29.8551ZM206.274 32.2131H205.713V20.9489H206.274C207.112 20.9489 207.877 21.0862 208.568 21.3608C209.259 21.6307 209.856 22.0166 210.358 22.5185C210.86 23.0156 211.248 23.6098 211.523 24.3011C211.797 24.9877 211.935 25.75 211.935 26.5881C211.935 27.4167 211.797 28.1766 211.523 28.8679C211.248 29.5545 210.86 30.1487 210.358 30.6506C209.856 31.1477 209.259 31.5336 208.568 31.8082C207.877 32.0781 207.112 32.2131 206.274 32.2131ZM206.274 29.8551C206.681 29.8551 207.044 29.7723 207.361 29.6065C207.678 29.4361 207.946 29.2017 208.163 28.9034C208.381 28.6051 208.547 28.2595 208.661 27.8665C208.774 27.4687 208.831 27.0426 208.831 26.5881C208.831 25.9773 208.729 25.4257 208.526 24.9332C208.327 24.4361 208.038 24.0407 207.659 23.7472C207.28 23.4536 206.819 23.3068 206.274 23.3068H205.94V29.8551H206.274ZM216.805 28.0085L220.733 21.0909H223.716V32H220.832V25.0611L216.919 32H213.914V21.0909H216.805V28.0085ZM229.032 28.0085L232.959 21.0909H235.942V32H233.059V25.0611L229.145 32H226.141V21.0909H229.032V28.0085ZM247.925 32.2131C246.808 32.2131 245.847 31.9763 245.042 31.5028C244.242 31.0246 243.626 30.3617 243.195 29.5142C242.769 28.6667 242.556 27.6913 242.556 26.5881C242.556 25.4706 242.772 24.4905 243.202 23.6477C243.638 22.8002 244.256 22.1397 245.056 21.6662C245.856 21.188 246.808 20.9489 247.911 20.9489C248.863 20.9489 249.696 21.1217 250.411 21.4673C251.126 21.813 251.692 22.2983 252.109 22.9233C252.525 23.5483 252.755 24.2822 252.798 25.125H249.942C249.862 24.5805 249.649 24.1425 249.303 23.8111C248.962 23.4749 248.515 23.3068 247.961 23.3068C247.492 23.3068 247.083 23.4347 246.732 23.6903C246.387 23.9413 246.117 24.3082 245.923 24.7912C245.728 25.2741 245.631 25.8589 245.631 26.5455C245.631 27.2415 245.726 27.8333 245.915 28.321C246.11 28.8087 246.382 29.1804 246.732 29.4361C247.083 29.6918 247.492 29.8196 247.961 29.8196C248.307 29.8196 248.617 29.7486 248.891 29.6065C249.171 29.4645 249.4 29.2585 249.58 28.9886C249.765 28.714 249.886 28.3849 249.942 28.0014H252.798C252.75 28.8348 252.523 29.5687 252.116 30.2031C251.713 30.8329 251.157 31.3253 250.447 31.6804C249.737 32.0355 248.896 32.2131 247.925 32.2131ZM259.664 32.2131C258.56 32.2131 257.606 31.9787 256.801 31.5099C256.001 31.0365 255.383 30.3783 254.948 29.5355C254.512 28.688 254.294 27.7055 254.294 26.5881C254.294 25.4612 254.512 24.4763 254.948 23.6335C255.383 22.786 256.001 22.1278 256.801 21.6591C257.606 21.1856 258.56 20.9489 259.664 20.9489C260.767 20.9489 261.719 21.1856 262.519 21.6591C263.324 22.1278 263.944 22.786 264.38 23.6335C264.815 24.4763 265.033 25.4612 265.033 26.5881C265.033 27.7055 264.815 28.688 264.38 29.5355C263.944 30.3783 263.324 31.0365 262.519 31.5099C261.719 31.9787 260.767 32.2131 259.664 32.2131ZM259.678 29.8693C260.18 29.8693 260.599 29.7273 260.935 29.4432C261.271 29.1544 261.525 28.7614 261.695 28.2642C261.87 27.767 261.958 27.2012 261.958 26.5668C261.958 25.9323 261.87 25.3665 261.695 24.8693C261.525 24.3722 261.271 23.9792 260.935 23.6903C260.599 23.4015 260.18 23.2571 259.678 23.2571C259.171 23.2571 258.745 23.4015 258.4 23.6903C258.059 23.9792 257.801 24.3722 257.625 24.8693C257.455 25.3665 257.37 25.9323 257.37 26.5668C257.37 27.2012 257.455 27.767 257.625 28.2642C257.801 28.7614 258.059 29.1544 258.4 29.4432C258.745 29.7273 259.171 29.8693 259.678 29.8693ZM271.929 32.2131C270.812 32.2131 269.851 31.9763 269.046 31.5028C268.246 31.0246 267.63 30.3617 267.199 29.5142C266.773 28.6667 266.56 27.6913 266.56 26.5881C266.56 25.4706 266.775 24.4905 267.206 23.6477C267.642 22.8002 268.26 22.1397 269.06 21.6662C269.86 21.188 270.812 20.9489 271.915 20.9489C272.867 20.9489 273.7 21.1217 274.415 21.4673C275.13 21.813 275.696 22.2983 276.113 22.9233C276.529 23.5483 276.759 24.2822 276.801 25.125H273.946C273.866 24.5805 273.653 24.1425 273.307 23.8111C272.966 23.4749 272.519 23.3068 271.965 23.3068C271.496 23.3068 271.087 23.4347 270.736 23.6903C270.391 23.9413 270.121 24.3082 269.926 24.7912C269.732 25.2741 269.635 25.8589 269.635 26.5455C269.635 27.2415 269.73 27.8333 269.919 28.321C270.114 28.8087 270.386 29.1804 270.736 29.4361C271.087 29.6918 271.496 29.8196 271.965 29.8196C272.31 29.8196 272.621 29.7486 272.895 29.6065C273.175 29.4645 273.404 29.2585 273.584 28.9886C273.769 28.714 273.89 28.3849 273.946 28.0014H276.801C276.754 28.8348 276.527 29.5687 276.12 30.2031C275.717 30.8329 275.161 31.3253 274.451 31.6804C273.74 32.0355 272.9 32.2131 271.929 32.2131ZM277.995 23.4702V21.0909H287.881V23.4702H284.365V32H281.482V23.4702H277.995ZM294.254 32.2131C293.15 32.2131 292.196 31.9787 291.391 31.5099C290.591 31.0365 289.973 30.3783 289.538 29.5355C289.102 28.688 288.884 27.7055 288.884 26.5881C288.884 25.4612 289.102 24.4763 289.538 23.6335C289.973 22.786 290.591 22.1278 291.391 21.6591C292.196 21.1856 293.15 20.9489 294.254 20.9489C295.357 20.9489 296.308 21.1856 297.109 21.6591C297.914 22.1278 298.534 22.786 298.969 23.6335C299.405 24.4763 299.623 25.4612 299.623 26.5881C299.623 27.7055 299.405 28.688 298.969 29.5355C298.534 30.3783 297.914 31.0365 297.109 31.5099C296.308 31.9787 295.357 32.2131 294.254 32.2131ZM294.268 29.8693C294.77 29.8693 295.189 29.7273 295.525 29.4432C295.861 29.1544 296.114 28.7614 296.285 28.2642C296.46 27.767 296.548 27.2012 296.548 26.5668C296.548 25.9323 296.46 25.3665 296.285 24.8693C296.114 24.3722 295.861 23.9792 295.525 23.6903C295.189 23.4015 294.77 23.2571 294.268 23.2571C293.761 23.2571 293.335 23.4015 292.989 23.6903C292.648 23.9792 292.39 24.3722 292.215 24.8693C292.045 25.3665 291.96 25.9323 291.96 26.5668C291.96 27.2012 292.045 27.767 292.215 28.2642C292.39 28.7614 292.648 29.1544 292.989 29.4432C293.335 29.7273 293.761 29.8693 294.268 29.8693ZM304.481 28.0085L308.408 21.0909H311.391V32H308.508V25.0611L304.594 32H301.59V21.0909H304.481V28.0085ZM312.721 23.4702V21.0909H322.608V23.4702H319.092V32H316.208V23.4702H312.721ZM329.071 32V21.0909H333.723C335.067 21.0909 336.13 21.3466 336.912 21.858C337.693 22.3693 338.083 23.0961 338.083 24.0384C338.083 24.6302 337.863 25.1226 337.423 25.5156C336.983 25.9086 336.372 26.1738 335.591 26.3111C336.244 26.3584 336.8 26.5076 337.26 26.7585C337.724 27.0047 338.076 27.3243 338.318 27.7173C338.564 28.1103 338.687 28.5459 338.687 29.0241C338.687 29.6444 338.521 30.1771 338.19 30.6222C337.863 31.0672 337.383 31.4081 336.748 31.6449C336.118 31.8816 335.349 32 334.44 32H329.071ZM331.89 29.7344H334.44C334.861 29.7344 335.19 29.6349 335.427 29.4361C335.669 29.2325 335.789 28.9555 335.789 28.6051C335.789 28.2169 335.669 27.9115 335.427 27.6889C335.19 27.4664 334.861 27.3551 334.44 27.3551H331.89V29.7344ZM331.89 25.5795H333.787C334.09 25.5795 334.348 25.5369 334.561 25.4517C334.779 25.3617 334.944 25.2339 335.058 25.0682C335.176 24.9025 335.235 24.706 335.235 24.4787C335.235 24.1425 335.1 23.8797 334.831 23.6903C334.561 23.5009 334.191 23.4062 333.723 23.4062H331.89V25.5795ZM344.655 23.4702V21.0909H354.541V23.4702H351.026V32H348.142V23.4702H344.655ZM360.914 32.2131C359.81 32.2131 358.856 31.9787 358.051 31.5099C357.251 31.0365 356.633 30.3783 356.198 29.5355C355.762 28.688 355.544 27.7055 355.544 26.5881C355.544 25.4612 355.762 24.4763 356.198 23.6335C356.633 22.786 357.251 22.1278 358.051 21.6591C358.856 21.1856 359.81 20.9489 360.914 20.9489C362.017 20.9489 362.969 21.1856 363.769 21.6591C364.574 22.1278 365.194 22.786 365.63 23.6335C366.065 24.4763 366.283 25.4612 366.283 26.5881C366.283 27.7055 366.065 28.688 365.63 29.5355C365.194 30.3783 364.574 31.0365 363.769 31.5099C362.969 31.9787 362.017 32.2131 360.914 32.2131ZM360.928 29.8693C361.43 29.8693 361.849 29.7273 362.185 29.4432C362.521 29.1544 362.775 28.7614 362.945 28.2642C363.12 27.767 363.208 27.2012 363.208 26.5668C363.208 25.9323 363.12 25.3665 362.945 24.8693C362.775 24.3722 362.521 23.9792 362.185 23.6903C361.849 23.4015 361.43 23.2571 360.928 23.2571C360.421 23.2571 359.995 23.4015 359.65 23.6903C359.309 23.9792 359.051 24.3722 358.875 24.8693C358.705 25.3665 358.62 25.9323 358.62 26.5668C358.62 27.2012 358.705 27.767 358.875 28.2642C359.051 28.7614 359.309 29.1544 359.65 29.4432C359.995 29.7273 360.421 29.8693 360.928 29.8693ZM374.699 28.6548L377.654 21.0909H379.955L375.701 32H373.691L369.536 21.0909H371.83L374.699 28.6548ZM371.141 21.0909V32H368.25V21.0909H371.141ZM378.407 32V21.0909H381.262V32H378.407ZM386.89 30.0114L386.812 30.7926C386.751 31.4176 386.632 32.0402 386.457 32.6605C386.287 33.2855 386.107 33.8513 385.917 34.358C385.733 34.8646 385.583 35.2623 385.47 35.5511H383.51C383.581 35.2718 383.678 34.8812 383.801 34.3793C383.924 33.8821 384.04 33.3234 384.149 32.7031C384.258 32.0829 384.326 31.4508 384.355 30.8068L384.39 30.0114H386.89ZM403.069 21.0909V32H400.2V21.0909H403.069ZM401.67 25.8778V28.2642C401.438 28.3684 401.149 28.4678 400.804 28.5625C400.458 28.6525 400.096 28.7259 399.717 28.7827C399.338 28.8395 398.983 28.8679 398.652 28.8679C397.084 28.8679 395.851 28.5459 394.951 27.902C394.052 27.2533 393.602 26.2187 393.602 24.7983V21.0767H396.457V24.7983C396.457 25.2197 396.528 25.5535 396.67 25.7997C396.817 26.0459 397.049 26.2235 397.366 26.3324C397.688 26.4366 398.117 26.4886 398.652 26.4886C399.149 26.4886 399.636 26.4366 400.115 26.3324C400.593 26.2282 401.111 26.0767 401.67 25.8778ZM404.323 23.4702V21.0909H414.209V23.4702H410.694V32H407.81V23.4702H404.323ZM420.582 32.2131C419.478 32.2131 418.524 31.9787 417.719 31.5099C416.919 31.0365 416.301 30.3783 415.866 29.5355C415.43 28.688 415.212 27.7055 415.212 26.5881C415.212 25.4612 415.43 24.4763 415.866 23.6335C416.301 22.786 416.919 22.1278 417.719 21.6591C418.524 21.1856 419.478 20.9489 420.582 20.9489C421.685 20.9489 422.637 21.1856 423.437 21.6591C424.242 22.1278 424.862 22.786 425.298 23.6335C425.733 24.4763 425.951 25.4612 425.951 26.5881C425.951 27.7055 425.733 28.688 425.298 29.5355C424.862 30.3783 424.242 31.0365 423.437 31.5099C422.637 31.9787 421.685 32.2131 420.582 32.2131ZM420.596 29.8693C421.098 29.8693 421.517 29.7273 421.853 29.4432C422.189 29.1544 422.442 28.7614 422.613 28.2642C422.788 27.767 422.876 27.2012 422.876 26.5668C422.876 25.9323 422.788 25.3665 422.613 24.8693C422.442 24.3722 422.189 23.9792 421.853 23.6903C421.517 23.4015 421.098 23.2571 420.596 23.2571C420.089 23.2571 419.663 23.4015 419.317 23.6903C418.977 23.9792 418.719 24.3722 418.543 24.8693C418.373 25.3665 418.288 25.9323 418.288 26.5668C418.288 27.2012 418.373 27.767 418.543 28.2642C418.719 28.7614 418.977 29.1544 419.317 29.4432C419.663 29.7273 420.089 29.8693 420.596 29.8693ZM436.988 17.0852L437.911 19.0597C437.603 19.3153 437.263 19.5047 436.888 19.6278C436.514 19.7462 436.067 19.8243 435.546 19.8622C435.03 19.9001 434.4 19.9261 433.657 19.9403C432.814 19.9498 432.128 20.0848 431.597 20.3452C431.067 20.6056 430.665 21.0152 430.39 21.5739C430.115 22.1278 429.935 22.8523 429.85 23.7472H429.957C430.283 23.0795 430.743 22.5634 431.335 22.1989C431.931 21.8343 432.667 21.652 433.543 21.652C434.471 21.652 435.283 21.8556 435.979 22.2628C436.68 22.67 437.225 23.2547 437.613 24.017C438.001 24.7794 438.195 25.6932 438.195 26.7585C438.195 27.8665 437.978 28.83 437.542 29.6491C437.111 30.4635 436.498 31.0956 435.702 31.5455C434.907 31.9905 433.96 32.2131 432.862 32.2131C431.758 32.2131 430.807 31.9811 430.006 31.517C429.211 31.053 428.595 30.3688 428.16 29.4645C427.729 28.5601 427.513 27.4474 427.513 26.1264V25.2315C427.513 22.6037 428.025 20.6553 429.048 19.3864C430.07 18.1174 431.574 17.4735 433.558 17.4545C434.097 17.4451 434.585 17.4427 435.021 17.4474C435.456 17.4522 435.837 17.4309 436.164 17.3835C436.496 17.3362 436.77 17.2367 436.988 17.0852ZM432.876 29.8693C433.34 29.8693 433.737 29.7486 434.069 29.5071C434.405 29.2656 434.663 28.92 434.843 28.4702C435.028 28.0204 435.12 27.483 435.12 26.858C435.12 26.2377 435.028 25.7121 434.843 25.2812C434.663 24.8456 434.405 24.5142 434.069 24.2869C433.733 24.0597 433.33 23.946 432.862 23.946C432.511 23.946 432.196 24.0099 431.917 24.1378C431.638 24.2656 431.398 24.455 431.2 24.706C431.005 24.9522 430.854 25.2576 430.745 25.6222C430.641 25.982 430.589 26.3939 430.589 26.858C430.589 27.7907 430.79 28.527 431.192 29.0668C431.6 29.6018 432.161 29.8693 432.876 29.8693ZM442.1 24.4432H445.36C446.804 24.4432 447.931 24.7888 448.74 25.4801C449.55 26.1667 449.955 27.0852 449.955 28.2358C449.955 28.9839 449.773 29.642 449.408 30.2102C449.043 30.7737 448.518 31.214 447.831 31.5312C447.145 31.8438 446.321 32 445.36 32H440.203V21.0909H443.094V29.6207H445.36C445.866 29.6207 446.283 29.4929 446.61 29.2372C446.936 28.9815 447.102 28.6548 447.107 28.2571C447.102 27.8357 446.936 27.4924 446.61 27.2273C446.283 26.9574 445.866 26.8224 445.36 26.8224H442.1V24.4432ZM451.127 32V21.0909H454.152V32H451.127ZM461.2 32V21.0909H464.225V25.3239H465.077L468.046 21.0909H471.597L467.741 26.5028L471.64 32H468.046L465.354 28.1293H464.225V32H461.2ZM474.962 36.0909C474.578 36.0909 474.219 36.0601 473.882 35.9986C473.551 35.9418 473.276 35.8684 473.059 35.7784L473.74 33.5199C474.096 33.6288 474.415 33.688 474.699 33.6974C474.988 33.7069 475.237 33.6406 475.445 33.4986C475.658 33.3565 475.831 33.1151 475.963 32.7741L476.141 32.3125L472.228 21.0909H475.409L477.668 29.1023H477.782L480.061 21.0909H483.265L479.025 33.179C478.821 33.7661 478.544 34.2775 478.194 34.7131C477.848 35.1534 477.41 35.492 476.88 35.7287C476.349 35.9702 475.71 36.0909 474.962 36.0909ZM483.295 32L483.281 29.5994H483.643C483.898 29.5994 484.119 29.5379 484.303 29.4148C484.493 29.2869 484.649 29.081 484.772 28.7969C484.895 28.5128 484.992 28.1364 485.063 27.6676C485.134 27.1941 485.182 26.6117 485.205 25.9205L485.383 21.0909H493.678V32H490.795V23.4702H488.103L487.933 26.8011C487.89 27.715 487.779 28.5009 487.599 29.1591C487.424 29.8172 487.18 30.357 486.867 30.7784C486.555 31.1951 486.178 31.5028 485.738 31.7017C485.298 31.9006 484.786 32 484.204 32H483.295ZM497.92 24.4432H501.18C502.624 24.4432 503.751 24.7888 504.561 25.4801C505.37 26.1667 505.775 27.0852 505.775 28.2358C505.775 28.9839 505.593 29.642 505.228 30.2102C504.864 30.7737 504.338 31.214 503.652 31.5312C502.965 31.8438 502.141 32 501.18 32H496.024V21.0909H498.914V29.6207H501.18C501.687 29.6207 502.103 29.4929 502.43 29.2372C502.757 28.9815 502.922 28.6548 502.927 28.2571C502.922 27.8357 502.757 27.4924 502.43 27.2273C502.103 26.9574 501.687 26.8224 501.18 26.8224H497.92V24.4432ZM506.081 23.4702V21.0909H515.967V23.4702H512.451V32H509.568V23.4702H506.081ZM520.692 28.0085L524.619 21.0909H527.602V32H524.719V25.0611L520.805 32H517.801V21.0909H520.692V28.0085ZM530.028 32V21.0909H534.68C536.024 21.0909 537.087 21.3466 537.869 21.858C538.65 22.3693 539.04 23.0961 539.04 24.0384C539.04 24.6302 538.82 25.1226 538.38 25.5156C537.94 25.9086 537.329 26.1738 536.548 26.3111C537.201 26.3584 537.757 26.5076 538.217 26.7585C538.681 27.0047 539.033 27.3243 539.275 27.7173C539.521 28.1103 539.644 28.5459 539.644 29.0241C539.644 29.6444 539.478 30.1771 539.147 30.6222C538.82 31.0672 538.34 31.4081 537.705 31.6449C537.076 31.8816 536.306 32 535.397 32H530.028ZM532.847 29.7344H535.397C535.818 29.7344 536.147 29.6349 536.384 29.4361C536.626 29.2325 536.746 28.9555 536.746 28.6051C536.746 28.2169 536.626 27.9115 536.384 27.6889C536.147 27.4664 535.818 27.3551 535.397 27.3551H532.847V29.7344ZM532.847 25.5795H534.744C535.047 25.5795 535.305 25.5369 535.518 25.4517C535.736 25.3617 535.901 25.2339 536.015 25.0682C536.133 24.9025 536.192 24.706 536.192 24.4787C536.192 24.1425 536.058 23.8797 535.788 23.6903C535.518 23.5009 535.148 23.4062 534.68 23.4062H532.847V25.5795ZM544.442 28.0085L548.369 21.0909H551.352V32H548.469V25.0611L544.555 32H541.551V21.0909H544.442V28.0085ZM553.778 36.0909V21.0909H556.761V22.9233H556.896C557.028 22.6297 557.22 22.3314 557.471 22.0284C557.727 21.7206 558.058 21.465 558.465 21.2614C558.877 21.053 559.388 20.9489 559.999 20.9489C560.795 20.9489 561.529 21.1572 562.201 21.5739C562.873 21.9858 563.411 22.6084 563.813 23.4418C564.216 24.2704 564.417 25.3097 564.417 26.5597C564.417 27.7765 564.22 28.804 563.827 29.642C563.439 30.4754 562.909 31.1075 562.237 31.5384C561.569 31.9645 560.821 32.1776 559.992 32.1776C559.405 32.1776 558.906 32.0805 558.494 31.8864C558.086 31.6922 557.753 31.4484 557.492 31.1548C557.232 30.8565 557.033 30.5559 556.896 30.2528H556.803V36.0909H553.778ZM556.739 26.5455C556.739 27.1941 556.829 27.7599 557.009 28.2429C557.189 28.7259 557.45 29.1023 557.79 29.3722C558.131 29.6373 558.546 29.7699 559.033 29.7699C559.526 29.7699 559.942 29.6349 560.283 29.3651C560.624 29.0904 560.882 28.7116 561.058 28.2287C561.237 27.741 561.327 27.1799 561.327 26.5455C561.327 25.9157 561.24 25.3617 561.065 24.8835C560.889 24.4053 560.631 24.0312 560.29 23.7614C559.95 23.4915 559.531 23.3565 559.033 23.3565C558.541 23.3565 558.124 23.4867 557.783 23.7472C557.447 24.0076 557.189 24.3769 557.009 24.8551C556.829 25.3333 556.739 25.8968 556.739 26.5455ZM571.363 32.2131C570.26 32.2131 569.306 31.9787 568.501 31.5099C567.701 31.0365 567.083 30.3783 566.647 29.5355C566.211 28.688 565.994 27.7055 565.994 26.5881C565.994 25.4612 566.211 24.4763 566.647 23.6335C567.083 22.786 567.701 22.1278 568.501 21.6591C569.306 21.1856 570.26 20.9489 571.363 20.9489C572.466 20.9489 573.418 21.1856 574.218 21.6591C575.023 22.1278 575.643 22.786 576.079 23.6335C576.514 24.4763 576.732 25.4612 576.732 26.5881C576.732 27.7055 576.514 28.688 576.079 29.5355C575.643 30.3783 575.023 31.0365 574.218 31.5099C573.418 31.9787 572.466 32.2131 571.363 32.2131ZM571.377 29.8693C571.879 29.8693 572.298 29.7273 572.634 29.4432C572.97 29.1544 573.224 28.7614 573.394 28.2642C573.569 27.767 573.657 27.2012 573.657 26.5668C573.657 25.9323 573.569 25.3665 573.394 24.8693C573.224 24.3722 572.97 23.9792 572.634 23.6903C572.298 23.4015 571.879 23.2571 571.377 23.2571C570.871 23.2571 570.444 23.4015 570.099 23.6903C569.758 23.9792 569.5 24.3722 569.325 24.8693C569.154 25.3665 569.069 25.9323 569.069 26.5668C569.069 27.2012 569.154 27.767 569.325 28.2642C569.5 28.7614 569.758 29.1544 570.099 29.4432C570.444 29.7273 570.871 29.8693 571.377 29.8693ZM578.7 32V21.0909H583.352C584.696 21.0909 585.759 21.3466 586.54 21.858C587.322 22.3693 587.712 23.0961 587.712 24.0384C587.712 24.6302 587.492 25.1226 587.052 25.5156C586.612 25.9086 586.001 26.1738 585.219 26.3111C585.873 26.3584 586.429 26.5076 586.888 26.7585C587.353 27.0047 587.705 27.3243 587.947 27.7173C588.193 28.1103 588.316 28.5459 588.316 29.0241C588.316 29.6444 588.15 30.1771 587.819 30.6222C587.492 31.0672 587.012 31.4081 586.377 31.6449C585.747 31.8816 584.978 32 584.069 32H578.7ZM581.519 29.7344H584.069C584.49 29.7344 584.819 29.6349 585.056 29.4361C585.298 29.2325 585.418 28.9555 585.418 28.6051C585.418 28.2169 585.298 27.9115 585.056 27.6889C584.819 27.4664 584.49 27.3551 584.069 27.3551H581.519V29.7344ZM581.519 25.5795H583.415C583.719 25.5795 583.977 25.5369 584.19 25.4517C584.407 25.3617 584.573 25.2339 584.687 25.0682C584.805 24.9025 584.864 24.706 584.864 24.4787C584.864 24.1425 584.729 23.8797 584.46 23.6903C584.19 23.5009 583.82 23.4062 583.352 23.4062H581.519V25.5795ZM593.334 32.206C592.638 32.206 592.018 32.0852 591.473 31.8438C590.929 31.5975 590.498 31.2353 590.18 30.7571C589.868 30.2741 589.712 29.6728 589.712 28.9531C589.712 28.3471 589.823 27.8381 590.045 27.4261C590.268 27.0142 590.571 26.6828 590.955 26.4318C591.338 26.1809 591.774 25.9915 592.261 25.8636C592.754 25.7358 593.27 25.6458 593.81 25.5938C594.444 25.5275 594.955 25.4659 595.344 25.4091C595.732 25.3475 596.014 25.2576 596.189 25.1392C596.364 25.0208 596.452 24.8456 596.452 24.6136V24.571C596.452 24.1212 596.31 23.7732 596.026 23.527C595.746 23.2808 595.348 23.1577 594.832 23.1577C594.288 23.1577 593.855 23.2784 593.533 23.5199C593.211 23.7566 592.998 24.0549 592.893 24.4148L590.095 24.1875C590.237 23.5246 590.517 22.9517 590.933 22.4688C591.35 21.9811 591.887 21.607 592.545 21.3466C593.208 21.0814 593.975 20.9489 594.847 20.9489C595.453 20.9489 596.033 21.0199 596.587 21.1619C597.145 21.304 597.64 21.5241 598.071 21.8224C598.507 22.1207 598.85 22.5043 599.101 22.973C599.352 23.437 599.477 23.9934 599.477 24.642V32H596.608V30.4872H596.523C596.348 30.8281 596.113 31.1288 595.82 31.3892C595.526 31.6449 595.173 31.8461 594.761 31.9929C594.349 32.1349 593.874 32.206 593.334 32.206ZM594.2 30.1179C594.645 30.1179 595.038 30.0303 595.379 29.8551C595.72 29.6752 595.988 29.4337 596.182 29.1307C596.376 28.8277 596.473 28.4844 596.473 28.1009V26.9432C596.378 27.0047 596.248 27.0616 596.082 27.1136C595.921 27.161 595.739 27.206 595.536 27.2486C595.332 27.2865 595.128 27.322 594.925 27.3551C594.721 27.3835 594.536 27.4096 594.371 27.4332C594.016 27.4853 593.705 27.5682 593.44 27.6818C593.175 27.7955 592.969 27.9493 592.822 28.1435C592.676 28.3329 592.602 28.5696 592.602 28.8537C592.602 29.2656 592.751 29.5805 593.05 29.7983C593.353 30.0114 593.736 30.1179 594.2 30.1179ZM600.729 23.4702V21.0909H610.615V23.4702H607.1V32H604.216V23.4702H600.729ZM614.346 24.4432H617.606C619.05 24.4432 620.177 24.7888 620.987 25.4801C621.796 26.1667 622.201 27.0852 622.201 28.2358C622.201 28.9839 622.019 29.642 621.654 30.2102C621.29 30.7737 620.764 31.214 620.077 31.5312C619.391 31.8438 618.567 32 617.606 32H612.45V21.0909H615.34V29.6207H617.606C618.112 29.6207 618.529 29.4929 618.856 29.2372C619.183 28.9815 619.348 28.6548 619.353 28.2571C619.348 27.8357 619.183 27.4924 618.856 27.2273C618.529 26.9574 618.112 26.8224 617.606 26.8224H614.346V24.4432ZM23.0266 45.0909V47.4702H18.4954V56H15.555V45.0909H23.0266ZM26.7393 60.0909C26.3558 60.0909 25.996 60.0601 25.6598 59.9986C25.3284 59.9418 25.0537 59.8684 24.8359 59.7784L25.5178 57.5199C25.8729 57.6288 26.1925 57.688 26.4766 57.6974C26.7654 57.7069 27.014 57.6406 27.2223 57.4986C27.4354 57.3565 27.6082 57.1151 27.7408 56.7741L27.9183 56.3125L24.005 45.0909H27.1868L29.4453 53.1023H29.5589L31.8388 45.0909H35.0419L30.8018 57.179C30.5982 57.7661 30.3213 58.2775 29.9709 58.7131C29.6252 59.1534 29.1873 59.492 28.657 59.7287C28.1267 59.9702 27.4875 60.0909 26.7393 60.0909ZM43.0391 52.6548L45.9936 45.0909H48.2947L44.0405 56H42.0305L37.8757 45.0909H40.1697L43.0391 52.6548ZM39.4808 45.0909V56H36.5902V45.0909H39.4808ZM46.7464 56V45.0909H49.6016V56H46.7464ZM55.0526 56.206C54.3565 56.206 53.7363 56.0852 53.1918 55.8438C52.6473 55.5975 52.2164 55.2353 51.8991 54.7571C51.5866 54.2741 51.4304 53.6728 51.4304 52.9531C51.4304 52.3471 51.5417 51.8381 51.7642 51.4261C51.9867 51.0142 52.2898 50.6828 52.6733 50.4318C53.0568 50.1809 53.4924 49.9915 53.9801 49.8636C54.4725 49.7358 54.9886 49.6458 55.5284 49.5938C56.1629 49.5275 56.6742 49.4659 57.0625 49.4091C57.4508 49.3475 57.7325 49.2576 57.9077 49.1392C58.0829 49.0208 58.1705 48.8456 58.1705 48.6136V48.571C58.1705 48.1212 58.0284 47.7732 57.7443 47.527C57.465 47.2808 57.0672 47.1577 56.5511 47.1577C56.0066 47.1577 55.5734 47.2784 55.2514 47.5199C54.9295 47.7566 54.7164 48.0549 54.6122 48.4148L51.8139 48.1875C51.956 47.5246 52.2353 46.9517 52.652 46.4688C53.0687 45.9811 53.6061 45.607 54.2642 45.3466C54.9271 45.0814 55.6941 44.9489 56.5653 44.9489C57.1714 44.9489 57.7514 45.0199 58.3054 45.1619C58.8641 45.304 59.3589 45.5241 59.7898 45.8224C60.2254 46.1207 60.5687 46.5043 60.8196 46.973C61.0705 47.437 61.196 47.9934 61.196 48.642V56H58.3267V54.4872H58.2415C58.0663 54.8281 57.8319 55.1288 57.5384 55.3892C57.2448 55.6449 56.892 55.8461 56.4801 55.9929C56.0682 56.1349 55.5923 56.206 55.0526 56.206ZM55.919 54.1179C56.3641 54.1179 56.7571 54.0303 57.098 53.8551C57.4389 53.6752 57.7064 53.4337 57.9006 53.1307C58.0947 52.8277 58.1918 52.4844 58.1918 52.1009V50.9432C58.0971 51.0047 57.9669 51.0616 57.8011 51.1136C57.6402 51.161 57.4579 51.206 57.2543 51.2486C57.0507 51.2865 56.8471 51.322 56.6435 51.3551C56.4399 51.3835 56.2552 51.4096 56.0895 51.4332C55.7344 51.4853 55.4242 51.5682 55.1591 51.6818C54.8939 51.7955 54.688 51.9493 54.5412 52.1435C54.3944 52.3329 54.321 52.5696 54.321 52.8537C54.321 53.2656 54.4702 53.5805 54.7685 53.7983C55.0715 54.0114 55.455 54.1179 55.919 54.1179ZM71.1357 49.3381V51.7173H65.4396V49.3381H71.1357ZM66.4339 45.0909V56H63.5433V45.0909H66.4339ZM73.032 45.0909V56H70.1626V45.0909H73.032ZM78.2699 52.0085L82.1974 45.0909H85.1804V56H82.2969V49.0611L78.3835 56H75.3793V45.0909H78.2699V52.0085ZM92.5348 56.2131C91.4174 56.2131 90.4562 55.9763 89.6513 55.5028C88.8511 55.0246 88.2356 54.3617 87.8047 53.5142C87.3786 52.6667 87.1655 51.6913 87.1655 50.5881C87.1655 49.4706 87.3809 48.4905 87.8118 47.6477C88.2474 46.8002 88.8653 46.1397 89.6655 45.6662C90.4657 45.188 91.4174 44.9489 92.5206 44.9489C93.4723 44.9489 94.3056 45.1217 95.0206 45.4673C95.7356 45.813 96.3014 46.2983 96.718 46.9233C97.1347 47.5483 97.3643 48.2822 97.407 49.125H94.5518C94.4714 48.5805 94.2583 48.1425 93.9126 47.8111C93.5717 47.4749 93.1243 47.3068 92.5703 47.3068C92.1016 47.3068 91.692 47.4347 91.3416 47.6903C90.996 47.9413 90.7261 48.3082 90.532 48.7912C90.3378 49.2741 90.2408 49.8589 90.2408 50.5455C90.2408 51.2415 90.3355 51.8333 90.5249 52.321C90.719 52.8087 90.9912 53.1804 91.3416 53.4361C91.692 53.6918 92.1016 53.8196 92.5703 53.8196C92.916 53.8196 93.2261 53.7486 93.5007 53.6065C93.7801 53.4645 94.0097 53.2585 94.1896 52.9886C94.3743 52.714 94.495 52.3849 94.5518 52.0014H97.407C97.3596 52.8348 97.1323 53.5687 96.7251 54.2031C96.3227 54.8329 95.7663 55.3253 95.0561 55.6804C94.3459 56.0355 93.5054 56.2131 92.5348 56.2131ZM98.6001 47.4702V45.0909H108.487V47.4702H104.971V56H102.087V47.4702H98.6001ZM113.211 52.0085L117.139 45.0909H120.122V56H117.238V49.0611L113.325 56H110.321V45.0909H113.211V52.0085ZM132.015 45.0909V56H129.145V45.0909H132.015ZM130.615 49.8778V52.2642C130.383 52.3684 130.095 52.4678 129.749 52.5625C129.403 52.6525 129.041 52.7259 128.662 52.7827C128.283 52.8395 127.928 52.8679 127.597 52.8679C126.03 52.8679 124.796 52.5459 123.897 51.902C122.997 51.2533 122.547 50.2187 122.547 48.7983V45.0767H125.402V48.7983C125.402 49.2197 125.473 49.5535 125.615 49.7997C125.762 50.0459 125.994 50.2235 126.311 50.3324C126.633 50.4366 127.062 50.4886 127.597 50.4886C128.094 50.4886 128.582 50.4366 129.06 50.3324C129.538 50.2282 130.057 50.0767 130.615 49.8778ZM139.335 56.2131C138.213 56.2131 137.247 55.9858 136.438 55.5312C135.633 55.072 135.012 54.4233 134.577 53.5852C134.141 52.7424 133.923 51.7457 133.923 50.5952C133.923 49.473 134.141 48.4882 134.577 47.6406C135.012 46.7931 135.625 46.1326 136.416 45.6591C137.212 45.1856 138.144 44.9489 139.214 44.9489C139.934 44.9489 140.604 45.0649 141.224 45.2969C141.849 45.5241 142.394 45.8674 142.858 46.3267C143.327 46.786 143.691 47.3636 143.952 48.0597C144.212 48.7509 144.342 49.5606 144.342 50.4886V51.3196H135.131V49.4446H141.494C141.494 49.009 141.4 48.6231 141.21 48.2869C141.021 47.9508 140.758 47.688 140.422 47.4986C140.09 47.3045 139.705 47.2074 139.264 47.2074C138.805 47.2074 138.398 47.3139 138.043 47.527C137.692 47.7353 137.418 48.017 137.219 48.3722C137.02 48.7225 136.918 49.1132 136.913 49.544V51.3267C136.913 51.8665 137.013 52.3329 137.212 52.7259C137.415 53.1188 137.702 53.4219 138.071 53.6349C138.44 53.848 138.878 53.9545 139.385 53.9545C139.721 53.9545 140.029 53.9072 140.308 53.8125C140.588 53.7178 140.827 53.5758 141.026 53.3864C141.224 53.197 141.376 52.965 141.48 52.6903L144.278 52.875C144.136 53.5473 143.845 54.1345 143.405 54.6364C142.969 55.1335 142.406 55.5218 141.714 55.8011C141.028 56.0758 140.235 56.2131 139.335 56.2131ZM151.246 56.2131C150.128 56.2131 149.167 55.9763 148.362 55.5028C147.562 55.0246 146.946 54.3617 146.516 53.5142C146.089 52.6667 145.876 51.6913 145.876 50.5881C145.876 49.4706 146.092 48.4905 146.523 47.6477C146.958 46.8002 147.576 46.1397 148.376 45.6662C149.177 45.188 150.128 44.9489 151.232 44.9489C152.183 44.9489 153.017 45.1217 153.732 45.4673C154.446 45.813 155.012 46.2983 155.429 46.9233C155.846 47.5483 156.075 48.2822 156.118 49.125H153.263C153.182 48.5805 152.969 48.1425 152.624 47.8111C152.283 47.4749 151.835 47.3068 151.281 47.3068C150.812 47.3068 150.403 47.4347 150.053 47.6903C149.707 47.9413 149.437 48.3082 149.243 48.7912C149.049 49.2741 148.952 49.8589 148.952 50.5455C148.952 51.2415 149.046 51.8333 149.236 52.321C149.43 52.8087 149.702 53.1804 150.053 53.4361C150.403 53.6918 150.812 53.8196 151.281 53.8196C151.627 53.8196 151.937 53.7486 152.212 53.6065C152.491 53.4645 152.721 53.2585 152.901 52.9886C153.085 52.714 153.206 52.3849 153.263 52.0014H156.118C156.071 52.8348 155.843 53.5687 155.436 54.2031C155.034 54.8329 154.477 55.3253 153.767 55.6804C153.057 56.0355 152.216 56.2131 151.246 56.2131ZM158.055 56V45.0909H161.081V49.3239H161.933L164.902 45.0909H168.453L164.596 50.5028L168.495 56H164.902L162.21 52.1293H161.081V56H158.055ZM172.664 52.0085L176.592 45.0909H179.575V56H176.691V49.0611L172.778 56H169.774V45.0909H172.664V52.0085ZM186.972 56.2131C185.85 56.2131 184.884 55.9858 184.074 55.5312C183.269 55.072 182.649 54.4233 182.213 53.5852C181.778 52.7424 181.56 51.7457 181.56 50.5952C181.56 49.473 181.778 48.4882 182.213 47.6406C182.649 46.7931 183.262 46.1326 184.053 45.6591C184.848 45.1856 185.781 44.9489 186.851 44.9489C187.571 44.9489 188.241 45.0649 188.861 45.2969C189.486 45.5241 190.031 45.8674 190.495 46.3267C190.963 46.786 191.328 47.3636 191.588 48.0597C191.849 48.7509 191.979 49.5606 191.979 50.4886V51.3196H182.767V49.4446H189.131C189.131 49.009 189.036 48.6231 188.847 48.2869C188.658 47.9508 188.395 47.688 188.059 47.4986C187.727 47.3045 187.341 47.2074 186.901 47.2074C186.442 47.2074 186.034 47.3139 185.679 47.527C185.329 47.7353 185.054 48.017 184.855 48.3722C184.657 48.7225 184.555 49.1132 184.55 49.544V51.3267C184.55 51.8665 184.65 52.3329 184.848 52.7259C185.052 53.1188 185.338 53.4219 185.708 53.6349C186.077 53.848 186.515 53.9545 187.022 53.9545C187.358 53.9545 187.666 53.9072 187.945 53.8125C188.224 53.7178 188.463 53.5758 188.662 53.3864C188.861 53.197 189.013 52.965 189.117 52.6903L191.915 52.875C191.773 53.5473 191.482 54.1345 191.042 54.6364C190.606 55.1335 190.042 55.5218 189.351 55.8011C188.665 56.0758 187.872 56.2131 186.972 56.2131ZM201.473 52.0085L205.401 45.0909H208.384V56H205.5V49.0611L201.587 56H198.582V45.0909H201.473V52.0085ZM209.957 59.196V53.5994H210.795C211.036 53.4479 211.23 53.2064 211.377 52.875C211.529 52.5436 211.652 52.1529 211.746 51.7031C211.846 51.2533 211.922 50.768 211.974 50.2472C212.031 49.7216 212.08 49.1913 212.123 48.6562L212.407 45.0909H220.773V53.5994H222.464V59.196H219.58V56H212.911V59.196H209.957ZM213.806 53.5994H217.918V47.4205H214.978L214.864 48.6562C214.784 49.821 214.668 50.8106 214.516 51.625C214.365 52.4347 214.128 53.0928 213.806 53.5994ZM229.199 56.2131C228.076 56.2131 227.11 55.9858 226.301 55.5312C225.496 55.072 224.876 54.4233 224.44 53.5852C224.004 52.7424 223.787 51.7457 223.787 50.5952C223.787 49.473 224.004 48.4882 224.44 47.6406C224.876 46.7931 225.489 46.1326 226.279 45.6591C227.075 45.1856 228.008 44.9489 229.078 44.9489C229.797 44.9489 230.467 45.0649 231.088 45.2969C231.713 45.5241 232.257 45.8674 232.721 46.3267C233.19 46.786 233.555 47.3636 233.815 48.0597C234.075 48.7509 234.206 49.5606 234.206 50.4886V51.3196H224.994V49.4446H231.358C231.358 49.009 231.263 48.6231 231.074 48.2869C230.884 47.9508 230.621 47.688 230.285 47.4986C229.954 47.3045 229.568 47.2074 229.127 47.2074C228.668 47.2074 228.261 47.3139 227.906 47.527C227.556 47.7353 227.281 48.017 227.082 48.3722C226.883 48.7225 226.781 49.1132 226.777 49.544V51.3267C226.777 51.8665 226.876 52.3329 227.075 52.7259C227.279 53.1188 227.565 53.4219 227.934 53.6349C228.304 53.848 228.742 53.9545 229.248 53.9545C229.584 53.9545 229.892 53.9072 230.172 53.8125C230.451 53.7178 230.69 53.5758 230.889 53.3864C231.088 53.197 231.239 52.965 231.343 52.6903L234.142 52.875C234 53.5473 233.708 54.1345 233.268 54.6364C232.833 55.1335 232.269 55.5218 231.578 55.8011C230.891 56.0758 230.098 56.2131 229.199 56.2131ZM239.291 56.206C238.595 56.206 237.975 56.0852 237.43 55.8438C236.886 55.5975 236.455 55.2353 236.137 54.7571C235.825 54.2741 235.669 53.6728 235.669 52.9531C235.669 52.3471 235.78 51.8381 236.002 51.4261C236.225 51.0142 236.528 50.6828 236.912 50.4318C237.295 50.1809 237.731 49.9915 238.218 49.8636C238.711 49.7358 239.227 49.6458 239.767 49.5938C240.401 49.5275 240.913 49.4659 241.301 49.4091C241.689 49.3475 241.971 49.2576 242.146 49.1392C242.321 49.0208 242.409 48.8456 242.409 48.6136V48.571C242.409 48.1212 242.267 47.7732 241.983 47.527C241.703 47.2808 241.306 47.1577 240.789 47.1577C240.245 47.1577 239.812 47.2784 239.49 47.5199C239.168 47.7566 238.955 48.0549 238.85 48.4148L236.052 48.1875C236.194 47.5246 236.474 46.9517 236.89 46.4688C237.307 45.9811 237.844 45.607 238.502 45.3466C239.165 45.0814 239.932 44.9489 240.804 44.9489C241.41 44.9489 241.99 45.0199 242.544 45.1619C243.102 45.304 243.597 45.5241 244.028 45.8224C244.464 46.1207 244.807 46.5043 245.058 46.973C245.309 47.437 245.434 47.9934 245.434 48.642V56H242.565V54.4872H242.48C242.305 54.8281 242.07 55.1288 241.777 55.3892C241.483 55.6449 241.13 55.8461 240.718 55.9929C240.306 56.1349 239.831 56.206 239.291 56.206ZM240.157 54.1179C240.602 54.1179 240.995 54.0303 241.336 53.8551C241.677 53.6752 241.945 53.4337 242.139 53.1307C242.333 52.8277 242.43 52.4844 242.43 52.1009V50.9432C242.335 51.0047 242.205 51.0616 242.039 51.1136C241.878 51.161 241.696 51.206 241.493 51.2486C241.289 51.2865 241.085 51.322 240.882 51.3551C240.678 51.3835 240.493 51.4096 240.328 51.4332C239.973 51.4853 239.663 51.5682 239.397 51.6818C239.132 51.7955 238.926 51.9493 238.779 52.1435C238.633 52.3329 238.559 52.5696 238.559 52.8537C238.559 53.2656 238.708 53.5805 239.007 53.7983C239.31 54.0114 239.693 54.1179 240.157 54.1179ZM247.142 56L247.128 53.5994H247.49C247.746 53.5994 247.966 53.5379 248.151 53.4148C248.34 53.2869 248.497 53.081 248.62 52.7969C248.743 52.5128 248.84 52.1364 248.911 51.6676C248.982 51.1941 249.029 50.6117 249.053 49.9205L249.23 45.0909H257.526V56H254.642V47.4702H251.951L251.78 50.8011C251.738 51.715 251.626 52.5009 251.446 53.1591C251.271 53.8172 251.027 54.357 250.715 54.7784C250.402 55.1951 250.026 55.5028 249.586 55.7017C249.145 55.9006 248.634 56 248.051 56H247.142ZM261.768 48.4432H265.028C266.472 48.4432 267.599 48.7888 268.408 49.4801C269.218 50.1667 269.623 51.0852 269.623 52.2358C269.623 52.9839 269.441 53.642 269.076 54.2102C268.711 54.7737 268.186 55.214 267.499 55.5312C266.813 55.8438 265.989 56 265.028 56H259.871V45.0909H262.762V53.6207H265.028C265.534 53.6207 265.951 53.4929 266.278 53.2372C266.604 52.9815 266.77 52.6548 266.775 52.2571C266.77 51.8357 266.604 51.4924 266.278 51.2273C265.951 50.9574 265.534 50.8224 265.028 50.8224H261.768V48.4432ZM270.795 56V45.0909H273.82V56H270.795ZM283.758 52.0085L287.686 45.0909H290.669V56H287.785V49.0611L283.872 56H280.868V45.0909H283.758V52.0085ZM307.261 45.0909V53.9119H309.001V59.5085H306.061V56H297.723V45.0909H300.614V53.6207H304.406V45.0909H307.261ZM315.722 56.2131C314.6 56.2131 313.634 55.9858 312.824 55.5312C312.019 55.072 311.399 54.4233 310.963 53.5852C310.528 52.7424 310.31 51.7457 310.31 50.5952C310.31 49.473 310.528 48.4882 310.963 47.6406C311.399 46.7931 312.012 46.1326 312.803 45.6591C313.598 45.1856 314.531 44.9489 315.601 44.9489C316.321 44.9489 316.991 45.0649 317.611 45.2969C318.236 45.5241 318.781 45.8674 319.245 46.3267C319.713 46.786 320.078 47.3636 320.338 48.0597C320.599 48.7509 320.729 49.5606 320.729 50.4886V51.3196H311.517V49.4446H317.881C317.881 49.009 317.786 48.6231 317.597 48.2869C317.408 47.9508 317.145 47.688 316.809 47.4986C316.477 47.3045 316.091 47.2074 315.651 47.2074C315.192 47.2074 314.784 47.3139 314.429 47.527C314.079 47.7353 313.804 48.017 313.605 48.3722C313.407 48.7225 313.305 49.1132 313.3 49.544V51.3267C313.3 51.8665 313.4 52.3329 313.598 52.7259C313.802 53.1188 314.088 53.4219 314.458 53.6349C314.827 53.848 315.265 53.9545 315.772 53.9545C316.108 53.9545 316.416 53.9072 316.695 53.8125C316.974 53.7178 317.213 53.5758 317.412 53.3864C317.611 53.197 317.763 52.965 317.867 52.6903L320.665 52.875C320.523 53.5473 320.232 54.1345 319.792 54.6364C319.356 55.1335 318.792 55.5218 318.101 55.8011C317.415 56.0758 316.622 56.2131 315.722 56.2131ZM330.296 49.3381V51.7173H324.6V49.3381H330.296ZM325.594 45.0909V56H322.703V45.0909H325.594ZM332.192 45.0909V56H329.323V45.0909H332.192ZM342.132 49.3381V51.7173H336.436V49.3381H342.132ZM337.43 45.0909V56H334.539V45.0909H337.43ZM344.028 45.0909V56H341.159V45.0909H344.028ZM351.304 56.2131C350.201 56.2131 349.247 55.9787 348.442 55.5099C347.642 55.0365 347.024 54.3783 346.588 53.5355C346.153 52.688 345.935 51.7055 345.935 50.5881C345.935 49.4612 346.153 48.4763 346.588 47.6335C347.024 46.786 347.642 46.1278 348.442 45.6591C349.247 45.1856 350.201 44.9489 351.304 44.9489C352.408 44.9489 353.359 45.1856 354.159 45.6591C354.964 46.1278 355.585 46.786 356.02 47.6335C356.456 48.4763 356.674 49.4612 356.674 50.5881C356.674 51.7055 356.456 52.688 356.02 53.5355C355.585 54.3783 354.964 55.0365 354.159 55.5099C353.359 55.9787 352.408 56.2131 351.304 56.2131ZM351.319 53.8693C351.82 53.8693 352.239 53.7273 352.576 53.4432C352.912 53.1544 353.165 52.7614 353.336 52.2642C353.511 51.767 353.598 51.2012 353.598 50.5668C353.598 49.9323 353.511 49.3665 353.336 48.8693C353.165 48.3722 352.912 47.9792 352.576 47.6903C352.239 47.4015 351.82 47.2571 351.319 47.2571C350.812 47.2571 350.386 47.4015 350.04 47.6903C349.699 47.9792 349.441 48.3722 349.266 48.8693C349.096 49.3665 349.01 49.9323 349.01 50.5668C349.01 51.2012 349.096 51.767 349.266 52.2642C349.441 52.7614 349.699 53.1544 350.04 53.4432C350.386 53.7273 350.812 53.8693 351.319 53.8693ZM363.57 56.2131C362.453 56.2131 361.491 55.9763 360.686 55.5028C359.886 55.0246 359.271 54.3617 358.84 53.5142C358.414 52.6667 358.201 51.6913 358.201 50.5881C358.201 49.4706 358.416 48.4905 358.847 47.6477C359.283 46.8002 359.9 46.1397 360.701 45.6662C361.501 45.188 362.453 44.9489 363.556 44.9489C364.507 44.9489 365.341 45.1217 366.056 45.4673C366.771 45.813 367.337 46.2983 367.753 46.9233C368.17 47.5483 368.4 48.2822 368.442 49.125H365.587C365.507 48.5805 365.293 48.1425 364.948 47.8111C364.607 47.4749 364.159 47.3068 363.605 47.3068C363.137 47.3068 362.727 47.4347 362.377 47.6903C362.031 47.9413 361.761 48.3082 361.567 48.7912C361.373 49.2741 361.276 49.8589 361.276 50.5455C361.276 51.2415 361.371 51.8333 361.56 52.321C361.754 52.8087 362.026 53.1804 362.377 53.4361C362.727 53.6918 363.137 53.8196 363.605 53.8196C363.951 53.8196 364.261 53.7486 364.536 53.6065C364.815 53.4645 365.045 53.2585 365.225 52.9886C365.409 52.714 365.53 52.3849 365.587 52.0014H368.442C368.395 52.8348 368.167 53.5687 367.76 54.2031C367.358 54.8329 366.801 55.3253 366.091 55.6804C365.381 56.0355 364.541 56.2131 363.57 56.2131ZM369.635 47.4702V45.0909H379.522V47.4702H376.006V56H373.123V47.4702H369.635ZM384.246 52.0085L388.174 45.0909H391.157V56H388.273V49.0611L384.36 56H381.356V45.0909H384.246V52.0085ZM396.871 54.0114L396.793 54.7926C396.731 55.4176 396.613 56.0402 396.438 56.6605C396.267 57.2855 396.087 57.8513 395.898 58.358C395.713 58.8646 395.564 59.2623 395.45 59.5511H393.49C393.561 59.2718 393.658 58.8812 393.781 58.3793C393.904 57.8821 394.02 57.3234 394.129 56.7031C394.238 56.0829 394.307 55.4508 394.335 54.8068L394.371 54.0114H396.871ZM403.582 56V45.0909H413.121V56H410.23V47.4702H406.438V56H403.582ZM415.536 60.0909V45.0909H418.518V46.9233H418.653C418.786 46.6297 418.978 46.3314 419.229 46.0284C419.484 45.7206 419.816 45.465 420.223 45.2614C420.635 45.053 421.146 44.9489 421.757 44.9489C422.553 44.9489 423.286 45.1572 423.959 45.5739C424.631 45.9858 425.169 46.6084 425.571 47.4418C425.973 48.2704 426.175 49.3097 426.175 50.5597C426.175 51.7765 425.978 52.804 425.585 53.642C425.197 54.4754 424.667 55.1075 423.994 55.5384C423.327 55.9645 422.579 56.1776 421.75 56.1776C421.163 56.1776 420.663 56.0805 420.251 55.8864C419.844 55.6922 419.51 55.4484 419.25 55.1548C418.99 54.8565 418.791 54.5559 418.653 54.2528H418.561V60.0909H415.536ZM418.497 50.5455C418.497 51.1941 418.587 51.7599 418.767 52.2429C418.947 52.7259 419.207 53.1023 419.548 53.3722C419.889 53.6373 420.304 53.7699 420.791 53.7699C421.284 53.7699 421.7 53.6349 422.041 53.3651C422.382 53.0904 422.64 52.7116 422.815 52.2287C422.995 51.741 423.085 51.1799 423.085 50.5455C423.085 49.9157 422.998 49.3617 422.822 48.8835C422.647 48.4053 422.389 48.0312 422.048 47.7614C421.707 47.4915 421.288 47.3565 420.791 47.3565C420.299 47.3565 419.882 47.4867 419.541 47.7472C419.205 48.0076 418.947 48.3769 418.767 48.8551C418.587 49.3333 418.497 49.8968 418.497 50.5455ZM431.082 52.0085L435.01 45.0909H437.993V56H435.109V49.0611L431.196 56H428.192V45.0909H431.082V52.0085ZM440.418 56V45.0909H445.07C446.415 45.0909 447.478 45.3466 448.259 45.858C449.04 46.3693 449.431 47.0961 449.431 48.0384C449.431 48.6302 449.211 49.1226 448.771 49.5156C448.33 49.9086 447.719 50.1738 446.938 50.3111C447.592 50.3584 448.148 50.5076 448.607 50.7585C449.071 51.0047 449.424 51.3243 449.665 51.7173C449.912 52.1103 450.035 52.5459 450.035 53.0241C450.035 53.6444 449.869 54.1771 449.538 54.6222C449.211 55.0672 448.73 55.4081 448.096 55.6449C447.466 55.8816 446.697 56 445.788 56H440.418ZM443.238 53.7344H445.788C446.209 53.7344 446.538 53.6349 446.775 53.4361C447.016 53.2325 447.137 52.9555 447.137 52.6051C447.137 52.2169 447.016 51.9115 446.775 51.6889C446.538 51.4664 446.209 51.3551 445.788 51.3551H443.238V53.7344ZM443.238 49.5795H445.134C445.437 49.5795 445.695 49.5369 445.908 49.4517C446.126 49.3617 446.292 49.2339 446.406 49.0682C446.524 48.9025 446.583 48.706 446.583 48.4787C446.583 48.1425 446.448 47.8797 446.178 47.6903C445.908 47.5009 445.539 47.4062 445.07 47.4062H443.238V49.5795ZM454.832 52.0085L458.76 45.0909H461.743V56H458.859V49.0611L454.946 56H451.942V45.0909H454.832V52.0085ZM464.168 56V45.0909H468.82C470.165 45.0909 471.228 45.3466 472.009 45.858C472.79 46.3693 473.181 47.0961 473.181 48.0384C473.181 48.6302 472.961 49.1226 472.521 49.5156C472.08 49.9086 471.469 50.1738 470.688 50.3111C471.342 50.3584 471.898 50.5076 472.357 50.7585C472.821 51.0047 473.174 51.3243 473.415 51.7173C473.662 52.1103 473.785 52.5459 473.785 53.0241C473.785 53.6444 473.619 54.1771 473.288 54.6222C472.961 55.0672 472.48 55.4081 471.846 55.6449C471.216 55.8816 470.447 56 469.538 56H464.168ZM466.988 53.7344H469.538C469.959 53.7344 470.288 53.6349 470.525 53.4361C470.766 53.2325 470.887 52.9555 470.887 52.6051C470.887 52.2169 470.766 51.9115 470.525 51.6889C470.288 51.4664 469.959 51.3551 469.538 51.3551H466.988V53.7344ZM466.988 49.5795H468.884C469.187 49.5795 469.445 49.5369 469.658 49.4517C469.876 49.3617 470.042 49.2339 470.156 49.0682C470.274 48.9025 470.333 48.706 470.333 48.4787C470.333 48.1425 470.198 47.8797 469.928 47.6903C469.658 47.5009 469.289 47.4062 468.82 47.4062H466.988V49.5795ZM478.803 56.206C478.107 56.206 477.486 56.0852 476.942 55.8438C476.397 55.5975 475.966 55.2353 475.649 54.7571C475.337 54.2741 475.18 53.6728 475.18 52.9531C475.18 52.3471 475.292 51.8381 475.514 51.4261C475.737 51.0142 476.04 50.6828 476.423 50.4318C476.807 50.1809 477.242 49.9915 477.73 49.8636C478.223 49.7358 478.739 49.6458 479.278 49.5938C479.913 49.5275 480.424 49.4659 480.812 49.4091C481.201 49.3475 481.482 49.2576 481.658 49.1392C481.833 49.0208 481.92 48.8456 481.92 48.6136V48.571C481.92 48.1212 481.778 47.7732 481.494 47.527C481.215 47.2808 480.817 47.1577 480.301 47.1577C479.757 47.1577 479.323 47.2784 479.001 47.5199C478.679 47.7566 478.466 48.0549 478.362 48.4148L475.564 48.1875C475.706 47.5246 475.985 46.9517 476.402 46.4688C476.819 45.9811 477.356 45.607 478.014 45.3466C478.677 45.0814 479.444 44.9489 480.315 44.9489C480.921 44.9489 481.501 45.0199 482.055 45.1619C482.614 45.304 483.109 45.5241 483.54 45.8224C483.975 46.1207 484.319 46.5043 484.57 46.973C484.821 47.437 484.946 47.9934 484.946 48.642V56H482.077V54.4872H481.991C481.816 54.8281 481.582 55.1288 481.288 55.3892C480.995 55.6449 480.642 55.8461 480.23 55.9929C479.818 56.1349 479.342 56.206 478.803 56.206ZM479.669 54.1179C480.114 54.1179 480.507 54.0303 480.848 53.8551C481.189 53.6752 481.456 53.4337 481.651 53.1307C481.845 52.8277 481.942 52.4844 481.942 52.1009V50.9432C481.847 51.0047 481.717 51.0616 481.551 51.1136C481.39 51.161 481.208 51.206 481.004 51.2486C480.801 51.2865 480.597 51.322 480.393 51.3551C480.19 51.3835 480.005 51.4096 479.839 51.4332C479.484 51.4853 479.174 51.5682 478.909 51.6818C478.644 51.7955 478.438 51.9493 478.291 52.1435C478.144 52.3329 478.071 52.5696 478.071 52.8537C478.071 53.2656 478.22 53.5805 478.518 53.7983C478.821 54.0114 479.205 54.1179 479.669 54.1179ZM486.198 47.4702V45.0909H496.084V47.4702H492.569V56H489.685V47.4702H486.198ZM499.815 48.4432H503.075C504.519 48.4432 505.646 48.7888 506.455 49.4801C507.265 50.1667 507.67 51.0852 507.67 52.2358C507.67 52.9839 507.487 53.642 507.123 54.2102C506.758 54.7737 506.233 55.214 505.546 55.5312C504.86 55.8438 504.036 56 503.075 56H497.918V45.0909H500.809V53.6207H503.075C503.581 53.6207 503.998 53.4929 504.325 53.2372C504.651 52.9815 504.817 52.6548 504.822 52.2571C504.817 51.8357 504.651 51.4924 504.325 51.2273C503.998 50.9574 503.581 50.8224 503.075 50.8224H499.815V48.4432ZM517.196 52.0085L521.123 45.0909H524.106V56H521.223V49.0611L517.309 56H514.305V45.0909H517.196V52.0085ZM529.06 45.0909L531.063 48.9048L533.115 45.0909H536.219L533.059 50.5455L536.304 56H533.215L531.063 52.2287L528.946 56H525.821L529.06 50.5455L525.935 45.0909H529.06ZM552.112 45.0909V56H549.243V45.0909H552.112ZM550.713 49.8778V52.2642C550.481 52.3684 550.192 52.4678 549.847 52.5625C549.501 52.6525 549.139 52.7259 548.76 52.7827C548.381 52.8395 548.026 52.8679 547.695 52.8679C546.127 52.8679 544.894 52.5459 543.994 51.902C543.095 51.2533 542.645 50.2187 542.645 48.7983V45.0767H545.5V48.7983C545.5 49.2197 545.571 49.5535 545.713 49.7997C545.86 50.0459 546.092 50.2235 546.409 50.3324C546.731 50.4366 547.16 50.4886 547.695 50.4886C548.192 50.4886 548.679 50.4366 549.158 50.3324C549.636 50.2282 550.154 50.0767 550.713 49.8778ZM559.433 56.2131C558.311 56.2131 557.345 55.9858 556.535 55.5312C555.73 55.072 555.11 54.4233 554.674 53.5852C554.239 52.7424 554.021 51.7457 554.021 50.5952C554.021 49.473 554.239 48.4882 554.674 47.6406C555.11 46.7931 555.723 46.1326 556.514 45.6591C557.309 45.1856 558.242 44.9489 559.312 44.9489C560.032 44.9489 560.702 45.0649 561.322 45.2969C561.947 45.5241 562.492 45.8674 562.956 46.3267C563.424 46.786 563.789 47.3636 564.049 48.0597C564.31 48.7509 564.44 49.5606 564.44 50.4886V51.3196H555.228V49.4446H561.592C561.592 49.009 561.497 48.6231 561.308 48.2869C561.118 47.9508 560.856 47.688 560.52 47.4986C560.188 47.3045 559.802 47.2074 559.362 47.2074C558.903 47.2074 558.495 47.3139 558.14 47.527C557.79 47.7353 557.515 48.017 557.316 48.3722C557.118 48.7225 557.016 49.1132 557.011 49.544V51.3267C557.011 51.8665 557.11 52.3329 557.309 52.7259C557.513 53.1188 557.799 53.4219 558.169 53.6349C558.538 53.848 558.976 53.9545 559.483 53.9545C559.819 53.9545 560.127 53.9072 560.406 53.8125C560.685 53.7178 560.924 53.5758 561.123 53.3864C561.322 53.197 561.474 52.965 561.578 52.6903L564.376 52.875C564.234 53.5473 563.943 54.1345 563.502 54.6364C563.067 55.1335 562.503 55.5218 561.812 55.8011C561.126 56.0758 560.333 56.2131 559.433 56.2131ZM565.775 56L565.761 53.5994H566.123C566.379 53.5994 566.599 53.5379 566.784 53.4148C566.973 53.2869 567.129 53.081 567.252 52.7969C567.376 52.5128 567.473 52.1364 567.544 51.6676C567.615 51.1941 567.662 50.6117 567.686 49.9205L567.863 45.0909H576.159V56H573.275V47.4702H570.583L570.413 50.8011C570.37 51.715 570.259 52.5009 570.079 53.1591C569.904 53.8172 569.66 54.357 569.348 54.7784C569.035 55.1951 568.659 55.5028 568.218 55.7017C567.778 55.9006 567.267 56 566.684 56H565.775ZM583.433 56.2131C582.33 56.2131 581.376 55.9787 580.571 55.5099C579.771 55.0365 579.153 54.3783 578.717 53.5355C578.282 52.688 578.064 51.7055 578.064 50.5881C578.064 49.4612 578.282 48.4763 578.717 47.6335C579.153 46.786 579.771 46.1278 580.571 45.6591C581.376 45.1856 582.33 44.9489 583.433 44.9489C584.536 44.9489 585.488 45.1856 586.288 45.6591C587.093 46.1278 587.714 46.786 588.149 47.6335C588.585 48.4763 588.803 49.4612 588.803 50.5881C588.803 51.7055 588.585 52.688 588.149 53.5355C587.714 54.3783 587.093 55.0365 586.288 55.5099C585.488 55.9787 584.536 56.2131 583.433 56.2131ZM583.447 53.8693C583.949 53.8693 584.368 53.7273 584.705 53.4432C585.041 53.1544 585.294 52.7614 585.464 52.2642C585.64 51.767 585.727 51.2012 585.727 50.5668C585.727 49.9323 585.64 49.3665 585.464 48.8693C585.294 48.3722 585.041 47.9792 584.705 47.6903C584.368 47.4015 583.949 47.2571 583.447 47.2571C582.941 47.2571 582.515 47.4015 582.169 47.6903C581.828 47.9792 581.57 48.3722 581.395 48.8693C581.224 49.3665 581.139 49.9323 581.139 50.5668C581.139 51.2012 581.224 51.767 581.395 52.2642C581.57 52.7614 581.828 53.1544 582.169 53.4432C582.515 53.7273 582.941 53.8693 583.447 53.8693ZM590.77 56V45.0909H595.422C596.767 45.0909 597.83 45.3466 598.611 45.858C599.392 46.3693 599.783 47.0961 599.783 48.0384C599.783 48.6302 599.563 49.1226 599.122 49.5156C598.682 49.9086 598.071 50.1738 597.29 50.3111C597.943 50.3584 598.5 50.5076 598.959 50.7585C599.423 51.0047 599.776 51.3243 600.017 51.7173C600.263 52.1103 600.386 52.5459 600.386 53.0241C600.386 53.6444 600.221 54.1771 599.889 54.6222C599.563 55.0672 599.082 55.4081 598.447 55.6449C597.818 55.8816 597.048 56 596.139 56H590.77ZM593.589 53.7344H596.139C596.561 53.7344 596.89 53.6349 597.126 53.4361C597.368 53.2325 597.489 52.9555 597.489 52.6051C597.489 52.2169 597.368 51.9115 597.126 51.6889C596.89 51.4664 596.561 51.3551 596.139 51.3551H593.589V53.7344ZM593.589 49.5795H595.486C595.789 49.5795 596.047 49.5369 596.26 49.4517C596.478 49.3617 596.643 49.2339 596.757 49.0682C596.875 48.9025 596.935 48.706 596.935 48.4787C596.935 48.1425 596.8 47.8797 596.53 47.6903C596.26 47.5009 595.891 47.4062 595.422 47.4062H593.589V49.5795ZM607.265 56.2131C606.143 56.2131 605.177 55.9858 604.367 55.5312C603.562 55.072 602.942 54.4233 602.506 53.5852C602.071 52.7424 601.853 51.7457 601.853 50.5952C601.853 49.473 602.071 48.4882 602.506 47.6406C602.942 46.7931 603.555 46.1326 604.346 45.6591C605.141 45.1856 606.074 44.9489 607.144 44.9489C607.864 44.9489 608.534 45.0649 609.154 45.2969C609.779 45.5241 610.324 45.8674 610.788 46.3267C611.256 46.786 611.621 47.3636 611.881 48.0597C612.142 48.7509 612.272 49.5606 612.272 50.4886V51.3196H603.06V49.4446H609.424C609.424 49.009 609.329 48.6231 609.14 48.2869C608.951 47.9508 608.688 47.688 608.352 47.4986C608.02 47.3045 607.634 47.2074 607.194 47.2074C606.735 47.2074 606.327 47.3139 605.972 47.527C605.622 47.7353 605.347 48.017 605.148 48.3722C604.95 48.7225 604.848 49.1132 604.843 49.544V51.3267C604.843 51.8665 604.942 52.3329 605.141 52.7259C605.345 53.1188 605.631 53.4219 606.001 53.6349C606.37 53.848 606.808 53.9545 607.315 53.9545C607.651 53.9545 607.959 53.9072 608.238 53.8125C608.517 53.7178 608.756 53.5758 608.955 53.3864C609.154 53.197 609.306 52.965 609.41 52.6903L612.208 52.875C612.066 53.5473 611.775 54.1345 611.335 54.6364C610.899 55.1335 610.335 55.5218 609.644 55.8011C608.958 56.0758 608.165 56.2131 607.265 56.2131ZM614.246 56V45.0909H617.272V49.3239H618.124L621.093 45.0909H624.644L620.788 50.5028L624.687 56H621.093L618.401 52.1293H617.272V56H614.246ZM628.009 60.0909C627.625 60.0909 627.266 60.0601 626.929 59.9986C626.598 59.9418 626.323 59.8684 626.105 59.7784L626.787 57.5199C627.142 57.6288 627.462 57.688 627.746 57.6974C628.035 57.7069 628.283 57.6406 628.492 57.4986C628.705 57.3565 628.878 57.1151 629.01 56.7741L629.188 56.3125L625.275 45.0909H628.456L630.715 53.1023H630.828L633.108 45.0909H636.311L632.071 57.179C631.868 57.7661 631.591 58.2775 631.24 58.7131C630.895 59.1534 630.457 59.492 629.926 59.7287C629.396 59.9702 628.757 60.0909 628.009 60.0909ZM267.889 76.0085L271.817 69.0909H274.8V80H271.916V73.0611L268.003 80H264.998V69.0909H267.889V76.0085ZM286.783 80.2131C285.68 80.2131 284.726 79.9787 283.921 79.5099C283.12 79.0365 282.503 78.3783 282.067 77.5355C281.631 76.688 281.414 75.7055 281.414 74.5881C281.414 73.4612 281.631 72.4763 282.067 71.6335C282.503 70.786 283.12 70.1278 283.921 69.6591C284.726 69.1856 285.68 68.9489 286.783 68.9489C287.886 68.9489 288.838 69.1856 289.638 69.6591C290.443 70.1278 291.063 70.786 291.499 71.6335C291.934 72.4763 292.152 73.4612 292.152 74.5881C292.152 75.7055 291.934 76.688 291.499 77.5355C291.063 78.3783 290.443 79.0365 289.638 79.5099C288.838 79.9787 287.886 80.2131 286.783 80.2131ZM286.797 77.8693C287.299 77.8693 287.718 77.7273 288.054 77.4432C288.39 77.1544 288.644 76.7614 288.814 76.2642C288.989 75.767 289.077 75.2012 289.077 74.5668C289.077 73.9323 288.989 73.3665 288.814 72.8693C288.644 72.3722 288.39 71.9792 288.054 71.6903C287.718 71.4015 287.299 71.2571 286.797 71.2571C286.29 71.2571 285.864 71.4015 285.519 71.6903C285.178 71.9792 284.92 72.3722 284.744 72.8693C284.574 73.3665 284.489 73.9323 284.489 74.5668C284.489 75.2012 284.574 75.767 284.744 76.2642C284.92 76.7614 285.178 77.1544 285.519 77.4432C285.864 77.7273 286.29 77.8693 286.797 77.8693ZM303.189 65.0852L304.112 67.0597C303.805 67.3153 303.464 67.5047 303.09 67.6278C302.716 67.7462 302.268 67.8243 301.747 67.8622C301.231 67.9001 300.602 67.9261 299.858 67.9403C299.015 67.9498 298.329 68.0848 297.798 68.3452C297.268 68.6056 296.866 69.0152 296.591 69.5739C296.316 70.1278 296.137 70.8523 296.051 71.7472H296.158C296.485 71.0795 296.944 70.5634 297.536 70.1989C298.132 69.8343 298.869 69.652 299.744 69.652C300.673 69.652 301.485 69.8556 302.181 70.2628C302.881 70.67 303.426 71.2547 303.814 72.017C304.202 72.7794 304.396 73.6932 304.396 74.7585C304.396 75.8665 304.179 76.83 303.743 77.6491C303.312 78.4635 302.699 79.0956 301.904 79.5455C301.108 79.9905 300.161 80.2131 299.063 80.2131C297.959 80.2131 297.008 79.9811 296.208 79.517C295.412 79.053 294.797 78.3688 294.361 77.4645C293.93 76.5601 293.715 75.4474 293.715 74.1264V73.2315C293.715 70.6037 294.226 68.6553 295.249 67.3864C296.271 66.1174 297.775 65.4735 299.759 65.4545C300.298 65.4451 300.786 65.4427 301.222 65.4474C301.657 65.4522 302.039 65.4309 302.365 65.3835C302.697 65.3362 302.971 65.2367 303.189 65.0852ZM299.077 77.8693C299.541 77.8693 299.939 77.7486 300.27 77.5071C300.606 77.2656 300.864 76.92 301.044 76.4702C301.229 76.0204 301.321 75.483 301.321 74.858C301.321 74.2377 301.229 73.7121 301.044 73.2812C300.864 72.8456 300.606 72.5142 300.27 72.2869C299.934 72.0597 299.531 71.946 299.063 71.946C298.712 71.946 298.397 72.0099 298.118 72.1378C297.839 72.2656 297.6 72.455 297.401 72.706C297.207 72.9522 297.055 73.2576 296.946 73.6222C296.842 73.982 296.79 74.3939 296.79 74.858C296.79 75.7907 296.991 76.527 297.394 77.0668C297.801 77.6018 298.362 77.8693 299.077 77.8693ZM323.542 77.6207L323.329 83.125H320.552V80H319.338V77.6207H323.542ZM306.405 69.0909H309.295V77.5994H312.371V69.0909H315.261V77.5994H318.336V69.0909H321.227V80H306.405V69.0909ZM330.204 80.2131C329.082 80.2131 328.116 79.9858 327.307 79.5312C326.502 79.072 325.881 78.4233 325.446 77.5852C325.01 76.7424 324.792 75.7457 324.792 74.5952C324.792 73.473 325.01 72.4882 325.446 71.6406C325.881 70.7931 326.495 70.1326 327.285 69.6591C328.081 69.1856 329.014 68.9489 330.084 68.9489C330.803 68.9489 331.473 69.0649 332.094 69.2969C332.719 69.5241 333.263 69.8674 333.727 70.3267C334.196 70.786 334.56 71.3636 334.821 72.0597C335.081 72.7509 335.211 73.5606 335.211 74.4886V75.3196H326V73.4446H332.363C332.363 73.009 332.269 72.6231 332.079 72.2869C331.89 71.9508 331.627 71.688 331.291 71.4986C330.96 71.3045 330.574 71.2074 330.133 71.2074C329.674 71.2074 329.267 71.3139 328.912 71.527C328.561 71.7353 328.287 72.017 328.088 72.3722C327.889 72.7225 327.787 73.1132 327.782 73.544V75.3267C327.782 75.8665 327.882 76.3329 328.081 76.7259C328.284 77.1188 328.571 77.4219 328.94 77.6349C329.309 77.848 329.747 77.9545 330.254 77.9545C330.59 77.9545 330.898 77.9072 331.177 77.8125C331.457 77.7178 331.696 77.5758 331.895 77.3864C332.094 77.197 332.245 76.965 332.349 76.6903L335.148 76.875C335.006 77.5473 334.714 78.1345 334.274 78.6364C333.838 79.1335 333.275 79.5218 332.584 79.8011C331.897 80.0758 331.104 80.2131 330.204 80.2131ZM342.115 80.2131C340.997 80.2131 340.036 79.9763 339.231 79.5028C338.431 79.0246 337.816 78.3617 337.385 77.5142C336.959 76.6667 336.746 75.6913 336.746 74.5881C336.746 73.4706 336.961 72.4905 337.392 71.6477C337.827 70.8002 338.445 70.1397 339.246 69.6662C340.046 69.188 340.997 68.9489 342.101 68.9489C343.052 68.9489 343.886 69.1217 344.601 69.4673C345.316 69.813 345.881 70.2983 346.298 70.9233C346.715 71.5483 346.944 72.2822 346.987 73.125H344.132C344.051 72.5805 343.838 72.1425 343.493 71.8111C343.152 71.4749 342.704 71.3068 342.15 71.3068C341.682 71.3068 341.272 71.4347 340.922 71.6903C340.576 71.9413 340.306 72.3082 340.112 72.7912C339.918 73.2741 339.821 73.8589 339.821 74.5455C339.821 75.2415 339.916 75.8333 340.105 76.321C340.299 76.8087 340.571 77.1804 340.922 77.4361C341.272 77.6918 341.682 77.8196 342.15 77.8196C342.496 77.8196 342.806 77.7486 343.081 77.6065C343.36 77.4645 343.59 77.2585 343.77 76.9886C343.954 76.714 344.075 76.3849 344.132 76.0014H346.987C346.94 76.8348 346.712 77.5687 346.305 78.2031C345.903 78.8329 345.346 79.3253 344.636 79.6804C343.926 80.0355 343.086 80.2131 342.115 80.2131ZM348.18 71.4702V69.0909H358.067V71.4702H354.551V80H351.667V71.4702H348.18ZM359.901 80V69.0909H364.553C365.897 69.0909 366.96 69.3466 367.742 69.858C368.523 70.3693 368.914 71.0961 368.914 72.0384C368.914 72.6302 368.693 73.1226 368.253 73.5156C367.813 73.9086 367.202 74.1738 366.421 74.3111C367.074 74.3584 367.63 74.5076 368.09 74.7585C368.554 75.0047 368.906 75.3243 369.148 75.7173C369.394 76.1103 369.517 76.5459 369.517 77.0241C369.517 77.6444 369.352 78.1771 369.02 78.6222C368.693 79.0672 368.213 79.4081 367.578 79.6449C366.949 79.8816 366.179 80 365.27 80H359.901ZM362.72 77.7344H365.27C365.691 77.7344 366.021 77.6349 366.257 77.4361C366.499 77.2325 366.619 76.9555 366.619 76.6051C366.619 76.2169 366.499 75.9115 366.257 75.6889C366.021 75.4664 365.691 75.3551 365.27 75.3551H362.72V77.7344ZM362.72 73.5795H364.617C364.92 73.5795 365.178 73.5369 365.391 73.4517C365.609 73.3617 365.774 73.2339 365.888 73.0682C366.006 72.9025 366.066 72.706 366.066 72.4787C366.066 72.1425 365.931 71.8797 365.661 71.6903C365.391 71.5009 365.021 71.4062 364.553 71.4062H362.72V73.5795ZM373.292 84.0909C372.909 84.0909 372.549 84.0601 372.213 83.9986C371.881 83.9418 371.606 83.8684 371.389 83.7784L372.07 81.5199C372.426 81.6288 372.745 81.688 373.029 81.6974C373.318 81.7069 373.567 81.6406 373.775 81.4986C373.988 81.3565 374.161 81.1151 374.294 80.7741L374.471 80.3125L370.558 69.0909H373.74L375.998 77.1023H376.112L378.392 69.0909H381.595L377.355 81.179C377.151 81.7661 376.874 82.2775 376.524 82.7131C376.178 83.1534 375.74 83.492 375.21 83.7287C374.679 83.9702 374.04 84.0909 373.292 84.0909ZM384.228 80.1847C383.759 80.1847 383.357 80.0189 383.02 79.6875C382.689 79.3513 382.523 78.9489 382.523 78.4801C382.523 78.0161 382.689 77.6184 383.02 77.2869C383.357 76.9555 383.759 76.7898 384.228 76.7898C384.682 76.7898 385.08 76.9555 385.421 77.2869C385.762 77.6184 385.932 78.0161 385.932 78.4801C385.932 78.7926 385.852 79.0791 385.691 79.3395C385.535 79.5952 385.329 79.8011 385.073 79.9574C384.817 80.1089 384.536 80.1847 384.228 80.1847Z" fill="black"/>
</svg>
