<svg width="650" height="99" viewBox="0 0 650 99" fill="none" xmlns="http://www.w3.org/2000/svg">
<rect width="650" height="99" rx="30" fill="#D9D9D9" fill-opacity="0.4"/>
<path d="M43.2379 32.2131C42.1347 32.2131 41.1806 31.9787 40.3757 31.5099C39.5755 31.0365 38.9576 30.3783 38.522 29.5355C38.0864 28.688 37.8686 27.7055 37.8686 26.5881C37.8686 25.4612 38.0864 24.4763 38.522 23.6335C38.9576 22.786 39.5755 22.1278 40.3757 21.6591C41.1806 21.1856 42.1347 20.9489 43.2379 20.9489C44.3411 20.9489 45.2929 21.1856 46.093 21.6591C46.898 22.1278 47.5182 22.786 47.9538 23.6335C48.3894 24.4763 48.6072 25.4612 48.6072 26.5881C48.6072 27.7055 48.3894 28.688 47.9538 29.5355C47.5182 30.3783 46.898 31.0365 46.093 31.5099C45.2929 31.9787 44.3411 32.2131 43.2379 32.2131ZM43.2521 29.8693C43.754 29.8693 44.1731 29.7273 44.5092 29.4432C44.8454 29.1544 45.0987 28.7614 45.2692 28.2642C45.4444 27.767 45.532 27.2012 45.532 26.5668C45.532 25.9323 45.4444 25.3665 45.2692 24.8693C45.0987 24.3722 44.8454 23.9792 44.5092 23.6903C44.1731 23.4015 43.754 23.2571 43.2521 23.2571C42.7455 23.2571 42.3194 23.4015 41.9737 23.6903C41.6328 23.9792 41.3748 24.3722 41.1996 24.8693C41.0291 25.3665 40.9439 25.9323 40.9439 26.5668C40.9439 27.2012 41.0291 27.767 41.1996 28.2642C41.3748 28.7614 41.6328 29.1544 41.9737 29.4432C42.3194 29.7273 42.7455 29.8693 43.2521 29.8693ZM49.7223 35.196V29.5994H50.5604C50.8018 29.4479 50.996 29.2064 51.1428 28.875C51.2943 28.5436 51.4174 28.1529 51.5121 27.7031C51.6115 27.2533 51.6873 26.768 51.7393 26.2472C51.7962 25.7216 51.8459 25.1913 51.8885 24.6562L52.1726 21.0909H60.5391V29.5994H62.2294V35.196H59.3459V32H52.6768V35.196H49.7223ZM53.5717 29.5994H57.6839V23.4205H54.7436L54.63 24.6562C54.5495 25.821 54.4335 26.8106 54.282 27.625C54.1304 28.4347 53.8937 29.0928 53.5717 29.5994ZM71.5849 25.3381V27.7173H65.8888V25.3381H71.5849ZM66.8832 21.0909V32H63.9925V21.0909H66.8832ZM73.4812 21.0909V32H70.6119V21.0909H73.4812ZM78.9393 32.206C78.2433 32.206 77.623 32.0852 77.0785 31.8438C76.534 31.5975 76.1031 31.2353 75.7859 30.7571C75.4734 30.2741 75.3171 29.6728 75.3171 28.9531C75.3171 28.3471 75.4284 27.8381 75.6509 27.4261C75.8735 27.0142 76.1765 26.6828 76.56 26.4318C76.9435 26.1809 77.3791 25.9915 77.8668 25.8636C78.3593 25.7358 78.8754 25.6458 79.4151 25.5938C80.0496 25.5275 80.561 25.4659 80.9492 25.4091C81.3375 25.3475 81.6192 25.2576 81.7944 25.1392C81.9696 25.0208 82.0572 24.8456 82.0572 24.6136V24.571C82.0572 24.1212 81.9151 23.7732 81.631 23.527C81.3517 23.2808 80.954 23.1577 80.4379 23.1577C79.8933 23.1577 79.4601 23.2784 79.1381 23.5199C78.8162 23.7566 78.6031 24.0549 78.4989 24.4148L75.7006 24.1875C75.8427 23.5246 76.122 22.9517 76.5387 22.4688C76.9554 21.9811 77.4928 21.607 78.1509 21.3466C78.8138 21.0814 79.5808 20.9489 80.4521 20.9489C81.0581 20.9489 81.6381 21.0199 82.1921 21.1619C82.7508 21.304 83.2456 21.5241 83.6765 21.8224C84.1121 22.1207 84.4554 22.5043 84.7063 22.973C84.9573 23.437 85.0827 23.9934 85.0827 24.642V32H82.2134V30.4872H82.1282C81.953 30.8281 81.7186 31.1288 81.4251 31.3892C81.1315 31.6449 80.7788 31.8461 80.3668 31.9929C79.9549 32.1349 79.479 32.206 78.9393 32.206ZM79.8058 30.1179C80.2508 30.1179 80.6438 30.0303 80.9847 29.8551C81.3256 29.6752 81.5932 29.4337 81.7873 29.1307C81.9814 28.8277 82.0785 28.4844 82.0785 28.1009V26.9432C81.9838 27.0047 81.8536 27.0616 81.6879 27.1136C81.5269 27.161 81.3446 27.206 81.141 27.2486C80.9374 27.2865 80.7338 27.322 80.5302 27.3551C80.3266 27.3835 80.1419 27.4096 79.9762 27.4332C79.6211 27.4853 79.311 27.5682 79.0458 27.6818C78.7807 27.7955 78.5747 27.9493 78.4279 28.1435C78.2811 28.3329 78.2077 28.5696 78.2077 28.8537C78.2077 29.2656 78.3569 29.5805 78.6552 29.7983C78.9582 30.0114 79.3417 30.1179 79.8058 30.1179ZM94.9496 28.0085L98.8771 21.0909H101.86V32H98.9766V25.0611L95.0632 32H92.0589V21.0909H94.9496V28.0085ZM103.724 28.9105H106.658C106.672 29.2704 106.833 29.5545 107.141 29.7628C107.448 29.9711 107.846 30.0753 108.334 30.0753C108.826 30.0753 109.241 29.9616 109.577 29.7344C109.913 29.5024 110.081 29.1709 110.081 28.7401C110.081 28.4749 110.015 28.2453 109.882 28.0511C109.75 27.8523 109.565 27.696 109.328 27.5824C109.091 27.4687 108.817 27.4119 108.504 27.4119H106.935V25.4304H108.504C108.973 25.4304 109.333 25.3215 109.584 25.1037C109.839 24.8859 109.967 24.6136 109.967 24.2869C109.967 23.9176 109.835 23.6217 109.57 23.3991C109.309 23.1719 108.956 23.0582 108.511 23.0582C108.062 23.0582 107.688 23.16 107.389 23.3636C107.096 23.5625 106.944 23.8229 106.935 24.1449H104.016C104.025 23.4915 104.222 22.9257 104.605 22.4474C104.993 21.9692 105.514 21.5999 106.168 21.3395C106.826 21.0791 107.562 20.9489 108.376 20.9489C109.267 20.9489 110.034 21.0743 110.678 21.3253C111.326 21.5715 111.823 21.9242 112.169 22.3835C112.519 22.8428 112.695 23.3897 112.695 24.0241C112.695 24.6018 112.505 25.0848 112.126 25.473C111.748 25.8613 111.217 26.1383 110.536 26.304V26.4176C110.985 26.446 111.393 26.5668 111.757 26.7798C112.122 26.9929 112.413 27.2865 112.631 27.6605C112.848 28.0298 112.957 28.4678 112.957 28.9744C112.957 29.6515 112.759 30.2315 112.361 30.7145C111.968 31.1974 111.423 31.5691 110.727 31.8295C110.036 32.0852 109.243 32.2131 108.348 32.2131C107.477 32.2131 106.696 32.0876 106.004 31.8366C105.318 31.581 104.771 31.2069 104.364 30.7145C103.961 30.2221 103.748 29.6207 103.724 28.9105ZM124.371 32.2131C123.268 32.2131 122.313 31.9787 121.509 31.5099C120.708 31.0365 120.09 30.3783 119.655 29.5355C119.219 28.688 119.001 27.7055 119.001 26.5881C119.001 25.4612 119.219 24.4763 119.655 23.6335C120.09 22.786 120.708 22.1278 121.509 21.6591C122.313 21.1856 123.268 20.9489 124.371 20.9489C125.474 20.9489 126.426 21.1856 127.226 21.6591C128.031 22.1278 128.651 22.786 129.087 23.6335C129.522 24.4763 129.74 25.4612 129.74 26.5881C129.74 27.7055 129.522 28.688 129.087 29.5355C128.651 30.3783 128.031 31.0365 127.226 31.5099C126.426 31.9787 125.474 32.2131 124.371 32.2131ZM124.385 29.8693C124.887 29.8693 125.306 29.7273 125.642 29.4432C125.978 29.1544 126.232 28.7614 126.402 28.2642C126.577 27.767 126.665 27.2012 126.665 26.5668C126.665 25.9323 126.577 25.3665 126.402 24.8693C126.232 24.3722 125.978 23.9792 125.642 23.6903C125.306 23.4015 124.887 23.2571 124.385 23.2571C123.878 23.2571 123.452 23.4015 123.107 23.6903C122.766 23.9792 122.508 24.3722 122.332 24.8693C122.162 25.3665 122.077 25.9323 122.077 26.5668C122.077 27.2012 122.162 27.767 122.332 28.2642C122.508 28.7614 122.766 29.1544 123.107 29.4432C123.452 29.7273 123.878 29.8693 124.385 29.8693ZM136.636 32.2131C135.519 32.2131 134.558 31.9763 133.753 31.5028C132.953 31.0246 132.337 30.3617 131.906 29.5142C131.48 28.6667 131.267 27.6913 131.267 26.5881C131.267 25.4706 131.482 24.4905 131.913 23.6477C132.349 22.8002 132.967 22.1397 133.767 21.6662C134.567 21.188 135.519 20.9489 136.622 20.9489C137.574 20.9489 138.407 21.1217 139.122 21.4673C139.837 21.813 140.403 22.2983 140.82 22.9233C141.236 23.5483 141.466 24.2822 141.509 25.125H138.653C138.573 24.5805 138.36 24.1425 138.014 23.8111C137.673 23.4749 137.226 23.3068 136.672 23.3068C136.203 23.3068 135.794 23.4347 135.443 23.6903C135.098 23.9413 134.828 24.3082 134.634 24.7912C134.439 25.2741 134.342 25.8589 134.342 26.5455C134.342 27.2415 134.437 27.8333 134.626 28.321C134.821 28.8087 135.093 29.1804 135.443 29.4361C135.794 29.6918 136.203 29.8196 136.672 29.8196C137.018 29.8196 137.328 29.7486 137.602 29.6065C137.882 29.4645 138.111 29.2585 138.291 28.9886C138.476 28.714 138.597 28.3849 138.653 28.0014H141.509C141.461 28.8348 141.234 29.5687 140.827 30.2031C140.424 30.8329 139.868 31.3253 139.158 31.6804C138.447 32.0355 137.607 32.2131 136.636 32.2131ZM151.038 25.3381V27.7173H145.342V25.3381H151.038ZM146.336 21.0909V32H143.446V21.0909H146.336ZM152.934 21.0909V32H150.065V21.0909H152.934ZM160.211 32.2131C159.107 32.2131 158.153 31.9787 157.348 31.5099C156.548 31.0365 155.93 30.3783 155.495 29.5355C155.059 28.688 154.841 27.7055 154.841 26.5881C154.841 25.4612 155.059 24.4763 155.495 23.6335C155.93 22.786 156.548 22.1278 157.348 21.6591C158.153 21.1856 159.107 20.9489 160.211 20.9489C161.314 20.9489 162.266 21.1856 163.066 21.6591C163.871 22.1278 164.491 22.786 164.926 23.6335C165.362 24.4763 165.58 25.4612 165.58 26.5881C165.58 27.7055 165.362 28.688 164.926 29.5355C164.491 30.3783 163.871 31.0365 163.066 31.5099C162.266 31.9787 161.314 32.2131 160.211 32.2131ZM160.225 29.8693C160.727 29.8693 161.146 29.7273 161.482 29.4432C161.818 29.1544 162.071 28.7614 162.242 28.2642C162.417 27.767 162.505 27.2012 162.505 26.5668C162.505 25.9323 162.417 25.3665 162.242 24.8693C162.071 24.3722 161.818 23.9792 161.482 23.6903C161.146 23.4015 160.727 23.2571 160.225 23.2571C159.718 23.2571 159.292 23.4015 158.946 23.6903C158.605 23.9792 158.347 24.3722 158.172 24.8693C158.002 25.3665 157.917 25.9323 157.917 26.5668C157.917 27.2012 158.002 27.767 158.172 28.2642C158.347 28.7614 158.605 29.1544 158.946 29.4432C159.292 29.7273 159.718 29.8693 160.225 29.8693ZM167.547 32V21.0909H172.199C173.544 21.0909 174.607 21.3466 175.388 21.858C176.169 22.3693 176.56 23.0961 176.56 24.0384C176.56 24.6302 176.34 25.1226 175.9 25.5156C175.459 25.9086 174.848 26.1738 174.067 26.3111C174.721 26.3584 175.277 26.5076 175.736 26.7585C176.2 27.0047 176.553 27.3243 176.794 27.7173C177.041 28.1103 177.164 28.5459 177.164 29.0241C177.164 29.6444 176.998 30.1771 176.667 30.6222C176.34 31.0672 175.859 31.4081 175.225 31.6449C174.595 31.8816 173.826 32 172.917 32H167.547ZM170.367 29.7344H172.917C173.338 29.7344 173.667 29.6349 173.904 29.4361C174.145 29.2325 174.266 28.9555 174.266 28.6051C174.266 28.2169 174.145 27.9115 173.904 27.6889C173.667 27.4664 173.338 27.3551 172.917 27.3551H170.367V29.7344ZM170.367 25.5795H172.263C172.566 25.5795 172.824 25.5369 173.037 25.4517C173.255 25.3617 173.421 25.2339 173.534 25.0682C173.653 24.9025 173.712 24.706 173.712 24.4787C173.712 24.1425 173.577 23.8797 173.307 23.6903C173.037 23.5009 172.668 23.4062 172.199 23.4062H170.367V25.5795ZM184 32.2131C182.896 32.2131 181.942 31.9787 181.137 31.5099C180.337 31.0365 179.719 30.3783 179.284 29.5355C178.848 28.688 178.63 27.7055 178.63 26.5881C178.63 25.4612 178.848 24.4763 179.284 23.6335C179.719 22.786 180.337 22.1278 181.137 21.6591C181.942 21.1856 182.896 20.9489 184 20.9489C185.103 20.9489 186.055 21.1856 186.855 21.6591C187.66 22.1278 188.28 22.786 188.716 23.6335C189.151 24.4763 189.369 25.4612 189.369 26.5881C189.369 27.7055 189.151 28.688 188.716 29.5355C188.28 30.3783 187.66 31.0365 186.855 31.5099C186.055 31.9787 185.103 32.2131 184 32.2131ZM184.014 29.8693C184.516 29.8693 184.935 29.7273 185.271 29.4432C185.607 29.1544 185.86 28.7614 186.031 28.2642C186.206 27.767 186.294 27.2012 186.294 26.5668C186.294 25.9323 186.206 25.3665 186.031 24.8693C185.86 24.3722 185.607 23.9792 185.271 23.6903C184.935 23.4015 184.516 23.2571 184.014 23.2571C183.507 23.2571 183.081 23.4015 182.735 23.6903C182.395 23.9792 182.136 24.3722 181.961 24.8693C181.791 25.3665 181.706 25.9323 181.706 26.5668C181.706 27.2012 181.791 27.767 181.961 28.2642C182.136 28.7614 182.395 29.1544 182.735 29.4432C183.081 29.7273 183.507 29.8693 184.014 29.8693ZM191.336 32V21.0909H200.875V32H197.984V23.4702H194.191V32H191.336ZM208.218 32.2131C207.115 32.2131 206.161 31.9787 205.356 31.5099C204.556 31.0365 203.938 30.3783 203.502 29.5355C203.067 28.688 202.849 27.7055 202.849 26.5881C202.849 25.4612 203.067 24.4763 203.502 23.6335C203.938 22.786 204.556 22.1278 205.356 21.6591C206.161 21.1856 207.115 20.9489 208.218 20.9489C209.322 20.9489 210.273 21.1856 211.074 21.6591C211.878 22.1278 212.499 22.786 212.934 23.6335C213.37 24.4763 213.588 25.4612 213.588 26.5881C213.588 27.7055 213.37 28.688 212.934 29.5355C212.499 30.3783 211.878 31.0365 211.074 31.5099C210.273 31.9787 209.322 32.2131 208.218 32.2131ZM208.233 29.8693C208.734 29.8693 209.154 29.7273 209.49 29.4432C209.826 29.1544 210.079 28.7614 210.25 28.2642C210.425 27.767 210.512 27.2012 210.512 26.5668C210.512 25.9323 210.425 25.3665 210.25 24.8693C210.079 24.3722 209.826 23.9792 209.49 23.6903C209.154 23.4015 208.734 23.2571 208.233 23.2571C207.726 23.2571 207.3 23.4015 206.954 23.6903C206.613 23.9792 206.355 24.3722 206.18 24.8693C206.01 25.3665 205.924 25.9323 205.924 26.5668C205.924 27.2012 206.01 27.767 206.18 28.2642C206.355 28.7614 206.613 29.1544 206.954 29.4432C207.3 29.7273 207.726 29.8693 208.233 29.8693ZM214.916 32L214.902 29.5994H215.264C215.52 29.5994 215.74 29.5379 215.924 29.4148C216.114 29.2869 216.27 29.081 216.393 28.7969C216.516 28.5128 216.613 28.1364 216.684 27.6676C216.755 27.1941 216.803 26.6117 216.826 25.9205L217.004 21.0909H225.299V32H222.416V23.4702H219.724L219.554 26.8011C219.511 27.715 219.4 28.5009 219.22 29.1591C219.045 29.8172 218.801 30.357 218.488 30.7784C218.176 31.1951 217.799 31.5028 217.359 31.7017C216.919 31.9006 216.407 32 215.825 32H214.916ZM230.756 32.206C230.06 32.206 229.439 32.0852 228.895 31.8438C228.35 31.5975 227.92 31.2353 227.602 30.7571C227.29 30.2741 227.134 29.6728 227.134 28.9531C227.134 28.3471 227.245 27.8381 227.467 27.4261C227.69 27.0142 227.993 26.6828 228.376 26.4318C228.76 26.1809 229.196 25.9915 229.683 25.8636C230.176 25.7358 230.692 25.6458 231.232 25.5938C231.866 25.5275 232.377 25.4659 232.766 25.4091C233.154 25.3475 233.436 25.2576 233.611 25.1392C233.786 25.0208 233.874 24.8456 233.874 24.6136V24.571C233.874 24.1212 233.732 23.7732 233.447 23.527C233.168 23.2808 232.77 23.1577 232.254 23.1577C231.71 23.1577 231.277 23.2784 230.955 23.5199C230.633 23.7566 230.42 24.0549 230.315 24.4148L227.517 24.1875C227.659 23.5246 227.938 22.9517 228.355 22.4688C228.772 21.9811 229.309 21.607 229.967 21.3466C230.63 21.0814 231.397 20.9489 232.268 20.9489C232.875 20.9489 233.455 21.0199 234.009 21.1619C234.567 21.304 235.062 21.5241 235.493 21.8224C235.929 22.1207 236.272 22.5043 236.523 22.973C236.774 23.437 236.899 23.9934 236.899 24.642V32H234.03V30.4872H233.945C233.769 30.8281 233.535 31.1288 233.241 31.3892C232.948 31.6449 232.595 31.8461 232.183 31.9929C231.771 32.1349 231.295 32.206 230.756 32.206ZM231.622 30.1179C232.067 30.1179 232.46 30.0303 232.801 29.8551C233.142 29.6752 233.41 29.4337 233.604 29.1307C233.798 28.8277 233.895 28.4844 233.895 28.1009V26.9432C233.8 27.0047 233.67 27.0616 233.504 27.1136C233.343 27.161 233.161 27.206 232.957 27.2486C232.754 27.2865 232.55 27.322 232.347 27.3551C232.143 27.3835 231.958 27.4096 231.793 27.4332C231.438 27.4853 231.127 27.5682 230.862 27.6818C230.597 27.7955 230.391 27.9493 230.244 28.1435C230.098 28.3329 230.024 28.5696 230.024 28.8537C230.024 29.2656 230.173 29.5805 230.472 29.7983C230.775 30.0114 231.158 30.1179 231.622 30.1179ZM246.718 21.0909V23.4702H242.187V32H239.246V21.0909H246.718ZM251.283 32.206C250.587 32.206 249.967 32.0852 249.422 31.8438C248.878 31.5975 248.447 31.2353 248.13 30.7571C247.817 30.2741 247.661 29.6728 247.661 28.9531C247.661 28.3471 247.772 27.8381 247.995 27.4261C248.217 27.0142 248.52 26.6828 248.904 26.4318C249.287 26.1809 249.723 25.9915 250.211 25.8636C250.703 25.7358 251.219 25.6458 251.759 25.5938C252.393 25.5275 252.905 25.4659 253.293 25.4091C253.681 25.3475 253.963 25.2576 254.138 25.1392C254.313 25.0208 254.401 24.8456 254.401 24.6136V24.571C254.401 24.1212 254.259 23.7732 253.975 23.527C253.695 23.2808 253.298 23.1577 252.782 23.1577C252.237 23.1577 251.804 23.2784 251.482 23.5199C251.16 23.7566 250.947 24.0549 250.843 24.4148L248.044 24.1875C248.186 23.5246 248.466 22.9517 248.882 22.4688C249.299 21.9811 249.837 21.607 250.495 21.3466C251.158 21.0814 251.925 20.9489 252.796 20.9489C253.402 20.9489 253.982 21.0199 254.536 21.1619C255.095 21.304 255.589 21.5241 256.02 21.8224C256.456 22.1207 256.799 22.5043 257.05 22.973C257.301 23.437 257.426 23.9934 257.426 24.642V32H254.557V30.4872H254.472C254.297 30.8281 254.062 31.1288 253.769 31.3892C253.475 31.6449 253.123 31.8461 252.711 31.9929C252.299 32.1349 251.823 32.206 251.283 32.206ZM252.15 30.1179C252.595 30.1179 252.988 30.0303 253.328 29.8551C253.669 29.6752 253.937 29.4337 254.131 29.1307C254.325 28.8277 254.422 28.4844 254.422 28.1009V26.9432C254.328 27.0047 254.197 27.0616 254.032 27.1136C253.871 27.161 253.688 27.206 253.485 27.2486C253.281 27.2865 253.078 27.322 252.874 27.3551C252.67 27.3835 252.486 27.4096 252.32 27.4332C251.965 27.4853 251.655 27.5682 251.39 27.6818C251.124 27.7955 250.918 27.9493 250.772 28.1435C250.625 28.3329 250.551 28.5696 250.551 28.8537C250.551 29.2656 250.701 29.5805 250.999 29.7983C251.302 30.0114 251.685 30.1179 252.15 30.1179ZM265.804 25.402V27.8026H259.887V25.402H265.804ZM262.224 21.0909V32H259.206V21.0909H262.224ZM269.071 32.2131C267.991 32.2131 267.058 31.9716 266.272 31.4886C265.486 31.0057 264.88 30.3381 264.454 29.4858C264.033 28.6335 263.822 27.6558 263.822 26.5526C263.822 25.4493 264.033 24.4763 264.454 23.6335C264.88 22.7907 265.486 22.1326 266.272 21.6591C267.058 21.1856 267.991 20.9489 269.071 20.9489C270.155 20.9489 271.088 21.1856 271.869 21.6591C272.655 22.1326 273.259 22.7907 273.68 23.6335C274.106 24.4763 274.319 25.4493 274.319 26.5526C274.319 27.6558 274.106 28.6335 273.68 29.4858C273.259 30.3381 272.655 31.0057 271.869 31.4886C271.088 31.9716 270.155 32.2131 269.071 32.2131ZM269.071 29.7699C269.634 29.7699 270.089 29.6326 270.434 29.358C270.78 29.0786 271.033 28.6974 271.194 28.2145C271.355 27.7268 271.436 27.1728 271.436 26.5526C271.436 25.9323 271.355 25.383 271.194 24.9048C271.033 24.4219 270.78 24.0431 270.434 23.7685C270.089 23.4938 269.634 23.3565 269.071 23.3565C268.512 23.3565 268.057 23.4938 267.707 23.7685C267.357 24.0384 267.099 24.4124 266.933 24.8906C266.772 25.3688 266.691 25.9228 266.691 26.5526C266.691 27.1776 266.772 27.7315 266.933 28.2145C267.099 28.6974 267.357 29.0786 267.707 29.358C268.057 29.6326 268.512 29.7699 269.071 29.7699ZM293.513 29.6207L293.3 35.125H290.523V32H289.309V29.6207H293.513ZM276.375 21.0909H279.266V29.5994H282.341V21.0909H285.232V29.5994H288.307V21.0909H291.198V32H276.375V21.0909ZM298.211 28.0085L302.139 21.0909H305.122V32H302.238V25.0611L298.325 32H295.321V21.0909H298.211V28.0085ZM310.076 21.0909L312.078 24.9048L314.131 21.0909H317.235L314.074 26.5455L317.32 32H314.23L312.078 28.2287L309.962 32H306.837L310.076 26.5455L306.951 21.0909H310.076ZM328.881 35.7074V17.4545H331.899V35.7074H328.881ZM328.881 32.2131C328.043 32.2131 327.278 32.0781 326.587 31.8082C325.895 31.5336 325.299 31.1477 324.797 30.6506C324.295 30.1487 323.907 29.5545 323.632 28.8679C323.357 28.1766 323.22 27.4167 323.22 26.5881C323.22 25.75 323.357 24.9877 323.632 24.3011C323.907 23.6098 324.295 23.0156 324.797 22.5185C325.299 22.0166 325.895 21.6307 326.587 21.3608C327.278 21.0862 328.043 20.9489 328.881 20.9489H329.442V32.2131H328.881ZM328.881 29.8551H329.214V23.3068H328.881C328.473 23.3068 328.111 23.392 327.794 23.5625C327.477 23.733 327.209 23.9673 326.991 24.2656C326.774 24.5592 326.608 24.9048 326.494 25.3026C326.385 25.7003 326.331 26.1288 326.331 26.5881C326.331 27.1941 326.43 27.7457 326.629 28.2429C326.828 28.7353 327.119 29.1283 327.503 29.4219C327.886 29.7107 328.346 29.8551 328.881 29.8551ZM331.899 32.2131H331.338V20.9489H331.899C332.737 20.9489 333.502 21.0862 334.193 21.3608C334.884 21.6307 335.481 22.0166 335.983 22.5185C336.485 23.0156 336.873 23.6098 337.148 24.3011C337.422 24.9877 337.56 25.75 337.56 26.5881C337.56 27.4167 337.422 28.1766 337.148 28.8679C336.873 29.5545 336.485 30.1487 335.983 30.6506C335.481 31.1477 334.884 31.5336 334.193 31.8082C333.502 32.0781 332.737 32.2131 331.899 32.2131ZM331.899 29.8551C332.306 29.8551 332.669 29.7723 332.986 29.6065C333.303 29.4361 333.571 29.2017 333.788 28.9034C334.006 28.6051 334.172 28.2595 334.286 27.8665C334.399 27.4687 334.456 27.0426 334.456 26.5881C334.456 25.9773 334.354 25.4257 334.151 24.9332C333.952 24.4361 333.663 24.0407 333.284 23.7472C332.905 23.4536 332.444 23.3068 331.899 23.3068H331.565V29.8551H331.899ZM341.056 36.0909C340.672 36.0909 340.312 36.0601 339.976 35.9986C339.645 35.9418 339.37 35.8684 339.152 35.7784L339.834 33.5199C340.189 33.6288 340.509 33.688 340.793 33.6974C341.082 33.7069 341.33 33.6406 341.539 33.4986C341.752 33.3565 341.925 33.1151 342.057 32.7741L342.235 32.3125L338.321 21.0909H341.503L343.762 29.1023H343.875L346.155 21.0909H349.358L345.118 33.179C344.915 33.7661 344.638 34.2775 344.287 34.7131C343.942 35.1534 343.504 35.492 342.973 35.7287C342.443 35.9702 341.804 36.0909 341.056 36.0909ZM358.499 25.3381V27.7173H352.803V25.3381H358.499ZM353.797 21.0909V32H350.907V21.0909H353.797ZM360.395 21.0909V32H357.526V21.0909H360.395ZM362.743 32V21.0909H365.768V25.3239H366.62L369.589 21.0909H373.14L369.284 26.5028L373.183 32H369.589L366.897 28.1293H365.768V32H362.743ZM384 21.0909V29.9119H385.74V35.5085H382.799V32H374.461V21.0909H377.352V29.6207H381.145V21.0909H384ZM390.496 28.0085L394.424 21.0909H397.407V32H394.523V25.0611L390.61 32H387.606V21.0909H390.496V28.0085ZM402.723 28.0085L406.651 21.0909H409.634V32H406.75V25.0611L402.837 32H399.832V21.0909H402.723V28.0085ZM406.132 17.2841H408.241C408.237 18.1458 407.917 18.8395 407.283 19.3651C406.653 19.8906 405.801 20.1534 404.726 20.1534C403.646 20.1534 402.792 19.8906 402.162 19.3651C401.532 18.8395 401.217 18.1458 401.217 17.2841H403.312C403.308 17.6108 403.412 17.9044 403.625 18.1648C403.843 18.4252 404.21 18.5554 404.726 18.5554C405.228 18.5554 405.588 18.4276 405.805 18.1719C406.023 17.9162 406.132 17.6203 406.132 17.2841ZM421.908 35.7074V17.4545H424.926V35.7074H421.908ZM421.908 32.2131C421.07 32.2131 420.305 32.0781 419.614 31.8082C418.923 31.5336 418.326 31.1477 417.824 30.6506C417.322 30.1487 416.934 29.5545 416.659 28.8679C416.385 28.1766 416.248 27.4167 416.248 26.5881C416.248 25.75 416.385 24.9877 416.659 24.3011C416.934 23.6098 417.322 23.0156 417.824 22.5185C418.326 22.0166 418.923 21.6307 419.614 21.3608C420.305 21.0862 421.07 20.9489 421.908 20.9489H422.469V32.2131H421.908ZM421.908 29.8551H422.242V23.3068H421.908C421.501 23.3068 421.139 23.392 420.821 23.5625C420.504 23.733 420.237 23.9673 420.019 24.2656C419.801 24.5592 419.635 24.9048 419.522 25.3026C419.413 25.7003 419.358 26.1288 419.358 26.5881C419.358 27.1941 419.458 27.7457 419.657 28.2429C419.855 28.7353 420.147 29.1283 420.53 29.4219C420.914 29.7107 421.373 29.8551 421.908 29.8551ZM424.926 32.2131H424.365V20.9489H424.926C425.765 20.9489 426.529 21.0862 427.221 21.3608C427.912 21.6307 428.508 22.0166 429.01 22.5185C429.512 23.0156 429.9 23.6098 430.175 24.3011C430.45 24.9877 430.587 25.75 430.587 26.5881C430.587 27.4167 430.45 28.1766 430.175 28.8679C429.9 29.5545 429.512 30.1487 429.01 30.6506C428.508 31.1477 427.912 31.5336 427.221 31.8082C426.529 32.0781 425.765 32.2131 424.926 32.2131ZM424.926 29.8551C425.334 29.8551 425.696 29.7723 426.013 29.6065C426.33 29.4361 426.598 29.2017 426.816 28.9034C427.033 28.6051 427.199 28.2595 427.313 27.8665C427.426 27.4687 427.483 27.0426 427.483 26.5881C427.483 25.9773 427.382 25.4257 427.178 24.9332C426.979 24.4361 426.69 24.0407 426.311 23.7472C425.933 23.4536 425.471 23.3068 424.926 23.3068H424.593V29.8551H424.926ZM435.457 28.0085L439.385 21.0909H442.368V32H439.484V25.0611L435.571 32H432.567V21.0909H435.457V28.0085ZM444.154 32L444.14 29.5994H444.502C444.758 29.5994 444.978 29.5379 445.163 29.4148C445.352 29.2869 445.508 29.081 445.631 28.7969C445.754 28.5128 445.852 28.1364 445.923 27.6676C445.994 27.1941 446.041 26.6117 446.065 25.9205L446.242 21.0909H454.538V32H451.654V23.4702H448.962L448.792 26.8011C448.749 27.715 448.638 28.5009 448.458 29.1591C448.283 29.8172 448.039 30.357 447.727 30.7784C447.414 31.1951 447.038 31.5028 446.597 31.7017C446.157 31.9006 445.646 32 445.063 32H444.154ZM461.812 32.2131C460.709 32.2131 459.755 31.9787 458.95 31.5099C458.15 31.0365 457.532 30.3783 457.096 29.5355C456.661 28.688 456.443 27.7055 456.443 26.5881C456.443 25.4612 456.661 24.4763 457.096 23.6335C457.532 22.786 458.15 22.1278 458.95 21.6591C459.755 21.1856 460.709 20.9489 461.812 20.9489C462.915 20.9489 463.867 21.1856 464.667 21.6591C465.472 22.1278 466.092 22.786 466.528 23.6335C466.964 24.4763 467.181 25.4612 467.181 26.5881C467.181 27.7055 466.964 28.688 466.528 29.5355C466.092 30.3783 465.472 31.0365 464.667 31.5099C463.867 31.9787 462.915 32.2131 461.812 32.2131ZM461.826 29.8693C462.328 29.8693 462.747 29.7273 463.083 29.4432C463.42 29.1544 463.673 28.7614 463.843 28.2642C464.019 27.767 464.106 27.2012 464.106 26.5668C464.106 25.9323 464.019 25.3665 463.843 24.8693C463.673 24.3722 463.42 23.9792 463.083 23.6903C462.747 23.4015 462.328 23.2571 461.826 23.2571C461.32 23.2571 460.894 23.4015 460.548 23.6903C460.207 23.9792 459.949 24.3722 459.774 24.8693C459.603 25.3665 459.518 25.9323 459.518 26.5668C459.518 27.2012 459.603 27.767 459.774 28.2642C459.949 28.7614 460.207 29.1544 460.548 29.4432C460.894 29.7273 461.32 29.8693 461.826 29.8693ZM474.078 32.2131C472.96 32.2131 471.999 31.9763 471.194 31.5028C470.394 31.0246 469.779 30.3617 469.348 29.5142C468.922 28.6667 468.708 27.6913 468.708 26.5881C468.708 25.4706 468.924 24.4905 469.355 23.6477C469.79 22.8002 470.408 22.1397 471.208 21.6662C472.009 21.188 472.96 20.9489 474.064 20.9489C475.015 20.9489 475.849 21.1217 476.564 21.4673C477.279 21.813 477.844 22.2983 478.261 22.9233C478.678 23.5483 478.907 24.2822 478.95 25.125H476.095C476.014 24.5805 475.801 24.1425 475.456 23.8111C475.115 23.4749 474.667 23.3068 474.113 23.3068C473.645 23.3068 473.235 23.4347 472.885 23.6903C472.539 23.9413 472.269 24.3082 472.075 24.7912C471.881 25.2741 471.784 25.8589 471.784 26.5455C471.784 27.2415 471.878 27.8333 472.068 28.321C472.262 28.8087 472.534 29.1804 472.885 29.4361C473.235 29.6918 473.645 29.8196 474.113 29.8196C474.459 29.8196 474.769 29.7486 475.044 29.6065C475.323 29.4645 475.553 29.2585 475.733 28.9886C475.917 28.714 476.038 28.3849 476.095 28.0014H478.95C478.903 28.8348 478.675 29.5687 478.268 30.2031C477.866 30.8329 477.309 31.3253 476.599 31.6804C475.889 32.0355 475.048 32.2131 474.078 32.2131ZM485.816 32.2131C484.713 32.2131 483.759 31.9787 482.954 31.5099C482.154 31.0365 481.536 30.3783 481.1 29.5355C480.665 28.688 480.447 27.7055 480.447 26.5881C480.447 25.4612 480.665 24.4763 481.1 23.6335C481.536 22.786 482.154 22.1278 482.954 21.6591C483.759 21.1856 484.713 20.9489 485.816 20.9489C486.919 20.9489 487.871 21.1856 488.671 21.6591C489.476 22.1278 490.096 22.786 490.532 23.6335C490.968 24.4763 491.185 25.4612 491.185 26.5881C491.185 27.7055 490.968 28.688 490.532 29.5355C490.096 30.3783 489.476 31.0365 488.671 31.5099C487.871 31.9787 486.919 32.2131 485.816 32.2131ZM485.83 29.8693C486.332 29.8693 486.751 29.7273 487.087 29.4432C487.424 29.1544 487.677 28.7614 487.847 28.2642C488.022 27.767 488.11 27.2012 488.11 26.5668C488.11 25.9323 488.022 25.3665 487.847 24.8693C487.677 24.3722 487.424 23.9792 487.087 23.6903C486.751 23.4015 486.332 23.2571 485.83 23.2571C485.324 23.2571 484.897 23.4015 484.552 23.6903C484.211 23.9792 483.953 24.3722 483.778 24.8693C483.607 25.3665 483.522 25.9323 483.522 26.5668C483.522 27.2012 483.607 27.767 483.778 28.2642C483.953 28.7614 484.211 29.1544 484.552 29.4432C484.897 29.7273 485.324 29.8693 485.83 29.8693ZM498.373 35.7074V17.4545H501.391V35.7074H498.373ZM498.373 32.2131C497.535 32.2131 496.77 32.0781 496.079 31.8082C495.388 31.5336 494.791 31.1477 494.289 30.6506C493.787 30.1487 493.399 29.5545 493.124 28.8679C492.85 28.1766 492.712 27.4167 492.712 26.5881C492.712 25.75 492.85 24.9877 493.124 24.3011C493.399 23.6098 493.787 23.0156 494.289 22.5185C494.791 22.0166 495.388 21.6307 496.079 21.3608C496.77 21.0862 497.535 20.9489 498.373 20.9489H498.934V32.2131H498.373ZM498.373 29.8551H498.707V23.3068H498.373C497.966 23.3068 497.603 23.392 497.286 23.5625C496.969 23.733 496.701 23.9673 496.484 24.2656C496.266 24.5592 496.1 24.9048 495.987 25.3026C495.878 25.7003 495.823 26.1288 495.823 26.5881C495.823 27.1941 495.923 27.7457 496.121 28.2429C496.32 28.7353 496.612 29.1283 496.995 29.4219C497.379 29.7107 497.838 29.8551 498.373 29.8551ZM501.391 32.2131H500.83V20.9489H501.391C502.229 20.9489 502.994 21.0862 503.685 21.3608C504.377 21.6307 504.973 22.0166 505.475 22.5185C505.977 23.0156 506.365 23.6098 506.64 24.3011C506.915 24.9877 507.052 25.75 507.052 26.5881C507.052 27.4167 506.915 28.1766 506.64 28.8679C506.365 29.5545 505.977 30.1487 505.475 30.6506C504.973 31.1477 504.377 31.5336 503.685 31.8082C502.994 32.0781 502.229 32.2131 501.391 32.2131ZM501.391 29.8551C501.799 29.8551 502.161 29.7723 502.478 29.6065C502.795 29.4361 503.063 29.2017 503.281 28.9034C503.498 28.6051 503.664 28.2595 503.778 27.8665C503.891 27.4687 503.948 27.0426 503.948 26.5881C503.948 25.9773 503.846 25.4257 503.643 24.9332C503.444 24.4361 503.155 24.0407 502.776 23.7472C502.397 23.4536 501.936 23.3068 501.391 23.3068H501.058V29.8551H501.391ZM511.922 28.0085L515.85 21.0909H518.833V32H515.949V25.0611L512.036 32H509.032V21.0909H511.922V28.0085ZM524.149 28.0085L528.076 21.0909H531.059V32H528.176V25.0611L524.262 32H521.258V21.0909H524.149V28.0085ZM546.906 24.8267V27.2273H536.906V24.8267H546.906ZM555.633 28.0085L559.561 21.0909H562.544V32H559.66V25.0611L555.747 32H552.743V21.0909H555.633V28.0085ZM571.418 28.6548L574.373 21.0909H576.674L572.419 32H570.409L566.255 21.0909H568.549L571.418 28.6548ZM567.86 21.0909V32H564.969V21.0909H567.86ZM575.125 32V21.0909H577.98V32H575.125ZM585.292 32.2131C584.17 32.2131 583.204 31.9858 582.395 31.5312C581.59 31.072 580.969 30.4233 580.534 29.5852C580.098 28.7424 579.88 27.7457 579.88 26.5952C579.88 25.473 580.098 24.4882 580.534 23.6406C580.969 22.7931 581.583 22.1326 582.373 21.6591C583.169 21.1856 584.101 20.9489 585.172 20.9489C585.891 20.9489 586.561 21.0649 587.181 21.2969C587.806 21.5241 588.351 21.8674 588.815 22.3267C589.284 22.786 589.648 23.3636 589.909 24.0597C590.169 24.7509 590.299 25.5606 590.299 26.4886V27.3196H581.088V25.4446H587.451C587.451 25.009 587.357 24.6231 587.167 24.2869C586.978 23.9508 586.715 23.688 586.379 23.4986C586.047 23.3045 585.662 23.2074 585.221 23.2074C584.762 23.2074 584.355 23.3139 584 23.527C583.649 23.7353 583.375 24.017 583.176 24.3722C582.977 24.7225 582.875 25.1132 582.87 25.544V27.3267C582.87 27.8665 582.97 28.3329 583.169 28.7259C583.372 29.1188 583.659 29.4219 584.028 29.6349C584.397 29.848 584.835 29.9545 585.342 29.9545C585.678 29.9545 585.986 29.9072 586.265 29.8125C586.545 29.7178 586.784 29.5758 586.983 29.3864C587.181 29.197 587.333 28.965 587.437 28.6903L590.235 28.875C590.093 29.5473 589.802 30.1345 589.362 30.6364C588.926 31.1335 588.363 31.5218 587.672 31.8011C586.985 32.0758 586.192 32.2131 585.292 32.2131ZM597.245 32.2131C596.123 32.2131 595.157 31.9858 594.348 31.5312C593.543 31.072 592.922 30.4233 592.487 29.5852C592.051 28.7424 591.833 27.7457 591.833 26.5952C591.833 25.473 592.051 24.4882 592.487 23.6406C592.922 22.7931 593.536 22.1326 594.326 21.6591C595.122 21.1856 596.055 20.9489 597.125 20.9489C597.844 20.9489 598.514 21.0649 599.135 21.2969C599.76 21.5241 600.304 21.8674 600.768 22.3267C601.237 22.786 601.601 23.3636 601.862 24.0597C602.122 24.7509 602.252 25.5606 602.252 26.4886V27.3196H593.041V25.4446H599.404C599.404 25.009 599.31 24.6231 599.12 24.2869C598.931 23.9508 598.668 23.688 598.332 23.4986C598.001 23.3045 597.615 23.2074 597.174 23.2074C596.715 23.2074 596.308 23.3139 595.953 23.527C595.602 23.7353 595.328 24.017 595.129 24.3722C594.93 24.7225 594.828 25.1132 594.824 25.544V27.3267C594.824 27.8665 594.923 28.3329 595.122 28.7259C595.325 29.1188 595.612 29.4219 595.981 29.6349C596.35 29.848 596.788 29.9545 597.295 29.9545C597.631 29.9545 597.939 29.9072 598.218 29.8125C598.498 29.7178 598.737 29.5758 598.936 29.3864C599.135 29.197 599.286 28.965 599.39 28.6903L602.189 28.875C602.047 29.5473 601.755 30.1345 601.315 30.6364C600.879 31.1335 600.316 31.5218 599.625 31.8011C598.938 32.0758 598.145 32.2131 597.245 32.2131ZM603.385 23.4702V21.0909H613.272V23.4702H609.756V32H606.873V23.4702H603.385ZM44.2243 45.0909V53.9119H45.9643V59.5085H43.024V56H34.6859V45.0909H37.5765V53.6207H41.3691V45.0909H44.2243ZM52.6848 56.2131C51.5627 56.2131 50.5968 55.9858 49.7871 55.5312C48.9822 55.072 48.3619 54.4233 47.9263 53.5852C47.4907 52.7424 47.2729 51.7457 47.2729 50.5952C47.2729 49.473 47.4907 48.4882 47.9263 47.6406C48.3619 46.7931 48.9751 46.1326 49.7658 45.6591C50.5613 45.1856 51.494 44.9489 52.5641 44.9489C53.2838 44.9489 53.9538 45.0649 54.574 45.2969C55.199 45.5241 55.7435 45.8674 56.2076 46.3267C56.6763 46.786 57.0409 47.3636 57.3013 48.0597C57.5617 48.7509 57.6919 49.5606 57.6919 50.4886V51.3196H48.4803V49.4446H54.8439C54.8439 49.009 54.7492 48.6231 54.5598 48.2869C54.3704 47.9508 54.1077 47.688 53.7715 47.4986C53.44 47.3045 53.0542 47.2074 52.6138 47.2074C52.1545 47.2074 51.7473 47.3139 51.3922 47.527C51.0418 47.7353 50.7672 48.017 50.5684 48.3722C50.3695 48.7225 50.2677 49.1132 50.263 49.544V51.3267C50.263 51.8665 50.3624 52.3329 50.5613 52.7259C50.7649 53.1188 51.0513 53.4219 51.4206 53.6349C51.79 53.848 52.2279 53.9545 52.7346 53.9545C53.0707 53.9545 53.3785 53.9072 53.6578 53.8125C53.9372 53.7178 54.1763 53.5758 54.3752 53.3864C54.574 53.197 54.7256 52.965 54.8297 52.6903L57.628 52.875C57.486 53.5473 57.1948 54.1345 56.7544 54.6364C56.3188 55.1335 55.7554 55.5218 55.0641 55.8011C54.3775 56.0758 53.5845 56.2131 52.6848 56.2131ZM59.0272 56L59.013 53.5994H59.3752C59.6309 53.5994 59.851 53.5379 60.0357 53.4148C60.2251 53.2869 60.3813 53.081 60.5044 52.7969C60.6275 52.5128 60.7246 52.1364 60.7956 51.6676C60.8667 51.1941 60.914 50.6117 60.9377 49.9205L61.1152 45.0909H69.4107V56H66.5272V47.4702H63.8354L63.665 50.8011C63.6223 51.715 63.5111 52.5009 63.3311 53.1591C63.156 53.8172 62.9121 54.357 62.5996 54.7784C62.2871 55.1951 61.9107 55.5028 61.4703 55.7017C61.03 55.9006 60.5186 56 59.9363 56H59.0272ZM73.6525 48.4432H76.9125C78.3566 48.4432 79.4835 48.7888 80.2931 49.4801C81.1028 50.1667 81.5076 51.0852 81.5076 52.2358C81.5076 52.9839 81.3253 53.642 80.9608 54.2102C80.5962 54.7737 80.0706 55.214 79.3841 55.5312C78.6975 55.8438 77.8736 56 76.9125 56H71.7562V45.0909H74.6468V53.6207H76.9125C77.4191 53.6207 77.8358 53.4929 78.1625 53.2372C78.4892 52.9815 78.6549 52.6548 78.6596 52.2571C78.6549 51.8357 78.4892 51.4924 78.1625 51.2273C77.8358 50.9574 77.4191 50.8224 76.9125 50.8224H73.6525V48.4432ZM89.5439 49.402V51.8026H83.6277V49.402H89.5439ZM85.9643 45.0909V56H82.9458V45.0909H85.9643ZM92.8109 56.2131C91.7314 56.2131 90.7986 55.9716 90.0126 55.4886C89.2266 55.0057 88.6206 54.3381 88.1944 53.4858C87.773 52.6335 87.5623 51.6558 87.5623 50.5526C87.5623 49.4493 87.773 48.4763 88.1944 47.6335C88.6206 46.7907 89.2266 46.1326 90.0126 45.6591C90.7986 45.1856 91.7314 44.9489 92.8109 44.9489C93.8952 44.9489 94.8279 45.1856 95.6092 45.6591C96.3952 46.1326 96.9989 46.7907 97.4203 47.6335C97.8464 48.4763 98.0595 49.4493 98.0595 50.5526C98.0595 51.6558 97.8464 52.6335 97.4203 53.4858C96.9989 54.3381 96.3952 55.0057 95.6092 55.4886C94.8279 55.9716 93.8952 56.2131 92.8109 56.2131ZM92.8109 53.7699C93.3743 53.7699 93.8289 53.6326 94.1745 53.358C94.5202 53.0786 94.7735 52.6974 94.9345 52.2145C95.0955 51.7268 95.176 51.1728 95.176 50.5526C95.176 49.9323 95.0955 49.383 94.9345 48.9048C94.7735 48.4219 94.5202 48.0431 94.1745 47.7685C93.8289 47.4938 93.3743 47.3565 92.8109 47.3565C92.2522 47.3565 91.7976 47.4938 91.4473 47.7685C91.0969 48.0384 90.8388 48.4124 90.6731 48.8906C90.5121 49.3688 90.4316 49.9228 90.4316 50.5526C90.4316 51.1776 90.5121 51.7315 90.6731 52.2145C90.8388 52.6974 91.0969 53.0786 91.4473 53.358C91.7976 53.6326 92.2522 53.7699 92.8109 53.7699ZM104.744 56V45.0909H114.283V56H111.392V47.4702H107.6V56H104.744ZM116.698 60.0909V45.0909H119.681V46.9233H119.816C119.948 46.6297 120.14 46.3314 120.391 46.0284C120.646 45.7206 120.978 45.465 121.385 45.2614C121.797 45.053 122.308 44.9489 122.919 44.9489C123.715 44.9489 124.449 45.1572 125.121 45.5739C125.793 45.9858 126.331 46.6084 126.733 47.4418C127.136 48.2704 127.337 49.3097 127.337 50.5597C127.337 51.7765 127.14 52.804 126.747 53.642C126.359 54.4754 125.829 55.1075 125.156 55.5384C124.489 55.9645 123.741 56.1776 122.912 56.1776C122.325 56.1776 121.825 56.0805 121.414 55.8864C121.006 55.6922 120.673 55.4484 120.412 55.1548C120.152 54.8565 119.953 54.5559 119.816 54.2528H119.723V60.0909H116.698ZM119.659 50.5455C119.659 51.1941 119.749 51.7599 119.929 52.2429C120.109 52.7259 120.369 53.1023 120.71 53.3722C121.051 53.6373 121.466 53.7699 121.953 53.7699C122.446 53.7699 122.862 53.6349 123.203 53.3651C123.544 53.0904 123.802 52.7116 123.977 52.2287C124.157 51.741 124.247 51.1799 124.247 50.5455C124.247 49.9157 124.16 49.3617 123.985 48.8835C123.809 48.4053 123.551 48.0312 123.21 47.7614C122.869 47.4915 122.45 47.3565 121.953 47.3565C121.461 47.3565 121.044 47.4867 120.703 47.7472C120.367 48.0076 120.109 48.3769 119.929 48.8551C119.749 49.3333 119.659 49.8968 119.659 50.5455ZM132.465 56.206C131.769 56.206 131.148 56.0852 130.604 55.8438C130.059 55.5975 129.628 55.2353 129.311 54.7571C128.999 54.2741 128.843 53.6728 128.843 52.9531C128.843 52.3471 128.954 51.8381 129.176 51.4261C129.399 51.0142 129.702 50.6828 130.085 50.4318C130.469 50.1809 130.905 49.9915 131.392 49.8636C131.885 49.7358 132.401 49.6458 132.941 49.5938C133.575 49.5275 134.086 49.4659 134.475 49.4091C134.863 49.3475 135.145 49.2576 135.32 49.1392C135.495 49.0208 135.583 48.8456 135.583 48.6136V48.571C135.583 48.1212 135.441 47.7732 135.156 47.527C134.877 47.2808 134.479 47.1577 133.963 47.1577C133.419 47.1577 132.985 47.2784 132.664 47.5199C132.342 47.7566 132.128 48.0549 132.024 48.4148L129.226 48.1875C129.368 47.5246 129.647 46.9517 130.064 46.4688C130.481 45.9811 131.018 45.607 131.676 45.3466C132.339 45.0814 133.106 44.9489 133.977 44.9489C134.584 44.9489 135.164 45.0199 135.718 45.1619C136.276 45.304 136.771 45.5241 137.202 45.8224C137.637 46.1207 137.981 46.5043 138.232 46.973C138.483 47.437 138.608 47.9934 138.608 48.642V56H135.739V54.4872H135.654C135.478 54.8281 135.244 55.1288 134.95 55.3892C134.657 55.6449 134.304 55.8461 133.892 55.9929C133.48 56.1349 133.004 56.206 132.465 56.206ZM133.331 54.1179C133.776 54.1179 134.169 54.0303 134.51 53.8551C134.851 53.6752 135.119 53.4337 135.313 53.1307C135.507 52.8277 135.604 52.4844 135.604 52.1009V50.9432C135.509 51.0047 135.379 51.0616 135.213 51.1136C135.052 51.161 134.87 51.206 134.666 51.2486C134.463 51.2865 134.259 51.322 134.056 51.3551C133.852 51.3835 133.667 51.4096 133.502 51.4332C133.146 51.4853 132.836 51.5682 132.571 51.6818C132.306 51.7955 132.1 51.9493 131.953 52.1435C131.807 52.3329 131.733 52.5696 131.733 52.8537C131.733 53.2656 131.882 53.5805 132.181 53.7983C132.484 54.0114 132.867 54.1179 133.331 54.1179ZM140.955 56V45.0909H145.607C146.952 45.0909 148.015 45.3466 148.796 45.858C149.578 46.3693 149.968 47.0961 149.968 48.0384C149.968 48.6302 149.748 49.1226 149.308 49.5156C148.867 49.9086 148.257 50.1738 147.475 50.3111C148.129 50.3584 148.685 50.5076 149.144 50.7585C149.608 51.0047 149.961 51.3243 150.203 51.7173C150.449 52.1103 150.572 52.5459 150.572 53.0241C150.572 53.6444 150.406 54.1771 150.075 54.6222C149.748 55.0672 149.267 55.4081 148.633 55.6449C148.003 55.8816 147.234 56 146.325 56H140.955ZM143.775 53.7344H146.325C146.746 53.7344 147.075 53.6349 147.312 53.4361C147.553 53.2325 147.674 52.9555 147.674 52.6051C147.674 52.2169 147.553 51.9115 147.312 51.6889C147.075 51.4664 146.746 51.3551 146.325 51.3551H143.775V53.7344ZM143.775 49.5795H145.671C145.974 49.5795 146.232 49.5369 146.445 49.4517C146.663 49.3617 146.829 49.2339 146.943 49.0682C147.061 48.9025 147.12 48.706 147.12 48.4787C147.12 48.1425 146.985 47.8797 146.715 47.6903C146.445 47.5009 146.076 47.4062 145.607 47.4062H143.775V49.5795ZM155.369 52.0085L159.297 45.0909H162.28V56H159.396V49.0611L155.483 56H152.479V45.0909H155.369V52.0085ZM164.066 56L164.052 53.5994H164.414C164.67 53.5994 164.89 53.5379 165.075 53.4148C165.264 53.2869 165.42 53.081 165.544 52.7969C165.667 52.5128 165.764 52.1364 165.835 51.6676C165.906 51.1941 165.953 50.6117 165.977 49.9205L166.154 45.0909H174.45V56H171.566V47.4702H168.874L168.704 50.8011C168.661 51.715 168.55 52.5009 168.37 53.1591C168.195 53.8172 167.951 54.357 167.639 54.7784C167.326 55.1951 166.95 55.5028 166.509 55.7017C166.069 55.9006 165.558 56 164.975 56H164.066ZM178.692 48.4432H181.952C183.396 48.4432 184.523 48.7888 185.332 49.4801C186.142 50.1667 186.547 51.0852 186.547 52.2358C186.547 52.9839 186.364 53.642 186 54.2102C185.635 54.7737 185.11 55.214 184.423 55.5312C183.737 55.8438 182.913 56 181.952 56H176.795V45.0909H179.686V53.6207H181.952C182.458 53.6207 182.875 53.4929 183.202 53.2372C183.528 52.9815 183.694 52.6548 183.699 52.2571C183.694 51.8357 183.528 51.4924 183.202 51.2273C182.875 50.9574 182.458 50.8224 181.952 50.8224H178.692V48.4432ZM196.145 49.3381V51.7173H190.449V49.3381H196.145ZM191.444 45.0909V56H188.553V45.0909H191.444ZM198.042 45.0909V56H195.172V45.0909H198.042ZM205.318 56.2131C204.215 56.2131 203.261 55.9787 202.456 55.5099C201.656 55.0365 201.038 54.3783 200.602 53.5355C200.166 52.688 199.949 51.7055 199.949 50.5881C199.949 49.4612 200.166 48.4763 200.602 47.6335C201.038 46.786 201.656 46.1278 202.456 45.6591C203.261 45.1856 204.215 44.9489 205.318 44.9489C206.421 44.9489 207.373 45.1856 208.173 45.6591C208.978 46.1278 209.598 46.786 210.034 47.6335C210.47 48.4763 210.687 49.4612 210.687 50.5881C210.687 51.7055 210.47 52.688 210.034 53.5355C209.598 54.3783 208.978 55.0365 208.173 55.5099C207.373 55.9787 206.421 56.2131 205.318 56.2131ZM205.332 53.8693C205.834 53.8693 206.253 53.7273 206.589 53.4432C206.925 53.1544 207.179 52.7614 207.349 52.2642C207.524 51.767 207.612 51.2012 207.612 50.5668C207.612 49.9323 207.524 49.3665 207.349 48.8693C207.179 48.3722 206.925 47.9792 206.589 47.6903C206.253 47.4015 205.834 47.2571 205.332 47.2571C204.826 47.2571 204.399 47.4015 204.054 47.6903C203.713 47.9792 203.455 48.3722 203.28 48.8693C203.109 49.3665 203.024 49.9323 203.024 50.5668C203.024 51.2012 203.109 51.767 203.28 52.2642C203.455 52.7614 203.713 53.1544 204.054 53.4432C204.399 53.7273 204.826 53.8693 205.332 53.8693ZM217.626 56.2131C216.504 56.2131 215.538 55.9858 214.729 55.5312C213.924 55.072 213.303 54.4233 212.868 53.5852C212.432 52.7424 212.214 51.7457 212.214 50.5952C212.214 49.473 212.432 48.4882 212.868 47.6406C213.303 46.7931 213.916 46.1326 214.707 45.6591C215.503 45.1856 216.435 44.9489 217.506 44.9489C218.225 44.9489 218.895 45.0649 219.515 45.2969C220.14 45.5241 220.685 45.8674 221.149 46.3267C221.618 46.786 221.982 47.3636 222.243 48.0597C222.503 48.7509 222.633 49.5606 222.633 50.4886V51.3196H213.422V49.4446H219.785C219.785 49.009 219.691 48.6231 219.501 48.2869C219.312 47.9508 219.049 47.688 218.713 47.4986C218.381 47.3045 217.996 47.2074 217.555 47.2074C217.096 47.2074 216.689 47.3139 216.334 47.527C215.983 47.7353 215.709 48.017 215.51 48.3722C215.311 48.7225 215.209 49.1132 215.204 49.544V51.3267C215.204 51.8665 215.304 52.3329 215.503 52.7259C215.706 53.1188 215.993 53.4219 216.362 53.6349C216.731 53.848 217.169 53.9545 217.676 53.9545C218.012 53.9545 218.32 53.9072 218.599 53.8125C218.879 53.7178 219.118 53.5758 219.317 53.3864C219.515 53.197 219.667 52.965 219.771 52.6903L222.569 52.875C222.427 53.5473 222.136 54.1345 221.696 54.6364C221.26 55.1335 220.697 55.5218 220.006 55.8011C219.319 56.0758 218.526 56.2131 217.626 56.2131ZM232.127 52.0085L236.055 45.0909H239.038V56H236.154V49.0611L232.241 56H229.237V45.0909H232.127V52.0085ZM245.24 59.196V53.5994H246.078C246.319 53.4479 246.514 53.2064 246.66 52.875C246.812 52.5436 246.935 52.1529 247.03 51.7031C247.129 51.2533 247.205 50.768 247.257 50.2472C247.314 49.7216 247.363 49.1913 247.406 48.6562L247.69 45.0909H256.057V53.5994H257.747V59.196H254.863V56H248.194V59.196H245.24ZM249.089 53.5994H253.202V47.4205H250.261L250.148 48.6562C250.067 49.821 249.951 50.8106 249.8 51.625C249.648 52.4347 249.411 53.0928 249.089 53.5994ZM264.439 56.2131C263.336 56.2131 262.382 55.9787 261.577 55.5099C260.777 55.0365 260.159 54.3783 259.723 53.5355C259.288 52.688 259.07 51.7055 259.07 50.5881C259.07 49.4612 259.288 48.4763 259.723 47.6335C260.159 46.786 260.777 46.1278 261.577 45.6591C262.382 45.1856 263.336 44.9489 264.439 44.9489C265.542 44.9489 266.494 45.1856 267.294 45.6591C268.099 46.1278 268.719 46.786 269.155 47.6335C269.591 48.4763 269.808 49.4612 269.808 50.5881C269.808 51.7055 269.591 52.688 269.155 53.5355C268.719 54.3783 268.099 55.0365 267.294 55.5099C266.494 55.9787 265.542 56.2131 264.439 56.2131ZM264.453 53.8693C264.955 53.8693 265.374 53.7273 265.71 53.4432C266.047 53.1544 266.3 52.7614 266.47 52.2642C266.646 51.767 266.733 51.2012 266.733 50.5668C266.733 49.9323 266.646 49.3665 266.47 48.8693C266.3 48.3722 266.047 47.9792 265.71 47.6903C265.374 47.4015 264.955 47.2571 264.453 47.2571C263.947 47.2571 263.521 47.4015 263.175 47.6903C262.834 47.9792 262.576 48.3722 262.401 48.8693C262.23 49.3665 262.145 49.9323 262.145 50.5668C262.145 51.2012 262.23 51.767 262.401 52.2642C262.576 52.7614 262.834 53.1544 263.175 53.4432C263.521 53.7273 263.947 53.8693 264.453 53.8693ZM276.705 56.2131C275.587 56.2131 274.626 55.9763 273.821 55.5028C273.021 55.0246 272.405 54.3617 271.975 53.5142C271.548 52.6667 271.335 51.6913 271.335 50.5881C271.335 49.4706 271.551 48.4905 271.982 47.6477C272.417 46.8002 273.035 46.1397 273.835 45.6662C274.636 45.188 275.587 44.9489 276.691 44.9489C277.642 44.9489 278.476 45.1217 279.191 45.4673C279.905 45.813 280.471 46.2983 280.888 46.9233C281.305 47.5483 281.534 48.2822 281.577 49.125H278.722C278.641 48.5805 278.428 48.1425 278.083 47.8111C277.742 47.4749 277.294 47.3068 276.74 47.3068C276.271 47.3068 275.862 47.4347 275.512 47.6903C275.166 47.9413 274.896 48.3082 274.702 48.7912C274.508 49.2741 274.411 49.8589 274.411 50.5455C274.411 51.2415 274.505 51.8333 274.695 52.321C274.889 52.8087 275.161 53.1804 275.512 53.4361C275.862 53.6918 276.271 53.8196 276.74 53.8196C277.086 53.8196 277.396 53.7486 277.671 53.6065C277.95 53.4645 278.18 53.2585 278.36 52.9886C278.544 52.714 278.665 52.3849 278.722 52.0014H281.577C281.53 52.8348 281.302 53.5687 280.895 54.2031C280.493 54.8329 279.936 55.3253 279.226 55.6804C278.516 56.0355 277.675 56.2131 276.705 56.2131ZM282.77 47.4702V45.0909H292.656V47.4702H289.141V56H286.257V47.4702H282.77ZM299.029 56.2131C297.926 56.2131 296.972 55.9787 296.167 55.5099C295.367 55.0365 294.749 54.3783 294.313 53.5355C293.877 52.688 293.66 51.7055 293.66 50.5881C293.66 49.4612 293.877 48.4763 294.313 47.6335C294.749 46.786 295.367 46.1278 296.167 45.6591C296.972 45.1856 297.926 44.9489 299.029 44.9489C300.132 44.9489 301.084 45.1856 301.884 45.6591C302.689 46.1278 303.309 46.786 303.745 47.6335C304.18 48.4763 304.398 49.4612 304.398 50.5881C304.398 51.7055 304.18 52.688 303.745 53.5355C303.309 54.3783 302.689 55.0365 301.884 55.5099C301.084 55.9787 300.132 56.2131 299.029 56.2131ZM299.043 53.8693C299.545 53.8693 299.964 53.7273 300.3 53.4432C300.636 53.1544 300.89 52.7614 301.06 52.2642C301.235 51.767 301.323 51.2012 301.323 50.5668C301.323 49.9323 301.235 49.3665 301.06 48.8693C300.89 48.3722 300.636 47.9792 300.3 47.6903C299.964 47.4015 299.545 47.2571 299.043 47.2571C298.537 47.2571 298.11 47.4015 297.765 47.6903C297.424 47.9792 297.166 48.3722 296.991 48.8693C296.82 49.3665 296.735 49.9323 296.735 50.5668C296.735 51.2012 296.82 51.767 296.991 52.2642C297.166 52.7614 297.424 53.1544 297.765 53.4432C298.11 53.7273 298.537 53.8693 299.043 53.8693ZM306.366 56V45.0909H311.018C312.362 45.0909 313.425 45.3466 314.206 45.858C314.988 46.3693 315.378 47.0961 315.378 48.0384C315.378 48.6302 315.158 49.1226 314.718 49.5156C314.278 49.9086 313.667 50.1738 312.885 50.3111C313.539 50.3584 314.095 50.5076 314.555 50.7585C315.019 51.0047 315.371 51.3243 315.613 51.7173C315.859 52.1103 315.982 52.5459 315.982 53.0241C315.982 53.6444 315.816 54.1771 315.485 54.6222C315.158 55.0672 314.678 55.4081 314.043 55.6449C313.413 55.8816 312.644 56 311.735 56H306.366ZM309.185 53.7344H311.735C312.156 53.7344 312.485 53.6349 312.722 53.4361C312.964 53.2325 313.084 52.9555 313.084 52.6051C313.084 52.2169 312.964 51.9115 312.722 51.6889C312.485 51.4664 312.156 51.3551 311.735 51.3551H309.185V53.7344ZM309.185 49.5795H311.081C311.385 49.5795 311.643 49.5369 311.856 49.4517C312.073 49.3617 312.239 49.2339 312.353 49.0682C312.471 48.9025 312.53 48.706 312.53 48.4787C312.53 48.1425 312.395 47.8797 312.126 47.6903C311.856 47.5009 311.486 47.4062 311.018 47.4062H309.185V49.5795ZM322.861 56.2131C321.738 56.2131 320.773 55.9858 319.963 55.5312C319.158 55.072 318.538 54.4233 318.102 53.5852C317.666 52.7424 317.449 51.7457 317.449 50.5952C317.449 49.473 317.666 48.4882 318.102 47.6406C318.538 46.7931 319.151 46.1326 319.942 45.6591C320.737 45.1856 321.67 44.9489 322.74 44.9489C323.46 44.9489 324.13 45.0649 324.75 45.2969C325.375 45.5241 325.919 45.8674 326.383 46.3267C326.852 46.786 327.217 47.3636 327.477 48.0597C327.738 48.7509 327.868 49.5606 327.868 50.4886V51.3196H318.656V49.4446H325.02C325.02 49.009 324.925 48.6231 324.736 48.2869C324.546 47.9508 324.283 47.688 323.947 47.4986C323.616 47.3045 323.23 47.2074 322.79 47.2074C322.33 47.2074 321.923 47.3139 321.568 47.527C321.218 47.7353 320.943 48.017 320.744 48.3722C320.545 48.7225 320.443 49.1132 320.439 49.544V51.3267C320.439 51.8665 320.538 52.3329 320.737 52.7259C320.941 53.1188 321.227 53.4219 321.596 53.6349C321.966 53.848 322.404 53.9545 322.91 53.9545C323.247 53.9545 323.554 53.9072 323.834 53.8125C324.113 53.7178 324.352 53.5758 324.551 53.3864C324.75 53.197 324.901 52.965 325.006 52.6903L327.804 52.875C327.662 53.5473 327.371 54.1345 326.93 54.6364C326.495 55.1335 325.931 55.5218 325.24 55.8011C324.553 56.0758 323.76 56.2131 322.861 56.2131ZM329.842 60.0909V45.0909H332.825V46.9233H332.96C333.093 46.6297 333.284 46.3314 333.535 46.0284C333.791 45.7206 334.122 45.465 334.53 45.2614C334.942 45.053 335.453 44.9489 336.064 44.9489C336.859 44.9489 337.593 45.1572 338.265 45.5739C338.938 45.9858 339.475 46.6084 339.878 47.4418C340.28 48.2704 340.481 49.3097 340.481 50.5597C340.481 51.7765 340.285 52.804 339.892 53.642C339.504 54.4754 338.973 55.1075 338.301 55.5384C337.633 55.9645 336.885 56.1776 336.057 56.1776C335.47 56.1776 334.97 56.0805 334.558 55.8864C334.151 55.6922 333.817 55.4484 333.557 55.1548C333.296 54.8565 333.097 54.5559 332.96 54.2528H332.868V60.0909H329.842ZM332.804 50.5455C332.804 51.1941 332.894 51.7599 333.074 52.2429C333.254 52.7259 333.514 53.1023 333.855 53.3722C334.196 53.6373 334.61 53.7699 335.098 53.7699C335.59 53.7699 336.007 53.6349 336.348 53.3651C336.689 53.0904 336.947 52.7116 337.122 52.2287C337.302 51.741 337.392 51.1799 337.392 50.5455C337.392 49.9157 337.304 49.3617 337.129 48.8835C336.954 48.4053 336.696 48.0312 336.355 47.7614C336.014 47.4915 335.595 47.3565 335.098 47.3565C334.605 47.3565 334.189 47.4867 333.848 47.7472C333.512 48.0076 333.254 48.3769 333.074 48.8551C332.894 49.3333 332.804 49.8968 332.804 50.5455ZM350.091 49.3381V51.7173H344.395V49.3381H350.091ZM345.389 45.0909V56H342.498V45.0909H345.389ZM351.987 45.0909V56H349.118V45.0909H351.987ZM359.263 56.2131C358.16 56.2131 357.206 55.9787 356.401 55.5099C355.601 55.0365 354.983 54.3783 354.547 53.5355C354.112 52.688 353.894 51.7055 353.894 50.5881C353.894 49.4612 354.112 48.4763 354.547 47.6335C354.983 46.786 355.601 46.1278 356.401 45.6591C357.206 45.1856 358.16 44.9489 359.263 44.9489C360.367 44.9489 361.318 45.1856 362.118 45.6591C362.923 46.1278 363.544 46.786 363.979 47.6335C364.415 48.4763 364.633 49.4612 364.633 50.5881C364.633 51.7055 364.415 52.688 363.979 53.5355C363.544 54.3783 362.923 55.0365 362.118 55.5099C361.318 55.9787 360.367 56.2131 359.263 56.2131ZM359.278 53.8693C359.779 53.8693 360.198 53.7273 360.535 53.4432C360.871 53.1544 361.124 52.7614 361.295 52.2642C361.47 51.767 361.557 51.2012 361.557 50.5668C361.557 49.9323 361.47 49.3665 361.295 48.8693C361.124 48.3722 360.871 47.9792 360.535 47.6903C360.198 47.4015 359.779 47.2571 359.278 47.2571C358.771 47.2571 358.345 47.4015 357.999 47.6903C357.658 47.9792 357.4 48.3722 357.225 48.8693C357.055 49.3665 356.969 49.9323 356.969 50.5668C356.969 51.2012 357.055 51.767 357.225 52.2642C357.4 52.7614 357.658 53.1544 357.999 53.4432C358.345 53.7273 358.771 53.8693 359.278 53.8693ZM371.572 56.2131C370.449 56.2131 369.483 55.9858 368.674 55.5312C367.869 55.072 367.249 54.4233 366.813 53.5852C366.377 52.7424 366.16 51.7457 366.16 50.5952C366.16 49.473 366.377 48.4882 366.813 47.6406C367.249 46.7931 367.862 46.1326 368.653 45.6591C369.448 45.1856 370.381 44.9489 371.451 44.9489C372.171 44.9489 372.84 45.0649 373.461 45.2969C374.086 45.5241 374.63 45.8674 375.094 46.3267C375.563 46.786 375.928 47.3636 376.188 48.0597C376.448 48.7509 376.579 49.5606 376.579 50.4886V51.3196H367.367V49.4446H373.731C373.731 49.009 373.636 48.6231 373.447 48.2869C373.257 47.9508 372.994 47.688 372.658 47.4986C372.327 47.3045 371.941 47.2074 371.501 47.2074C371.041 47.2074 370.634 47.3139 370.279 47.527C369.929 47.7353 369.654 48.017 369.455 48.3722C369.256 48.7225 369.154 49.1132 369.15 49.544V51.3267C369.15 51.8665 369.249 52.3329 369.448 52.7259C369.652 53.1188 369.938 53.4219 370.307 53.6349C370.677 53.848 371.115 53.9545 371.621 53.9545C371.957 53.9545 372.265 53.9072 372.545 53.8125C372.824 53.7178 373.063 53.5758 373.262 53.3864C373.461 53.197 373.612 52.965 373.716 52.6903L376.515 52.875C376.373 53.5473 376.081 54.1345 375.641 54.6364C375.206 55.1335 374.642 55.5218 373.951 55.8011C373.264 56.0758 372.471 56.2131 371.572 56.2131ZM383.182 56V45.0909H392.72V56H389.83V47.4702H386.037V56H383.182ZM400.064 56.2131C398.961 56.2131 398.007 55.9787 397.202 55.5099C396.402 55.0365 395.784 54.3783 395.348 53.5355C394.913 52.688 394.695 51.7055 394.695 50.5881C394.695 49.4612 394.913 48.4763 395.348 47.6335C395.784 46.786 396.402 46.1278 397.202 45.6591C398.007 45.1856 398.961 44.9489 400.064 44.9489C401.167 44.9489 402.119 45.1856 402.919 45.6591C403.724 46.1278 404.344 46.786 404.78 47.6335C405.216 48.4763 405.433 49.4612 405.433 50.5881C405.433 51.7055 405.216 52.688 404.78 53.5355C404.344 54.3783 403.724 55.0365 402.919 55.5099C402.119 55.9787 401.167 56.2131 400.064 56.2131ZM400.078 53.8693C400.58 53.8693 400.999 53.7273 401.335 53.4432C401.672 53.1544 401.925 52.7614 402.095 52.2642C402.271 51.767 402.358 51.2012 402.358 50.5668C402.358 49.9323 402.271 49.3665 402.095 48.8693C401.925 48.3722 401.672 47.9792 401.335 47.6903C400.999 47.4015 400.58 47.2571 400.078 47.2571C399.572 47.2571 399.146 47.4015 398.8 47.6903C398.459 47.9792 398.201 48.3722 398.026 48.8693C397.855 49.3665 397.77 49.9323 397.77 50.5668C397.77 51.2012 397.855 51.767 398.026 52.2642C398.201 52.7614 398.459 53.1544 398.8 53.4432C399.146 53.7273 399.572 53.8693 400.078 53.8693ZM406.84 52.9105H409.773C409.787 53.2704 409.948 53.5545 410.256 53.7628C410.564 53.9711 410.961 54.0753 411.449 54.0753C411.941 54.0753 412.356 53.9616 412.692 53.7344C413.028 53.5024 413.196 53.1709 413.196 52.7401C413.196 52.4749 413.13 52.2453 412.997 52.0511C412.865 51.8523 412.68 51.696 412.443 51.5824C412.207 51.4687 411.932 51.4119 411.619 51.4119H410.05V49.4304H411.619C412.088 49.4304 412.448 49.3215 412.699 49.1037C412.955 48.8859 413.083 48.6136 413.083 48.2869C413.083 47.9176 412.95 47.6217 412.685 47.3991C412.424 47.1719 412.072 47.0582 411.627 47.0582C411.177 47.0582 410.803 47.16 410.504 47.3636C410.211 47.5625 410.059 47.8229 410.05 48.1449H407.131C407.14 47.4915 407.337 46.9257 407.72 46.4474C408.109 45.9692 408.629 45.5999 409.283 45.3395C409.941 45.0791 410.677 44.9489 411.492 44.9489C412.382 44.9489 413.149 45.0743 413.793 45.3253C414.441 45.5715 414.939 45.9242 415.284 46.3835C415.635 46.8428 415.81 47.3897 415.81 48.0241C415.81 48.6018 415.62 49.0848 415.242 49.473C414.863 49.8613 414.333 50.1383 413.651 50.304V50.4176C414.101 50.446 414.508 50.5668 414.872 50.7798C415.237 50.9929 415.528 51.2865 415.746 51.6605C415.964 52.0298 416.073 52.4678 416.073 52.9744C416.073 53.6515 415.874 54.2315 415.476 54.7145C415.083 55.1974 414.539 55.5691 413.843 55.8295C413.151 56.0852 412.358 56.2131 411.463 56.2131C410.592 56.2131 409.811 56.0876 409.119 55.8366C408.433 55.581 407.886 55.2069 407.479 54.7145C407.076 54.2221 406.863 53.6207 406.84 52.9105ZM425.52 49.3381V51.7173H419.824V49.3381H425.52ZM420.819 45.0909V56H417.928V45.0909H420.819ZM427.417 45.0909V56H424.547V45.0909H427.417ZM432.875 56.206C432.179 56.206 431.559 56.0852 431.014 55.8438C430.47 55.5975 430.039 55.2353 429.721 54.7571C429.409 54.2741 429.253 53.6728 429.253 52.9531C429.253 52.3471 429.364 51.8381 429.586 51.4261C429.809 51.0142 430.112 50.6828 430.496 50.4318C430.879 50.1809 431.315 49.9915 431.802 49.8636C432.295 49.7358 432.811 49.6458 433.351 49.5938C433.985 49.5275 434.497 49.4659 434.885 49.4091C435.273 49.3475 435.555 49.2576 435.73 49.1392C435.905 49.0208 435.993 48.8456 435.993 48.6136V48.571C435.993 48.1212 435.851 47.7732 435.567 47.527C435.287 47.2808 434.89 47.1577 434.373 47.1577C433.829 47.1577 433.396 47.2784 433.074 47.5199C432.752 47.7566 432.539 48.0549 432.434 48.4148L429.636 48.1875C429.778 47.5246 430.058 46.9517 430.474 46.4688C430.891 45.9811 431.428 45.607 432.086 45.3466C432.749 45.0814 433.516 44.9489 434.388 44.9489C434.994 44.9489 435.574 45.0199 436.128 45.1619C436.686 45.304 437.181 45.5241 437.612 45.8224C438.048 46.1207 438.391 46.5043 438.642 46.973C438.893 47.437 439.018 47.9934 439.018 48.642V56H436.149V54.4872H436.064C435.889 54.8281 435.654 55.1288 435.361 55.3892C435.067 55.6449 434.714 55.8461 434.302 55.9929C433.89 56.1349 433.415 56.206 432.875 56.206ZM433.741 54.1179C434.186 54.1179 434.579 54.0303 434.92 53.8551C435.261 53.6752 435.529 53.4337 435.723 53.1307C435.917 52.8277 436.014 52.4844 436.014 52.1009V50.9432C435.919 51.0047 435.789 51.0616 435.623 51.1136C435.462 51.161 435.28 51.206 435.077 51.2486C434.873 51.2865 434.669 51.322 434.466 51.3551C434.262 51.3835 434.077 51.4096 433.912 51.4332C433.557 51.4853 433.247 51.5682 432.981 51.6818C432.716 51.7955 432.51 51.9493 432.363 52.1435C432.217 52.3329 432.143 52.5696 432.143 52.8537C432.143 53.2656 432.292 53.5805 432.591 53.7983C432.894 54.0114 433.277 54.1179 433.741 54.1179ZM448.958 49.3381V51.7173H443.262V49.3381H448.958ZM444.256 45.0909V56H441.366V45.0909H444.256ZM450.854 45.0909V56H447.985V45.0909H450.854ZM456.092 52.0085L460.02 45.0909H463.003V56H460.119V49.0611L456.206 56H453.202V45.0909H456.092V52.0085ZM470.4 56.2131C469.278 56.2131 468.312 55.9858 467.502 55.5312C466.697 55.072 466.077 54.4233 465.641 53.5852C465.206 52.7424 464.988 51.7457 464.988 50.5952C464.988 49.473 465.206 48.4882 465.641 47.6406C466.077 46.7931 466.69 46.1326 467.481 45.6591C468.276 45.1856 469.209 44.9489 470.279 44.9489C470.999 44.9489 471.669 45.0649 472.289 45.2969C472.914 45.5241 473.458 45.8674 473.922 46.3267C474.391 46.786 474.756 47.3636 475.016 48.0597C475.277 48.7509 475.407 49.5606 475.407 50.4886V51.3196H466.195V49.4446H472.559C472.559 49.009 472.464 48.6231 472.275 48.2869C472.085 47.9508 471.823 47.688 471.486 47.4986C471.155 47.3045 470.769 47.2074 470.329 47.2074C469.869 47.2074 469.462 47.3139 469.107 47.527C468.757 47.7353 468.482 48.017 468.283 48.3722C468.084 48.7225 467.983 49.1132 467.978 49.544V51.3267C467.978 51.8665 468.077 52.3329 468.276 52.7259C468.48 53.1188 468.766 53.4219 469.135 53.6349C469.505 53.848 469.943 53.9545 470.449 53.9545C470.786 53.9545 471.093 53.9072 471.373 53.8125C471.652 53.7178 471.891 53.5758 472.09 53.3864C472.289 53.197 472.44 52.965 472.545 52.6903L475.343 52.875C475.201 53.5473 474.91 54.1345 474.469 54.6364C474.034 55.1335 473.47 55.5218 472.779 55.8011C472.092 56.0758 471.299 56.2131 470.4 56.2131ZM486.939 56.2131C485.836 56.2131 484.882 55.9787 484.077 55.5099C483.277 55.0365 482.659 54.3783 482.223 53.5355C481.788 52.688 481.57 51.7055 481.57 50.5881C481.57 49.4612 481.788 48.4763 482.223 47.6335C482.659 46.786 483.277 46.1278 484.077 45.6591C484.882 45.1856 485.836 44.9489 486.939 44.9489C488.042 44.9489 488.994 45.1856 489.794 45.6591C490.599 46.1278 491.219 46.786 491.655 47.6335C492.091 48.4763 492.308 49.4612 492.308 50.5881C492.308 51.7055 492.091 52.688 491.655 53.5355C491.219 54.3783 490.599 55.0365 489.794 55.5099C488.994 55.9787 488.042 56.2131 486.939 56.2131ZM486.953 53.8693C487.455 53.8693 487.874 53.7273 488.21 53.4432C488.547 53.1544 488.8 52.7614 488.97 52.2642C489.146 51.767 489.233 51.2012 489.233 50.5668C489.233 49.9323 489.146 49.3665 488.97 48.8693C488.8 48.3722 488.547 47.9792 488.21 47.6903C487.874 47.4015 487.455 47.2571 486.953 47.2571C486.447 47.2571 486.021 47.4015 485.675 47.6903C485.334 47.9792 485.076 48.3722 484.901 48.8693C484.73 49.3665 484.645 49.9323 484.645 50.5668C484.645 51.2012 484.73 51.767 484.901 52.2642C485.076 52.7614 485.334 53.1544 485.675 53.4432C486.021 53.7273 486.447 53.8693 486.953 53.8693ZM494.276 56V45.0909H497.301V49.3239H498.154L501.122 45.0909H504.673L500.817 50.5028L504.716 56H501.122L498.431 52.1293H497.301V56H494.276ZM505.994 60.0909V45.0909H508.977V46.9233H509.112C509.245 46.6297 509.437 46.3314 509.688 46.0284C509.943 45.7206 510.275 45.465 510.682 45.2614C511.094 45.053 511.605 44.9489 512.216 44.9489C513.012 44.9489 513.745 45.1572 514.418 45.5739C515.09 45.9858 515.628 46.6084 516.03 47.4418C516.432 48.2704 516.634 49.3097 516.634 50.5597C516.634 51.7765 516.437 52.804 516.044 53.642C515.656 54.4754 515.126 55.1075 514.453 55.5384C513.786 55.9645 513.038 56.1776 512.209 56.1776C511.622 56.1776 511.122 56.0805 510.71 55.8864C510.303 55.6922 509.969 55.4484 509.709 55.1548C509.449 54.8565 509.25 54.5559 509.112 54.2528H509.02V60.0909H505.994ZM508.956 50.5455C508.956 51.1941 509.046 51.7599 509.226 52.2429C509.406 52.7259 509.666 53.1023 510.007 53.3722C510.348 53.6373 510.762 53.7699 511.25 53.7699C511.743 53.7699 512.159 53.6349 512.5 53.3651C512.841 53.0904 513.099 52.7116 513.274 52.2287C513.454 51.741 513.544 51.1799 513.544 50.5455C513.544 49.9157 513.457 49.3617 513.281 48.8835C513.106 48.4053 512.848 48.0312 512.507 47.7614C512.166 47.4915 511.747 47.3565 511.25 47.3565C510.758 47.3565 510.341 47.4867 510 47.7472C509.664 48.0076 509.406 48.3769 509.226 48.8551C509.046 49.3333 508.956 49.8968 508.956 50.5455ZM520.167 60.0909C519.784 60.0909 519.424 60.0601 519.088 59.9986C518.756 59.9418 518.481 59.8684 518.264 59.7784L518.945 57.5199C519.301 57.6288 519.62 57.688 519.904 57.6974C520.193 57.7069 520.442 57.6406 520.65 57.4986C520.863 57.3565 521.036 57.1151 521.169 56.7741L521.346 56.3125L517.433 45.0909H520.615L522.873 53.1023H522.987L525.267 45.0909H528.47L524.23 57.179C524.026 57.7661 523.749 58.2775 523.399 58.7131C523.053 59.1534 522.615 59.492 522.085 59.7287C521.554 59.9702 520.915 60.0909 520.167 60.0909ZM529.308 56L533.122 50.3253L529.329 45.0909H532.781L535.615 49.3594H536.083V45.0909H539.109V49.3594H539.563L542.397 45.0909H545.849L542.063 50.3253L545.87 56H542.34L539.535 51.7386H539.109V56H536.083V51.7386H535.657L532.838 56H529.308ZM550.629 56.206C549.933 56.206 549.312 56.0852 548.768 55.8438C548.223 55.5975 547.793 55.2353 547.475 54.7571C547.163 54.2741 547.007 53.6728 547.007 52.9531C547.007 52.3471 547.118 51.8381 547.34 51.4261C547.563 51.0142 547.866 50.6828 548.249 50.4318C548.633 50.1809 549.069 49.9915 549.556 49.8636C550.049 49.7358 550.565 49.6458 551.105 49.5938C551.739 49.5275 552.25 49.4659 552.639 49.4091C553.027 49.3475 553.309 49.2576 553.484 49.1392C553.659 49.0208 553.747 48.8456 553.747 48.6136V48.571C553.747 48.1212 553.605 47.7732 553.32 47.527C553.041 47.2808 552.643 47.1577 552.127 47.1577C551.583 47.1577 551.15 47.2784 550.828 47.5199C550.506 47.7566 550.293 48.0549 550.188 48.4148L547.39 48.1875C547.532 47.5246 547.811 46.9517 548.228 46.4688C548.645 45.9811 549.182 45.607 549.84 45.3466C550.503 45.0814 551.27 44.9489 552.142 44.9489C552.748 44.9489 553.328 45.0199 553.882 45.1619C554.44 45.304 554.935 45.5241 555.366 45.8224C555.802 46.1207 556.145 46.5043 556.396 46.973C556.647 47.437 556.772 47.9934 556.772 48.642V56H553.903V54.4872H553.818C553.642 54.8281 553.408 55.1288 553.115 55.3892C552.821 55.6449 552.468 55.8461 552.056 55.9929C551.644 56.1349 551.169 56.206 550.629 56.206ZM551.495 54.1179C551.94 54.1179 552.333 54.0303 552.674 53.8551C553.015 53.6752 553.283 53.4337 553.477 53.1307C553.671 52.8277 553.768 52.4844 553.768 52.1009V50.9432C553.673 51.0047 553.543 51.0616 553.377 51.1136C553.216 51.161 553.034 51.206 552.83 51.2486C552.627 51.2865 552.423 51.322 552.22 51.3551C552.016 51.3835 551.831 51.4096 551.666 51.4332C551.311 51.4853 551 51.5682 550.735 51.6818C550.47 51.7955 550.264 51.9493 550.117 52.1435C549.971 52.3329 549.897 52.5696 549.897 52.8537C549.897 53.2656 550.046 53.5805 550.345 53.7983C550.648 54.0114 551.031 54.1179 551.495 54.1179ZM565.149 49.402V51.8026H559.233V49.402H565.149ZM561.57 45.0909V56H558.551V45.0909H561.57ZM568.416 56.2131C567.337 56.2131 566.404 55.9716 565.618 55.4886C564.832 55.0057 564.226 54.3381 563.8 53.4858C563.378 52.6335 563.168 51.6558 563.168 50.5526C563.168 49.4493 563.378 48.4763 563.8 47.6335C564.226 46.7907 564.832 46.1326 565.618 45.6591C566.404 45.1856 567.337 44.9489 568.416 44.9489C569.501 44.9489 570.433 45.1856 571.215 45.6591C572.001 46.1326 572.604 46.7907 573.026 47.6335C573.452 48.4763 573.665 49.4493 573.665 50.5526C573.665 51.6558 573.452 52.6335 573.026 53.4858C572.604 54.3381 572.001 55.0057 571.215 55.4886C570.433 55.9716 569.501 56.2131 568.416 56.2131ZM568.416 53.7699C568.98 53.7699 569.434 53.6326 569.78 53.358C570.126 53.0786 570.379 52.6974 570.54 52.2145C570.701 51.7268 570.781 51.1728 570.781 50.5526C570.781 49.9323 570.701 49.383 570.54 48.9048C570.379 48.4219 570.126 48.0431 569.78 47.7685C569.434 47.4938 568.98 47.3565 568.416 47.3565C567.858 47.3565 567.403 47.4938 567.053 47.7685C566.702 48.0384 566.444 48.4124 566.279 48.8906C566.118 49.3688 566.037 49.9228 566.037 50.5526C566.037 51.1776 566.118 51.7315 566.279 52.2145C566.444 52.6974 566.702 53.0786 567.053 53.358C567.403 53.6326 567.858 53.7699 568.416 53.7699ZM592.859 53.6207L592.646 59.125H589.869V56H588.654V53.6207H592.859ZM575.721 45.0909H578.612V53.5994H581.687V45.0909H584.578V53.5994H587.653V45.0909H590.544V56H575.721V45.0909ZM599.521 56.2131C598.399 56.2131 597.433 55.9858 596.623 55.5312C595.818 55.072 595.198 54.4233 594.762 53.5852C594.327 52.7424 594.109 51.7457 594.109 50.5952C594.109 49.473 594.327 48.4882 594.762 47.6406C595.198 46.7931 595.811 46.1326 596.602 45.6591C597.397 45.1856 598.33 44.9489 599.4 44.9489C600.12 44.9489 600.79 45.0649 601.41 45.2969C602.035 45.5241 602.579 45.8674 603.044 46.3267C603.512 46.786 603.877 47.3636 604.137 48.0597C604.398 48.7509 604.528 49.5606 604.528 50.4886V51.3196H595.316V49.4446H601.68C601.68 49.009 601.585 48.6231 601.396 48.2869C601.206 47.9508 600.944 47.688 600.607 47.4986C600.276 47.3045 599.89 47.2074 599.45 47.2074C598.99 47.2074 598.583 47.3139 598.228 47.527C597.878 47.7353 597.603 48.017 597.404 48.3722C597.205 48.7225 597.104 49.1132 597.099 49.544V51.3267C597.099 51.8665 597.198 52.3329 597.397 52.7259C597.601 53.1188 597.887 53.4219 598.257 53.6349C598.626 53.848 599.064 53.9545 599.57 53.9545C599.907 53.9545 600.214 53.9072 600.494 53.8125C600.773 53.7178 601.012 53.5758 601.211 53.3864C601.41 53.197 601.561 52.965 601.666 52.6903L604.464 52.875C604.322 53.5473 604.031 54.1345 603.59 54.6364C603.155 55.1335 602.591 55.5218 601.9 55.8011C601.213 56.0758 600.42 56.2131 599.521 56.2131ZM609.393 52.0085L613.32 45.0909H616.303V56H613.42V49.0611L609.507 56H606.502V45.0909H609.393V52.0085ZM612.802 41.2841H614.911C614.907 42.1458 614.587 42.8395 613.953 43.3651C613.323 43.8906 612.471 44.1534 611.396 44.1534C610.316 44.1534 609.462 43.8906 608.832 43.3651C608.202 42.8395 607.887 42.1458 607.887 41.2841H609.982C609.978 41.6108 610.082 41.9044 610.295 42.1648C610.513 42.4252 610.88 42.5554 611.396 42.5554C611.898 42.5554 612.258 42.4276 612.475 42.1719C612.693 41.9162 612.802 41.6203 612.802 41.2841ZM82.1735 83.196V77.5994H83.0115C83.253 77.4479 83.4471 77.2064 83.5939 76.875C83.7454 76.5436 83.8685 76.1529 83.9632 75.7031C84.0627 75.2533 84.1384 74.768 84.1905 74.2472C84.2473 73.7216 84.2971 73.1913 84.3397 72.6562L84.6238 69.0909H92.9902V77.5994H94.6806V83.196H91.7971V80H85.128V83.196H82.1735ZM86.0229 77.5994H90.1351V71.4205H87.1948L87.0811 72.6562C87.0007 73.821 86.8846 74.8106 86.7331 75.625C86.5816 76.4347 86.3449 77.0928 86.0229 77.5994ZM101.415 80.2131C100.293 80.2131 99.3272 79.9858 98.5176 79.5312C97.7127 79.072 97.0924 78.4233 96.6568 77.5852C96.2212 76.7424 96.0034 75.7457 96.0034 74.5952C96.0034 73.473 96.2212 72.4882 96.6568 71.6406C97.0924 70.7931 97.7056 70.1326 98.4963 69.6591C99.2917 69.1856 100.224 68.9489 101.295 68.9489C102.014 68.9489 102.684 69.0649 103.305 69.2969C103.93 69.5241 104.474 69.8674 104.938 70.3267C105.407 70.786 105.771 71.3636 106.032 72.0597C106.292 72.7509 106.422 73.5606 106.422 74.4886V75.3196H97.2108V73.4446H103.574C103.574 73.009 103.48 72.6231 103.29 72.2869C103.101 71.9508 102.838 71.688 102.502 71.4986C102.171 71.3045 101.785 71.2074 101.344 71.2074C100.885 71.2074 100.478 71.3139 100.123 71.527C99.7723 71.7353 99.4977 72.017 99.2988 72.3722C99.1 72.7225 98.9982 73.1132 98.9934 73.544V75.3267C98.9934 75.8665 99.0929 76.3329 99.2917 76.7259C99.4953 77.1188 99.7818 77.4219 100.151 77.6349C100.52 77.848 100.958 77.9545 101.465 77.9545C101.801 77.9545 102.109 77.9072 102.388 77.8125C102.668 77.7178 102.907 77.5758 103.106 77.3864C103.305 77.197 103.456 76.965 103.56 76.6903L106.358 76.875C106.216 77.5473 105.925 78.1345 105.485 78.6364C105.049 79.1335 104.486 79.5218 103.795 79.8011C103.108 80.0758 102.315 80.2131 101.415 80.2131ZM111.287 76.0085L115.215 69.0909H118.198V80H115.314V73.0611L111.401 80H108.397V69.0909H111.287V76.0085ZM114.697 65.2841H116.806C116.801 66.1458 116.482 66.8395 115.847 67.3651C115.217 67.8906 114.365 68.1534 113.29 68.1534C112.211 68.1534 111.356 67.8906 110.726 67.3651C110.097 66.8395 109.782 66.1458 109.782 65.2841H111.877C111.872 65.6108 111.976 65.9044 112.189 66.1648C112.407 66.4252 112.774 66.5554 113.29 66.5554C113.792 66.5554 114.152 66.4276 114.37 66.1719C114.588 65.9162 114.697 65.6203 114.697 65.2841ZM125.552 80.2131C124.435 80.2131 123.474 79.9763 122.669 79.5028C121.869 79.0246 121.253 78.3617 120.822 77.5142C120.396 76.6667 120.183 75.6913 120.183 74.5881C120.183 73.4706 120.398 72.4905 120.829 71.6477C121.265 70.8002 121.883 70.1397 122.683 69.6662C123.483 69.188 124.435 68.9489 125.538 68.9489C126.49 68.9489 127.323 69.1217 128.038 69.4673C128.753 69.813 129.319 70.2983 129.736 70.9233C130.152 71.5483 130.382 72.2822 130.425 73.125H127.569C127.489 72.5805 127.276 72.1425 126.93 71.8111C126.589 71.4749 126.142 71.3068 125.588 71.3068C125.119 71.3068 124.71 71.4347 124.359 71.6903C124.014 71.9413 123.744 72.3082 123.55 72.7912C123.355 73.2741 123.258 73.8589 123.258 74.5455C123.258 75.2415 123.353 75.8333 123.542 76.321C123.737 76.8087 124.009 77.1804 124.359 77.4361C124.71 77.6918 125.119 77.8196 125.588 77.8196C125.934 77.8196 126.244 77.7486 126.518 77.6065C126.798 77.4645 127.027 77.2585 127.207 76.9886C127.392 76.714 127.513 76.3849 127.569 76.0014H130.425C130.377 76.8348 130.15 77.5687 129.743 78.2031C129.34 78.8329 128.784 79.3253 128.074 79.6804C127.363 80.0355 126.523 80.2131 125.552 80.2131ZM131.618 71.4702V69.0909H141.504V71.4702H137.988V80H135.105V71.4702H131.618ZM143.338 80V69.0909H147.99C149.335 69.0909 150.398 69.3466 151.179 69.858C151.96 70.3693 152.351 71.0961 152.351 72.0384C152.351 72.6302 152.131 73.1226 151.691 73.5156C151.25 73.9086 150.639 74.1738 149.858 74.3111C150.512 74.3584 151.068 74.5076 151.527 74.7585C151.991 75.0047 152.344 75.3243 152.585 75.7173C152.832 76.1103 152.955 76.5459 152.955 77.0241C152.955 77.6444 152.789 78.1771 152.458 78.6222C152.131 79.0672 151.65 79.4081 151.016 79.6449C150.386 79.8816 149.617 80 148.708 80H143.338ZM146.158 77.7344H148.708C149.129 77.7344 149.458 77.6349 149.695 77.4361C149.936 77.2325 150.057 76.9555 150.057 76.6051C150.057 76.2169 149.936 75.9115 149.695 75.6889C149.458 75.4664 149.129 75.3551 148.708 75.3551H146.158V77.7344ZM146.158 73.5795H148.054C148.357 73.5795 148.615 73.5369 148.828 73.4517C149.046 73.3617 149.212 73.2339 149.325 73.0682C149.444 72.9025 149.503 72.706 149.503 72.4787C149.503 72.1425 149.368 71.8797 149.098 71.6903C148.828 71.5009 148.459 71.4062 147.99 71.4062H146.158V73.5795ZM157.752 76.0085L161.68 69.0909H164.663V80H161.779V73.0611L157.866 80H154.862V69.0909H157.752V76.0085ZM165.993 71.4702V69.0909H175.879V71.4702H172.363V80H169.48V71.4702H165.993ZM182.294 80.2131C181.172 80.2131 180.206 79.9858 179.396 79.5312C178.592 79.072 177.971 78.4233 177.536 77.5852C177.1 76.7424 176.882 75.7457 176.882 74.5952C176.882 73.473 177.1 72.4882 177.536 71.6406C177.971 70.7931 178.584 70.1326 179.375 69.6591C180.171 69.1856 181.103 68.9489 182.173 68.9489C182.893 68.9489 183.563 69.0649 184.183 69.2969C184.808 69.5241 185.353 69.8674 185.817 70.3267C186.286 70.786 186.65 71.3636 186.911 72.0597C187.171 72.7509 187.301 73.5606 187.301 74.4886V75.3196H178.09V73.4446H184.453C184.453 73.009 184.359 72.6231 184.169 72.2869C183.98 71.9508 183.717 71.688 183.381 71.4986C183.049 71.3045 182.664 71.2074 182.223 71.2074C181.764 71.2074 181.357 71.3139 181.002 71.527C180.651 71.7353 180.377 72.017 180.178 72.3722C179.979 72.7225 179.877 73.1132 179.872 73.544V75.3267C179.872 75.8665 179.972 76.3329 180.171 76.7259C180.374 77.1188 180.661 77.4219 181.03 77.6349C181.399 77.848 181.837 77.9545 182.344 77.9545C182.68 77.9545 182.988 77.9072 183.267 77.8125C183.547 77.7178 183.786 77.5758 183.985 77.3864C184.183 77.197 184.335 76.965 184.439 76.6903L187.237 76.875C187.095 77.5473 186.804 78.1345 186.364 78.6364C185.928 79.1335 185.365 79.5218 184.673 79.8011C183.987 80.0758 183.194 80.2131 182.294 80.2131ZM188.637 80L188.622 77.5994H188.985C189.24 77.5994 189.46 77.5379 189.645 77.4148C189.834 77.2869 189.991 77.081 190.114 76.7969C190.237 76.5128 190.334 76.1364 190.405 75.6676C190.476 75.1941 190.523 74.6117 190.547 73.9205L190.725 69.0909H199.02V80H196.137V71.4702H193.445L193.274 74.8011C193.232 75.715 193.12 76.5009 192.941 77.1591C192.765 77.8172 192.521 78.357 192.209 78.7784C191.896 79.1951 191.52 79.5028 191.08 79.7017C190.639 79.9006 190.128 80 189.546 80H188.637ZM203.262 72.4432H206.522C207.966 72.4432 209.093 72.7888 209.903 73.4801C210.712 74.1667 211.117 75.0852 211.117 76.2358C211.117 76.9839 210.935 77.642 210.57 78.2102C210.206 78.7737 209.68 79.214 208.993 79.5312C208.307 79.8438 207.483 80 206.522 80H201.366V69.0909H204.256V77.6207H206.522C207.028 77.6207 207.445 77.4929 207.772 77.2372C208.099 76.9815 208.264 76.6548 208.269 76.2571C208.264 75.8357 208.099 75.4924 207.772 75.2273C207.445 74.9574 207.028 74.8224 206.522 74.8224H203.262V72.4432ZM220.716 73.3381V75.7173H215.02V73.3381H220.716ZM216.014 69.0909V80H213.123V69.0909H216.014ZM222.612 69.0909V80H219.743V69.0909H222.612ZM229.888 80.2131C228.785 80.2131 227.831 79.9787 227.026 79.5099C226.226 79.0365 225.608 78.3783 225.172 77.5355C224.737 76.688 224.519 75.7055 224.519 74.5881C224.519 73.4612 224.737 72.4763 225.172 71.6335C225.608 70.786 226.226 70.1278 227.026 69.6591C227.831 69.1856 228.785 68.9489 229.888 68.9489C230.992 68.9489 231.943 69.1856 232.743 69.6591C233.548 70.1278 234.169 70.786 234.604 71.6335C235.04 72.4763 235.258 73.4612 235.258 74.5881C235.258 75.7055 235.04 76.688 234.604 77.5355C234.169 78.3783 233.548 79.0365 232.743 79.5099C231.943 79.9787 230.992 80.2131 229.888 80.2131ZM229.903 77.8693C230.404 77.8693 230.823 77.7273 231.16 77.4432C231.496 77.1544 231.749 76.7614 231.92 76.2642C232.095 75.767 232.182 75.2012 232.182 74.5668C232.182 73.9323 232.095 73.3665 231.92 72.8693C231.749 72.3722 231.496 71.9792 231.16 71.6903C230.823 71.4015 230.404 71.2571 229.903 71.2571C229.396 71.2571 228.97 71.4015 228.624 71.6903C228.283 71.9792 228.025 72.3722 227.85 72.8693C227.68 73.3665 227.594 73.9323 227.594 74.5668C227.594 75.2012 227.68 75.767 227.85 76.2642C228.025 76.7614 228.283 77.1544 228.624 77.4432C228.97 77.7273 229.396 77.8693 229.903 77.8693ZM242.154 80.2131C241.037 80.2131 240.075 79.9763 239.27 79.5028C238.47 79.0246 237.855 78.3617 237.424 77.5142C236.998 76.6667 236.785 75.6913 236.785 74.5881C236.785 73.4706 237 72.4905 237.431 71.6477C237.867 70.8002 238.484 70.1397 239.285 69.6662C240.085 69.188 241.037 68.9489 242.14 68.9489C243.091 68.9489 243.925 69.1217 244.64 69.4673C245.355 69.813 245.921 70.2983 246.337 70.9233C246.754 71.5483 246.983 72.2822 247.026 73.125H244.171C244.09 72.5805 243.877 72.1425 243.532 71.8111C243.191 71.4749 242.743 71.3068 242.189 71.3068C241.721 71.3068 241.311 71.4347 240.961 71.6903C240.615 71.9413 240.345 72.3082 240.151 72.7912C239.957 73.2741 239.86 73.8589 239.86 74.5455C239.86 75.2415 239.955 75.8333 240.144 76.321C240.338 76.8087 240.61 77.1804 240.961 77.4361C241.311 77.6918 241.721 77.8196 242.189 77.8196C242.535 77.8196 242.845 77.7486 243.12 77.6065C243.399 77.4645 243.629 77.2585 243.809 76.9886C243.993 76.714 244.114 76.3849 244.171 76.0014H247.026C246.979 76.8348 246.751 77.5687 246.344 78.2031C245.942 78.8329 245.385 79.3253 244.675 79.6804C243.965 80.0355 243.125 80.2131 242.154 80.2131ZM248.219 71.4702V69.0909H258.106V71.4702H254.59V80H251.706V71.4702H248.219ZM262.83 76.0085L266.758 69.0909H269.741V80H266.857V73.0611L262.944 80H259.94V69.0909H262.83V76.0085ZM277.463 74.169C277.463 72.4077 277.697 70.786 278.166 69.304C278.64 67.822 279.362 66.4489 280.332 65.1847H283.223C282.854 65.6534 282.51 66.2263 282.193 66.9034C281.876 67.5758 281.599 68.3144 281.362 69.1193C281.125 69.9242 280.941 70.7576 280.808 71.6193C280.675 72.4763 280.609 73.3262 280.609 74.169C280.609 75.2912 280.723 76.4252 280.95 77.571C281.182 78.7121 281.495 79.7727 281.888 80.7528C282.285 81.733 282.73 82.5355 283.223 83.1605H280.332C279.362 81.8963 278.64 80.5232 278.166 79.0412C277.697 77.5592 277.463 75.9351 277.463 74.169ZM284.411 71.4702V69.0909H294.297V71.4702H290.781V80H287.898V71.4702H284.411ZM300.67 80.2131C299.566 80.2131 298.612 79.9787 297.807 79.5099C297.007 79.0365 296.389 78.3783 295.954 77.5355C295.518 76.688 295.3 75.7055 295.3 74.5881C295.3 73.4612 295.518 72.4763 295.954 71.6335C296.389 70.786 297.007 70.1278 297.807 69.6591C298.612 69.1856 299.566 68.9489 300.67 68.9489C301.773 68.9489 302.724 69.1856 303.525 69.6591C304.33 70.1278 304.95 70.786 305.385 71.6335C305.821 72.4763 306.039 73.4612 306.039 74.5881C306.039 75.7055 305.821 76.688 305.385 77.5355C304.95 78.3783 304.33 79.0365 303.525 79.5099C302.724 79.9787 301.773 80.2131 300.67 80.2131ZM300.684 77.8693C301.186 77.8693 301.605 77.7273 301.941 77.4432C302.277 77.1544 302.53 76.7614 302.701 76.2642C302.876 75.767 302.964 75.2012 302.964 74.5668C302.964 73.9323 302.876 73.3665 302.701 72.8693C302.53 72.3722 302.277 71.9792 301.941 71.6903C301.605 71.4015 301.186 71.2571 300.684 71.2571C300.177 71.2571 299.751 71.4015 299.405 71.6903C299.064 71.9792 298.806 72.3722 298.631 72.8693C298.461 73.3665 298.376 73.9323 298.376 74.5668C298.376 75.2012 298.461 75.767 298.631 76.2642C298.806 76.7614 299.064 77.1544 299.405 77.4432C299.751 77.7273 300.177 77.8693 300.684 77.8693ZM317.607 80.2131C316.485 80.2131 315.519 79.9858 314.709 79.5312C313.904 79.072 313.284 78.4233 312.848 77.5852C312.413 76.7424 312.195 75.7457 312.195 74.5952C312.195 73.473 312.413 72.4882 312.848 71.6406C313.284 70.7931 313.897 70.1326 314.688 69.6591C315.483 69.1856 316.416 68.9489 317.486 68.9489C318.206 68.9489 318.876 69.0649 319.496 69.2969C320.121 69.5241 320.665 69.8674 321.129 70.3267C321.598 70.786 321.963 71.3636 322.223 72.0597C322.484 72.7509 322.614 73.5606 322.614 74.4886V75.3196H313.402V73.4446H319.766C319.766 73.009 319.671 72.6231 319.482 72.2869C319.292 71.9508 319.03 71.688 318.693 71.4986C318.362 71.3045 317.976 71.2074 317.536 71.2074C317.076 71.2074 316.669 71.3139 316.314 71.527C315.964 71.7353 315.689 72.017 315.49 72.3722C315.291 72.7225 315.19 73.1132 315.185 73.544V75.3267C315.185 75.8665 315.284 76.3329 315.483 76.7259C315.687 77.1188 315.973 77.4219 316.343 77.6349C316.712 77.848 317.15 77.9545 317.656 77.9545C317.993 77.9545 318.3 77.9072 318.58 77.8125C318.859 77.7178 319.098 77.5758 319.297 77.3864C319.496 77.197 319.647 76.965 319.752 76.6903L322.55 76.875C322.408 77.5473 322.117 78.1345 321.676 78.6364C321.241 79.1335 320.677 79.5218 319.986 79.8011C319.299 80.0758 318.506 80.2131 317.607 80.2131ZM329.517 80.2131C328.4 80.2131 327.439 79.9763 326.634 79.5028C325.834 79.0246 325.218 78.3617 324.787 77.5142C324.361 76.6667 324.148 75.6913 324.148 74.5881C324.148 73.4706 324.363 72.4905 324.794 71.6477C325.23 70.8002 325.848 70.1397 326.648 69.6662C327.448 69.188 328.4 68.9489 329.503 68.9489C330.455 68.9489 331.288 69.1217 332.003 69.4673C332.718 69.813 333.284 70.2983 333.7 70.9233C334.117 71.5483 334.347 72.2822 334.389 73.125H331.534C331.454 72.5805 331.241 72.1425 330.895 71.8111C330.554 71.4749 330.107 71.3068 329.553 71.3068C329.084 71.3068 328.674 71.4347 328.324 71.6903C327.978 71.9413 327.709 72.3082 327.514 72.7912C327.32 73.2741 327.223 73.8589 327.223 74.5455C327.223 75.2415 327.318 75.8333 327.507 76.321C327.701 76.8087 327.974 77.1804 328.324 77.4361C328.674 77.6918 329.084 77.8196 329.553 77.8196C329.898 77.8196 330.209 77.7486 330.483 77.6065C330.762 77.4645 330.992 77.2585 331.172 76.9886C331.357 76.714 331.477 76.3849 331.534 76.0014H334.389C334.342 76.8348 334.115 77.5687 333.708 78.2031C333.305 78.8329 332.749 79.3253 332.039 79.6804C331.328 80.0355 330.488 80.2131 329.517 80.2131ZM335.583 71.4702V69.0909H345.469V71.4702H341.953V80H339.07V71.4702H335.583ZM349.199 72.4432H352.459C353.903 72.4432 355.03 72.7888 355.84 73.4801C356.65 74.1667 357.055 75.0852 357.055 76.2358C357.055 76.9839 356.872 77.642 356.508 78.2102C356.143 78.7737 355.617 79.214 354.931 79.5312C354.244 79.8438 353.421 80 352.459 80H347.303V69.0909H350.194V77.6207H352.459C352.966 77.6207 353.383 77.4929 353.709 77.2372C354.036 76.9815 354.202 76.6548 354.206 76.2571C354.202 75.8357 354.036 75.4924 353.709 75.2273C353.383 74.9574 352.966 74.8224 352.459 74.8224H349.199V72.4432ZM370.139 76.6548L373.093 69.0909H375.394L371.14 80H369.13L364.975 69.0909H367.269L370.139 76.6548ZM366.58 69.0909V80H363.69V69.0909H366.58ZM373.846 80V69.0909H376.701V80H373.846ZM384.013 80.2131C382.891 80.2131 381.925 79.9858 381.115 79.5312C380.31 79.072 379.69 78.4233 379.254 77.5852C378.819 76.7424 378.601 75.7457 378.601 74.5952C378.601 73.473 378.819 72.4882 379.254 71.6406C379.69 70.7931 380.303 70.1326 381.094 69.6591C381.889 69.1856 382.822 68.9489 383.892 68.9489C384.612 68.9489 385.282 69.0649 385.902 69.2969C386.527 69.5241 387.072 69.8674 387.536 70.3267C388.004 70.786 388.369 71.3636 388.629 72.0597C388.89 72.7509 389.02 73.5606 389.02 74.4886V75.3196H379.808V73.4446H386.172C386.172 73.009 386.077 72.6231 385.888 72.2869C385.699 71.9508 385.436 71.688 385.1 71.4986C384.768 71.3045 384.382 71.2074 383.942 71.2074C383.483 71.2074 383.075 71.3139 382.72 71.527C382.37 71.7353 382.095 72.017 381.896 72.3722C381.698 72.7225 381.596 73.1132 381.591 73.544V75.3267C381.591 75.8665 381.691 76.3329 381.889 76.7259C382.093 77.1188 382.379 77.4219 382.749 77.6349C383.118 77.848 383.556 77.9545 384.063 77.9545C384.399 77.9545 384.707 77.9072 384.986 77.8125C385.265 77.7178 385.504 77.5758 385.703 77.3864C385.902 77.197 386.054 76.965 386.158 76.6903L388.956 76.875C388.814 77.5473 388.523 78.1345 388.083 78.6364C387.647 79.1335 387.084 79.5218 386.392 79.8011C385.706 80.0758 384.913 80.2131 384.013 80.2131ZM393.328 69.0909L395.33 72.9048L397.383 69.0909H400.487L397.326 74.5455L400.572 80H397.482L395.33 76.2287L393.214 80H390.089L393.328 74.5455L390.203 69.0909H393.328ZM405.336 80.206C404.64 80.206 404.019 80.0852 403.475 79.8438C402.93 79.5975 402.5 79.2353 402.182 78.7571C401.87 78.2741 401.714 77.6728 401.714 76.9531C401.714 76.3471 401.825 75.8381 402.047 75.4261C402.27 75.0142 402.573 74.6828 402.956 74.4318C403.34 74.1809 403.776 73.9915 404.263 73.8636C404.756 73.7358 405.272 73.6458 405.812 73.5938C406.446 73.5275 406.957 73.4659 407.346 73.4091C407.734 73.3475 408.016 73.2576 408.191 73.1392C408.366 73.0208 408.454 72.8456 408.454 72.6136V72.571C408.454 72.1212 408.312 71.7732 408.028 71.527C407.748 71.2808 407.35 71.1577 406.834 71.1577C406.29 71.1577 405.857 71.2784 405.535 71.5199C405.213 71.7566 405 72.0549 404.895 72.4148L402.097 72.1875C402.239 71.5246 402.519 70.9517 402.935 70.4688C403.352 69.9811 403.889 69.607 404.547 69.3466C405.21 69.0814 405.977 68.9489 406.849 68.9489C407.455 68.9489 408.035 69.0199 408.589 69.1619C409.147 69.304 409.642 69.5241 410.073 69.8224C410.509 70.1207 410.852 70.5043 411.103 70.973C411.354 71.437 411.479 71.9934 411.479 72.642V80H408.61V78.4872H408.525C408.349 78.8281 408.115 79.1288 407.822 79.3892C407.528 79.6449 407.175 79.8461 406.763 79.9929C406.351 80.1349 405.876 80.206 405.336 80.206ZM406.202 78.1179C406.647 78.1179 407.04 78.0303 407.381 77.8551C407.722 77.6752 407.99 77.4337 408.184 77.1307C408.378 76.8277 408.475 76.4844 408.475 76.1009V74.9432C408.38 75.0047 408.25 75.0616 408.084 75.1136C407.923 75.161 407.741 75.206 407.537 75.2486C407.334 75.2865 407.13 75.322 406.927 75.3551C406.723 75.3835 406.538 75.4096 406.373 75.4332C406.018 75.4853 405.707 75.5682 405.442 75.6818C405.177 75.7955 404.971 75.9493 404.824 76.1435C404.678 76.3329 404.604 76.5696 404.604 76.8537C404.604 77.2656 404.753 77.5805 405.052 77.7983C405.355 78.0114 405.738 78.1179 406.202 78.1179ZM421.419 73.3381V75.7173H415.723V73.3381H421.419ZM416.717 69.0909V80H413.827V69.0909H416.717ZM423.315 69.0909V80H420.446V69.0909H423.315ZM428.553 76.0085L432.481 69.0909H435.464V80H432.58V73.0611L428.667 80H425.662V69.0909H428.553V76.0085ZM437.328 76.9105H440.261C440.275 77.2704 440.436 77.5545 440.744 77.7628C441.052 77.9711 441.45 78.0753 441.937 78.0753C442.43 78.0753 442.844 77.9616 443.18 77.7344C443.516 77.5024 443.684 77.1709 443.684 76.7401C443.684 76.4749 443.618 76.2453 443.486 76.0511C443.353 75.8523 443.168 75.696 442.932 75.5824C442.695 75.4687 442.42 75.4119 442.108 75.4119H440.538V73.4304H442.108C442.577 73.4304 442.936 73.3215 443.187 73.1037C443.443 72.8859 443.571 72.6136 443.571 72.2869C443.571 71.9176 443.438 71.6217 443.173 71.3991C442.913 71.1719 442.56 71.0582 442.115 71.0582C441.665 71.0582 441.291 71.16 440.993 71.3636C440.699 71.5625 440.548 71.8229 440.538 72.1449H437.619C437.629 71.4915 437.825 70.9257 438.209 70.4474C438.597 69.9692 439.118 69.5999 439.771 69.3395C440.429 69.0791 441.166 68.9489 441.98 68.9489C442.87 68.9489 443.637 69.0743 444.281 69.3253C444.93 69.5715 445.427 69.9242 445.773 70.3835C446.123 70.8428 446.298 71.3897 446.298 72.0241C446.298 72.6018 446.109 73.0848 445.73 73.473C445.351 73.8613 444.821 74.1383 444.139 74.304V74.4176C444.589 74.446 444.996 74.5668 445.361 74.7798C445.725 74.9929 446.016 75.2865 446.234 75.6605C446.452 76.0298 446.561 76.4678 446.561 76.9744C446.561 77.6515 446.362 78.2315 445.964 78.7145C445.571 79.1974 445.027 79.5691 444.331 79.8295C443.64 80.0852 442.846 80.2131 441.952 80.2131C441.08 80.2131 440.299 80.0876 439.608 79.8366C438.921 79.581 438.374 79.2069 437.967 78.7145C437.565 78.2221 437.352 77.6207 437.328 76.9105ZM454.865 76.6548L457.82 69.0909H460.121L455.867 80H453.857L449.702 69.0909H451.996L454.865 76.6548ZM451.307 69.0909V80H448.416V69.0909H451.307ZM458.573 80V69.0909H461.428V80H458.573ZM468.397 80V69.0909H477.935V80H475.045V71.4702H471.252V80H468.397ZM485.279 80.2131C484.176 80.2131 483.222 79.9787 482.417 79.5099C481.617 79.0365 480.999 78.3783 480.563 77.5355C480.127 76.688 479.91 75.7055 479.91 74.5881C479.91 73.4612 480.127 72.4763 480.563 71.6335C480.999 70.786 481.617 70.1278 482.417 69.6591C483.222 69.1856 484.176 68.9489 485.279 68.9489C486.382 68.9489 487.334 69.1856 488.134 69.6591C488.939 70.1278 489.559 70.786 489.995 71.6335C490.43 72.4763 490.648 73.4612 490.648 74.5881C490.648 75.7055 490.43 76.688 489.995 77.5355C489.559 78.3783 488.939 79.0365 488.134 79.5099C487.334 79.9787 486.382 80.2131 485.279 80.2131ZM485.293 77.8693C485.795 77.8693 486.214 77.7273 486.55 77.4432C486.886 77.1544 487.14 76.7614 487.31 76.2642C487.485 75.767 487.573 75.2012 487.573 74.5668C487.573 73.9323 487.485 73.3665 487.31 72.8693C487.14 72.3722 486.886 71.9792 486.55 71.6903C486.214 71.4015 485.795 71.2571 485.293 71.2571C484.787 71.2571 484.36 71.4015 484.015 71.6903C483.674 71.9792 483.416 72.3722 483.241 72.8693C483.07 73.3665 482.985 73.9323 482.985 74.5668C482.985 75.2012 483.07 75.767 483.241 76.2642C483.416 76.7614 483.674 77.1544 484.015 77.4432C484.36 77.7273 484.787 77.8693 485.293 77.8693ZM492.055 76.9105H494.988C495.002 77.2704 495.163 77.5545 495.471 77.7628C495.778 77.9711 496.176 78.0753 496.664 78.0753C497.156 78.0753 497.571 77.9616 497.907 77.7344C498.243 77.5024 498.411 77.1709 498.411 76.7401C498.411 76.4749 498.345 76.2453 498.212 76.0511C498.08 75.8523 497.895 75.696 497.658 75.5824C497.421 75.4687 497.147 75.4119 496.834 75.4119H495.265V73.4304H496.834C497.303 73.4304 497.663 73.3215 497.914 73.1037C498.17 72.8859 498.297 72.6136 498.297 72.2869C498.297 71.9176 498.165 71.6217 497.9 71.3991C497.639 71.1719 497.287 71.0582 496.841 71.0582C496.392 71.0582 496.018 71.16 495.719 71.3636C495.426 71.5625 495.274 71.8229 495.265 72.1449H492.346C492.355 71.4915 492.552 70.9257 492.935 70.4474C493.323 69.9692 493.844 69.5999 494.498 69.3395C495.156 69.0791 495.892 68.9489 496.706 68.9489C497.597 68.9489 498.364 69.0743 499.008 69.3253C499.656 69.5715 500.153 69.9242 500.499 70.3835C500.849 70.8428 501.025 71.3897 501.025 72.0241C501.025 72.6018 500.835 73.0848 500.456 73.473C500.078 73.8613 499.547 74.1383 498.866 74.304V74.4176C499.315 74.446 499.723 74.5668 500.087 74.7798C500.452 74.9929 500.743 75.2865 500.961 75.6605C501.179 76.0298 501.287 76.4678 501.287 76.9744C501.287 77.6515 501.089 78.2315 500.691 78.7145C500.298 79.1974 499.753 79.5691 499.057 79.8295C498.366 80.0852 497.573 80.2131 496.678 80.2131C495.807 80.2131 495.026 80.0876 494.334 79.8366C493.648 79.581 493.101 79.2069 492.694 78.7145C492.291 78.2221 492.078 77.6207 492.055 76.9105ZM510.735 73.3381V75.7173H505.039V73.3381H510.735ZM506.034 69.0909V80H503.143V69.0909H506.034ZM512.632 69.0909V80H509.762V69.0909H512.632ZM518.09 80.206C517.394 80.206 516.773 80.0852 516.229 79.8438C515.684 79.5975 515.253 79.2353 514.936 78.7571C514.624 78.2741 514.468 77.6728 514.468 76.9531C514.468 76.3471 514.579 75.8381 514.801 75.4261C515.024 75.0142 515.327 74.6828 515.71 74.4318C516.094 74.1809 516.53 73.9915 517.017 73.8636C517.51 73.7358 518.026 73.6458 518.566 73.5938C519.2 73.5275 519.711 73.4659 520.1 73.4091C520.488 73.3475 520.77 73.2576 520.945 73.1392C521.12 73.0208 521.208 72.8456 521.208 72.6136V72.571C521.208 72.1212 521.066 71.7732 520.781 71.527C520.502 71.2808 520.104 71.1577 519.588 71.1577C519.044 71.1577 518.61 71.2784 518.289 71.5199C517.967 71.7566 517.753 72.0549 517.649 72.4148L514.851 72.1875C514.993 71.5246 515.272 70.9517 515.689 70.4688C516.106 69.9811 516.643 69.607 517.301 69.3466C517.964 69.0814 518.731 68.9489 519.602 68.9489C520.209 68.9489 520.789 69.0199 521.343 69.1619C521.901 69.304 522.396 69.5241 522.827 69.8224C523.262 70.1207 523.606 70.5043 523.857 70.973C524.108 71.437 524.233 71.9934 524.233 72.642V80H521.364V78.4872H521.279C521.103 78.8281 520.869 79.1288 520.575 79.3892C520.282 79.6449 519.929 79.8461 519.517 79.9929C519.105 80.1349 518.629 80.206 518.09 80.206ZM518.956 78.1179C519.401 78.1179 519.794 78.0303 520.135 77.8551C520.476 77.6752 520.744 77.4337 520.938 77.1307C521.132 76.8277 521.229 76.4844 521.229 76.1009V74.9432C521.134 75.0047 521.004 75.0616 520.838 75.1136C520.677 75.161 520.495 75.206 520.291 75.2486C520.088 75.2865 519.884 75.322 519.681 75.3551C519.477 75.3835 519.292 75.4096 519.127 75.4332C518.771 75.4853 518.461 75.5682 518.196 75.6818C517.931 75.7955 517.725 75.9493 517.578 76.1435C517.432 76.3329 517.358 76.5696 517.358 76.8537C517.358 77.2656 517.507 77.5805 517.806 77.7983C518.109 78.0114 518.492 78.1179 518.956 78.1179ZM534.173 73.3381V75.7173H528.477V73.3381H534.173ZM529.471 69.0909V80H526.58V69.0909H529.471ZM536.069 69.0909V80H533.2V69.0909H536.069ZM541.307 76.0085L545.235 69.0909H548.218V80H545.334V73.0611L541.421 80H538.416V69.0909H541.307V76.0085ZM557.035 80V71.4631H554.99C554.436 71.4631 554.014 71.5909 553.725 71.8466C553.436 72.1023 553.294 72.4053 553.299 72.7557C553.294 73.1108 553.432 73.4115 553.711 73.6577C553.995 73.8991 554.412 74.0199 554.961 74.0199H558.044V76.0653H554.961C554.028 76.0653 553.221 75.9233 552.539 75.6392C551.857 75.3551 551.332 74.9598 550.963 74.4531C550.593 73.9418 550.411 73.3475 550.416 72.6705C550.411 71.9602 550.593 71.3376 550.963 70.8026C551.332 70.2628 551.86 69.8437 552.546 69.5455C553.238 69.2424 554.052 69.0909 554.99 69.0909H559.855V80H557.035ZM550.103 80L553.136 74.3182H556.026L553.001 80H550.103ZM567.305 74.169C567.305 75.9351 567.068 77.5592 566.595 79.0412C566.126 80.5232 565.406 81.8963 564.436 83.1605H561.545C561.914 82.6918 562.258 82.1188 562.575 81.4418C562.892 80.7647 563.169 80.026 563.406 79.2259C563.642 78.4209 563.827 77.5876 563.96 76.7259C564.092 75.8641 564.159 75.0118 564.159 74.169C564.159 73.0469 564.043 71.9152 563.811 70.7741C563.583 69.6283 563.271 68.5677 562.873 67.5923C562.48 66.6122 562.037 65.8097 561.545 65.1847H564.436C565.406 66.4489 566.126 67.822 566.595 69.304C567.068 70.786 567.305 72.4077 567.305 74.169Z" fill="black"/>
</svg>
