<svg width="650" height="99" viewBox="0 0 650 99" fill="none" xmlns="http://www.w3.org/2000/svg">
<rect width="650" height="99" rx="30" fill="#D9D9D9" fill-opacity="0.4"/>
<path d="M53.6507 22.5469H50.54C50.4831 22.1444 50.3671 21.7869 50.1919 21.4744C50.0168 21.1572 49.7918 20.8873 49.5172 20.6648C49.2426 20.4422 48.9254 20.2718 48.5655 20.1534C48.2104 20.035 47.8245 19.9759 47.4078 19.9759C46.655 19.9759 45.9992 20.1629 45.4405 20.5369C44.8818 20.9062 44.4486 21.446 44.1408 22.1562C43.833 22.8617 43.6792 23.7187 43.6792 24.7273C43.6792 25.7642 43.833 26.6354 44.1408 27.3409C44.4533 28.0464 44.8889 28.5791 45.4476 28.9389C46.0063 29.2988 46.6526 29.4787 47.3865 29.4787C47.7985 29.4787 48.1796 29.4242 48.53 29.3153C48.8851 29.2064 49.2 29.0478 49.4746 28.8395C49.7492 28.6264 49.9765 28.3684 50.1564 28.0653C50.3411 27.7623 50.4689 27.4167 50.54 27.0284L53.6507 27.0426C53.5703 27.7102 53.369 28.3542 53.0471 28.9744C52.7298 29.59 52.3013 30.1416 51.7615 30.6293C51.2265 31.1122 50.5873 31.4957 49.8439 31.7798C49.1053 32.0592 48.2696 32.1989 47.3368 32.1989C46.0395 32.1989 44.8794 31.9053 43.8567 31.3182C42.8387 30.7311 42.0338 29.8812 41.4419 28.7685C40.8548 27.6558 40.5613 26.3087 40.5613 24.7273C40.5613 23.1411 40.8596 21.7917 41.4561 20.679C42.0527 19.5663 42.8624 18.7187 43.8851 18.1364C44.9078 17.5492 46.0584 17.2557 47.3368 17.2557C48.1796 17.2557 48.9609 17.3741 49.6806 17.6108C50.405 17.8475 51.0466 18.1932 51.6053 18.6477C52.164 19.0975 52.6185 19.6491 52.9689 20.3026C53.324 20.956 53.5513 21.7041 53.6507 22.5469ZM57.8038 36.0909C57.4203 36.0909 57.0604 36.0601 56.7243 35.9986C56.3928 35.9418 56.1182 35.8684 55.9004 35.7784L56.5822 33.5199C56.9373 33.6288 57.2569 33.688 57.541 33.6974C57.8298 33.7069 58.0784 33.6406 58.2868 33.4986C58.4998 33.3565 58.6726 33.1151 58.8052 32.7741L58.9828 32.3125L55.0694 21.0909H58.2512L60.5098 29.1023H60.6234L62.9032 21.0909H66.1064L61.8663 33.179C61.6627 33.7661 61.3857 34.2775 61.0353 34.7131C60.6897 35.1534 60.2517 35.492 59.7214 35.7287C59.1911 35.9702 58.5519 36.0909 57.8038 36.0909ZM67.0865 23.4702V21.0909H76.9728V23.4702H73.4572V32H70.5737V23.4702H67.0865ZM80.7033 24.4432H83.9632C85.4074 24.4432 86.5343 24.7888 87.3439 25.4801C88.1536 26.1667 88.5584 27.0852 88.5584 28.2358C88.5584 28.9839 88.3761 29.642 88.0115 30.2102C87.647 30.7737 87.1214 31.214 86.4348 31.5312C85.7483 31.8438 84.9244 32 83.9632 32H78.807V21.0909H81.6976V29.6207H83.9632C84.4699 29.6207 84.8865 29.4929 85.2132 29.2372C85.54 28.9815 85.7057 28.6548 85.7104 28.2571C85.7057 27.8357 85.54 27.4924 85.2132 27.2273C84.8865 26.9574 84.4699 26.8224 83.9632 26.8224H80.7033V24.4432ZM98.0843 28.0085L102.012 21.0909H104.995V32H102.111V25.0611L98.198 32H95.1937V21.0909H98.0843V28.0085ZM115.013 25.3381V27.7173H109.317V25.3381H115.013ZM110.311 21.0909V32H107.42V21.0909H110.311ZM116.909 21.0909V32H114.04V21.0909H116.909ZM118.161 23.4702V21.0909H128.047V23.4702H124.531V32H121.648V23.4702H118.161ZM134.462 32.2131C133.34 32.2131 132.374 31.9858 131.564 31.5312C130.76 31.072 130.139 30.4233 129.704 29.5852C129.268 28.7424 129.05 27.7457 129.05 26.5952C129.05 25.473 129.268 24.4882 129.704 23.6406C130.139 22.7931 130.752 22.1326 131.543 21.6591C132.339 21.1856 133.271 20.9489 134.341 20.9489C135.061 20.9489 135.731 21.0649 136.351 21.2969C136.976 21.5241 137.521 21.8674 137.985 22.3267C138.454 22.786 138.818 23.3636 139.079 24.0597C139.339 24.7509 139.469 25.5606 139.469 26.4886V27.3196H130.258V25.4446H136.621C136.621 25.009 136.527 24.6231 136.337 24.2869C136.148 23.9508 135.885 23.688 135.549 23.4986C135.217 23.3045 134.831 23.2074 134.391 23.2074C133.932 23.2074 133.525 23.3139 133.17 23.527C132.819 23.7353 132.545 24.017 132.346 24.3722C132.147 24.7225 132.045 25.1132 132.04 25.544V27.3267C132.04 27.8665 132.14 28.3329 132.339 28.7259C132.542 29.1188 132.829 29.4219 133.198 29.6349C133.567 29.848 134.005 29.9545 134.512 29.9545C134.848 29.9545 135.156 29.9072 135.435 29.8125C135.715 29.7178 135.954 29.5758 136.153 29.3864C136.351 29.197 136.503 28.965 136.607 28.6903L139.405 28.875C139.263 29.5473 138.972 30.1345 138.532 30.6364C138.096 31.1335 137.533 31.5218 136.841 31.8011C136.155 32.0758 135.362 32.2131 134.462 32.2131ZM148.915 21.0909V23.4702H144.384V32H141.444V21.0909H148.915ZM150.76 36.0909V21.0909H153.743V22.9233H153.878C154.011 22.6297 154.202 22.3314 154.453 22.0284C154.709 21.7206 155.04 21.465 155.448 21.2614C155.86 21.053 156.371 20.9489 156.982 20.9489C157.777 20.9489 158.511 21.1572 159.183 21.5739C159.856 21.9858 160.393 22.6084 160.796 23.4418C161.198 24.2704 161.399 25.3097 161.399 26.5597C161.399 27.7765 161.203 28.804 160.81 29.642C160.422 30.4754 159.891 31.1075 159.219 31.5384C158.551 31.9645 157.803 32.1776 156.975 32.1776C156.387 32.1776 155.888 32.0805 155.476 31.8864C155.069 31.6922 154.735 31.4484 154.475 31.1548C154.214 30.8565 154.015 30.5559 153.878 30.2528H153.786V36.0909H150.76ZM153.722 26.5455C153.722 27.1941 153.812 27.7599 153.992 28.2429C154.172 28.7259 154.432 29.1023 154.773 29.3722C155.114 29.6373 155.528 29.7699 156.016 29.7699C156.508 29.7699 156.925 29.6349 157.266 29.3651C157.607 29.0904 157.865 28.7116 158.04 28.2287C158.22 27.741 158.31 27.1799 158.31 26.5455C158.31 25.9157 158.222 25.3617 158.047 24.8835C157.872 24.4053 157.614 24.0312 157.273 23.7614C156.932 23.4915 156.513 23.3565 156.016 23.3565C155.523 23.3565 155.107 23.4867 154.766 23.7472C154.43 24.0076 154.172 24.3769 153.992 24.8551C153.812 25.3333 153.722 25.8968 153.722 26.5455ZM166.527 32.206C165.831 32.206 165.211 32.0852 164.666 31.8438C164.122 31.5975 163.691 31.2353 163.374 30.7571C163.061 30.2741 162.905 29.6728 162.905 28.9531C162.905 28.3471 163.016 27.8381 163.239 27.4261C163.461 27.0142 163.764 26.6828 164.148 26.4318C164.531 26.1809 164.967 25.9915 165.455 25.8636C165.947 25.7358 166.463 25.6458 167.003 25.5938C167.637 25.5275 168.149 25.4659 168.537 25.4091C168.925 25.3475 169.207 25.2576 169.382 25.1392C169.557 25.0208 169.645 24.8456 169.645 24.6136V24.571C169.645 24.1212 169.503 23.7732 169.219 23.527C168.94 23.2808 168.542 23.1577 168.026 23.1577C167.481 23.1577 167.048 23.2784 166.726 23.5199C166.404 23.7566 166.191 24.0549 166.087 24.4148L163.289 24.1875C163.431 23.5246 163.71 22.9517 164.127 22.4688C164.543 21.9811 165.081 21.607 165.739 21.3466C166.402 21.0814 167.169 20.9489 168.04 20.9489C168.646 20.9489 169.226 21.0199 169.78 21.1619C170.339 21.304 170.834 21.5241 171.264 21.8224C171.7 22.1207 172.043 22.5043 172.294 22.973C172.545 23.437 172.671 23.9934 172.671 24.642V32H169.801V30.4872H169.716C169.541 30.8281 169.307 31.1288 169.013 31.3892C168.719 31.6449 168.367 31.8461 167.955 31.9929C167.543 32.1349 167.067 32.206 166.527 32.206ZM167.394 30.1179C167.839 30.1179 168.232 30.0303 168.573 29.8551C168.914 29.6752 169.181 29.4337 169.375 29.1307C169.569 28.8277 169.666 28.4844 169.666 28.1009V26.9432C169.572 27.0047 169.441 27.0616 169.276 27.1136C169.115 27.161 168.932 27.206 168.729 27.2486C168.525 27.2865 168.322 27.322 168.118 27.3551C167.914 27.3835 167.73 27.4096 167.564 27.4332C167.209 27.4853 166.899 27.5682 166.634 27.6818C166.369 27.7955 166.163 27.9493 166.016 28.1435C165.869 28.3329 165.796 28.5696 165.796 28.8537C165.796 29.2656 165.945 29.5805 166.243 29.7983C166.546 30.0114 166.93 30.1179 167.394 30.1179ZM173.922 23.4702V21.0909H183.809V23.4702H180.293V32H177.41V23.4702H173.922ZM188.534 28.0085L192.461 21.0909H195.444V32H192.561V25.0611L188.647 32H185.643V21.0909H188.534V28.0085ZM197.869 32V21.0909H202.521C203.866 21.0909 204.929 21.3466 205.71 21.858C206.492 22.3693 206.882 23.0961 206.882 24.0384C206.882 24.6302 206.662 25.1226 206.222 25.5156C205.781 25.9086 205.171 26.1738 204.389 26.3111C205.043 26.3584 205.599 26.5076 206.058 26.7585C206.522 27.0047 206.875 27.3243 207.117 27.7173C207.363 28.1103 207.486 28.5459 207.486 29.0241C207.486 29.6444 207.32 30.1771 206.989 30.6222C206.662 31.0672 206.182 31.4081 205.547 31.6449C204.917 31.8816 204.148 32 203.239 32H197.869ZM200.689 29.7344H203.239C203.66 29.7344 203.989 29.6349 204.226 29.4361C204.468 29.2325 204.588 28.9555 204.588 28.6051C204.588 28.2169 204.468 27.9115 204.226 27.6889C203.989 27.4664 203.66 27.3551 203.239 27.3551H200.689V29.7344ZM200.689 25.5795H202.585C202.888 25.5795 203.146 25.5369 203.36 25.4517C203.577 25.3617 203.743 25.2339 203.857 25.0682C203.975 24.9025 204.034 24.706 204.034 24.4787C204.034 24.1425 203.899 23.8797 203.629 23.6903C203.36 23.5009 202.99 23.4062 202.521 23.4062H200.689V25.5795ZM216.985 25.3381V27.7173H211.289V25.3381H216.985ZM212.284 21.0909V32H209.393V21.0909H212.284ZM218.882 21.0909V32H216.012V21.0909H218.882ZM226.158 32.2131C225.055 32.2131 224.101 31.9787 223.296 31.5099C222.495 31.0365 221.878 30.3783 221.442 29.5355C221.006 28.688 220.789 27.7055 220.789 26.5881C220.789 25.4612 221.006 24.4763 221.442 23.6335C221.878 22.786 222.495 22.1278 223.296 21.6591C224.101 21.1856 225.055 20.9489 226.158 20.9489C227.261 20.9489 228.213 21.1856 229.013 21.6591C229.818 22.1278 230.438 22.786 230.874 23.6335C231.309 24.4763 231.527 25.4612 231.527 26.5881C231.527 27.7055 231.309 28.688 230.874 29.5355C230.438 30.3783 229.818 31.0365 229.013 31.5099C228.213 31.9787 227.261 32.2131 226.158 32.2131ZM226.172 29.8693C226.674 29.8693 227.093 29.7273 227.429 29.4432C227.765 29.1544 228.019 28.7614 228.189 28.2642C228.364 27.767 228.452 27.2012 228.452 26.5668C228.452 25.9323 228.364 25.3665 228.189 24.8693C228.019 24.3722 227.765 23.9792 227.429 23.6903C227.093 23.4015 226.674 23.2571 226.172 23.2571C225.665 23.2571 225.239 23.4015 224.894 23.6903C224.553 23.9792 224.295 24.3722 224.119 24.8693C223.949 25.3665 223.864 25.9323 223.864 26.5668C223.864 27.2012 223.949 27.767 224.119 28.2642C224.295 28.7614 224.553 29.1544 224.894 29.4432C225.239 29.7273 225.665 29.8693 226.172 29.8693ZM236.385 28.0085L240.313 21.0909H243.296V32H240.412V25.0611L236.499 32H233.494V21.0909H236.385V28.0085ZM239.794 17.2841H241.904C241.899 18.1458 241.579 18.8395 240.945 19.3651C240.315 19.8906 239.463 20.1534 238.388 20.1534C237.308 20.1534 236.454 19.8906 235.824 19.3651C235.194 18.8395 234.879 18.1458 234.879 17.2841H236.975C236.97 17.6108 237.074 17.9044 237.287 18.1648C237.505 18.4252 237.872 18.5554 238.388 18.5554C238.89 18.5554 239.25 18.4276 239.468 18.1719C239.685 17.9162 239.794 17.6203 239.794 17.2841ZM255.57 35.7074V17.4545H258.589V35.7074H255.57ZM255.57 32.2131C254.732 32.2131 253.967 32.0781 253.276 31.8082C252.585 31.5336 251.988 31.1477 251.486 30.6506C250.984 30.1487 250.596 29.5545 250.322 28.8679C250.047 28.1766 249.91 27.4167 249.91 26.5881C249.91 25.75 250.047 24.9877 250.322 24.3011C250.596 23.6098 250.984 23.0156 251.486 22.5185C251.988 22.0166 252.585 21.6307 253.276 21.3608C253.967 21.0862 254.732 20.9489 255.57 20.9489H256.131V32.2131H255.57ZM255.57 29.8551H255.904V23.3068H255.57C255.163 23.3068 254.801 23.392 254.483 23.5625C254.166 23.733 253.899 23.9673 253.681 24.2656C253.463 24.5592 253.297 24.9048 253.184 25.3026C253.075 25.7003 253.02 26.1288 253.02 26.5881C253.02 27.1941 253.12 27.7457 253.319 28.2429C253.518 28.7353 253.809 29.1283 254.192 29.4219C254.576 29.7107 255.035 29.8551 255.57 29.8551ZM258.589 32.2131H258.028V20.9489H258.589C259.427 20.9489 260.191 21.0862 260.883 21.3608C261.574 21.6307 262.171 22.0166 262.672 22.5185C263.174 23.0156 263.563 23.6098 263.837 24.3011C264.112 24.9877 264.249 25.75 264.249 26.5881C264.249 27.4167 264.112 28.1766 263.837 28.8679C263.563 29.5545 263.174 30.1487 262.672 30.6506C262.171 31.1477 261.574 31.5336 260.883 31.8082C260.191 32.0781 259.427 32.2131 258.589 32.2131ZM258.589 29.8551C258.996 29.8551 259.358 29.7723 259.675 29.6065C259.992 29.4361 260.26 29.2017 260.478 28.9034C260.696 28.6051 260.861 28.2595 260.975 27.8665C261.089 27.4687 261.145 27.0426 261.145 26.5881C261.145 25.9773 261.044 25.4257 260.84 24.9332C260.641 24.4361 260.352 24.0407 259.974 23.7472C259.595 23.4536 259.133 23.3068 258.589 23.3068H258.255V29.8551H258.589ZM267.745 36.0909C267.362 36.0909 267.002 36.0601 266.666 35.9986C266.334 35.9418 266.06 35.8684 265.842 35.7784L266.524 33.5199C266.879 33.6288 267.198 33.688 267.482 33.6974C267.771 33.7069 268.02 33.6406 268.228 33.4986C268.441 33.3565 268.614 33.1151 268.747 32.7741L268.924 32.3125L265.011 21.0909H268.193L270.451 29.1023H270.565L272.845 21.0909H276.048L271.808 33.179C271.604 33.7661 271.327 34.2775 270.977 34.7131C270.631 35.1534 270.193 35.492 269.663 35.7287C269.133 35.9702 268.493 36.0909 267.745 36.0909ZM285.188 25.3381V27.7173H279.492V25.3381H285.188ZM280.487 21.0909V32H277.596V21.0909H280.487ZM287.085 21.0909V32H284.215V21.0909H287.085ZM289.432 32V21.0909H292.458V25.3239H293.31L296.279 21.0909H299.83L295.973 26.5028L299.872 32H296.279L293.587 28.1293H292.458V32H289.432ZM310.689 21.0909V29.9119H312.429V35.5085H309.489V32H301.151V21.0909H304.041V29.6207H307.834V21.0909H310.689ZM317.186 28.0085L321.113 21.0909H324.096V32H321.213V25.0611L317.3 32H314.295V21.0909H317.186V28.0085ZM329.412 28.0085L333.34 21.0909H336.323V32H333.439V25.0611L329.526 32H326.522V21.0909H329.412V28.0085ZM348.597 35.7074V17.4545H351.616V35.7074H348.597ZM348.597 32.2131C347.759 32.2131 346.995 32.0781 346.303 31.8082C345.612 31.5336 345.016 31.1477 344.514 30.6506C344.012 30.1487 343.624 29.5545 343.349 28.8679C343.074 28.1766 342.937 27.4167 342.937 26.5881C342.937 25.75 343.074 24.9877 343.349 24.3011C343.624 23.6098 344.012 23.0156 344.514 22.5185C345.016 22.0166 345.612 21.6307 346.303 21.3608C346.995 21.0862 347.759 20.9489 348.597 20.9489H349.159V32.2131H348.597ZM348.597 29.8551H348.931V23.3068H348.597C348.19 23.3068 347.828 23.392 347.511 23.5625C347.194 23.733 346.926 23.9673 346.708 24.2656C346.49 24.5592 346.325 24.9048 346.211 25.3026C346.102 25.7003 346.048 26.1288 346.048 26.5881C346.048 27.1941 346.147 27.7457 346.346 28.2429C346.545 28.7353 346.836 29.1283 347.22 29.4219C347.603 29.7107 348.062 29.8551 348.597 29.8551ZM351.616 32.2131H351.055V20.9489H351.616C352.454 20.9489 353.219 21.0862 353.91 21.3608C354.601 21.6307 355.198 22.0166 355.7 22.5185C356.202 23.0156 356.59 23.6098 356.865 24.3011C357.139 24.9877 357.276 25.75 357.276 26.5881C357.276 27.4167 357.139 28.1766 356.865 28.8679C356.59 29.5545 356.202 30.1487 355.7 30.6506C355.198 31.1477 354.601 31.5336 353.91 31.8082C353.219 32.0781 352.454 32.2131 351.616 32.2131ZM351.616 29.8551C352.023 29.8551 352.385 29.7723 352.703 29.6065C353.02 29.4361 353.287 29.2017 353.505 28.9034C353.723 28.6051 353.889 28.2595 354.002 27.8665C354.116 27.4687 354.173 27.0426 354.173 26.5881C354.173 25.9773 354.071 25.4257 353.867 24.9332C353.669 24.4361 353.38 24.0407 353.001 23.7472C352.622 23.4536 352.16 23.3068 351.616 23.3068H351.282V29.8551H351.616ZM362.147 28.0085L366.074 21.0909H369.057V32H366.174V25.0611L362.26 32H359.256V21.0909H362.147V28.0085ZM370.844 32L370.829 29.5994H371.192C371.447 29.5994 371.667 29.5379 371.852 29.4148C372.041 29.2869 372.198 29.081 372.321 28.7969C372.444 28.5128 372.541 28.1364 372.612 27.6676C372.683 27.1941 372.73 26.6117 372.754 25.9205L372.932 21.0909H381.227V32H378.344V23.4702H375.652L375.481 26.8011C375.439 27.715 375.327 28.5009 375.148 29.1591C374.972 29.8172 374.729 30.357 374.416 30.7784C374.104 31.1951 373.727 31.5028 373.287 31.7017C372.846 31.9006 372.335 32 371.753 32H370.844ZM388.502 32.2131C387.398 32.2131 386.444 31.9787 385.639 31.5099C384.839 31.0365 384.221 30.3783 383.786 29.5355C383.35 28.688 383.132 27.7055 383.132 26.5881C383.132 25.4612 383.35 24.4763 383.786 23.6335C384.221 22.786 384.839 22.1278 385.639 21.6591C386.444 21.1856 387.398 20.9489 388.502 20.9489C389.605 20.9489 390.557 21.1856 391.357 21.6591C392.162 22.1278 392.782 22.786 393.218 23.6335C393.653 24.4763 393.871 25.4612 393.871 26.5881C393.871 27.7055 393.653 28.688 393.218 29.5355C392.782 30.3783 392.162 31.0365 391.357 31.5099C390.557 31.9787 389.605 32.2131 388.502 32.2131ZM388.516 29.8693C389.018 29.8693 389.437 29.7273 389.773 29.4432C390.109 29.1544 390.362 28.7614 390.533 28.2642C390.708 27.767 390.796 27.2012 390.796 26.5668C390.796 25.9323 390.708 25.3665 390.533 24.8693C390.362 24.3722 390.109 23.9792 389.773 23.6903C389.437 23.4015 389.018 23.2571 388.516 23.2571C388.009 23.2571 387.583 23.4015 387.237 23.6903C386.896 23.9792 386.638 24.3722 386.463 24.8693C386.293 25.3665 386.208 25.9323 386.208 26.5668C386.208 27.2012 386.293 27.767 386.463 28.2642C386.638 28.7614 386.896 29.1544 387.237 29.4432C387.583 29.7273 388.009 29.8693 388.516 29.8693ZM400.767 32.2131C399.65 32.2131 398.689 31.9763 397.884 31.5028C397.084 31.0246 396.468 30.3617 396.037 29.5142C395.611 28.6667 395.398 27.6913 395.398 26.5881C395.398 25.4706 395.613 24.4905 396.044 23.6477C396.48 22.8002 397.098 22.1397 397.898 21.6662C398.698 21.188 399.65 20.9489 400.753 20.9489C401.705 20.9489 402.538 21.1217 403.253 21.4673C403.968 21.813 404.534 22.2983 404.95 22.9233C405.367 23.5483 405.597 24.2822 405.639 25.125H402.784C402.704 24.5805 402.491 24.1425 402.145 23.8111C401.804 23.4749 401.357 23.3068 400.803 23.3068C400.334 23.3068 399.924 23.4347 399.574 23.6903C399.228 23.9413 398.959 24.3082 398.764 24.7912C398.57 25.2741 398.473 25.8589 398.473 26.5455C398.473 27.2415 398.568 27.8333 398.757 28.321C398.951 28.8087 399.224 29.1804 399.574 29.4361C399.924 29.6918 400.334 29.8196 400.803 29.8196C401.148 29.8196 401.459 29.7486 401.733 29.6065C402.012 29.4645 402.242 29.2585 402.422 28.9886C402.607 28.714 402.727 28.3849 402.784 28.0014H405.639C405.592 28.8348 405.365 29.5687 404.958 30.2031C404.555 30.8329 403.999 31.3253 403.289 31.6804C402.578 32.0355 401.738 32.2131 400.767 32.2131ZM412.506 32.2131C411.402 32.2131 410.448 31.9787 409.643 31.5099C408.843 31.0365 408.225 30.3783 407.79 29.5355C407.354 28.688 407.136 27.7055 407.136 26.5881C407.136 25.4612 407.354 24.4763 407.79 23.6335C408.225 22.786 408.843 22.1278 409.643 21.6591C410.448 21.1856 411.402 20.9489 412.506 20.9489C413.609 20.9489 414.56 21.1856 415.361 21.6591C416.166 22.1278 416.786 22.786 417.221 23.6335C417.657 24.4763 417.875 25.4612 417.875 26.5881C417.875 27.7055 417.657 28.688 417.221 29.5355C416.786 30.3783 416.166 31.0365 415.361 31.5099C414.56 31.9787 413.609 32.2131 412.506 32.2131ZM412.52 29.8693C413.022 29.8693 413.441 29.7273 413.777 29.4432C414.113 29.1544 414.366 28.7614 414.537 28.2642C414.712 27.767 414.8 27.2012 414.8 26.5668C414.8 25.9323 414.712 25.3665 414.537 24.8693C414.366 24.3722 414.113 23.9792 413.777 23.6903C413.441 23.4015 413.022 23.2571 412.52 23.2571C412.013 23.2571 411.587 23.4015 411.241 23.6903C410.9 23.9792 410.642 24.3722 410.467 24.8693C410.297 25.3665 410.211 25.9323 410.211 26.5668C410.211 27.2012 410.297 27.767 410.467 28.2642C410.642 28.7614 410.9 29.1544 411.241 29.4432C411.587 29.7273 412.013 29.8693 412.52 29.8693ZM425.062 35.7074V17.4545H428.081V35.7074H425.062ZM425.062 32.2131C424.224 32.2131 423.46 32.0781 422.768 31.8082C422.077 31.5336 421.48 31.1477 420.979 30.6506C420.477 30.1487 420.088 29.5545 419.814 28.8679C419.539 28.1766 419.402 27.4167 419.402 26.5881C419.402 25.75 419.539 24.9877 419.814 24.3011C420.088 23.6098 420.477 23.0156 420.979 22.5185C421.48 22.0166 422.077 21.6307 422.768 21.3608C423.46 21.0862 424.224 20.9489 425.062 20.9489H425.623V32.2131H425.062ZM425.062 29.8551H425.396V23.3068H425.062C424.655 23.3068 424.293 23.392 423.976 23.5625C423.658 23.733 423.391 23.9673 423.173 24.2656C422.955 24.5592 422.79 24.9048 422.676 25.3026C422.567 25.7003 422.513 26.1288 422.513 26.5881C422.513 27.1941 422.612 27.7457 422.811 28.2429C423.01 28.7353 423.301 29.1283 423.684 29.4219C424.068 29.7107 424.527 29.8551 425.062 29.8551ZM428.081 32.2131H427.52V20.9489H428.081C428.919 20.9489 429.684 21.0862 430.375 21.3608C431.066 21.6307 431.663 22.0166 432.165 22.5185C432.666 23.0156 433.055 23.6098 433.329 24.3011C433.604 24.9877 433.741 25.75 433.741 26.5881C433.741 27.4167 433.604 28.1766 433.329 28.8679C433.055 29.5545 432.666 30.1487 432.165 30.6506C431.663 31.1477 431.066 31.5336 430.375 31.8082C429.684 32.0781 428.919 32.2131 428.081 32.2131ZM428.081 29.8551C428.488 29.8551 428.85 29.7723 429.167 29.6065C429.485 29.4361 429.752 29.2017 429.97 28.9034C430.188 28.6051 430.354 28.2595 430.467 27.8665C430.581 27.4687 430.638 27.0426 430.638 26.5881C430.638 25.9773 430.536 25.4257 430.332 24.9332C430.133 24.4361 429.845 24.0407 429.466 23.7472C429.087 23.4536 428.625 23.3068 428.081 23.3068H427.747V29.8551H428.081ZM438.612 28.0085L442.539 21.0909H445.522V32H442.639V25.0611L438.725 32H435.721V21.0909H438.612V28.0085ZM450.838 28.0085L454.766 21.0909H457.749V32H454.865V25.0611L450.952 32H447.948V21.0909H450.838V28.0085ZM464.242 28.9105H467.175C467.189 29.2704 467.35 29.5545 467.658 29.7628C467.966 29.9711 468.364 30.0753 468.851 30.0753C469.344 30.0753 469.758 29.9616 470.094 29.7344C470.43 29.5024 470.599 29.1709 470.599 28.7401C470.599 28.4749 470.532 28.2453 470.4 28.0511C470.267 27.8523 470.082 27.696 469.846 27.5824C469.609 27.4687 469.334 27.4119 469.022 27.4119H467.452V25.4304H469.022C469.491 25.4304 469.85 25.3215 470.101 25.1037C470.357 24.8859 470.485 24.6136 470.485 24.2869C470.485 23.9176 470.352 23.6217 470.087 23.3991C469.827 23.1719 469.474 23.0582 469.029 23.0582C468.579 23.0582 468.205 23.16 467.907 23.3636C467.613 23.5625 467.462 23.8229 467.452 24.1449H464.533C464.543 23.4915 464.739 22.9257 465.123 22.4474C465.511 21.9692 466.032 21.5999 466.685 21.3395C467.343 21.0791 468.08 20.9489 468.894 20.9489C469.784 20.9489 470.551 21.0743 471.195 21.3253C471.844 21.5715 472.341 21.9242 472.687 22.3835C473.037 22.8428 473.212 23.3897 473.212 24.0241C473.212 24.6018 473.023 25.0848 472.644 25.473C472.265 25.8613 471.735 26.1383 471.053 26.304V26.4176C471.503 26.446 471.91 26.5668 472.275 26.7798C472.639 26.9929 472.93 27.2865 473.148 27.6605C473.366 28.0298 473.475 28.4678 473.475 28.9744C473.475 29.6515 473.276 30.2315 472.878 30.7145C472.485 31.1974 471.941 31.5691 471.245 31.8295C470.554 32.0852 469.76 32.2131 468.866 32.2131C467.994 32.2131 467.213 32.0876 466.522 31.8366C465.835 31.581 465.288 31.2069 464.881 30.7145C464.479 30.2221 464.266 29.6207 464.242 28.9105ZM478.441 32.206C477.745 32.206 477.125 32.0852 476.58 31.8438C476.036 31.5975 475.605 31.2353 475.288 30.7571C474.975 30.2741 474.819 29.6728 474.819 28.9531C474.819 28.3471 474.93 27.8381 475.153 27.4261C475.375 27.0142 475.678 26.6828 476.062 26.4318C476.445 26.1809 476.881 25.9915 477.369 25.8636C477.861 25.7358 478.377 25.6458 478.917 25.5938C479.552 25.5275 480.063 25.4659 480.451 25.4091C480.839 25.3475 481.121 25.2576 481.296 25.1392C481.472 25.0208 481.559 24.8456 481.559 24.6136V24.571C481.559 24.1212 481.417 23.7732 481.133 23.527C480.854 23.2808 480.456 23.1577 479.94 23.1577C479.395 23.1577 478.962 23.2784 478.64 23.5199C478.318 23.7566 478.105 24.0549 478.001 24.4148L475.203 24.1875C475.345 23.5246 475.624 22.9517 476.041 22.4688C476.457 21.9811 476.995 21.607 477.653 21.3466C478.316 21.0814 479.083 20.9489 479.954 20.9489C480.56 20.9489 481.14 21.0199 481.694 21.1619C482.253 21.304 482.748 21.5241 483.178 21.8224C483.614 22.1207 483.957 22.5043 484.208 22.973C484.459 23.437 484.585 23.9934 484.585 24.642V32H481.715V30.4872H481.63C481.455 30.8281 481.221 31.1288 480.927 31.3892C480.633 31.6449 480.281 31.8461 479.869 31.9929C479.457 32.1349 478.981 32.206 478.441 32.206ZM479.308 30.1179C479.753 30.1179 480.146 30.0303 480.487 29.8551C480.828 29.6752 481.095 29.4337 481.289 29.1307C481.483 28.8277 481.58 28.4844 481.58 28.1009V26.9432C481.486 27.0047 481.356 27.0616 481.19 27.1136C481.029 27.161 480.847 27.206 480.643 27.2486C480.439 27.2865 480.236 27.322 480.032 27.3551C479.829 27.3835 479.644 27.4096 479.478 27.4332C479.123 27.4853 478.813 27.5682 478.548 27.6818C478.283 27.7955 478.077 27.9493 477.93 28.1435C477.783 28.3329 477.71 28.5696 477.71 28.8537C477.71 29.2656 477.859 29.5805 478.157 29.7983C478.46 30.0114 478.844 30.1179 479.308 30.1179ZM486.932 32V21.0909H489.958V25.3239H490.81L493.779 21.0909H497.33L493.473 26.5028L497.372 32H493.779L491.087 28.1293H489.958V32H486.932ZM498.012 32L497.997 29.5994H498.36C498.615 29.5994 498.835 29.5379 499.02 29.4148C499.209 29.2869 499.366 29.081 499.489 28.7969C499.612 28.5128 499.709 28.1364 499.78 27.6676C499.851 27.1941 499.898 26.6117 499.922 25.9205L500.1 21.0909H508.395V32H505.512V23.4702H502.82L502.649 26.8011C502.607 27.715 502.495 28.5009 502.316 29.1591C502.14 29.8172 501.896 30.357 501.584 30.7784C501.271 31.1951 500.895 31.5028 500.455 31.7017C500.014 31.9006 499.503 32 498.921 32H498.012ZM516.77 25.402V27.8026H510.854V25.402H516.77ZM513.191 21.0909V32H510.172V21.0909H513.191ZM520.037 32.2131C518.958 32.2131 518.025 31.9716 517.239 31.4886C516.453 31.0057 515.847 30.3381 515.421 29.4858C515 28.6335 514.789 27.6558 514.789 26.5526C514.789 25.4493 515 24.4763 515.421 23.6335C515.847 22.7907 516.453 22.1326 517.239 21.6591C518.025 21.1856 518.958 20.9489 520.037 20.9489C521.122 20.9489 522.055 21.1856 522.836 21.6591C523.622 22.1326 524.225 22.7907 524.647 23.6335C525.073 24.4763 525.286 25.4493 525.286 26.5526C525.286 27.6558 525.073 28.6335 524.647 29.4858C524.225 30.3381 523.622 31.0057 522.836 31.4886C522.055 31.9716 521.122 32.2131 520.037 32.2131ZM520.037 29.7699C520.601 29.7699 521.055 29.6326 521.401 29.358C521.747 29.0786 522 28.6974 522.161 28.2145C522.322 27.7268 522.403 27.1728 522.403 26.5526C522.403 25.9323 522.322 25.383 522.161 24.9048C522 24.4219 521.747 24.0431 521.401 23.7685C521.055 23.4938 520.601 23.3565 520.037 23.3565C519.479 23.3565 519.024 23.4938 518.674 23.7685C518.323 24.0384 518.065 24.4124 517.9 24.8906C517.739 25.3688 517.658 25.9228 517.658 26.5526C517.658 27.1776 517.739 27.7315 517.9 28.2145C518.065 28.6974 518.323 29.0786 518.674 29.358C519.024 29.6326 519.479 29.7699 520.037 29.7699ZM536.809 21.0909V32H533.94V21.0909H536.809ZM535.41 25.8778V28.2642C535.178 28.3684 534.89 28.4678 534.544 28.5625C534.198 28.6525 533.836 28.7259 533.457 28.7827C533.078 28.8395 532.723 28.8679 532.392 28.8679C530.825 28.8679 529.591 28.5459 528.692 27.902C527.792 27.2533 527.342 26.2187 527.342 24.7983V21.0767H530.197V24.7983C530.197 25.2197 530.268 25.5535 530.41 25.7997C530.557 26.0459 530.789 26.2235 531.106 26.3324C531.428 26.4366 531.857 26.4886 532.392 26.4886C532.889 26.4886 533.377 26.4366 533.855 26.3324C534.333 26.2282 534.852 26.0767 535.41 25.8778ZM542.269 32.206C541.573 32.206 540.953 32.0852 540.409 31.8438C539.864 31.5975 539.433 31.2353 539.116 30.7571C538.803 30.2741 538.647 29.6728 538.647 28.9531C538.647 28.3471 538.758 27.8381 538.981 27.4261C539.204 27.0142 539.507 26.6828 539.89 26.4318C540.274 26.1809 540.709 25.9915 541.197 25.8636C541.689 25.7358 542.205 25.6458 542.745 25.5938C543.38 25.5275 543.891 25.4659 544.279 25.4091C544.668 25.3475 544.949 25.2576 545.124 25.1392C545.3 25.0208 545.387 24.8456 545.387 24.6136V24.571C545.387 24.1212 545.245 23.7732 544.961 23.527C544.682 23.2808 544.284 23.1577 543.768 23.1577C543.223 23.1577 542.79 23.2784 542.468 23.5199C542.146 23.7566 541.933 24.0549 541.829 24.4148L539.031 24.1875C539.173 23.5246 539.452 22.9517 539.869 22.4688C540.285 21.9811 540.823 21.607 541.481 21.3466C542.144 21.0814 542.911 20.9489 543.782 20.9489C544.388 20.9489 544.968 21.0199 545.522 21.1619C546.081 21.304 546.576 21.5241 547.007 21.8224C547.442 22.1207 547.785 22.5043 548.036 22.973C548.287 23.437 548.413 23.9934 548.413 24.642V32H545.544V30.4872H545.458C545.283 30.8281 545.049 31.1288 544.755 31.3892C544.462 31.6449 544.109 31.8461 543.697 31.9929C543.285 32.1349 542.809 32.206 542.269 32.206ZM543.136 30.1179C543.581 30.1179 543.974 30.0303 544.315 29.8551C544.656 29.6752 544.923 29.4337 545.117 29.1307C545.311 28.8277 545.409 28.4844 545.409 28.1009V26.9432C545.314 27.0047 545.184 27.0616 545.018 27.1136C544.857 27.161 544.675 27.206 544.471 27.2486C544.267 27.2865 544.064 27.322 543.86 27.3551C543.657 27.3835 543.472 27.4096 543.306 27.4332C542.951 27.4853 542.641 27.5682 542.376 27.6818C542.111 27.7955 541.905 27.9493 541.758 28.1435C541.611 28.3329 541.538 28.5696 541.538 28.8537C541.538 29.2656 541.687 29.5805 541.985 29.7983C542.288 30.0114 542.672 30.1179 543.136 30.1179ZM555.732 32.2131C554.61 32.2131 553.644 31.9858 552.834 31.5312C552.029 31.072 551.409 30.4233 550.973 29.5852C550.538 28.7424 550.32 27.7457 550.32 26.5952C550.32 25.473 550.538 24.4882 550.973 23.6406C551.409 22.7931 552.022 22.1326 552.813 21.6591C553.608 21.1856 554.541 20.9489 555.611 20.9489C556.331 20.9489 557.001 21.0649 557.621 21.2969C558.246 21.5241 558.79 21.8674 559.254 22.3267C559.723 22.786 560.088 23.3636 560.348 24.0597C560.609 24.7509 560.739 25.5606 560.739 26.4886V27.3196H551.527V25.4446H557.891C557.891 25.009 557.796 24.6231 557.607 24.2869C557.417 23.9508 557.155 23.688 556.818 23.4986C556.487 23.3045 556.101 23.2074 555.661 23.2074C555.201 23.2074 554.794 23.3139 554.439 23.527C554.089 23.7353 553.814 24.017 553.615 24.3722C553.416 24.7225 553.315 25.1132 553.31 25.544V27.3267C553.31 27.8665 553.409 28.3329 553.608 28.7259C553.812 29.1188 554.098 29.4219 554.468 29.6349C554.837 29.848 555.275 29.9545 555.781 29.9545C556.118 29.9545 556.425 29.9072 556.705 29.8125C556.984 29.7178 557.223 29.5758 557.422 29.3864C557.621 29.197 557.772 28.965 557.877 28.6903L560.675 28.875C560.533 29.5473 560.242 30.1345 559.801 30.6364C559.366 31.1335 558.802 31.5218 558.111 31.8011C557.424 32.0758 556.631 32.2131 555.732 32.2131ZM561.872 23.4702V21.0909H571.758V23.4702H568.242V32H565.359V23.4702H561.872ZM578.131 32.2131C577.013 32.2131 576.052 31.9763 575.247 31.5028C574.447 31.0246 573.831 30.3617 573.4 29.5142C572.974 28.6667 572.761 27.6913 572.761 26.5881C572.761 25.4706 572.977 24.4905 573.407 23.6477C573.843 22.8002 574.461 22.1397 575.261 21.6662C576.061 21.188 577.013 20.9489 578.116 20.9489C579.068 20.9489 579.901 21.1217 580.616 21.4673C581.331 21.813 581.897 22.2983 582.314 22.9233C582.73 23.5483 582.96 24.2822 583.003 25.125H580.148C580.067 24.5805 579.854 24.1425 579.508 23.8111C579.167 23.4749 578.72 23.3068 578.166 23.3068C577.697 23.3068 577.288 23.4347 576.937 23.6903C576.592 23.9413 576.322 24.3082 576.128 24.7912C575.934 25.2741 575.836 25.8589 575.836 26.5455C575.836 27.2415 575.931 27.8333 576.121 28.321C576.315 28.8087 576.587 29.1804 576.937 29.4361C577.288 29.6918 577.697 29.8196 578.166 29.8196C578.512 29.8196 578.822 29.7486 579.096 29.6065C579.376 29.4645 579.605 29.2585 579.785 28.9886C579.97 28.714 580.091 28.3849 580.148 28.0014H583.003C582.955 28.8348 582.728 29.5687 582.321 30.2031C581.918 30.8329 581.362 31.3253 580.652 31.6804C579.942 32.0355 579.101 32.2131 578.131 32.2131ZM591.332 32V23.4631H589.286C588.732 23.4631 588.311 23.5909 588.022 23.8466C587.733 24.1023 587.591 24.4053 587.596 24.7557C587.591 25.1108 587.729 25.4115 588.008 25.6577C588.292 25.8991 588.709 26.0199 589.258 26.0199H592.34V28.0653H589.258C588.325 28.0653 587.518 27.9233 586.836 27.6392C586.154 27.3551 585.629 26.9598 585.259 26.4531C584.89 25.9418 584.708 25.3475 584.713 24.6705C584.708 23.9602 584.89 23.3376 585.259 22.8026C585.629 22.2628 586.157 21.8437 586.843 21.5455C587.535 21.2424 588.349 21.0909 589.286 21.0909H594.151V32H591.332ZM584.4 32L587.433 26.3182H590.323L587.298 32H584.4ZM601.131 32V21.0909H605.783C607.128 21.0909 608.191 21.3466 608.972 21.858C609.753 22.3693 610.144 23.0961 610.144 24.0384C610.144 24.6302 609.924 25.1226 609.483 25.5156C609.043 25.9086 608.432 26.1738 607.651 26.3111C608.305 26.3584 608.861 26.5076 609.32 26.7585C609.784 27.0047 610.137 27.3243 610.378 27.7173C610.625 28.1103 610.748 28.5459 610.748 29.0241C610.748 29.6444 610.582 30.1771 610.251 30.6222C609.924 31.0672 609.443 31.4081 608.809 31.6449C608.179 31.8816 607.41 32 606.501 32H601.131ZM603.951 29.7344H606.501C606.922 29.7344 607.251 29.6349 607.488 29.4361C607.729 29.2325 607.85 28.9555 607.85 28.6051C607.85 28.2169 607.729 27.9115 607.488 27.6889C607.251 27.4664 606.922 27.3551 606.501 27.3551H603.951V29.7344ZM603.951 25.5795H605.847C606.15 25.5795 606.408 25.5369 606.621 25.4517C606.839 25.3617 607.005 25.2339 607.118 25.0682C607.237 24.9025 607.296 24.706 607.296 24.4787C607.296 24.1425 607.161 23.8797 606.891 23.6903C606.621 23.5009 606.252 23.4062 605.783 23.4062H603.951V25.5795ZM52.8668 56.2131C51.7636 56.2131 50.8095 55.9787 50.0046 55.5099C49.2044 55.0365 48.5865 54.3783 48.1509 53.5355C47.7153 52.688 47.4975 51.7055 47.4975 50.5881C47.4975 49.4612 47.7153 48.4763 48.1509 47.6335C48.5865 46.786 49.2044 46.1278 50.0046 45.6591C50.8095 45.1856 51.7636 44.9489 52.8668 44.9489C53.9701 44.9489 54.9218 45.1856 55.7219 45.6591C56.5269 46.1278 57.1471 46.786 57.5827 47.6335C58.0183 48.4763 58.2362 49.4612 58.2362 50.5881C58.2362 51.7055 58.0183 52.688 57.5827 53.5355C57.1471 54.3783 56.5269 55.0365 55.7219 55.5099C54.9218 55.9787 53.9701 56.2131 52.8668 56.2131ZM52.881 53.8693C53.3829 53.8693 53.802 53.7273 54.1381 53.4432C54.4743 53.1544 54.7276 52.7614 54.8981 52.2642C55.0733 51.767 55.1609 51.2012 55.1609 50.5668C55.1609 49.9323 55.0733 49.3665 54.8981 48.8693C54.7276 48.3722 54.4743 47.9792 54.1381 47.6903C53.802 47.4015 53.3829 47.2571 52.881 47.2571C52.3744 47.2571 51.9483 47.4015 51.6026 47.6903C51.2617 47.9792 51.0037 48.3722 50.8285 48.8693C50.658 49.3665 50.5728 49.9323 50.5728 50.5668C50.5728 51.2012 50.658 51.767 50.8285 52.2642C51.0037 52.7614 51.2617 53.1544 51.6026 53.4432C51.9483 53.7273 52.3744 53.8693 52.881 53.8693ZM69.2731 41.0852L70.1964 43.0597C69.8886 43.3153 69.5477 43.5047 69.1737 43.6278C68.7996 43.7462 68.3522 43.8243 67.8313 43.8622C67.3152 43.9001 66.6855 43.9261 65.9421 43.9403C65.0993 43.9498 64.4128 44.0848 63.8825 44.3452C63.3522 44.6056 62.9497 45.0152 62.6751 45.5739C62.4004 46.1278 62.2205 46.8523 62.1353 47.7472H62.2418C62.5685 47.0795 63.0278 46.5634 63.6197 46.1989C64.2163 45.8343 64.9525 45.652 65.8285 45.652C66.7565 45.652 67.5685 45.8556 68.2646 46.2628C68.9653 46.67 69.5098 47.2547 69.8981 48.017C70.2863 48.7794 70.4805 49.6932 70.4805 50.7585C70.4805 51.8665 70.2627 52.83 69.8271 53.6491C69.3962 54.4635 68.783 55.0956 67.9876 55.5455C67.1921 55.9905 66.2451 56.2131 65.1467 56.2131C64.0434 56.2131 63.0917 55.9811 62.2915 55.517C61.4961 55.053 60.8806 54.3688 60.445 53.4645C60.0141 52.5601 59.7987 51.4474 59.7987 50.1264V49.2315C59.7987 46.6037 60.31 44.6553 61.3327 43.3864C62.3555 42.1174 63.8588 41.4735 65.8427 41.4545C66.3825 41.4451 66.8701 41.4427 67.3058 41.4474C67.7414 41.4522 68.1225 41.4309 68.4492 41.3835C68.7807 41.3362 69.0553 41.2367 69.2731 41.0852ZM65.1609 53.8693C65.6249 53.8693 66.0226 53.7486 66.354 53.5071C66.6902 53.2656 66.9483 52.92 67.1282 52.4702C67.3129 52.0204 67.4052 51.483 67.4052 50.858C67.4052 50.2377 67.3129 49.7121 67.1282 49.2812C66.9483 48.8456 66.6902 48.5142 66.354 48.2869C66.0179 48.0597 65.6154 47.946 65.1467 47.946C64.7963 47.946 64.4814 48.0099 64.2021 48.1378C63.9227 48.2656 63.6836 48.455 63.4847 48.706C63.2906 48.9522 63.1391 49.2576 63.0302 49.6222C62.926 49.982 62.8739 50.3939 62.8739 50.858C62.8739 51.7907 63.0752 52.527 63.4776 53.0668C63.8848 53.6018 64.4459 53.8693 65.1609 53.8693ZM74.1488 45.0909V47.4915H71.3505V45.0909H74.1488ZM76.038 48.4432H79.305C80.7492 48.4432 81.8737 48.7888 82.6786 49.4801C83.4883 50.1667 83.8955 51.0852 83.9002 52.2358C83.8955 52.9839 83.7108 53.642 83.3462 54.2102C82.9817 54.7737 82.4561 55.214 81.7695 55.5312C81.0877 55.8438 80.2662 56 79.305 56H74.1488V45.0909H77.0323V53.6207H79.305C79.8117 53.6207 80.2283 53.4929 80.555 53.2372C80.8817 52.9815 81.0451 52.6548 81.0451 52.2571C81.0451 51.8357 80.8817 51.4924 80.555 51.2273C80.2283 50.9574 79.8117 50.8224 79.305 50.8224H76.038V48.4432ZM90.8782 56.2131C89.756 56.2131 88.7901 55.9858 87.9805 55.5312C87.1755 55.072 86.5553 54.4233 86.1197 53.5852C85.6841 52.7424 85.4663 51.7457 85.4663 50.5952C85.4663 49.473 85.6841 48.4882 86.1197 47.6406C86.5553 46.7931 87.1684 46.1326 87.9592 45.6591C88.7546 45.1856 89.6874 44.9489 90.7575 44.9489C91.4772 44.9489 92.1471 45.0649 92.7674 45.2969C93.3924 45.5241 93.9369 45.8674 94.4009 46.3267C94.8697 46.786 95.2343 47.3636 95.4947 48.0597C95.7551 48.7509 95.8853 49.5606 95.8853 50.4886V51.3196H86.6737V49.4446H93.0373C93.0373 49.009 92.9426 48.6231 92.7532 48.2869C92.5638 47.9508 92.301 47.688 91.9648 47.4986C91.6334 47.3045 91.2475 47.2074 90.8072 47.2074C90.3479 47.2074 89.9407 47.3139 89.5856 47.527C89.2352 47.7353 88.9606 48.017 88.7617 48.3722C88.5629 48.7225 88.4611 49.1132 88.4563 49.544V51.3267C88.4563 51.8665 88.5558 52.3329 88.7546 52.7259C88.9582 53.1188 89.2447 53.4219 89.614 53.6349C89.9833 53.848 90.4213 53.9545 90.9279 53.9545C91.2641 53.9545 91.5719 53.9072 91.8512 53.8125C92.1306 53.7178 92.3697 53.5758 92.5685 53.3864C92.7674 53.197 92.9189 52.965 93.0231 52.6903L95.8214 52.875C95.6793 53.5473 95.3881 54.1345 94.9478 54.6364C94.5122 55.1335 93.9487 55.5218 93.2575 55.8011C92.5709 56.0758 91.7778 56.2131 90.8782 56.2131ZM97.0075 59.196V53.5994H97.8455C98.087 53.4479 98.2811 53.2064 98.4279 52.875C98.5794 52.5436 98.7025 52.1529 98.7972 51.7031C98.8967 51.2533 98.9724 50.768 99.0245 50.2472C99.0813 49.7216 99.131 49.1913 99.1737 48.6562L99.4577 45.0909H107.824V53.5994H109.515V59.196H106.631V56H99.962V59.196H97.0075ZM100.857 53.5994H104.969V47.4205H102.029L101.915 48.6562C101.835 49.821 101.719 50.8106 101.567 51.625C101.416 52.4347 101.179 53.0928 100.857 53.5994ZM114.168 52.0085L118.096 45.0909H121.079V56H118.195V49.0611L114.282 56H111.278V45.0909H114.168V52.0085ZM131.097 49.3381V51.7173H125.401V49.3381H131.097ZM126.395 45.0909V56H123.504V45.0909H126.395ZM132.993 45.0909V56H130.124V45.0909H132.993ZM140.312 56.2131C139.19 56.2131 138.224 55.9858 137.414 55.5312C136.609 55.072 135.989 54.4233 135.553 53.5852C135.118 52.7424 134.9 51.7457 134.9 50.5952C134.9 49.473 135.118 48.4882 135.553 47.6406C135.989 46.7931 136.602 46.1326 137.393 45.6591C138.188 45.1856 139.121 44.9489 140.191 44.9489C140.911 44.9489 141.581 45.0649 142.201 45.2969C142.826 45.5241 143.371 45.8674 143.835 46.3267C144.303 46.786 144.668 47.3636 144.928 48.0597C145.189 48.7509 145.319 49.5606 145.319 50.4886V51.3196H136.107V49.4446H142.471C142.471 49.009 142.376 48.6231 142.187 48.2869C141.997 47.9508 141.735 47.688 141.398 47.4986C141.067 47.3045 140.681 47.2074 140.241 47.2074C139.781 47.2074 139.374 47.3139 139.019 47.527C138.669 47.7353 138.394 48.017 138.195 48.3722C137.996 48.7225 137.895 49.1132 137.89 49.544V51.3267C137.89 51.8665 137.989 52.3329 138.188 52.7259C138.392 53.1188 138.678 53.4219 139.048 53.6349C139.417 53.848 139.855 53.9545 140.362 53.9545C140.698 53.9545 141.005 53.9072 141.285 53.8125C141.564 53.7178 141.803 53.5758 142.002 53.3864C142.201 53.197 142.353 52.965 142.457 52.6903L145.255 52.875C145.113 53.5473 144.822 54.1345 144.381 54.6364C143.946 55.1335 143.382 55.5218 142.691 55.8011C142.004 56.0758 141.211 56.2131 140.312 56.2131ZM154.886 49.3381V51.7173H149.19V49.3381H154.886ZM150.184 45.0909V56H147.293V45.0909H150.184ZM156.782 45.0909V56H153.913V45.0909H156.782ZM162.02 52.0085L165.947 45.0909H168.93V56H166.047V49.0611L162.134 56H159.129V45.0909H162.02V52.0085ZM174.246 52.0085L178.174 45.0909H181.157V56H178.273V49.0611L174.36 56H171.356V45.0909H174.246V52.0085ZM188.211 56V45.0909H197.75V56H194.859V47.4702H191.066V56H188.211ZM200.164 60.0909V45.0909H203.147V46.9233H203.282C203.415 46.6297 203.607 46.3314 203.858 46.0284C204.113 45.7206 204.445 45.465 204.852 45.2614C205.264 45.053 205.775 44.9489 206.386 44.9489C207.181 44.9489 207.915 45.1572 208.588 45.5739C209.26 45.9858 209.797 46.6084 210.2 47.4418C210.602 48.2704 210.804 49.3097 210.804 50.5597C210.804 51.7765 210.607 52.804 210.214 53.642C209.826 54.4754 209.296 55.1075 208.623 55.5384C207.956 55.9645 207.208 56.1776 206.379 56.1776C205.792 56.1776 205.292 56.0805 204.88 55.8864C204.473 55.6922 204.139 55.4484 203.879 55.1548C203.618 54.8565 203.42 54.5559 203.282 54.2528H203.19V60.0909H200.164ZM203.126 50.5455C203.126 51.1941 203.216 51.7599 203.396 52.2429C203.576 52.7259 203.836 53.1023 204.177 53.3722C204.518 53.6373 204.932 53.7699 205.42 53.7699C205.913 53.7699 206.329 53.6349 206.67 53.3651C207.011 53.0904 207.269 52.7116 207.444 52.2287C207.624 51.741 207.714 51.1799 207.714 50.5455C207.714 49.9157 207.627 49.3617 207.451 48.8835C207.276 48.4053 207.018 48.0312 206.677 47.7614C206.336 47.4915 205.917 47.3565 205.42 47.3565C204.928 47.3565 204.511 47.4867 204.17 47.7472C203.834 48.0076 203.576 48.3769 203.396 48.8551C203.216 49.3333 203.126 49.8968 203.126 50.5455ZM215.931 56.206C215.235 56.206 214.615 56.0852 214.071 55.8438C213.526 55.5975 213.095 55.2353 212.778 54.7571C212.466 54.2741 212.309 53.6728 212.309 52.9531C212.309 52.3471 212.421 51.8381 212.643 51.4261C212.866 51.0142 213.169 50.6828 213.552 50.4318C213.936 50.1809 214.371 49.9915 214.859 49.8636C215.351 49.7358 215.868 49.6458 216.407 49.5938C217.042 49.5275 217.553 49.4659 217.941 49.4091C218.33 49.3475 218.611 49.2576 218.787 49.1392C218.962 49.0208 219.049 48.8456 219.049 48.6136V48.571C219.049 48.1212 218.907 47.7732 218.623 47.527C218.344 47.2808 217.946 47.1577 217.43 47.1577C216.886 47.1577 216.452 47.2784 216.13 47.5199C215.808 47.7566 215.595 48.0549 215.491 48.4148L212.693 48.1875C212.835 47.5246 213.114 46.9517 213.531 46.4688C213.948 45.9811 214.485 45.607 215.143 45.3466C215.806 45.0814 216.573 44.9489 217.444 44.9489C218.05 44.9489 218.63 45.0199 219.184 45.1619C219.743 45.304 220.238 45.5241 220.669 45.8224C221.104 46.1207 221.448 46.5043 221.699 46.973C221.949 47.437 222.075 47.9934 222.075 48.642V56H219.206V54.4872H219.12C218.945 54.8281 218.711 55.1288 218.417 55.3892C218.124 55.6449 217.771 55.8461 217.359 55.9929C216.947 56.1349 216.471 56.206 215.931 56.206ZM216.798 54.1179C217.243 54.1179 217.636 54.0303 217.977 53.8551C218.318 53.6752 218.585 53.4337 218.779 53.1307C218.974 52.8277 219.071 52.4844 219.071 52.1009V50.9432C218.976 51.0047 218.846 51.0616 218.68 51.1136C218.519 51.161 218.337 51.206 218.133 51.2486C217.93 51.2865 217.726 51.322 217.522 51.3551C217.319 51.3835 217.134 51.4096 216.968 51.4332C216.613 51.4853 216.303 51.5682 216.038 51.6818C215.773 51.7955 215.567 51.9493 215.42 52.1435C215.273 52.3329 215.2 52.5696 215.2 52.8537C215.2 53.2656 215.349 53.5805 215.647 53.7983C215.95 54.0114 216.334 54.1179 216.798 54.1179ZM224.422 56V45.0909H227.448V49.3239H228.3L231.269 45.0909H234.82L230.963 50.5028L234.863 56H231.269L228.577 52.1293H227.448V56H224.422ZM235.573 47.4702V45.0909H245.459V47.4702H241.944V56H239.06V47.4702H235.573ZM250.184 52.0085L254.112 45.0909H257.094V56H254.211V49.0611L250.298 56H247.293V45.0909H250.184V52.0085ZM268.987 45.0909V56H266.118V45.0909H268.987ZM267.588 49.8778V52.2642C267.356 52.3684 267.067 52.4678 266.722 52.5625C266.376 52.6525 266.014 52.7259 265.635 52.7827C265.256 52.8395 264.901 52.8679 264.57 52.8679C263.002 52.8679 261.769 52.5459 260.869 51.902C259.97 51.2533 259.52 50.2187 259.52 48.7983V45.0767H262.375V48.7983C262.375 49.2197 262.446 49.5535 262.588 49.7997C262.735 50.0459 262.967 50.2235 263.284 50.3324C263.606 50.4366 264.035 50.4886 264.57 50.4886C265.067 50.4886 265.554 50.4366 266.033 50.3324C266.511 50.2282 267.029 50.0767 267.588 49.8778ZM276.308 56.2131C275.186 56.2131 274.22 55.9858 273.41 55.5312C272.605 55.072 271.985 54.4233 271.549 53.5852C271.114 52.7424 270.896 51.7457 270.896 50.5952C270.896 49.473 271.114 48.4882 271.549 47.6406C271.985 46.7931 272.598 46.1326 273.389 45.6591C274.184 45.1856 275.117 44.9489 276.187 44.9489C276.907 44.9489 277.577 45.0649 278.197 45.2969C278.822 45.5241 279.367 45.8674 279.831 46.3267C280.299 46.786 280.664 47.3636 280.924 48.0597C281.185 48.7509 281.315 49.5606 281.315 50.4886V51.3196H272.103V49.4446H278.467C278.467 49.009 278.372 48.6231 278.183 48.2869C277.993 47.9508 277.731 47.688 277.395 47.4986C277.063 47.3045 276.677 47.2074 276.237 47.2074C275.778 47.2074 275.37 47.3139 275.015 47.527C274.665 47.7353 274.39 48.017 274.191 48.3722C273.993 48.7225 273.891 49.1132 273.886 49.544V51.3267C273.886 51.8665 273.985 52.3329 274.184 52.7259C274.388 53.1188 274.674 53.4219 275.044 53.6349C275.413 53.848 275.851 53.9545 276.358 53.9545C276.694 53.9545 277.002 53.9072 277.281 53.8125C277.56 53.7178 277.799 53.5758 277.998 53.3864C278.197 53.197 278.349 52.965 278.453 52.6903L281.251 52.875C281.109 53.5473 280.818 54.1345 280.377 54.6364C279.942 55.1335 279.378 55.5218 278.687 55.8011C278.001 56.0758 277.208 56.2131 276.308 56.2131ZM288.218 56.2131C287.101 56.2131 286.14 55.9763 285.335 55.5028C284.535 55.0246 283.919 54.3617 283.488 53.5142C283.062 52.6667 282.849 51.6913 282.849 50.5881C282.849 49.4706 283.065 48.4905 283.495 47.6477C283.931 46.8002 284.549 46.1397 285.349 45.6662C286.149 45.188 287.101 44.9489 288.204 44.9489C289.156 44.9489 289.989 45.1217 290.704 45.4673C291.419 45.813 291.985 46.2983 292.402 46.9233C292.818 47.5483 293.048 48.2822 293.091 49.125H290.235C290.155 48.5805 289.942 48.1425 289.596 47.8111C289.255 47.4749 288.808 47.3068 288.254 47.3068C287.785 47.3068 287.376 47.4347 287.025 47.6903C286.68 47.9413 286.41 48.3082 286.216 48.7912C286.021 49.2741 285.924 49.8589 285.924 50.5455C285.924 51.2415 286.019 51.8333 286.208 52.321C286.403 52.8087 286.675 53.1804 287.025 53.4361C287.376 53.6918 287.785 53.8196 288.254 53.8196C288.6 53.8196 288.91 53.7486 289.184 53.6065C289.464 53.4645 289.693 53.2585 289.873 52.9886C290.058 52.714 290.179 52.3849 290.235 52.0014H293.091C293.043 52.8348 292.816 53.5687 292.409 54.2031C292.006 54.8329 291.45 55.3253 290.74 55.6804C290.029 56.0355 289.189 56.2131 288.218 56.2131ZM295.028 56V45.0909H298.053V49.3239H298.906L301.874 45.0909H305.425L301.569 50.5028L305.468 56H301.874L299.183 52.1293H298.053V56H295.028ZM309.637 52.0085L313.565 45.0909H316.548V56H313.664V49.0611L309.751 56H306.746V45.0909H309.637V52.0085ZM321.501 45.0909L323.504 48.9048L325.557 45.0909H328.661L325.5 50.5455L328.746 56H325.656L323.504 52.2287L321.388 56H318.263L321.501 50.5455L318.376 45.0909H321.501ZM333.746 54.0114L333.668 54.7926C333.606 55.4176 333.488 56.0402 333.312 56.6605C333.142 57.2855 332.962 57.8513 332.773 58.358C332.588 58.8646 332.439 59.2623 332.325 59.5511H330.365C330.436 59.2718 330.533 58.8812 330.656 58.3793C330.779 57.8821 330.895 57.3234 331.004 56.7031C331.113 56.0829 331.182 55.4508 331.21 54.8068L331.246 54.0114H333.746ZM340.457 56V45.0909H349.996V56H347.105V47.4702H343.312V56H340.457ZM357.339 56.2131C356.236 56.2131 355.282 55.9787 354.477 55.5099C353.677 55.0365 353.059 54.3783 352.624 53.5355C352.188 52.688 351.97 51.7055 351.97 50.5881C351.97 49.4612 352.188 48.4763 352.624 47.6335C353.059 46.786 353.677 46.1278 354.477 45.6591C355.282 45.1856 356.236 44.9489 357.339 44.9489C358.443 44.9489 359.394 45.1856 360.195 45.6591C361 46.1278 361.62 46.786 362.055 47.6335C362.491 48.4763 362.709 49.4612 362.709 50.5881C362.709 51.7055 362.491 52.688 362.055 53.5355C361.62 54.3783 361 55.0365 360.195 55.5099C359.394 55.9787 358.443 56.2131 357.339 56.2131ZM357.354 53.8693C357.856 53.8693 358.275 53.7273 358.611 53.4432C358.947 53.1544 359.2 52.7614 359.371 52.2642C359.546 51.767 359.634 51.2012 359.634 50.5668C359.634 49.9323 359.546 49.3665 359.371 48.8693C359.2 48.3722 358.947 47.9792 358.611 47.6903C358.275 47.4015 357.856 47.2571 357.354 47.2571C356.847 47.2571 356.421 47.4015 356.075 47.6903C355.734 47.9792 355.476 48.3722 355.301 48.8693C355.131 49.3665 355.045 49.9323 355.045 50.5668C355.045 51.2012 355.131 51.767 355.301 52.2642C355.476 52.7614 355.734 53.1544 356.075 53.4432C356.421 53.7273 356.847 53.8693 357.354 53.8693ZM364.115 52.9105H367.048C367.063 53.2704 367.223 53.5545 367.531 53.7628C367.839 53.9711 368.237 54.0753 368.724 54.0753C369.217 54.0753 369.631 53.9616 369.967 53.7344C370.304 53.5024 370.472 53.1709 370.472 52.7401C370.472 52.4749 370.405 52.2453 370.273 52.0511C370.14 51.8523 369.955 51.696 369.719 51.5824C369.482 51.4687 369.207 51.4119 368.895 51.4119H367.325V49.4304H368.895C369.364 49.4304 369.723 49.3215 369.974 49.1037C370.23 48.8859 370.358 48.6136 370.358 48.2869C370.358 47.9176 370.225 47.6217 369.96 47.3991C369.7 47.1719 369.347 47.0582 368.902 47.0582C368.452 47.0582 368.078 47.16 367.78 47.3636C367.486 47.5625 367.335 47.8229 367.325 48.1449H364.406C364.416 47.4915 364.612 46.9257 364.996 46.4474C365.384 45.9692 365.905 45.5999 366.558 45.3395C367.216 45.0791 367.953 44.9489 368.767 44.9489C369.657 44.9489 370.424 45.0743 371.068 45.3253C371.717 45.5715 372.214 45.9242 372.56 46.3835C372.91 46.8428 373.085 47.3897 373.085 48.0241C373.085 48.6018 372.896 49.0848 372.517 49.473C372.138 49.8613 371.608 50.1383 370.926 50.304V50.4176C371.376 50.446 371.783 50.5668 372.148 50.7798C372.512 50.9929 372.804 51.2865 373.021 51.6605C373.239 52.0298 373.348 52.4678 373.348 52.9744C373.348 53.6515 373.149 54.2315 372.751 54.7145C372.358 55.1974 371.814 55.5691 371.118 55.8295C370.427 56.0852 369.634 56.2131 368.739 56.2131C367.867 56.2131 367.086 56.0876 366.395 55.8366C365.708 55.581 365.161 55.2069 364.754 54.7145C364.352 54.2221 364.139 53.6207 364.115 52.9105ZM382.796 49.3381V51.7173H377.1V49.3381H382.796ZM378.094 45.0909V56H375.203V45.0909H378.094ZM384.692 45.0909V56H381.823V45.0909H384.692ZM390.15 56.206C389.454 56.206 388.834 56.0852 388.289 55.8438C387.745 55.5975 387.314 55.2353 386.997 54.7571C386.684 54.2741 386.528 53.6728 386.528 52.9531C386.528 52.3471 386.639 51.8381 386.862 51.4261C387.084 51.0142 387.387 50.6828 387.771 50.4318C388.154 50.1809 388.59 49.9915 389.078 49.8636C389.57 49.7358 390.086 49.6458 390.626 49.5938C391.261 49.5275 391.772 49.4659 392.16 49.4091C392.548 49.3475 392.83 49.2576 393.005 49.1392C393.181 49.0208 393.268 48.8456 393.268 48.6136V48.571C393.268 48.1212 393.126 47.7732 392.842 47.527C392.563 47.2808 392.165 47.1577 391.649 47.1577C391.104 47.1577 390.671 47.2784 390.349 47.5199C390.027 47.7566 389.814 48.0549 389.71 48.4148L386.912 48.1875C387.054 47.5246 387.333 46.9517 387.75 46.4688C388.166 45.9811 388.704 45.607 389.362 45.3466C390.025 45.0814 390.792 44.9489 391.663 44.9489C392.269 44.9489 392.849 45.0199 393.403 45.1619C393.962 45.304 394.457 45.5241 394.887 45.8224C395.323 46.1207 395.666 46.5043 395.917 46.973C396.168 47.437 396.294 47.9934 396.294 48.642V56H393.424V54.4872H393.339C393.164 54.8281 392.93 55.1288 392.636 55.3892C392.342 55.6449 391.99 55.8461 391.578 55.9929C391.166 56.1349 390.69 56.206 390.15 56.206ZM391.017 54.1179C391.462 54.1179 391.855 54.0303 392.196 53.8551C392.537 53.6752 392.804 53.4337 392.998 53.1307C393.192 52.8277 393.289 52.4844 393.289 52.1009V50.9432C393.195 51.0047 393.065 51.0616 392.899 51.1136C392.738 51.161 392.556 51.206 392.352 51.2486C392.148 51.2865 391.945 51.322 391.741 51.3551C391.538 51.3835 391.353 51.4096 391.187 51.4332C390.832 51.4853 390.522 51.5682 390.257 51.6818C389.992 51.7955 389.786 51.9493 389.639 52.1435C389.492 52.3329 389.419 52.5696 389.419 52.8537C389.419 53.2656 389.568 53.5805 389.866 53.7983C390.169 54.0114 390.553 54.1179 391.017 54.1179ZM398.641 56V45.0909H403.293C404.638 45.0909 405.701 45.3466 406.482 45.858C407.263 46.3693 407.654 47.0961 407.654 48.0384C407.654 48.6302 407.434 49.1226 406.993 49.5156C406.553 49.9086 405.942 50.1738 405.161 50.3111C405.814 50.3584 406.371 50.5076 406.83 50.7585C407.294 51.0047 407.647 51.3243 407.888 51.7173C408.134 52.1103 408.257 52.5459 408.257 53.0241C408.257 53.6444 408.092 54.1771 407.76 54.6222C407.434 55.0672 406.953 55.4081 406.319 55.6449C405.689 55.8816 404.919 56 404.01 56H398.641ZM401.461 53.7344H404.01C404.432 53.7344 404.761 53.6349 404.998 53.4361C405.239 53.2325 405.36 52.9555 405.36 52.6051C405.36 52.2169 405.239 51.9115 404.998 51.6889C404.761 51.4664 404.432 51.3551 404.01 51.3551H401.461V53.7344ZM401.461 49.5795H403.357C403.66 49.5795 403.918 49.5369 404.131 49.4517C404.349 49.3617 404.515 49.2339 404.628 49.0682C404.747 48.9025 404.806 48.706 404.806 48.4787C404.806 48.1425 404.671 47.8797 404.401 47.6903C404.131 47.5009 403.762 47.4062 403.293 47.4062H401.461V49.5795ZM413.275 56.206C412.579 56.206 411.959 56.0852 411.414 55.8438C410.87 55.5975 410.439 55.2353 410.122 54.7571C409.809 54.2741 409.653 53.6728 409.653 52.9531C409.653 52.3471 409.764 51.8381 409.987 51.4261C410.209 51.0142 410.512 50.6828 410.896 50.4318C411.279 50.1809 411.715 49.9915 412.203 49.8636C412.695 49.7358 413.211 49.6458 413.751 49.5938C414.386 49.5275 414.897 49.4659 415.285 49.4091C415.673 49.3475 415.955 49.2576 416.13 49.1392C416.306 49.0208 416.393 48.8456 416.393 48.6136V48.571C416.393 48.1212 416.251 47.7732 415.967 47.527C415.688 47.2808 415.29 47.1577 414.774 47.1577C414.229 47.1577 413.796 47.2784 413.474 47.5199C413.152 47.7566 412.939 48.0549 412.835 48.4148L410.037 48.1875C410.179 47.5246 410.458 46.9517 410.875 46.4688C411.291 45.9811 411.829 45.607 412.487 45.3466C413.15 45.0814 413.917 44.9489 414.788 44.9489C415.394 44.9489 415.974 45.0199 416.528 45.1619C417.087 45.304 417.582 45.5241 418.012 45.8224C418.448 46.1207 418.791 46.5043 419.042 46.973C419.293 47.437 419.419 47.9934 419.419 48.642V56H416.549V54.4872H416.464C416.289 54.8281 416.055 55.1288 415.761 55.3892C415.467 55.6449 415.115 55.8461 414.703 55.9929C414.291 56.1349 413.815 56.206 413.275 56.206ZM414.142 54.1179C414.587 54.1179 414.98 54.0303 415.321 53.8551C415.662 53.6752 415.929 53.4337 416.123 53.1307C416.317 52.8277 416.414 52.4844 416.414 52.1009V50.9432C416.32 51.0047 416.19 51.0616 416.024 51.1136C415.863 51.161 415.681 51.206 415.477 51.2486C415.273 51.2865 415.07 51.322 414.866 51.3551C414.663 51.3835 414.478 51.4096 414.312 51.4332C413.957 51.4853 413.647 51.5682 413.382 51.6818C413.117 51.7955 412.911 51.9493 412.764 52.1435C412.617 52.3329 412.544 52.5696 412.544 52.8537C412.544 53.2656 412.693 53.5805 412.991 53.7983C413.294 54.0114 413.678 54.1179 414.142 54.1179ZM420.67 47.4702V45.0909H430.557V47.4702H427.041V56H424.158V47.4702H420.67ZM436.972 56.2131C435.85 56.2131 434.884 55.9858 434.074 55.5312C433.269 55.072 432.649 54.4233 432.213 53.5852C431.778 52.7424 431.56 51.7457 431.56 50.5952C431.56 49.473 431.778 48.4882 432.213 47.6406C432.649 46.7931 433.262 46.1326 434.053 45.6591C434.848 45.1856 435.781 44.9489 436.851 44.9489C437.571 44.9489 438.241 45.0649 438.861 45.2969C439.486 45.5241 440.031 45.8674 440.495 46.3267C440.963 46.786 441.328 47.3636 441.588 48.0597C441.849 48.7509 441.979 49.5606 441.979 50.4886V51.3196H432.767V49.4446H439.131C439.131 49.009 439.036 48.6231 438.847 48.2869C438.658 47.9508 438.395 47.688 438.059 47.4986C437.727 47.3045 437.341 47.2074 436.901 47.2074C436.442 47.2074 436.034 47.3139 435.679 47.527C435.329 47.7353 435.054 48.017 434.855 48.3722C434.657 48.7225 434.555 49.1132 434.55 49.544V51.3267C434.55 51.8665 434.65 52.3329 434.848 52.7259C435.052 53.1188 435.338 53.4219 435.708 53.6349C436.077 53.848 436.515 53.9545 437.022 53.9545C437.358 53.9545 437.666 53.9072 437.945 53.8125C438.224 53.7178 438.463 53.5758 438.662 53.3864C438.861 53.197 439.013 52.965 439.117 52.6903L441.915 52.875C441.773 53.5473 441.482 54.1345 441.042 54.6364C440.606 55.1335 440.042 55.5218 439.351 55.8011C438.665 56.0758 437.872 56.2131 436.972 56.2131ZM443.314 56L443.3 53.5994H443.662C443.918 53.5994 444.138 53.5379 444.323 53.4148C444.512 53.2869 444.668 53.081 444.792 52.7969C444.915 52.5128 445.012 52.1364 445.083 51.6676C445.154 51.1941 445.201 50.6117 445.225 49.9205L445.402 45.0909H453.698V56H450.814V47.4702H448.123L447.952 50.8011C447.909 51.715 447.798 52.5009 447.618 53.1591C447.443 53.8172 447.199 54.357 446.887 54.7784C446.574 55.1951 446.198 55.5028 445.757 55.7017C445.317 55.9006 444.806 56 444.223 56H443.314ZM457.94 48.4432H461.2C462.644 48.4432 463.771 48.7888 464.58 49.4801C465.39 50.1667 465.795 51.0852 465.795 52.2358C465.795 52.9839 465.612 53.642 465.248 54.2102C464.883 54.7737 464.358 55.214 463.671 55.5312C462.985 55.8438 462.161 56 461.2 56H456.043V45.0909H458.934V53.6207H461.2C461.706 53.6207 462.123 53.4929 462.45 53.2372C462.776 52.9815 462.942 52.6548 462.947 52.2571C462.942 51.8357 462.776 51.4924 462.45 51.2273C462.123 50.9574 461.706 50.8224 461.2 50.8224H457.94V48.4432ZM475.393 49.3381V51.7173H469.697V49.3381H475.393ZM470.692 45.0909V56H467.801V45.0909H470.692ZM477.29 45.0909V56H474.42V45.0909H477.29ZM481.533 48.4432H484.793C486.237 48.4432 487.364 48.7888 488.174 49.4801C488.984 50.1667 489.388 51.0852 489.388 52.2358C489.388 52.9839 489.206 53.642 488.842 54.2102C488.477 54.7737 487.951 55.214 487.265 55.5312C486.578 55.8438 485.754 56 484.793 56H479.637V45.0909H482.528V53.6207H484.793C485.3 53.6207 485.717 53.4929 486.043 53.2372C486.37 52.9815 486.536 52.6548 486.54 52.2571C486.536 51.8357 486.37 51.4924 486.043 51.2273C485.717 50.9574 485.3 50.8224 484.793 50.8224H481.533V48.4432ZM490.56 56V45.0909H493.586V56H490.56ZM498.533 45.0909L500.536 48.9048L502.588 45.0909H505.692L502.531 50.5455L505.777 56H502.688L500.536 52.2287L498.419 56H495.294L498.533 50.5455L495.408 45.0909H498.533ZM515.008 52.0085L518.936 45.0909H521.919V56H519.035V49.0611L515.122 56H512.118V45.0909H515.008V52.0085ZM538.511 45.0909V53.9119H540.251V59.5085H537.311V56H528.973V45.0909H531.864V53.6207H535.656V45.0909H538.511ZM546.972 56.2131C545.85 56.2131 544.884 55.9858 544.074 55.5312C543.269 55.072 542.649 54.4233 542.213 53.5852C541.778 52.7424 541.56 51.7457 541.56 50.5952C541.56 49.473 541.778 48.4882 542.213 47.6406C542.649 46.7931 543.262 46.1326 544.053 45.6591C544.848 45.1856 545.781 44.9489 546.851 44.9489C547.571 44.9489 548.241 45.0649 548.861 45.2969C549.486 45.5241 550.031 45.8674 550.495 46.3267C550.963 46.786 551.328 47.3636 551.588 48.0597C551.849 48.7509 551.979 49.5606 551.979 50.4886V51.3196H542.767V49.4446H549.131C549.131 49.009 549.036 48.6231 548.847 48.2869C548.658 47.9508 548.395 47.688 548.059 47.4986C547.727 47.3045 547.341 47.2074 546.901 47.2074C546.442 47.2074 546.034 47.3139 545.679 47.527C545.329 47.7353 545.054 48.017 544.855 48.3722C544.657 48.7225 544.555 49.1132 544.55 49.544V51.3267C544.55 51.8665 544.65 52.3329 544.848 52.7259C545.052 53.1188 545.338 53.4219 545.708 53.6349C546.077 53.848 546.515 53.9545 547.022 53.9545C547.358 53.9545 547.666 53.9072 547.945 53.8125C548.224 53.7178 548.463 53.5758 548.662 53.3864C548.861 53.197 549.013 52.965 549.117 52.6903L551.915 52.875C551.773 53.5473 551.482 54.1345 551.042 54.6364C550.606 55.1335 550.042 55.5218 549.351 55.8011C548.665 56.0758 547.872 56.2131 546.972 56.2131ZM561.546 49.3381V51.7173H555.85V49.3381H561.546ZM556.844 45.0909V56H553.953V45.0909H556.844ZM563.442 45.0909V56H560.573V45.0909H563.442ZM573.382 49.3381V51.7173H567.686V49.3381H573.382ZM568.68 45.0909V56H565.789V45.0909H568.68ZM575.278 45.0909V56H572.409V45.0909H575.278ZM579.522 48.4432H582.782C584.226 48.4432 585.353 48.7888 586.162 49.4801C586.972 50.1667 587.377 51.0852 587.377 52.2358C587.377 52.9839 587.194 53.642 586.83 54.2102C586.465 54.7737 585.94 55.214 585.253 55.5312C584.567 55.8438 583.743 56 582.782 56H577.625V45.0909H580.516V53.6207H582.782C583.288 53.6207 583.705 53.4929 584.032 53.2372C584.358 52.9815 584.524 52.6548 584.529 52.2571C584.524 51.8357 584.358 51.4924 584.032 51.2273C583.705 50.9574 583.288 50.8224 582.782 50.8224H579.522V48.4432ZM588.549 56V45.0909H591.574V56H588.549ZM596.521 45.0909L598.524 48.9048L600.576 45.0909H603.68L600.52 50.5455L603.765 56H600.676L598.524 52.2287L596.407 56H593.282L596.521 50.5455L593.396 45.0909H596.521ZM175.548 80L179.362 74.3253L175.569 69.0909H179.021L181.855 73.3594H182.324V69.0909H185.349V73.3594H185.804L188.637 69.0909H192.089L188.304 74.3253L192.11 80H188.581L185.775 75.7386H185.349V80H182.324V75.7386H181.897L179.078 80H175.548ZM196.707 76.0085L200.635 69.0909H203.618V80H200.734V73.0611L196.821 80H193.817V69.0909H196.707V76.0085ZM205.482 76.9105H208.415C208.43 77.2704 208.591 77.5545 208.898 77.7628C209.206 77.9711 209.604 78.0753 210.092 78.0753C210.584 78.0753 210.998 77.9616 211.335 77.7344C211.671 77.5024 211.839 77.1709 211.839 76.7401C211.839 76.4749 211.772 76.2453 211.64 76.0511C211.507 75.8523 211.323 75.696 211.086 75.5824C210.849 75.4687 210.575 75.4119 210.262 75.4119H208.692V73.4304H210.262C210.731 73.4304 211.091 73.3215 211.342 73.1037C211.597 72.8859 211.725 72.6136 211.725 72.2869C211.725 71.9176 211.593 71.6217 211.327 71.3991C211.067 71.1719 210.714 71.0582 210.269 71.0582C209.819 71.0582 209.445 71.16 209.147 71.3636C208.853 71.5625 208.702 71.8229 208.692 72.1449H205.773C205.783 71.4915 205.979 70.9257 206.363 70.4474C206.751 69.9692 207.272 69.5999 207.925 69.3395C208.584 69.0791 209.32 68.9489 210.134 68.9489C211.024 68.9489 211.791 69.0743 212.435 69.3253C213.084 69.5715 213.581 69.9242 213.927 70.3835C214.277 70.8428 214.452 71.3897 214.452 72.0241C214.452 72.6018 214.263 73.0848 213.884 73.473C213.505 73.8613 212.975 74.1383 212.293 74.304V74.4176C212.743 74.446 213.15 74.5668 213.515 74.7798C213.879 74.9929 214.171 75.2865 214.388 75.6605C214.606 76.0298 214.715 76.4678 214.715 76.9744C214.715 77.6515 214.516 78.2315 214.119 78.7145C213.726 79.1974 213.181 79.5691 212.485 79.8295C211.794 80.0852 211.001 80.2131 210.106 80.2131C209.235 80.2131 208.453 80.0876 207.762 79.8366C207.076 79.581 206.529 79.2069 206.121 78.7145C205.719 78.2221 205.506 77.6207 205.482 76.9105ZM224.163 73.3381V75.7173H218.467V73.3381H224.163ZM219.461 69.0909V80H216.571V69.0909H219.461ZM226.059 69.0909V80H223.19V69.0909H226.059ZM233.378 80.2131C232.256 80.2131 231.29 79.9858 230.48 79.5312C229.676 79.072 229.055 78.4233 228.62 77.5852C228.184 76.7424 227.966 75.7457 227.966 74.5952C227.966 73.473 228.184 72.4882 228.62 71.6406C229.055 70.7931 229.668 70.1326 230.459 69.6591C231.255 69.1856 232.187 68.9489 233.257 68.9489C233.977 68.9489 234.647 69.0649 235.267 69.2969C235.892 69.5241 236.437 69.8674 236.901 70.3267C237.37 70.786 237.734 71.3636 237.995 72.0597C238.255 72.7509 238.385 73.5606 238.385 74.4886V75.3196H229.174V73.4446H235.537C235.537 73.009 235.443 72.6231 235.253 72.2869C235.064 71.9508 234.801 71.688 234.465 71.4986C234.133 71.3045 233.748 71.2074 233.307 71.2074C232.848 71.2074 232.441 71.3139 232.086 71.527C231.735 71.7353 231.461 72.017 231.262 72.3722C231.063 72.7225 230.961 73.1132 230.956 73.544V75.3267C230.956 75.8665 231.056 76.3329 231.255 76.7259C231.458 77.1188 231.745 77.4219 232.114 77.6349C232.483 77.848 232.921 77.9545 233.428 77.9545C233.764 77.9545 234.072 77.9072 234.351 77.8125C234.631 77.7178 234.87 77.5758 235.069 77.3864C235.267 77.197 235.419 76.965 235.523 76.6903L238.321 76.875C238.179 77.5473 237.888 78.1345 237.448 78.6364C237.012 79.1335 236.449 79.5218 235.757 79.8011C235.071 80.0758 234.278 80.2131 233.378 80.2131ZM247.952 73.3381V75.7173H242.256V73.3381H247.952ZM243.25 69.0909V80H240.36V69.0909H243.25ZM249.848 69.0909V80H246.979V69.0909H249.848ZM259.788 73.3381V75.7173H254.092V73.3381H259.788ZM255.086 69.0909V80H252.196V69.0909H255.086ZM261.684 69.0909V80H258.815V69.0909H261.684ZM265.928 72.4432H269.188C270.632 72.4432 271.759 72.7888 272.569 73.4801C273.378 74.1667 273.783 75.0852 273.783 76.2358C273.783 76.9839 273.601 77.642 273.236 78.2102C272.872 78.7737 272.346 79.214 271.659 79.5312C270.973 79.8438 270.149 80 269.188 80H264.032V69.0909H266.922V77.6207H269.188C269.694 77.6207 270.111 77.4929 270.438 77.2372C270.765 76.9815 270.93 76.6548 270.935 76.2571C270.93 75.8357 270.765 75.4924 270.438 75.2273C270.111 74.9574 269.694 74.8224 269.188 74.8224H265.928V72.4432ZM274.955 80V69.0909H277.98V80H274.955ZM282.927 69.0909L284.93 72.9048L286.983 69.0909H290.086L286.926 74.5455L290.172 80H287.082L284.93 76.2287L282.814 80H279.689L282.927 74.5455L279.802 69.0909H282.927ZM301.441 80.2131C300.338 80.2131 299.384 79.9787 298.579 79.5099C297.779 79.0365 297.161 78.3783 296.725 77.5355C296.29 76.688 296.072 75.7055 296.072 74.5881C296.072 73.4612 296.29 72.4763 296.725 71.6335C297.161 70.786 297.779 70.1278 298.579 69.6591C299.384 69.1856 300.338 68.9489 301.441 68.9489C302.544 68.9489 303.496 69.1856 304.296 69.6591C305.101 70.1278 305.721 70.786 306.157 71.6335C306.593 72.4763 306.81 73.4612 306.81 74.5881C306.81 75.7055 306.593 76.688 306.157 77.5355C305.721 78.3783 305.101 79.0365 304.296 79.5099C303.496 79.9787 302.544 80.2131 301.441 80.2131ZM301.455 77.8693C301.957 77.8693 302.376 77.7273 302.712 77.4432C303.049 77.1544 303.302 76.7614 303.472 76.2642C303.647 75.767 303.735 75.2012 303.735 74.5668C303.735 73.9323 303.647 73.3665 303.472 72.8693C303.302 72.3722 303.049 71.9792 302.712 71.6903C302.376 71.4015 301.957 71.2571 301.455 71.2571C300.949 71.2571 300.522 71.4015 300.177 71.6903C299.836 71.9792 299.578 72.3722 299.403 72.8693C299.232 73.3665 299.147 73.9323 299.147 74.5668C299.147 75.2012 299.232 75.767 299.403 76.2642C299.578 76.7614 299.836 77.1544 300.177 77.4432C300.522 77.7273 300.949 77.8693 301.455 77.8693ZM308.778 80V69.0909H318.316V80H315.425V71.4702H311.633V80H308.778ZM322.627 72.4432H325.887C327.331 72.4432 328.458 72.7888 329.268 73.4801C330.077 74.1667 330.482 75.0852 330.482 76.2358C330.482 76.9839 330.3 77.642 329.935 78.2102C329.571 78.7737 329.045 79.214 328.359 79.5312C327.672 79.8438 326.848 80 325.887 80H320.731V69.0909H323.621V77.6207H325.887C326.394 77.6207 326.81 77.4929 327.137 77.2372C327.464 76.9815 327.629 76.6548 327.634 76.2571C327.629 75.8357 327.464 75.4924 327.137 75.2273C326.81 74.9574 326.394 74.8224 325.887 74.8224H322.627V72.4432ZM331.654 80V69.0909H334.68V80H331.654ZM336.53 71.4702V69.0909H346.416V71.4702H342.901V80H340.017V71.4702H336.53ZM352.789 80.2131C351.685 80.2131 350.731 79.9787 349.926 79.5099C349.126 79.0365 348.508 78.3783 348.073 77.5355C347.637 76.688 347.419 75.7055 347.419 74.5881C347.419 73.4612 347.637 72.4763 348.073 71.6335C348.508 70.786 349.126 70.1278 349.926 69.6591C350.731 69.1856 351.685 68.9489 352.789 68.9489C353.892 68.9489 354.844 69.1856 355.644 69.6591C356.449 70.1278 357.069 70.786 357.505 71.6335C357.94 72.4763 358.158 73.4612 358.158 74.5881C358.158 75.7055 357.94 76.688 357.505 77.5355C357.069 78.3783 356.449 79.0365 355.644 79.5099C354.844 79.9787 353.892 80.2131 352.789 80.2131ZM352.803 77.8693C353.305 77.8693 353.724 77.7273 354.06 77.4432C354.396 77.1544 354.65 76.7614 354.82 76.2642C354.995 75.767 355.083 75.2012 355.083 74.5668C355.083 73.9323 354.995 73.3665 354.82 72.8693C354.65 72.3722 354.396 71.9792 354.06 71.6903C353.724 71.4015 353.305 71.2571 352.803 71.2571C352.296 71.2571 351.87 71.4015 351.525 71.6903C351.184 71.9792 350.926 72.3722 350.75 72.8693C350.58 73.3665 350.495 73.9323 350.495 74.5668C350.495 75.2012 350.58 75.767 350.75 76.2642C350.926 76.7614 351.184 77.1544 351.525 77.4432C351.87 77.7273 352.296 77.8693 352.803 77.8693ZM360.125 80V69.0909H364.777C366.122 69.0909 367.185 69.3466 367.966 69.858C368.748 70.3693 369.138 71.0961 369.138 72.0384C369.138 72.6302 368.918 73.1226 368.478 73.5156C368.037 73.9086 367.426 74.1738 366.645 74.3111C367.299 74.3584 367.855 74.5076 368.314 74.7585C368.778 75.0047 369.131 75.3243 369.373 75.7173C369.619 76.1103 369.742 76.5459 369.742 77.0241C369.742 77.6444 369.576 78.1771 369.245 78.6222C368.918 79.0672 368.437 79.4081 367.803 79.6449C367.173 79.8816 366.404 80 365.495 80H360.125ZM362.945 77.7344H365.495C365.916 77.7344 366.245 77.6349 366.482 77.4361C366.723 77.2325 366.844 76.9555 366.844 76.6051C366.844 76.2169 366.723 75.9115 366.482 75.6889C366.245 75.4664 365.916 75.3551 365.495 75.3551H362.945V77.7344ZM362.945 73.5795H364.841C365.144 73.5795 365.402 73.5369 365.615 73.4517C365.833 73.3617 365.999 73.2339 366.113 73.0682C366.231 72.9025 366.29 72.706 366.29 72.4787C366.29 72.1425 366.155 71.8797 365.885 71.6903C365.615 71.5009 365.246 71.4062 364.777 71.4062H362.945V73.5795ZM385.745 69.0909V80H382.876V69.0909H385.745ZM384.346 73.8778V76.2642C384.114 76.3684 383.825 76.4678 383.479 76.5625C383.134 76.6525 382.772 76.7259 382.393 76.7827C382.014 76.8395 381.659 76.8679 381.327 76.8679C379.76 76.8679 378.527 76.5459 377.627 75.902C376.728 75.2533 376.278 74.2187 376.278 72.7983V69.0767H379.133V72.7983C379.133 73.2197 379.204 73.5535 379.346 73.7997C379.493 74.0459 379.725 74.2235 380.042 74.3324C380.364 74.4366 380.792 74.4886 381.327 74.4886C381.825 74.4886 382.312 74.4366 382.79 74.3324C383.269 74.2282 383.787 74.0767 384.346 73.8778ZM393.066 80.2131C391.944 80.2131 390.978 79.9858 390.168 79.5312C389.363 79.072 388.743 78.4233 388.307 77.5852C387.872 76.7424 387.654 75.7457 387.654 74.5952C387.654 73.473 387.872 72.4882 388.307 71.6406C388.743 70.7931 389.356 70.1326 390.147 69.6591C390.942 69.1856 391.875 68.9489 392.945 68.9489C393.665 68.9489 394.335 69.0649 394.955 69.2969C395.58 69.5241 396.124 69.8674 396.588 70.3267C397.057 70.786 397.422 71.3636 397.682 72.0597C397.943 72.7509 398.073 73.5606 398.073 74.4886V75.3196H388.861V73.4446H395.225C395.225 73.009 395.13 72.6231 394.941 72.2869C394.751 71.9508 394.489 71.688 394.152 71.4986C393.821 71.3045 393.435 71.2074 392.995 71.2074C392.535 71.2074 392.128 71.3139 391.773 71.527C391.423 71.7353 391.148 72.017 390.949 72.3722C390.75 72.7225 390.649 73.1132 390.644 73.544V75.3267C390.644 75.8665 390.743 76.3329 390.942 76.7259C391.146 77.1188 391.432 77.4219 391.801 77.6349C392.171 77.848 392.609 77.9545 393.115 77.9545C393.452 77.9545 393.759 77.9072 394.039 77.8125C394.318 77.7178 394.557 77.5758 394.756 77.3864C394.955 77.197 395.106 76.965 395.211 76.6903L398.009 76.875C397.867 77.5473 397.576 78.1345 397.135 78.6364C396.7 79.1335 396.136 79.5218 395.445 79.8011C394.758 80.0758 393.965 80.2131 393.066 80.2131ZM399.408 80L399.394 77.5994H399.756C400.012 77.5994 400.232 77.5379 400.417 77.4148C400.606 77.2869 400.762 77.081 400.885 76.7969C401.008 76.5128 401.105 76.1364 401.176 75.6676C401.248 75.1941 401.295 74.6117 401.319 73.9205L401.496 69.0909H409.792V80H406.908V71.4702H404.216L404.046 74.8011C404.003 75.715 403.892 76.5009 403.712 77.1591C403.537 77.8172 403.293 78.357 402.98 78.7784C402.668 79.1951 402.292 79.5028 401.851 79.7017C401.411 79.9006 400.9 80 400.317 80H399.408ZM417.066 80.2131C415.963 80.2131 415.009 79.9787 414.204 79.5099C413.404 79.0365 412.786 78.3783 412.35 77.5355C411.915 76.688 411.697 75.7055 411.697 74.5881C411.697 73.4612 411.915 72.4763 412.35 71.6335C412.786 70.786 413.404 70.1278 414.204 69.6591C415.009 69.1856 415.963 68.9489 417.066 68.9489C418.169 68.9489 419.121 69.1856 419.921 69.6591C420.726 70.1278 421.346 70.786 421.782 71.6335C422.218 72.4763 422.435 73.4612 422.435 74.5881C422.435 75.7055 422.218 76.688 421.782 77.5355C421.346 78.3783 420.726 79.0365 419.921 79.5099C419.121 79.9787 418.169 80.2131 417.066 80.2131ZM417.08 77.8693C417.582 77.8693 418.001 77.7273 418.337 77.4432C418.674 77.1544 418.927 76.7614 419.097 76.2642C419.272 75.767 419.36 75.2012 419.36 74.5668C419.36 73.9323 419.272 73.3665 419.097 72.8693C418.927 72.3722 418.674 71.9792 418.337 71.6903C418.001 71.4015 417.582 71.2571 417.08 71.2571C416.574 71.2571 416.147 71.4015 415.802 71.6903C415.461 71.9792 415.203 72.3722 415.028 72.8693C414.857 73.3665 414.772 73.9323 414.772 74.5668C414.772 75.2012 414.857 75.767 415.028 76.2642C415.203 76.7614 415.461 77.1544 415.802 77.4432C416.147 77.7273 416.574 77.8693 417.08 77.8693ZM424.403 80V69.0909H429.055C430.399 69.0909 431.462 69.3466 432.244 69.858C433.025 70.3693 433.415 71.0961 433.415 72.0384C433.415 72.6302 433.195 73.1226 432.755 73.5156C432.315 73.9086 431.704 74.1738 430.923 74.3111C431.576 74.3584 432.132 74.5076 432.592 74.7585C433.056 75.0047 433.408 75.3243 433.65 75.7173C433.896 76.1103 434.019 76.5459 434.019 77.0241C434.019 77.6444 433.853 78.1771 433.522 78.6222C433.195 79.0672 432.715 79.4081 432.08 79.6449C431.451 79.8816 430.681 80 429.772 80H424.403ZM427.222 77.7344H429.772C430.193 77.7344 430.522 77.6349 430.759 77.4361C431.001 77.2325 431.121 76.9555 431.121 76.6051C431.121 76.2169 431.001 75.9115 430.759 75.6889C430.522 75.4664 430.193 75.3551 429.772 75.3551H427.222V77.7344ZM427.222 73.5795H429.119C429.422 73.5795 429.68 73.5369 429.893 73.4517C430.111 73.3617 430.276 73.2339 430.39 73.0682C430.508 72.9025 430.567 72.706 430.567 72.4787C430.567 72.1425 430.433 71.8797 430.163 71.6903C429.893 71.5009 429.523 71.4062 429.055 71.4062H427.222V73.5795ZM440.898 80.2131C439.776 80.2131 438.81 79.9858 438 79.5312C437.195 79.072 436.575 78.4233 436.139 77.5852C435.704 76.7424 435.486 75.7457 435.486 74.5952C435.486 73.473 435.704 72.4882 436.139 71.6406C436.575 70.7931 437.188 70.1326 437.979 69.6591C438.774 69.1856 439.707 68.9489 440.777 68.9489C441.497 68.9489 442.167 69.0649 442.787 69.2969C443.412 69.5241 443.956 69.8674 444.42 70.3267C444.889 70.786 445.254 71.3636 445.514 72.0597C445.775 72.7509 445.905 73.5606 445.905 74.4886V75.3196H436.693V73.4446H443.057C443.057 73.009 442.962 72.6231 442.773 72.2869C442.583 71.9508 442.321 71.688 441.984 71.4986C441.653 71.3045 441.267 71.2074 440.827 71.2074C440.367 71.2074 439.96 71.3139 439.605 71.527C439.255 71.7353 438.98 72.017 438.781 72.3722C438.582 72.7225 438.481 73.1132 438.476 73.544V75.3267C438.476 75.8665 438.575 76.3329 438.774 76.7259C438.978 77.1188 439.264 77.4219 439.634 77.6349C440.003 77.848 440.441 77.9545 440.947 77.9545C441.284 77.9545 441.591 77.9072 441.871 77.8125C442.15 77.7178 442.389 77.5758 442.588 77.3864C442.787 77.197 442.938 76.965 443.043 76.6903L445.841 76.875C445.699 77.5473 445.408 78.1345 444.967 78.6364C444.532 79.1335 443.968 79.5218 443.277 79.8011C442.59 80.0758 441.797 80.2131 440.898 80.2131ZM447.879 80V69.0909H450.905V73.3239H451.757L454.726 69.0909H458.277L454.42 74.5028L458.32 80H454.726L452.034 76.1293H450.905V80H447.879ZM462.709 80.206C462.013 80.206 461.393 80.0852 460.848 79.8438C460.304 79.5975 459.873 79.2353 459.555 78.7571C459.243 78.2741 459.087 77.6728 459.087 76.9531C459.087 76.3471 459.198 75.8381 459.42 75.4261C459.643 75.0142 459.946 74.6828 460.33 74.4318C460.713 74.1809 461.149 73.9915 461.636 73.8636C462.129 73.7358 462.645 73.6458 463.185 73.5938C463.819 73.5275 464.33 73.4659 464.719 73.4091C465.107 73.3475 465.389 73.2576 465.564 73.1392C465.739 73.0208 465.827 72.8456 465.827 72.6136V72.571C465.827 72.1212 465.685 71.7732 465.401 71.527C465.121 71.2808 464.723 71.1577 464.207 71.1577C463.663 71.1577 463.23 71.2784 462.908 71.5199C462.586 71.7566 462.373 72.0549 462.268 72.4148L459.47 72.1875C459.612 71.5246 459.892 70.9517 460.308 70.4688C460.725 69.9811 461.262 69.607 461.92 69.3466C462.583 69.0814 463.35 68.9489 464.222 68.9489C464.828 68.9489 465.408 69.0199 465.962 69.1619C466.52 69.304 467.015 69.5241 467.446 69.8224C467.882 70.1207 468.225 70.5043 468.476 70.973C468.727 71.437 468.852 71.9934 468.852 72.642V80H465.983V78.4872H465.898C465.723 78.8281 465.488 79.1288 465.195 79.3892C464.901 79.6449 464.548 79.8461 464.136 79.9929C463.724 80.1349 463.249 80.206 462.709 80.206ZM463.575 78.1179C464.02 78.1179 464.413 78.0303 464.754 77.8551C465.095 77.6752 465.363 77.4337 465.557 77.1307C465.751 76.8277 465.848 76.4844 465.848 76.1009V74.9432C465.753 75.0047 465.623 75.0616 465.457 75.1136C465.296 75.161 465.114 75.206 464.911 75.2486C464.707 75.2865 464.503 75.322 464.3 75.3551C464.096 75.3835 463.911 75.4096 463.746 75.4332C463.391 75.4853 463.08 75.5682 462.815 75.6818C462.55 75.7955 462.344 75.9493 462.197 76.1435C462.051 76.3329 461.977 76.5696 461.977 76.8537C461.977 77.2656 462.126 77.5805 462.425 77.7983C462.728 78.0114 463.111 78.1179 463.575 78.1179ZM472.968 80.1847C472.499 80.1847 472.097 80.0189 471.761 79.6875C471.429 79.3513 471.263 78.9489 471.263 78.4801C471.263 78.0161 471.429 77.6184 471.761 77.2869C472.097 76.9555 472.499 76.7898 472.968 76.7898C473.423 76.7898 473.82 76.9555 474.161 77.2869C474.502 77.6184 474.673 78.0161 474.673 78.4801C474.673 78.7926 474.592 79.0791 474.431 79.3395C474.275 79.5952 474.069 79.8011 473.813 79.9574C473.558 80.1089 473.276 80.1847 472.968 80.1847Z" fill="black"/>
</svg>
