<svg width="650" height="99" viewBox="0 0 650 99" fill="none" xmlns="http://www.w3.org/2000/svg">
<rect width="650" height="99" rx="30" fill="#D9D9D9" fill-opacity="0.4"/>
<path d="M53.229 32V17.4545H58.9677C60.0709 17.4545 61.0108 17.6652 61.7873 18.0866C62.5638 18.5033 63.1557 19.0833 63.5629 19.8267C63.9748 20.5653 64.1808 21.4176 64.1808 22.3835C64.1808 23.3494 63.9724 24.2017 63.5558 24.9403C63.1391 25.679 62.5354 26.2543 61.7447 26.6662C60.9587 27.0781 60.007 27.2841 58.8896 27.2841H55.2319V24.8196H58.3924C58.9843 24.8196 59.4719 24.7178 59.8555 24.5142C60.2437 24.3059 60.5326 24.0194 60.7219 23.6548C60.9161 23.2855 61.0131 22.8617 61.0131 22.3835C61.0131 21.9006 60.9161 21.4792 60.7219 21.1193C60.5326 20.7547 60.2437 20.473 59.8555 20.2741C59.4672 20.0705 58.9748 19.9688 58.3782 19.9688H56.3043V32H53.229ZM70.8746 32.2131C69.7714 32.2131 68.8174 31.9787 68.0124 31.5099C67.2122 31.0365 66.5943 30.3783 66.1587 29.5355C65.7231 28.688 65.5053 27.7055 65.5053 26.5881C65.5053 25.4612 65.7231 24.4763 66.1587 23.6335C66.5943 22.786 67.2122 22.1278 68.0124 21.6591C68.8174 21.1856 69.7714 20.9489 70.8746 20.9489C71.9779 20.9489 72.9296 21.1856 73.7298 21.6591C74.5347 22.1278 75.1549 22.786 75.5906 23.6335C76.0262 24.4763 76.244 25.4612 76.244 26.5881C76.244 27.7055 76.0262 28.688 75.5906 29.5355C75.1549 30.3783 74.5347 31.0365 73.7298 31.5099C72.9296 31.9787 71.9779 32.2131 70.8746 32.2131ZM70.8888 29.8693C71.3907 29.8693 71.8098 29.7273 72.146 29.4432C72.4821 29.1544 72.7354 28.7614 72.9059 28.2642C73.0811 27.767 73.1687 27.2012 73.1687 26.5668C73.1687 25.9323 73.0811 25.3665 72.9059 24.8693C72.7354 24.3722 72.4821 23.9792 72.146 23.6903C71.8098 23.4015 71.3907 23.2571 70.8888 23.2571C70.3822 23.2571 69.9561 23.4015 69.6104 23.6903C69.2695 23.9792 69.0115 24.3722 68.8363 24.8693C68.6658 25.3665 68.5806 25.9323 68.5806 26.5668C68.5806 27.2012 68.6658 27.767 68.8363 28.2642C69.0115 28.7614 69.2695 29.1544 69.6104 29.4432C69.9561 29.7273 70.3822 29.8693 70.8888 29.8693ZM77.5721 32L77.5579 29.5994H77.9201C78.1758 29.5994 78.396 29.5379 78.5806 29.4148C78.77 29.2869 78.9263 29.081 79.0494 28.7969C79.1725 28.5128 79.2695 28.1364 79.3406 27.6676C79.4116 27.1941 79.4589 26.6117 79.4826 25.9205L79.6602 21.0909H87.9556V32H85.0721V23.4702H82.3803L82.2099 26.8011C82.1673 27.715 82.056 28.5009 81.8761 29.1591C81.7009 29.8172 81.457 30.357 81.1445 30.7784C80.832 31.1951 80.4556 31.5028 80.0153 31.7017C79.5749 31.9006 79.0636 32 78.4812 32H77.5721ZM92.1974 24.4432H95.4574C96.9015 24.4432 98.0284 24.7888 98.8381 25.4801C99.6477 26.1667 100.053 27.0852 100.053 28.2358C100.053 28.9839 99.8703 29.642 99.5057 30.2102C99.1411 30.7737 98.6155 31.214 97.929 31.5312C97.2424 31.8438 96.4186 32 95.4574 32H90.3011V21.0909H93.1918V29.6207H95.4574C95.964 29.6207 96.3807 29.4929 96.7074 29.2372C97.0341 28.9815 97.1998 28.6548 97.2045 28.2571C97.1998 27.8357 97.0341 27.4924 96.7074 27.2273C96.3807 26.9574 95.964 26.8224 95.4574 26.8224H92.1974V24.4432ZM115.544 32L110.871 25.7997H109.82V32H106.745V17.4545H109.82V23.2642H110.438L115.267 17.4545H119.096L113.421 24.2017L119.358 32H115.544ZM120.905 32V17.4545H126.643C127.747 17.4545 128.687 17.6652 129.463 18.0866C130.24 18.5033 130.831 19.0833 131.239 19.8267C131.651 20.5653 131.857 21.4176 131.857 22.3835C131.857 23.3494 131.648 24.2017 131.232 24.9403C130.815 25.679 130.211 26.2543 129.42 26.6662C128.634 27.0781 127.683 27.2841 126.565 27.2841H122.908V24.8196H126.068C126.66 24.8196 127.148 24.7178 127.531 24.5142C127.92 24.3059 128.208 24.0194 128.398 23.6548C128.592 23.2855 128.689 22.8617 128.689 22.3835C128.689 21.9006 128.592 21.4792 128.398 21.1193C128.208 20.7547 127.92 20.473 127.531 20.2741C127.143 20.0705 126.651 19.9688 126.054 19.9688H123.98V32H120.905ZM133.854 17.4545H136.922V26.6023H137.043L143.328 17.4545H146.02V32H142.945V22.8452H142.838L136.517 32H133.854V17.4545ZM148.007 19.9901V17.4545H159.953V19.9901H155.5V32H152.46V19.9901H148.007ZM161.92 17.4545H164.989V26.6023H165.109L171.395 17.4545H174.087V32H171.011V22.8452H170.905L164.584 32H161.92V17.4545ZM177.217 17.4545H180.207V22.142C180.207 22.7008 180.304 23.1506 180.498 23.4915C180.692 23.8277 180.993 24.0715 181.4 24.223C181.812 24.3698 182.34 24.4432 182.984 24.4432C183.211 24.4432 183.479 24.4361 183.787 24.4219C184.094 24.4029 184.412 24.3769 184.738 24.3438C185.07 24.3106 185.382 24.2704 185.676 24.223C185.969 24.1757 186.213 24.1212 186.407 24.0597V26.4886C186.208 26.5549 185.96 26.6141 185.662 26.6662C185.368 26.7135 185.058 26.7562 184.731 26.794C184.404 26.8272 184.087 26.8532 183.779 26.8722C183.472 26.8911 183.207 26.9006 182.984 26.9006C181.815 26.9006 180.797 26.7348 179.93 26.4034C179.064 26.0672 178.394 25.5488 177.92 24.848C177.451 24.1473 177.217 23.2453 177.217 22.142V17.4545ZM185.875 17.4545H188.879V32H185.875V17.4545ZM191.92 32V17.4545H201.722V19.9901H194.996V23.456H201.217V25.9915H194.996V29.4645H201.75V32H191.92ZM217 22.5469H213.89C213.833 22.1444 213.717 21.7869 213.542 21.4744C213.366 21.1572 213.141 20.8873 212.867 20.6648C212.592 20.4422 212.275 20.2718 211.915 20.1534C211.56 20.035 211.174 19.9759 210.757 19.9759C210.005 19.9759 209.349 20.1629 208.79 20.5369C208.231 20.9062 207.798 21.446 207.49 22.1562C207.183 22.8617 207.029 23.7187 207.029 24.7273C207.029 25.7642 207.183 26.6354 207.49 27.3409C207.803 28.0464 208.239 28.5791 208.797 28.9389C209.356 29.2988 210.002 29.4787 210.736 29.4787C211.148 29.4787 211.529 29.4242 211.88 29.3153C212.235 29.2064 212.55 29.0478 212.824 28.8395C213.099 28.6264 213.326 28.3684 213.506 28.0653C213.691 27.7623 213.819 27.4167 213.89 27.0284L217 27.0426C216.92 27.7102 216.719 28.3542 216.397 28.9744C216.079 29.59 215.651 30.1416 215.111 30.6293C214.576 31.1122 213.937 31.4957 213.194 31.7798C212.455 32.0592 211.619 32.1989 210.686 32.1989C209.389 32.1989 208.229 31.9053 207.206 31.3182C206.188 30.7311 205.383 29.8812 204.792 28.7685C204.204 27.6558 203.911 26.3087 203.911 24.7273C203.911 23.1411 204.209 21.7917 204.806 20.679C205.402 19.5663 206.212 18.7187 207.235 18.1364C208.257 17.5492 209.408 17.2557 210.686 17.2557C211.529 17.2557 212.31 17.3741 213.03 17.6108C213.755 17.8475 214.396 18.1932 214.955 18.6477C215.514 19.0975 215.968 19.6491 216.319 20.3026C216.674 20.956 216.901 21.7041 217 22.5469ZM228.005 32L223.332 25.7997H222.281V32H219.206V17.4545H222.281V23.2642H222.899L227.728 17.4545H231.556L225.882 24.2017L231.819 32H228.005ZM245.912 24.7273C245.912 26.3134 245.611 27.6629 245.01 28.7756C244.413 29.8883 243.599 30.7382 242.567 31.3253C241.539 31.9077 240.384 32.1989 239.101 32.1989C237.808 32.1989 236.648 31.9053 235.621 31.3182C234.593 30.7311 233.781 29.8812 233.185 28.7685C232.588 27.6558 232.29 26.3087 232.29 24.7273C232.29 23.1411 232.588 21.7917 233.185 20.679C233.781 19.5663 234.593 18.7187 235.621 18.1364C236.648 17.5492 237.808 17.2557 239.101 17.2557C240.384 17.2557 241.539 17.5492 242.567 18.1364C243.599 18.7187 244.413 19.5663 245.01 20.679C245.611 21.7917 245.912 23.1411 245.912 24.7273ZM242.794 24.7273C242.794 23.6998 242.64 22.8333 242.332 22.1278C242.029 21.4223 241.601 20.8873 241.047 20.5227C240.493 20.1581 239.844 19.9759 239.101 19.9759C238.357 19.9759 237.709 20.1581 237.155 20.5227C236.601 20.8873 236.17 21.4223 235.862 22.1278C235.559 22.8333 235.408 23.6998 235.408 24.7273C235.408 25.7547 235.559 26.6212 235.862 27.3267C236.17 28.0322 236.601 28.5672 237.155 28.9318C237.709 29.2964 238.357 29.4787 239.101 29.4787C239.844 29.4787 240.493 29.2964 241.047 28.9318C241.601 28.5672 242.029 28.0322 242.332 27.3267C242.64 26.6212 242.794 25.7547 242.794 24.7273ZM248.19 17.4545H251.258V26.6023H251.379L257.664 17.4545H260.356V32H257.281V22.8452H257.174L250.853 32H248.19V17.4545ZM255.69 13.6477H257.799C257.795 14.5095 257.475 15.2031 256.841 15.7287C256.211 16.2543 255.359 16.517 254.284 16.517C253.204 16.517 252.35 16.2543 251.72 15.7287C251.09 15.2031 250.775 14.5095 250.775 13.6477H252.87C252.866 13.9744 252.97 14.268 253.183 14.5284C253.401 14.7888 253.768 14.919 254.284 14.919C254.786 14.919 255.145 14.7912 255.363 14.5355C255.581 14.2798 255.69 13.9839 255.69 13.6477ZM272.689 35.7074V17.4545H275.708V35.7074H272.689ZM272.689 32.2131C271.851 32.2131 271.087 32.0781 270.395 31.8082C269.704 31.5336 269.107 31.1477 268.605 30.6506C268.104 30.1487 267.715 29.5545 267.441 28.8679C267.166 28.1766 267.029 27.4167 267.029 26.5881C267.029 25.75 267.166 24.9877 267.441 24.3011C267.715 23.6098 268.104 23.0156 268.605 22.5185C269.107 22.0166 269.704 21.6307 270.395 21.3608C271.087 21.0862 271.851 20.9489 272.689 20.9489H273.25V32.2131H272.689ZM272.689 29.8551H273.023V23.3068H272.689C272.282 23.3068 271.92 23.392 271.603 23.5625C271.285 23.733 271.018 23.9673 270.8 24.2656C270.582 24.5592 270.417 24.9048 270.303 25.3026C270.194 25.7003 270.14 26.1288 270.14 26.5881C270.14 27.1941 270.239 27.7457 270.438 28.2429C270.637 28.7353 270.928 29.1283 271.311 29.4219C271.695 29.7107 272.154 29.8551 272.689 29.8551ZM275.708 32.2131H275.147V20.9489H275.708C276.546 20.9489 277.31 21.0862 278.002 21.3608C278.693 21.6307 279.29 22.0166 279.792 22.5185C280.293 23.0156 280.682 23.6098 280.956 24.3011C281.231 24.9877 281.368 25.75 281.368 26.5881C281.368 27.4167 281.231 28.1766 280.956 28.8679C280.682 29.5545 280.293 30.1487 279.792 30.6506C279.29 31.1477 278.693 31.5336 278.002 31.8082C277.31 32.0781 276.546 32.2131 275.708 32.2131ZM275.708 29.8551C276.115 29.8551 276.477 29.7723 276.794 29.6065C277.112 29.4361 277.379 29.2017 277.597 28.9034C277.815 28.6051 277.98 28.2595 278.094 27.8665C278.208 27.4687 278.265 27.0426 278.265 26.5881C278.265 25.9773 278.163 25.4257 277.959 24.9332C277.76 24.4361 277.471 24.0407 277.093 23.7472C276.714 23.4536 276.252 23.3068 275.708 23.3068H275.374V29.8551H275.708ZM284.864 36.0909C284.481 36.0909 284.121 36.0601 283.785 35.9986C283.453 35.9418 283.179 35.8684 282.961 35.7784L283.643 33.5199C283.998 33.6288 284.317 33.688 284.602 33.6974C284.89 33.7069 285.139 33.6406 285.347 33.4986C285.56 33.3565 285.733 33.1151 285.866 32.7741L286.043 32.3125L282.13 21.0909H285.312L287.57 29.1023H287.684L289.964 21.0909H293.167L288.927 33.179C288.723 33.7661 288.446 34.2775 288.096 34.7131C287.75 35.1534 287.312 35.492 286.782 35.7287C286.252 35.9702 285.612 36.0909 284.864 36.0909ZM302.308 25.3381V27.7173H296.612V25.3381H302.308ZM297.606 21.0909V32H294.715V21.0909H297.606ZM304.204 21.0909V32H301.335V21.0909H304.204ZM306.551 32V21.0909H309.577V25.3239H310.429L313.398 21.0909H316.949L313.092 26.5028L316.991 32H313.398L310.706 28.1293H309.577V32H306.551ZM327.808 21.0909V29.9119H329.548V35.5085H326.608V32H318.27V21.0909H321.161V29.6207H324.953V21.0909H327.808ZM334.305 28.0085L338.233 21.0909H341.216V32H338.332V25.0611L334.419 32H331.414V21.0909H334.305V28.0085ZM346.532 28.0085L350.459 21.0909H353.442V32H350.559V25.0611L346.645 32H343.641V21.0909H346.532V28.0085ZM369.289 24.8267V27.2273H359.289V24.8267H369.289ZM375.125 32V21.0909H384.664V32H381.773V23.4702H377.98V32H375.125ZM392.007 32.2131C390.904 32.2131 389.95 31.9787 389.145 31.5099C388.345 31.0365 387.727 30.3783 387.292 29.5355C386.856 28.688 386.638 27.7055 386.638 26.5881C386.638 25.4612 386.856 24.4763 387.292 23.6335C387.727 22.786 388.345 22.1278 389.145 21.6591C389.95 21.1856 390.904 20.9489 392.007 20.9489C393.111 20.9489 394.062 21.1856 394.863 21.6591C395.667 22.1278 396.288 22.786 396.723 23.6335C397.159 24.4763 397.377 25.4612 397.377 26.5881C397.377 27.7055 397.159 28.688 396.723 29.5355C396.288 30.3783 395.667 31.0365 394.863 31.5099C394.062 31.9787 393.111 32.2131 392.007 32.2131ZM392.022 29.8693C392.524 29.8693 392.943 29.7273 393.279 29.4432C393.615 29.1544 393.868 28.7614 394.039 28.2642C394.214 27.767 394.301 27.2012 394.301 26.5668C394.301 25.9323 394.214 25.3665 394.039 24.8693C393.868 24.3722 393.615 23.9792 393.279 23.6903C392.943 23.4015 392.524 23.2571 392.022 23.2571C391.515 23.2571 391.089 23.4015 390.743 23.6903C390.402 23.9792 390.144 24.3722 389.969 24.8693C389.799 25.3665 389.713 25.9323 389.713 26.5668C389.713 27.2012 389.799 27.767 389.969 28.2642C390.144 28.7614 390.402 29.1544 390.743 29.4432C391.089 29.7273 391.515 29.8693 392.022 29.8693ZM398.492 35.196V29.5994H399.33C399.571 29.4479 399.766 29.2064 399.912 28.875C400.064 28.5436 400.187 28.1529 400.282 27.7031C400.381 27.2533 400.457 26.768 400.509 26.2472C400.566 25.7216 400.615 25.1913 400.658 24.6562L400.942 21.0909H409.309V29.5994H410.999V35.196H408.115V32H401.446V35.196H398.492ZM402.341 29.5994H406.453V23.4205H403.513L403.4 24.6562C403.319 25.821 403.203 26.8106 403.051 27.625C402.9 28.4347 402.663 29.0928 402.341 29.5994ZM412.762 32V21.0909H417.414C418.759 21.0909 419.822 21.3466 420.603 21.858C421.384 22.3693 421.775 23.0961 421.775 24.0384C421.775 24.6302 421.555 25.1226 421.114 25.5156C420.674 25.9086 420.063 26.1738 419.282 26.3111C419.935 26.3584 420.492 26.5076 420.951 26.7585C421.415 27.0047 421.768 27.3243 422.009 27.7173C422.255 28.1103 422.379 28.5459 422.379 29.0241C422.379 29.6444 422.213 30.1771 421.881 30.6222C421.555 31.0672 421.074 31.4081 420.44 31.6449C419.81 31.8816 419.04 32 418.131 32H412.762ZM415.582 29.7344H418.131C418.553 29.7344 418.882 29.6349 419.119 29.4361C419.36 29.2325 419.481 28.9555 419.481 28.6051C419.481 28.2169 419.36 27.9115 419.119 27.6889C418.882 27.4664 418.553 27.3551 418.131 27.3551H415.582V29.7344ZM415.582 25.5795H417.478C417.781 25.5795 418.039 25.5369 418.252 25.4517C418.47 25.3617 418.636 25.2339 418.749 25.0682C418.868 24.9025 418.927 24.706 418.927 24.4787C418.927 24.1425 418.792 23.8797 418.522 23.6903C418.252 23.5009 417.883 23.4062 417.414 23.4062H415.582V25.5795ZM429.257 32.2131C428.135 32.2131 427.169 31.9858 426.359 31.5312C425.554 31.072 424.934 30.4233 424.499 29.5852C424.063 28.7424 423.845 27.7457 423.845 26.5952C423.845 25.473 424.063 24.4882 424.499 23.6406C424.934 22.7931 425.547 22.1326 426.338 21.6591C427.134 21.1856 428.066 20.9489 429.136 20.9489C429.856 20.9489 430.526 21.0649 431.146 21.2969C431.771 21.5241 432.316 21.8674 432.78 22.3267C433.249 22.786 433.613 23.3636 433.874 24.0597C434.134 24.7509 434.264 25.5606 434.264 26.4886V27.3196H425.053V25.4446H431.416C431.416 25.009 431.321 24.6231 431.132 24.2869C430.943 23.9508 430.68 23.688 430.344 23.4986C430.012 23.3045 429.626 23.2074 429.186 23.2074C428.727 23.2074 428.32 23.3139 427.964 23.527C427.614 23.7353 427.339 24.017 427.141 24.3722C426.942 24.7225 426.84 25.1132 426.835 25.544V27.3267C426.835 27.8665 426.935 28.3329 427.134 28.7259C427.337 29.1188 427.624 29.4219 427.993 29.6349C428.362 29.848 428.8 29.9545 429.307 29.9545C429.643 29.9545 429.951 29.9072 430.23 29.8125C430.509 29.7178 430.749 29.5758 430.947 29.3864C431.146 29.197 431.298 28.965 431.402 28.6903L434.2 28.875C434.058 29.5473 433.767 30.1345 433.327 30.6364C432.891 31.1335 432.328 31.5218 431.636 31.8011C430.95 32.0758 430.157 32.2131 429.257 32.2131ZM436.239 36.0909V21.0909H439.222V22.9233H439.357C439.489 22.6297 439.681 22.3314 439.932 22.0284C440.188 21.7206 440.519 21.465 440.926 21.2614C441.338 21.053 441.849 20.9489 442.46 20.9489C443.256 20.9489 443.99 21.1572 444.662 21.5739C445.334 21.9858 445.872 22.6084 446.274 23.4418C446.677 24.2704 446.878 25.3097 446.878 26.5597C446.878 27.7765 446.681 28.804 446.288 29.642C445.9 30.4754 445.37 31.1075 444.697 31.5384C444.03 31.9645 443.282 32.1776 442.453 32.1776C441.866 32.1776 441.366 32.0805 440.955 31.8864C440.547 31.6922 440.214 31.4484 439.953 31.1548C439.693 30.8565 439.494 30.5559 439.357 30.2528H439.264V36.0909H436.239ZM439.2 26.5455C439.2 27.1941 439.29 27.7599 439.47 28.2429C439.65 28.7259 439.911 29.1023 440.251 29.3722C440.592 29.6373 441.007 29.7699 441.494 29.7699C441.987 29.7699 442.403 29.6349 442.744 29.3651C443.085 29.0904 443.343 28.7116 443.518 28.2287C443.698 27.741 443.788 27.1799 443.788 26.5455C443.788 25.9157 443.701 25.3617 443.526 24.8835C443.35 24.4053 443.092 24.0312 442.751 23.7614C442.411 23.4915 441.991 23.3565 441.494 23.3565C441.002 23.3565 440.585 23.4867 440.244 23.7472C439.908 24.0076 439.65 24.3769 439.47 24.8551C439.29 25.3333 439.2 25.8968 439.2 26.5455ZM456.366 21.0909V23.4702H451.835V32H448.895V21.0909H456.366ZM460.931 32.206C460.235 32.206 459.615 32.0852 459.071 31.8438C458.526 31.5975 458.095 31.2353 457.778 30.7571C457.466 30.2741 457.309 29.6728 457.309 28.9531C457.309 28.3471 457.421 27.8381 457.643 27.4261C457.866 27.0142 458.169 26.6828 458.552 26.4318C458.936 26.1809 459.371 25.9915 459.859 25.8636C460.351 25.7358 460.868 25.6458 461.407 25.5938C462.042 25.5275 462.553 25.4659 462.941 25.4091C463.33 25.3475 463.611 25.2576 463.787 25.1392C463.962 25.0208 464.049 24.8456 464.049 24.6136V24.571C464.049 24.1212 463.907 23.7732 463.623 23.527C463.344 23.2808 462.946 23.1577 462.43 23.1577C461.886 23.1577 461.452 23.2784 461.13 23.5199C460.808 23.7566 460.595 24.0549 460.491 24.4148L457.693 24.1875C457.835 23.5246 458.114 22.9517 458.531 22.4688C458.948 21.9811 459.485 21.607 460.143 21.3466C460.806 21.0814 461.573 20.9489 462.444 20.9489C463.05 20.9489 463.63 21.0199 464.184 21.1619C464.743 21.304 465.238 21.5241 465.669 21.8224C466.104 22.1207 466.448 22.5043 466.699 22.973C466.949 23.437 467.075 23.9934 467.075 24.642V32H464.206V30.4872H464.12C463.945 30.8281 463.711 31.1288 463.417 31.3892C463.124 31.6449 462.771 31.8461 462.359 31.9929C461.947 32.1349 461.471 32.206 460.931 32.206ZM461.798 30.1179C462.243 30.1179 462.636 30.0303 462.977 29.8551C463.318 29.6752 463.585 29.4337 463.779 29.1307C463.974 28.8277 464.071 28.4844 464.071 28.1009V26.9432C463.976 27.0047 463.846 27.0616 463.68 27.1136C463.519 27.161 463.337 27.206 463.133 27.2486C462.93 27.2865 462.726 27.322 462.522 27.3551C462.319 27.3835 462.134 27.4096 461.968 27.4332C461.613 27.4853 461.303 27.5682 461.038 27.6818C460.773 27.7955 460.567 27.9493 460.42 28.1435C460.273 28.3329 460.2 28.5696 460.2 28.8537C460.2 29.2656 460.349 29.5805 460.647 29.7983C460.95 30.0114 461.334 30.1179 461.798 30.1179ZM468.327 23.4702V21.0909H478.213V23.4702H474.697V32H471.814V23.4702H468.327ZM481.944 24.4432H485.203C486.648 24.4432 487.775 24.7888 488.584 25.4801C489.394 26.1667 489.799 27.0852 489.799 28.2358C489.799 28.9839 489.616 29.642 489.252 30.2102C488.887 30.7737 488.362 31.214 487.675 31.5312C486.989 31.8438 486.165 32 485.203 32H480.047V21.0909H482.938V29.6207H485.203C485.71 29.6207 486.127 29.4929 486.453 29.2372C486.78 28.9815 486.946 28.6548 486.951 28.2571C486.946 27.8357 486.78 27.4924 486.453 27.2273C486.127 26.9574 485.71 26.8224 485.203 26.8224H481.944V24.4432ZM501.363 32.2131C500.246 32.2131 499.284 31.9763 498.479 31.5028C497.679 31.0246 497.064 30.3617 496.633 29.5142C496.207 28.6667 495.994 27.6913 495.994 26.5881C495.994 25.4706 496.209 24.4905 496.64 23.6477C497.076 22.8002 497.693 22.1397 498.494 21.6662C499.294 21.188 500.246 20.9489 501.349 20.9489C502.3 20.9489 503.134 21.1217 503.849 21.4673C504.564 21.813 505.129 22.2983 505.546 22.9233C505.963 23.5483 506.192 24.2822 506.235 25.125H503.38C503.299 24.5805 503.086 24.1425 502.741 23.8111C502.4 23.4749 501.952 23.3068 501.398 23.3068C500.93 23.3068 500.52 23.4347 500.17 23.6903C499.824 23.9413 499.554 24.3082 499.36 24.7912C499.166 25.2741 499.069 25.8589 499.069 26.5455C499.069 27.2415 499.164 27.8333 499.353 28.321C499.547 28.8087 499.819 29.1804 500.17 29.4361C500.52 29.6918 500.93 29.8196 501.398 29.8196C501.744 29.8196 502.054 29.7486 502.329 29.6065C502.608 29.4645 502.838 29.2585 503.018 28.9886C503.202 28.714 503.323 28.3849 503.38 28.0014H506.235C506.188 28.8348 505.96 29.5687 505.553 30.2031C505.151 30.8329 504.594 31.3253 503.884 31.6804C503.174 32.0355 502.334 32.2131 501.363 32.2131ZM513.101 32.2131C511.998 32.2131 511.044 31.9787 510.239 31.5099C509.439 31.0365 508.821 30.3783 508.385 29.5355C507.95 28.688 507.732 27.7055 507.732 26.5881C507.732 25.4612 507.95 24.4763 508.385 23.6335C508.821 22.786 509.439 22.1278 510.239 21.6591C511.044 21.1856 511.998 20.9489 513.101 20.9489C514.204 20.9489 515.156 21.1856 515.956 21.6591C516.761 22.1278 517.382 22.786 517.817 23.6335C518.253 24.4763 518.471 25.4612 518.471 26.5881C518.471 27.7055 518.253 28.688 517.817 29.5355C517.382 30.3783 516.761 31.0365 515.956 31.5099C515.156 31.9787 514.204 32.2131 513.101 32.2131ZM513.115 29.8693C513.617 29.8693 514.036 29.7273 514.373 29.4432C514.709 29.1544 514.962 28.7614 515.132 28.2642C515.308 27.767 515.395 27.2012 515.395 26.5668C515.395 25.9323 515.308 25.3665 515.132 24.8693C514.962 24.3722 514.709 23.9792 514.373 23.6903C514.036 23.4015 513.617 23.2571 513.115 23.2571C512.609 23.2571 512.183 23.4015 511.837 23.6903C511.496 23.9792 511.238 24.3722 511.063 24.8693C510.892 25.3665 510.807 25.9323 510.807 26.5668C510.807 27.2012 510.892 27.767 511.063 28.2642C511.238 28.7614 511.496 29.1544 511.837 29.4432C512.183 29.7273 512.609 29.8693 513.115 29.8693ZM526.887 28.6548L529.841 21.0909H532.142L527.888 32H525.878L521.723 21.0909H524.017L526.887 28.6548ZM523.328 21.0909V32H520.438V21.0909H523.328ZM530.594 32V21.0909H533.449V32H530.594ZM543.382 25.3381V27.7173H537.686V25.3381H543.382ZM538.68 21.0909V32H535.789V21.0909H538.68ZM545.278 21.0909V32H542.409V21.0909H545.278ZM552.597 32.2131C551.475 32.2131 550.509 31.9858 549.699 31.5312C548.894 31.072 548.274 30.4233 547.838 29.5852C547.403 28.7424 547.185 27.7457 547.185 26.5952C547.185 25.473 547.403 24.4882 547.838 23.6406C548.274 22.7931 548.887 22.1326 549.678 21.6591C550.473 21.1856 551.406 20.9489 552.476 20.9489C553.196 20.9489 553.866 21.0649 554.486 21.2969C555.111 21.5241 555.656 21.8674 556.12 22.3267C556.588 22.786 556.953 23.3636 557.213 24.0597C557.474 24.7509 557.604 25.5606 557.604 26.4886V27.3196H548.392V25.4446H554.756C554.756 25.009 554.661 24.6231 554.472 24.2869C554.283 23.9508 554.02 23.688 553.684 23.4986C553.352 23.3045 552.966 23.2074 552.526 23.2074C552.067 23.2074 551.659 23.3139 551.304 23.527C550.954 23.7353 550.679 24.017 550.48 24.3722C550.282 24.7225 550.18 25.1132 550.175 25.544V27.3267C550.175 27.8665 550.275 28.3329 550.473 28.7259C550.677 29.1188 550.963 29.4219 551.333 29.6349C551.702 29.848 552.14 29.9545 552.647 29.9545C552.983 29.9545 553.291 29.9072 553.57 29.8125C553.849 29.7178 554.088 29.5758 554.287 29.3864C554.486 29.197 554.638 28.965 554.742 28.6903L557.54 28.875C557.398 29.5473 557.107 30.1345 556.667 30.6364C556.231 31.1335 555.667 31.5218 554.976 31.8011C554.29 32.0758 553.497 32.2131 552.597 32.2131ZM567.171 25.3381V27.7173H561.475V25.3381H567.171ZM562.469 21.0909V32H559.578V21.0909H562.469ZM569.067 21.0909V32H566.198V21.0909H569.067ZM574.305 28.0085L578.233 21.0909H581.216V32H578.332V25.0611L574.419 32H571.414V21.0909H574.305V28.0085ZM589.671 25.402V27.8026H583.755V25.402H589.671ZM586.091 21.0909V32H583.073V21.0909H586.091ZM592.938 32.2131C591.858 32.2131 590.926 31.9716 590.14 31.4886C589.354 31.0057 588.748 30.3381 588.321 29.4858C587.9 28.6335 587.689 27.6558 587.689 26.5526C587.689 25.4493 587.9 24.4763 588.321 23.6335C588.748 22.7907 589.354 22.1326 590.14 21.6591C590.926 21.1856 591.858 20.9489 592.938 20.9489C594.022 20.9489 594.955 21.1856 595.736 21.6591C596.522 22.1326 597.126 22.7907 597.547 23.6335C597.973 24.4763 598.186 25.4493 598.186 26.5526C598.186 27.6558 597.973 28.6335 597.547 29.4858C597.126 30.3381 596.522 31.0057 595.736 31.4886C594.955 31.9716 594.022 32.2131 592.938 32.2131ZM592.938 29.7699C593.501 29.7699 593.956 29.6326 594.301 29.358C594.647 29.0786 594.9 28.6974 595.061 28.2145C595.222 27.7268 595.303 27.1728 595.303 26.5526C595.303 25.9323 595.222 25.383 595.061 24.9048C594.9 24.4219 594.647 24.0431 594.301 23.7685C593.956 23.4938 593.501 23.3565 592.938 23.3565C592.379 23.3565 591.925 23.4938 591.574 23.7685C591.224 24.0384 590.966 24.4124 590.8 24.8906C590.639 25.3688 590.559 25.9228 590.559 26.5526C590.559 27.1776 590.639 27.7315 590.8 28.2145C590.966 28.6974 591.224 29.0786 591.574 29.358C591.925 29.6326 592.379 29.7699 592.938 29.7699ZM24.5465 56.2131C23.4433 56.2131 22.4892 55.9787 21.6843 55.5099C20.8841 55.0365 20.2662 54.3783 19.8306 53.5355C19.395 52.688 19.1772 51.7055 19.1772 50.5881C19.1772 49.4612 19.395 48.4763 19.8306 47.6335C20.2662 46.786 20.8841 46.1278 21.6843 45.6591C22.4892 45.1856 23.4433 44.9489 24.5465 44.9489C25.6497 44.9489 26.6014 45.1856 27.4016 45.6591C28.2066 46.1278 28.8268 46.786 29.2624 47.6335C29.698 48.4763 29.9158 49.4612 29.9158 50.5881C29.9158 51.7055 29.698 52.688 29.2624 53.5355C28.8268 54.3783 28.2066 55.0365 27.4016 55.5099C26.6014 55.9787 25.6497 56.2131 24.5465 56.2131ZM24.5607 53.8693C25.0626 53.8693 25.4817 53.7273 25.8178 53.4432C26.154 53.1544 26.4073 52.7614 26.5778 52.2642C26.753 51.767 26.8406 51.2012 26.8406 50.5668C26.8406 49.9323 26.753 49.3665 26.5778 48.8693C26.4073 48.3722 26.154 47.9792 25.8178 47.6903C25.4817 47.4015 25.0626 47.2571 24.5607 47.2571C24.0541 47.2571 23.628 47.4015 23.2823 47.6903C22.9414 47.9792 22.6834 48.3722 22.5082 48.8693C22.3377 49.3665 22.2525 49.9323 22.2525 50.5668C22.2525 51.2012 22.3377 51.767 22.5082 52.2642C22.6834 52.7614 22.9414 53.1544 23.2823 53.4432C23.628 53.7273 24.0541 53.8693 24.5607 53.8693ZM31.8832 56V45.0909H34.9087V49.3239H35.761L38.7298 45.0909H42.2809L38.4244 50.5028L42.3235 56H38.7298L36.038 52.1293H34.9087V56H31.8832ZM43.6019 60.0909V45.0909H46.5849V46.9233H46.7198C46.8524 46.6297 47.0442 46.3314 47.2951 46.0284C47.5508 45.7206 47.8822 45.465 48.2894 45.2614C48.7013 45.053 49.2127 44.9489 49.8235 44.9489C50.619 44.9489 51.3529 45.1572 52.0252 45.5739C52.6976 45.9858 53.235 46.6084 53.6374 47.4418C54.0399 48.2704 54.2411 49.3097 54.2411 50.5597C54.2411 51.7765 54.0446 52.804 53.6516 53.642C53.2634 54.4754 52.7331 55.1075 52.0607 55.5384C51.3931 55.9645 50.645 56.1776 49.8164 56.1776C49.2293 56.1776 48.7298 56.0805 48.3178 55.8864C47.9106 55.6922 47.5768 55.4484 47.3164 55.1548C47.056 54.8565 46.8571 54.5559 46.7198 54.2528H46.6275V60.0909H43.6019ZM46.5636 50.5455C46.5636 51.1941 46.6535 51.7599 46.8335 52.2429C47.0134 52.7259 47.2738 53.1023 47.6147 53.3722C47.9556 53.6373 48.3699 53.7699 48.8576 53.7699C49.35 53.7699 49.7667 53.6349 50.1076 53.3651C50.4485 53.0904 50.7066 52.7116 50.8817 52.2287C51.0617 51.741 51.1516 51.1799 51.1516 50.5455C51.1516 49.9157 51.064 49.3617 50.8888 48.8835C50.7137 48.4053 50.4556 48.0312 50.1147 47.7614C49.7738 47.4915 49.3548 47.3565 48.8576 47.3565C48.3652 47.3565 47.9485 47.4867 47.6076 47.7472C47.2714 48.0076 47.0134 48.3769 46.8335 48.8551C46.6535 49.3333 46.5636 49.8968 46.5636 50.5455ZM57.7745 60.0909C57.391 60.0909 57.0311 60.0601 56.695 59.9986C56.3635 59.9418 56.0889 59.8684 55.8711 59.7784L56.5529 57.5199C56.908 57.6288 57.2276 57.688 57.5117 57.6974C57.8005 57.7069 58.0491 57.6406 58.2575 57.4986C58.4705 57.3565 58.6433 57.1151 58.7759 56.7741L58.9535 56.3125L55.0401 45.0909H58.2219L60.4805 53.1023H60.5941L62.8739 45.0909H66.0771L61.837 57.179C61.6334 57.7661 61.3564 58.2775 61.006 58.7131C60.6604 59.1534 60.2224 59.492 59.6921 59.7287C59.1618 59.9702 58.5226 60.0909 57.7745 60.0909ZM66.9151 56L70.729 50.3253L66.9364 45.0909H70.3881L73.2219 49.3594H73.6907V45.0909H76.7163V49.3594H77.1708L80.0046 45.0909H83.4563L79.6708 50.3253L83.4776 56H79.9478L77.1424 51.7386H76.7163V56H73.6907V51.7386H73.2646L70.445 56H66.9151ZM88.2362 56.206C87.5401 56.206 86.9199 56.0852 86.3754 55.8438C85.8308 55.5975 85.4 55.2353 85.0827 54.7571C84.7702 54.2741 84.614 53.6728 84.614 52.9531C84.614 52.3471 84.7253 51.8381 84.9478 51.4261C85.1703 51.0142 85.4734 50.6828 85.8569 50.4318C86.2404 50.1809 86.676 49.9915 87.1637 49.8636C87.6561 49.7358 88.1722 49.6458 88.712 49.5938C89.3465 49.5275 89.8578 49.4659 90.2461 49.4091C90.6344 49.3475 90.9161 49.2576 91.0913 49.1392C91.2665 49.0208 91.354 48.8456 91.354 48.6136V48.571C91.354 48.1212 91.212 47.7732 90.9279 47.527C90.6486 47.2808 90.2508 47.1577 89.7347 47.1577C89.1902 47.1577 88.757 47.2784 88.435 47.5199C88.113 47.7566 87.9 48.0549 87.7958 48.4148L84.9975 48.1875C85.1396 47.5246 85.4189 46.9517 85.8356 46.4688C86.2522 45.9811 86.7897 45.607 87.4478 45.3466C88.1107 45.0814 88.8777 44.9489 89.7489 44.9489C90.355 44.9489 90.935 45.0199 91.489 45.1619C92.0477 45.304 92.5425 45.5241 92.9734 45.8224C93.409 46.1207 93.7522 46.5043 94.0032 46.973C94.2541 47.437 94.3796 47.9934 94.3796 48.642V56H91.5103V54.4872H91.4251C91.2499 54.8281 91.0155 55.1288 90.7219 55.3892C90.4284 55.6449 90.0756 55.8461 89.6637 55.9929C89.2518 56.1349 88.7759 56.206 88.2362 56.206ZM89.1026 54.1179C89.5477 54.1179 89.9407 54.0303 90.2816 53.8551C90.6225 53.6752 90.89 53.4337 91.0842 53.1307C91.2783 52.8277 91.3754 52.4844 91.3754 52.1009V50.9432C91.2807 51.0047 91.1505 51.0616 90.9847 51.1136C90.8237 51.161 90.6415 51.206 90.4379 51.2486C90.2343 51.2865 90.0307 51.322 89.8271 51.3551C89.6235 51.3835 89.4388 51.4096 89.2731 51.4332C88.918 51.4853 88.6078 51.5682 88.3427 51.6818C88.0775 51.7955 87.8716 51.9493 87.7248 52.1435C87.578 52.3329 87.5046 52.5696 87.5046 52.8537C87.5046 53.2656 87.6538 53.5805 87.9521 53.7983C88.2551 54.0114 88.6386 54.1179 89.1026 54.1179ZM102.757 49.402V51.8026H96.8406V49.402H102.757ZM99.1772 45.0909V56H96.1587V45.0909H99.1772ZM106.024 56.2131C104.944 56.2131 104.011 55.9716 103.225 55.4886C102.44 55.0057 101.833 54.3381 101.407 53.4858C100.986 52.6335 100.775 51.6558 100.775 50.5526C100.775 49.4493 100.986 48.4763 101.407 47.6335C101.833 46.7907 102.44 46.1326 103.225 45.6591C104.011 45.1856 104.944 44.9489 106.024 44.9489C107.108 44.9489 108.041 45.1856 108.822 45.6591C109.608 46.1326 110.212 46.7907 110.633 47.6335C111.059 48.4763 111.272 49.4493 111.272 50.5526C111.272 51.6558 111.059 52.6335 110.633 53.4858C110.212 54.3381 109.608 55.0057 108.822 55.4886C108.041 55.9716 107.108 56.2131 106.024 56.2131ZM106.024 53.7699C106.587 53.7699 107.042 53.6326 107.387 53.358C107.733 53.0786 107.986 52.6974 108.147 52.2145C108.308 51.7268 108.389 51.1728 108.389 50.5526C108.389 49.9323 108.308 49.383 108.147 48.9048C107.986 48.4219 107.733 48.0431 107.387 47.7685C107.042 47.4938 106.587 47.3565 106.024 47.3565C105.465 47.3565 105.011 47.4938 104.66 47.7685C104.31 48.0384 104.052 48.4124 103.886 48.8906C103.725 49.3688 103.645 49.9228 103.645 50.5526C103.645 51.1776 103.725 51.7315 103.886 52.2145C104.052 52.6974 104.31 53.0786 104.66 53.358C105.011 53.6326 105.465 53.7699 106.024 53.7699ZM130.466 53.6207L130.253 59.125H127.476V56H126.262V53.6207H130.466ZM113.328 45.0909H116.219V53.5994H119.294V45.0909H122.185V53.5994H125.26V45.0909H128.151V56H113.328V45.0909ZM135.164 52.0085L139.092 45.0909H142.075V56H139.191V49.0611L135.278 56H132.274V45.0909H135.164V52.0085ZM147.391 52.0085L151.319 45.0909H154.301V56H151.418V49.0611L147.505 56H144.5V45.0909H147.391V52.0085ZM150.8 41.2841H152.909C152.905 42.1458 152.585 42.8395 151.951 43.3651C151.321 43.8906 150.469 44.1534 149.394 44.1534C148.314 44.1534 147.46 43.8906 146.83 43.3651C146.2 42.8395 145.885 42.1458 145.885 41.2841H147.98C147.976 41.6108 148.08 41.9044 148.293 42.1648C148.511 42.4252 148.878 42.5554 149.394 42.5554C149.896 42.5554 150.256 42.4276 150.473 42.1719C150.691 41.9162 150.8 41.6203 150.8 41.2841ZM167.805 52.6548L170.759 45.0909H173.06L168.806 56H166.796L162.641 45.0909H164.935L167.805 52.6548ZM164.246 45.0909V56H161.356V45.0909H164.246ZM171.512 56V45.0909H174.367V56H171.512ZM179.598 52.0085L183.526 45.0909H186.509V56H183.625V49.0611L179.712 56H176.707V45.0909H179.598V52.0085ZM188.934 60.0909V45.0909H191.917V46.9233H192.052C192.184 46.6297 192.376 46.3314 192.627 46.0284C192.883 45.7206 193.214 45.465 193.621 45.2614C194.033 45.053 194.545 44.9489 195.156 44.9489C195.951 44.9489 196.685 45.1572 197.357 45.5739C198.03 45.9858 198.567 46.6084 198.969 47.4418C199.372 48.2704 199.573 49.3097 199.573 50.5597C199.573 51.7765 199.377 52.804 198.984 53.642C198.595 54.4754 198.065 55.1075 197.393 55.5384C196.725 55.9645 195.977 56.1776 195.148 56.1776C194.561 56.1776 194.062 56.0805 193.65 55.8864C193.243 55.6922 192.909 55.4484 192.648 55.1548C192.388 54.8565 192.189 54.5559 192.052 54.2528H191.96V60.0909H188.934ZM191.896 50.5455C191.896 51.1941 191.986 51.7599 192.165 52.2429C192.345 52.7259 192.606 53.1023 192.947 53.3722C193.288 53.6373 193.702 53.7699 194.19 53.7699C194.682 53.7699 195.099 53.6349 195.44 53.3651C195.781 53.0904 196.039 52.7116 196.214 52.2287C196.394 51.741 196.484 51.1799 196.484 50.5455C196.484 49.9157 196.396 49.3617 196.221 48.8835C196.046 48.4053 195.788 48.0312 195.447 47.7614C195.106 47.4915 194.687 47.3565 194.19 47.3565C193.697 47.3565 193.281 47.4867 192.94 47.7472C192.603 48.0076 192.345 48.3769 192.165 48.8551C191.986 49.3333 191.896 49.8968 191.896 50.5455ZM209.11 52.0085L213.037 45.0909H216.02V56H213.137V49.0611L209.223 56H206.219V45.0909H209.11V52.0085ZM228.004 56.2131C226.886 56.2131 225.925 55.9763 225.12 55.5028C224.32 55.0246 223.704 54.3617 223.273 53.5142C222.847 52.6667 222.634 51.6913 222.634 50.5881C222.634 49.4706 222.85 48.4905 223.281 47.6477C223.716 46.8002 224.334 46.1397 225.134 45.6662C225.934 45.188 226.886 44.9489 227.989 44.9489C228.941 44.9489 229.774 45.1217 230.489 45.4673C231.204 45.813 231.77 46.2983 232.187 46.9233C232.603 47.5483 232.833 48.2822 232.876 49.125H230.021C229.94 48.5805 229.727 48.1425 229.381 47.8111C229.04 47.4749 228.593 47.3068 228.039 47.3068C227.57 47.3068 227.161 47.4347 226.81 47.6903C226.465 47.9413 226.195 48.3082 226.001 48.7912C225.807 49.2741 225.71 49.8589 225.71 50.5455C225.71 51.2415 225.804 51.8333 225.994 52.321C226.188 52.8087 226.46 53.1804 226.81 53.4361C227.161 53.6918 227.57 53.8196 228.039 53.8196C228.385 53.8196 228.695 53.7486 228.969 53.6065C229.249 53.4645 229.478 53.2585 229.658 52.9886C229.843 52.714 229.964 52.3849 230.021 52.0014H232.876C232.828 52.8348 232.601 53.5687 232.194 54.2031C231.791 54.8329 231.235 55.3253 230.525 55.6804C229.815 56.0355 228.974 56.2131 228.004 56.2131ZM236.681 60.0909C236.297 60.0909 235.937 60.0601 235.601 59.9986C235.27 59.9418 234.995 59.8684 234.777 59.7784L235.459 57.5199C235.814 57.6288 236.134 57.688 236.418 57.6974C236.707 57.7069 236.955 57.6406 237.164 57.4986C237.377 57.3565 237.55 57.1151 237.682 56.7741L237.86 56.3125L233.946 45.0909H237.128L239.387 53.1023H239.5L241.78 45.0909H244.983L240.743 57.179C240.54 57.7661 240.263 58.2775 239.912 58.7131C239.567 59.1534 239.129 59.492 238.598 59.7287C238.068 59.9702 237.429 60.0909 236.681 60.0909ZM263.669 53.6207L263.456 59.125H260.679V56H259.465V53.6207H263.669ZM246.532 45.0909H249.422V53.5994H252.498V45.0909H255.388V53.5994H258.463V45.0909H261.354V56H246.532V45.0909ZM270.331 56.2131C269.209 56.2131 268.243 55.9858 267.434 55.5312C266.629 55.072 266.008 54.4233 265.573 53.5852C265.137 52.7424 264.919 51.7457 264.919 50.5952C264.919 49.473 265.137 48.4882 265.573 47.6406C266.008 46.7931 266.622 46.1326 267.412 45.6591C268.208 45.1856 269.141 44.9489 270.211 44.9489C270.93 44.9489 271.6 45.0649 272.221 45.2969C272.846 45.5241 273.39 45.8674 273.854 46.3267C274.323 46.786 274.687 47.3636 274.948 48.0597C275.208 48.7509 275.338 49.5606 275.338 50.4886V51.3196H266.127V49.4446H272.49C272.49 49.009 272.396 48.6231 272.206 48.2869C272.017 47.9508 271.754 47.688 271.418 47.4986C271.087 47.3045 270.701 47.2074 270.26 47.2074C269.801 47.2074 269.394 47.3139 269.039 47.527C268.688 47.7353 268.414 48.017 268.215 48.3722C268.016 48.7225 267.914 49.1132 267.909 49.544V51.3267C267.909 51.8665 268.009 52.3329 268.208 52.7259C268.411 53.1188 268.698 53.4219 269.067 53.6349C269.436 53.848 269.874 53.9545 270.381 53.9545C270.717 53.9545 271.025 53.9072 271.304 53.8125C271.584 53.7178 271.823 53.5758 272.022 53.3864C272.221 53.197 272.372 52.965 272.476 52.6903L275.275 52.875C275.132 53.5473 274.841 54.1345 274.401 54.6364C273.965 55.1335 273.402 55.5218 272.711 55.8011C272.024 56.0758 271.231 56.2131 270.331 56.2131ZM282.242 56.2131C281.124 56.2131 280.163 55.9763 279.358 55.5028C278.558 55.0246 277.943 54.3617 277.512 53.5142C277.086 52.6667 276.873 51.6913 276.873 50.5881C276.873 49.4706 277.088 48.4905 277.519 47.6477C277.954 46.8002 278.572 46.1397 279.373 45.6662C280.173 45.188 281.124 44.9489 282.228 44.9489C283.179 44.9489 284.013 45.1217 284.728 45.4673C285.443 45.813 286.008 46.2983 286.425 46.9233C286.842 47.5483 287.071 48.2822 287.114 49.125H284.259C284.178 48.5805 283.965 48.1425 283.62 47.8111C283.279 47.4749 282.831 47.3068 282.277 47.3068C281.809 47.3068 281.399 47.4347 281.049 47.6903C280.703 47.9413 280.433 48.3082 280.239 48.7912C280.045 49.2741 279.948 49.8589 279.948 50.5455C279.948 51.2415 280.042 51.8333 280.232 52.321C280.426 52.8087 280.698 53.1804 281.049 53.4361C281.399 53.6918 281.809 53.8196 282.277 53.8196C282.623 53.8196 282.933 53.7486 283.208 53.6065C283.487 53.4645 283.717 53.2585 283.897 52.9886C284.081 52.714 284.202 52.3849 284.259 52.0014H287.114C287.067 52.8348 286.839 53.5687 286.432 54.2031C286.03 54.8329 285.473 55.3253 284.763 55.6804C284.053 56.0355 283.212 56.2131 282.242 56.2131ZM288.307 47.4702V45.0909H298.194V47.4702H294.678V56H291.794V47.4702H288.307ZM300.028 56V45.0909H304.68C306.024 45.0909 307.087 45.3466 307.869 45.858C308.65 46.3693 309.04 47.0961 309.04 48.0384C309.04 48.6302 308.82 49.1226 308.38 49.5156C307.94 49.9086 307.329 50.1738 306.548 50.3111C307.201 50.3584 307.757 50.5076 308.217 50.7585C308.681 51.0047 309.033 51.3243 309.275 51.7173C309.521 52.1103 309.644 52.5459 309.644 53.0241C309.644 53.6444 309.478 54.1771 309.147 54.6222C308.82 55.0672 308.34 55.4081 307.705 55.6449C307.076 55.8816 306.306 56 305.397 56H300.028ZM302.847 53.7344H305.397C305.818 53.7344 306.147 53.6349 306.384 53.4361C306.626 53.2325 306.746 52.9555 306.746 52.6051C306.746 52.2169 306.626 51.9115 306.384 51.6889C306.147 51.4664 305.818 51.3551 305.397 51.3551H302.847V53.7344ZM302.847 49.5795H304.744C305.047 49.5795 305.305 49.5369 305.518 49.4517C305.736 49.3617 305.901 49.2339 306.015 49.0682C306.133 48.9025 306.192 48.706 306.192 48.4787C306.192 48.1425 306.058 47.8797 305.788 47.6903C305.518 47.5009 305.148 47.4062 304.68 47.4062H302.847V49.5795ZM313.419 60.0909C313.036 60.0909 312.676 60.0601 312.339 59.9986C312.008 59.9418 311.733 59.8684 311.516 59.7784L312.197 57.5199C312.553 57.6288 312.872 57.688 313.156 57.6974C313.445 57.7069 313.694 57.6406 313.902 57.4986C314.115 57.3565 314.288 57.1151 314.42 56.7741L314.598 56.3125L310.685 45.0909H313.866L316.125 53.1023H316.239L318.518 45.0909H321.722L317.482 57.179C317.278 57.7661 317.001 58.2775 316.651 58.7131C316.305 59.1534 315.867 59.492 315.337 59.7287C314.806 59.9702 314.167 60.0909 313.419 60.0909ZM329.3 49.402V51.8026H323.384V49.402H329.3ZM325.72 45.0909V56H322.702V45.0909H325.72ZM332.567 56.2131C331.487 56.2131 330.554 55.9716 329.768 55.4886C328.982 55.0057 328.376 54.3381 327.95 53.4858C327.529 52.6335 327.318 51.6558 327.318 50.5526C327.318 49.4493 327.529 48.4763 327.95 47.6335C328.376 46.7907 328.982 46.1326 329.768 45.6591C330.554 45.1856 331.487 44.9489 332.567 44.9489C333.651 44.9489 334.584 45.1856 335.365 45.6591C336.151 46.1326 336.755 46.7907 337.176 47.6335C337.602 48.4763 337.815 49.4493 337.815 50.5526C337.815 51.6558 337.602 52.6335 337.176 53.4858C336.755 54.3381 336.151 55.0057 335.365 55.4886C334.584 55.9716 333.651 56.2131 332.567 56.2131ZM332.567 53.7699C333.13 53.7699 333.585 53.6326 333.93 53.358C334.276 53.0786 334.529 52.6974 334.69 52.2145C334.851 51.7268 334.932 51.1728 334.932 50.5526C334.932 49.9323 334.851 49.383 334.69 48.9048C334.529 48.4219 334.276 48.0431 333.93 47.7685C333.585 47.4938 333.13 47.3565 332.567 47.3565C332.008 47.3565 331.554 47.4938 331.203 47.7685C330.853 48.0384 330.595 48.4124 330.429 48.8906C330.268 49.3688 330.188 49.9228 330.188 50.5526C330.188 51.1776 330.268 51.7315 330.429 52.2145C330.595 52.6974 330.853 53.0786 331.203 53.358C331.554 53.6326 332.008 53.7699 332.567 53.7699ZM357.009 53.6207L356.796 59.125H354.019V56H352.805V53.6207H357.009ZM339.871 45.0909H342.762V53.5994H345.837V45.0909H348.728V53.5994H351.803V45.0909H354.694V56H339.871V45.0909ZM363.671 56.2131C362.549 56.2131 361.583 55.9858 360.773 55.5312C359.969 55.072 359.348 54.4233 358.913 53.5852C358.477 52.7424 358.259 51.7457 358.259 50.5952C358.259 49.473 358.477 48.4882 358.913 47.6406C359.348 46.7931 359.961 46.1326 360.752 45.6591C361.548 45.1856 362.48 44.9489 363.55 44.9489C364.27 44.9489 364.94 45.0649 365.56 45.2969C366.185 45.5241 366.73 45.8674 367.194 46.3267C367.663 46.786 368.027 47.3636 368.288 48.0597C368.548 48.7509 368.678 49.5606 368.678 50.4886V51.3196H359.467V49.4446H365.83C365.83 49.009 365.736 48.6231 365.546 48.2869C365.357 47.9508 365.094 47.688 364.758 47.4986C364.426 47.3045 364.04 47.2074 363.6 47.2074C363.141 47.2074 362.734 47.3139 362.379 47.527C362.028 47.7353 361.754 48.017 361.555 48.3722C361.356 48.7225 361.254 49.1132 361.249 49.544V51.3267C361.249 51.8665 361.349 52.3329 361.548 52.7259C361.751 53.1188 362.038 53.4219 362.407 53.6349C362.776 53.848 363.214 53.9545 363.721 53.9545C364.057 53.9545 364.365 53.9072 364.644 53.8125C364.924 53.7178 365.163 53.5758 365.362 53.3864C365.56 53.197 365.712 52.965 365.816 52.6903L368.614 52.875C368.472 53.5473 368.181 54.1345 367.741 54.6364C367.305 55.1335 366.742 55.5218 366.05 55.8011C365.364 56.0758 364.571 56.2131 363.671 56.2131ZM375.624 56.2131C374.502 56.2131 373.536 55.9858 372.727 55.5312C371.922 55.072 371.301 54.4233 370.866 53.5852C370.43 52.7424 370.212 51.7457 370.212 50.5952C370.212 49.473 370.43 48.4882 370.866 47.6406C371.301 46.7931 371.915 46.1326 372.705 45.6591C373.501 45.1856 374.433 44.9489 375.504 44.9489C376.223 44.9489 376.893 45.0649 377.513 45.2969C378.138 45.5241 378.683 45.8674 379.147 46.3267C379.616 46.786 379.98 47.3636 380.241 48.0597C380.501 48.7509 380.631 49.5606 380.631 50.4886V51.3196H371.42V49.4446H377.783C377.783 49.009 377.689 48.6231 377.499 48.2869C377.31 47.9508 377.047 47.688 376.711 47.4986C376.379 47.3045 375.994 47.2074 375.553 47.2074C375.094 47.2074 374.687 47.3139 374.332 47.527C373.981 47.7353 373.707 48.017 373.508 48.3722C373.309 48.7225 373.207 49.1132 373.202 49.544V51.3267C373.202 51.8665 373.302 52.3329 373.501 52.7259C373.704 53.1188 373.991 53.4219 374.36 53.6349C374.729 53.848 375.167 53.9545 375.674 53.9545C376.01 53.9545 376.318 53.9072 376.597 53.8125C376.877 53.7178 377.116 53.5758 377.315 53.3864C377.513 53.197 377.665 52.965 377.769 52.6903L380.567 52.875C380.425 53.5473 380.134 54.1345 379.694 54.6364C379.258 55.1335 378.695 55.5218 378.004 55.8011C377.317 56.0758 376.524 56.2131 375.624 56.2131ZM386.674 52.9105H389.607C389.621 53.2704 389.782 53.5545 390.09 53.7628C390.398 53.9711 390.795 54.0753 391.283 54.0753C391.775 54.0753 392.19 53.9616 392.526 53.7344C392.862 53.5024 393.03 53.1709 393.03 52.7401C393.03 52.4749 392.964 52.2453 392.831 52.0511C392.699 51.8523 392.514 51.696 392.277 51.5824C392.041 51.4687 391.766 51.4119 391.453 51.4119H389.884V49.4304H391.453C391.922 49.4304 392.282 49.3215 392.533 49.1037C392.789 48.8859 392.917 48.6136 392.917 48.2869C392.917 47.9176 392.784 47.6217 392.519 47.3991C392.258 47.1719 391.906 47.0582 391.461 47.0582C391.011 47.0582 390.637 47.16 390.338 47.3636C390.045 47.5625 389.893 47.8229 389.884 48.1449H386.965C386.974 47.4915 387.171 46.9257 387.554 46.4474C387.943 45.9692 388.463 45.5999 389.117 45.3395C389.775 45.0791 390.511 44.9489 391.326 44.9489C392.216 44.9489 392.983 45.0743 393.627 45.3253C394.275 45.5715 394.773 45.9242 395.118 46.3835C395.469 46.8428 395.644 47.3897 395.644 48.0241C395.644 48.6018 395.454 49.0848 395.076 49.473C394.697 49.8613 394.167 50.1383 393.485 50.304V50.4176C393.935 50.446 394.342 50.5668 394.706 50.7798C395.071 50.9929 395.362 51.2865 395.58 51.6605C395.798 52.0298 395.907 52.4678 395.907 52.9744C395.907 53.6515 395.708 54.2315 395.31 54.7145C394.917 55.1974 394.373 55.5691 393.676 55.8295C392.985 56.0852 392.192 56.2131 391.297 56.2131C390.426 56.2131 389.645 56.0876 388.953 55.8366C388.267 55.581 387.72 55.2069 387.313 54.7145C386.91 54.2221 386.697 53.6207 386.674 52.9105ZM405.354 49.3381V51.7173H399.658V49.3381H405.354ZM400.653 45.0909V56H397.762V45.0909H400.653ZM407.251 45.0909V56H404.381V45.0909H407.251ZM412.709 56.206C412.013 56.206 411.393 56.0852 410.848 55.8438C410.304 55.5975 409.873 55.2353 409.555 54.7571C409.243 54.2741 409.087 53.6728 409.087 52.9531C409.087 52.3471 409.198 51.8381 409.42 51.4261C409.643 51.0142 409.946 50.6828 410.33 50.4318C410.713 50.1809 411.149 49.9915 411.636 49.8636C412.129 49.7358 412.645 49.6458 413.185 49.5938C413.819 49.5275 414.33 49.4659 414.719 49.4091C415.107 49.3475 415.389 49.2576 415.564 49.1392C415.739 49.0208 415.827 48.8456 415.827 48.6136V48.571C415.827 48.1212 415.685 47.7732 415.401 47.527C415.121 47.2808 414.723 47.1577 414.207 47.1577C413.663 47.1577 413.23 47.2784 412.908 47.5199C412.586 47.7566 412.373 48.0549 412.268 48.4148L409.47 48.1875C409.612 47.5246 409.892 46.9517 410.308 46.4688C410.725 45.9811 411.262 45.607 411.92 45.3466C412.583 45.0814 413.35 44.9489 414.222 44.9489C414.828 44.9489 415.408 45.0199 415.962 45.1619C416.52 45.304 417.015 45.5241 417.446 45.8224C417.882 46.1207 418.225 46.5043 418.476 46.973C418.727 47.437 418.852 47.9934 418.852 48.642V56H415.983V54.4872H415.898C415.723 54.8281 415.488 55.1288 415.195 55.3892C414.901 55.6449 414.548 55.8461 414.136 55.9929C413.724 56.1349 413.249 56.206 412.709 56.206ZM413.575 54.1179C414.02 54.1179 414.413 54.0303 414.754 53.8551C415.095 53.6752 415.363 53.4337 415.557 53.1307C415.751 52.8277 415.848 52.4844 415.848 52.1009V50.9432C415.753 51.0047 415.623 51.0616 415.457 51.1136C415.296 51.161 415.114 51.206 414.911 51.2486C414.707 51.2865 414.503 51.322 414.3 51.3551C414.096 51.3835 413.911 51.4096 413.746 51.4332C413.391 51.4853 413.08 51.5682 412.815 51.6818C412.55 51.7955 412.344 51.9493 412.197 52.1435C412.051 52.3329 411.977 52.5696 411.977 52.8537C411.977 53.2656 412.126 53.5805 412.425 53.7983C412.728 54.0114 413.111 54.1179 413.575 54.1179ZM428.792 49.3381V51.7173H423.096V49.3381H428.792ZM424.09 45.0909V56H421.2V45.0909H424.09ZM430.688 45.0909V56H427.819V45.0909H430.688ZM435.926 52.0085L439.854 45.0909H442.837V56H439.953V49.0611L436.04 56H433.036V45.0909H435.926V52.0085ZM450.234 56.2131C449.112 56.2131 448.146 55.9858 447.336 55.5312C446.531 55.072 445.911 54.4233 445.475 53.5852C445.04 52.7424 444.822 51.7457 444.822 50.5952C444.822 49.473 445.04 48.4882 445.475 47.6406C445.911 46.7931 446.524 46.1326 447.315 45.6591C448.11 45.1856 449.043 44.9489 450.113 44.9489C450.833 44.9489 451.503 45.0649 452.123 45.2969C452.748 45.5241 453.292 45.8674 453.756 46.3267C454.225 46.786 454.59 47.3636 454.85 48.0597C455.111 48.7509 455.241 49.5606 455.241 50.4886V51.3196H446.029V49.4446H452.393C452.393 49.009 452.298 48.6231 452.109 48.2869C451.919 47.9508 451.656 47.688 451.32 47.4986C450.989 47.3045 450.603 47.2074 450.163 47.2074C449.703 47.2074 449.296 47.3139 448.941 47.527C448.591 47.7353 448.316 48.017 448.117 48.3722C447.918 48.7225 447.817 49.1132 447.812 49.544V51.3267C447.812 51.8665 447.911 52.3329 448.11 52.7259C448.314 53.1188 448.6 53.4219 448.969 53.6349C449.339 53.848 449.777 53.9545 450.283 53.9545C450.62 53.9545 450.927 53.9072 451.207 53.8125C451.486 53.7178 451.725 53.5758 451.924 53.3864C452.123 53.197 452.274 52.965 452.379 52.6903L455.177 52.875C455.035 53.5473 454.744 54.1345 454.303 54.6364C453.868 55.1335 453.304 55.5218 452.613 55.8011C451.926 56.0758 451.133 56.2131 450.234 56.2131ZM460.504 54.0114L460.425 54.7926C460.364 55.4176 460.246 56.0402 460.07 56.6605C459.9 57.2855 459.72 57.8513 459.531 58.358C459.346 58.8646 459.197 59.2623 459.083 59.5511H457.123C457.194 59.2718 457.291 58.8812 457.414 58.3793C457.537 57.8821 457.653 57.3234 457.762 56.7031C457.871 56.0829 457.94 55.4508 457.968 54.8068L458.004 54.0114H460.504ZM470.106 52.0085L474.033 45.0909H477.016V56H474.133V49.0611L470.219 56H467.215V45.0909H470.106V52.0085ZM484.371 56.2131C483.253 56.2131 482.292 55.9763 481.487 55.5028C480.687 55.0246 480.071 54.3617 479.641 53.5142C479.214 52.6667 479.001 51.6913 479.001 50.5881C479.001 49.4706 479.217 48.4905 479.648 47.6477C480.083 46.8002 480.701 46.1397 481.501 45.6662C482.302 45.188 483.253 44.9489 484.357 44.9489C485.308 44.9489 486.142 45.1217 486.857 45.4673C487.571 45.813 488.137 46.2983 488.554 46.9233C488.971 47.5483 489.2 48.2822 489.243 49.125H486.388C486.307 48.5805 486.094 48.1425 485.749 47.8111C485.408 47.4749 484.96 47.3068 484.406 47.3068C483.938 47.3068 483.528 47.4347 483.178 47.6903C482.832 47.9413 482.562 48.3082 482.368 48.7912C482.174 49.2741 482.077 49.8589 482.077 50.5455C482.077 51.2415 482.171 51.8333 482.361 52.321C482.555 52.8087 482.827 53.1804 483.178 53.4361C483.528 53.6918 483.938 53.8196 484.406 53.8196C484.752 53.8196 485.062 53.7486 485.337 53.6065C485.616 53.4645 485.846 53.2585 486.026 52.9886C486.21 52.714 486.331 52.3849 486.388 52.0014H489.243C489.196 52.8348 488.968 53.5687 488.561 54.2031C488.159 54.8329 487.602 55.3253 486.892 55.6804C486.182 56.0355 485.341 56.2131 484.371 56.2131ZM491.18 56V45.0909H494.206V49.3239H495.058L498.027 45.0909H501.578L497.721 50.5028L501.62 56H498.027L495.335 52.1293H494.206V56H491.18ZM506.01 56.206C505.314 56.206 504.693 56.0852 504.149 55.8438C503.604 55.5975 503.173 55.2353 502.856 54.7571C502.544 54.2741 502.387 53.6728 502.387 52.9531C502.387 52.3471 502.499 51.8381 502.721 51.4261C502.944 51.0142 503.247 50.6828 503.63 50.4318C504.014 50.1809 504.449 49.9915 504.937 49.8636C505.43 49.7358 505.946 49.6458 506.485 49.5938C507.12 49.5275 507.631 49.4659 508.02 49.4091C508.408 49.3475 508.69 49.2576 508.865 49.1392C509.04 49.0208 509.127 48.8456 509.127 48.6136V48.571C509.127 48.1212 508.985 47.7732 508.701 47.527C508.422 47.2808 508.024 47.1577 507.508 47.1577C506.964 47.1577 506.53 47.2784 506.208 47.5199C505.886 47.7566 505.673 48.0549 505.569 48.4148L502.771 48.1875C502.913 47.5246 503.192 46.9517 503.609 46.4688C504.026 45.9811 504.563 45.607 505.221 45.3466C505.884 45.0814 506.651 44.9489 507.522 44.9489C508.128 44.9489 508.708 45.0199 509.262 45.1619C509.821 45.304 510.316 45.5241 510.747 45.8224C511.182 46.1207 511.526 46.5043 511.777 46.973C512.028 47.437 512.153 47.9934 512.153 48.642V56H509.284V54.4872H509.199C509.023 54.8281 508.789 55.1288 508.495 55.3892C508.202 55.6449 507.849 55.8461 507.437 55.9929C507.025 56.1349 506.549 56.206 506.01 56.206ZM506.876 54.1179C507.321 54.1179 507.714 54.0303 508.055 53.8551C508.396 53.6752 508.663 53.4337 508.858 53.1307C509.052 52.8277 509.149 52.4844 509.149 52.1009V50.9432C509.054 51.0047 508.924 51.0616 508.758 51.1136C508.597 51.161 508.415 51.206 508.211 51.2486C508.008 51.2865 507.804 51.322 507.6 51.3551C507.397 51.3835 507.212 51.4096 507.047 51.4332C506.691 51.4853 506.381 51.5682 506.116 51.6818C505.851 51.7955 505.645 51.9493 505.498 52.1435C505.351 52.3329 505.278 52.5696 505.278 52.8537C505.278 53.2656 505.427 53.5805 505.725 53.7983C506.029 54.0114 506.412 54.1179 506.876 54.1179ZM513.405 47.4702V45.0909H523.291V47.4702H519.776V56H516.892V47.4702H513.405ZM527.022 48.4432H530.282C531.726 48.4432 532.853 48.7888 533.662 49.4801C534.472 50.1667 534.877 51.0852 534.877 52.2358C534.877 52.9839 534.694 53.642 534.33 54.2102C533.965 54.7737 533.44 55.214 532.753 55.5312C532.067 55.8438 531.243 56 530.282 56H525.125V45.0909H528.016V53.6207H530.282C530.788 53.6207 531.205 53.4929 531.532 53.2372C531.858 52.9815 532.024 52.6548 532.029 52.2571C532.024 51.8357 531.858 51.4924 531.532 51.2273C531.205 50.9574 530.788 50.8224 530.282 50.8224H527.022V48.4432ZM544.403 52.0085L548.33 45.0909H551.313V56H548.43V49.0611L544.516 56H541.512V45.0909H544.403V52.0085ZM556.267 45.0909L558.27 48.9048L560.322 45.0909H563.426L560.266 50.5455L563.511 56H560.422L558.27 52.2287L556.153 56H553.028L556.267 50.5455L553.142 45.0909H556.267ZM577.444 49.3381V51.7173H571.748V49.3381H577.444ZM572.743 45.0909V56H569.852V45.0909H572.743ZM579.341 45.0909V56H576.471V45.0909H579.341ZM586.617 56.2131C585.514 56.2131 584.56 55.9787 583.755 55.5099C582.954 55.0365 582.337 54.3783 581.901 53.5355C581.465 52.688 581.248 51.7055 581.248 50.5881C581.248 49.4612 581.465 48.4763 581.901 47.6335C582.337 46.786 582.954 46.1278 583.755 45.6591C584.56 45.1856 585.514 44.9489 586.617 44.9489C587.72 44.9489 588.672 45.1856 589.472 45.6591C590.277 46.1278 590.897 46.786 591.333 47.6335C591.768 48.4763 591.986 49.4612 591.986 50.5881C591.986 51.7055 591.768 52.688 591.333 53.5355C590.897 54.3783 590.277 55.0365 589.472 55.5099C588.672 55.9787 587.72 56.2131 586.617 56.2131ZM586.631 53.8693C587.133 53.8693 587.552 53.7273 587.888 53.4432C588.224 53.1544 588.478 52.7614 588.648 52.2642C588.823 51.767 588.911 51.2012 588.911 50.5668C588.911 49.9323 588.823 49.3665 588.648 48.8693C588.478 48.3722 588.224 47.9792 587.888 47.6903C587.552 47.4015 587.133 47.2571 586.631 47.2571C586.124 47.2571 585.698 47.4015 585.353 47.6903C585.012 47.9792 584.754 48.3722 584.578 48.8693C584.408 49.3665 584.323 49.9323 584.323 50.5668C584.323 51.2012 584.408 51.767 584.578 52.2642C584.754 52.7614 585.012 53.1544 585.353 53.4432C585.698 53.7273 586.124 53.8693 586.631 53.8693ZM593.953 56V45.0909H598.605C599.95 45.0909 601.013 45.3466 601.794 45.858C602.576 46.3693 602.966 47.0961 602.966 48.0384C602.966 48.6302 602.746 49.1226 602.306 49.5156C601.865 49.9086 601.255 50.1738 600.473 50.3111C601.127 50.3584 601.683 50.5076 602.142 50.7585C602.606 51.0047 602.959 51.3243 603.201 51.7173C603.447 52.1103 603.57 52.5459 603.57 53.0241C603.57 53.6444 603.404 54.1771 603.073 54.6222C602.746 55.0672 602.266 55.4081 601.631 55.6449C601.001 55.8816 600.232 56 599.323 56H593.953ZM596.773 53.7344H599.323C599.744 53.7344 600.073 53.6349 600.31 53.4361C600.551 53.2325 600.672 52.9555 600.672 52.6051C600.672 52.2169 600.551 51.9115 600.31 51.6889C600.073 51.4664 599.744 51.3551 599.323 51.3551H596.773V53.7344ZM596.773 49.5795H598.669C598.972 49.5795 599.23 49.5369 599.444 49.4517C599.661 49.3617 599.827 49.2339 599.941 49.0682C600.059 48.9025 600.118 48.706 600.118 48.4787C600.118 48.1425 599.983 47.8797 599.713 47.6903C599.444 47.5009 599.074 47.4062 598.605 47.4062H596.773V49.5795ZM607.373 48.4432H610.633C612.077 48.4432 613.204 48.7888 614.014 49.4801C614.824 50.1667 615.228 51.0852 615.228 52.2358C615.228 52.9839 615.046 53.642 614.681 54.2102C614.317 54.7737 613.791 55.214 613.105 55.5312C612.418 55.8438 611.594 56 610.633 56H605.477V45.0909H608.368V53.6207H610.633C611.14 53.6207 611.556 53.4929 611.883 53.2372C612.21 52.9815 612.376 52.6548 612.38 52.2571C612.376 51.8357 612.21 51.4924 611.883 51.2273C611.556 50.9574 611.14 50.8224 610.633 50.8224H607.373V48.4432ZM616.4 56V45.0909H619.426V56H616.4ZM626.816 56.2131C625.694 56.2131 624.728 55.9858 623.918 55.5312C623.113 55.072 622.493 54.4233 622.057 53.5852C621.622 52.7424 621.404 51.7457 621.404 50.5952C621.404 49.473 621.622 48.4882 622.057 47.6406C622.493 46.7931 623.106 46.1326 623.897 45.6591C624.692 45.1856 625.625 44.9489 626.695 44.9489C627.415 44.9489 628.085 45.0649 628.705 45.2969C629.33 45.5241 629.874 45.8674 630.338 46.3267C630.807 46.786 631.172 47.3636 631.432 48.0597C631.693 48.7509 631.823 49.5606 631.823 50.4886V51.3196H622.611V49.4446H628.975C628.975 49.009 628.88 48.6231 628.691 48.2869C628.501 47.9508 628.239 47.688 627.902 47.4986C627.571 47.3045 627.185 47.2074 626.745 47.2074C626.285 47.2074 625.878 47.3139 625.523 47.527C625.173 47.7353 624.898 48.017 624.699 48.3722C624.5 48.7225 624.399 49.1132 624.394 49.544V51.3267C624.394 51.8665 624.493 52.3329 624.692 52.7259C624.896 53.1188 625.182 53.4219 625.551 53.6349C625.921 53.848 626.359 53.9545 626.865 53.9545C627.202 53.9545 627.509 53.9072 627.789 53.8125C628.068 53.7178 628.307 53.5758 628.506 53.3864C628.705 53.197 628.856 52.965 628.961 52.6903L631.759 52.875C631.617 53.5473 631.326 54.1345 630.885 54.6364C630.45 55.1335 629.886 55.5218 629.195 55.8011C628.508 56.0758 627.715 56.2131 626.816 56.2131ZM113.733 69.0909V80H110.864V69.0909H113.733ZM112.334 73.8778V76.2642C112.102 76.3684 111.813 76.4678 111.468 76.5625C111.122 76.6525 110.76 76.7259 110.381 76.7827C110.002 76.8395 109.647 76.8679 109.316 76.8679C107.748 76.8679 106.515 76.5459 105.615 75.902C104.716 75.2533 104.266 74.2187 104.266 72.7983V69.0767H107.121V72.7983C107.121 73.2197 107.192 73.5535 107.334 73.7997C107.481 74.0459 107.713 74.2235 108.03 74.3324C108.352 74.4366 108.781 74.4886 109.316 74.4886C109.813 74.4886 110.301 74.4366 110.779 74.3324C111.257 74.2282 111.775 74.0767 112.334 73.8778ZM121.054 80.2131C119.932 80.2131 118.966 79.9858 118.156 79.5312C117.351 79.072 116.731 78.4233 116.295 77.5852C115.86 76.7424 115.642 75.7457 115.642 74.5952C115.642 73.473 115.86 72.4882 116.295 71.6406C116.731 70.7931 117.344 70.1326 118.135 69.6591C118.93 69.1856 119.863 68.9489 120.933 68.9489C121.653 68.9489 122.323 69.0649 122.943 69.2969C123.568 69.5241 124.113 69.8674 124.577 70.3267C125.045 70.786 125.41 71.3636 125.67 72.0597C125.931 72.7509 126.061 73.5606 126.061 74.4886V75.3196H116.849V73.4446H123.213C123.213 73.009 123.118 72.6231 122.929 72.2869C122.74 71.9508 122.477 71.688 122.141 71.4986C121.809 71.3045 121.423 71.2074 120.983 71.2074C120.524 71.2074 120.116 71.3139 119.761 71.527C119.411 71.7353 119.136 72.017 118.938 72.3722C118.739 72.7225 118.637 73.1132 118.632 73.544V75.3267C118.632 75.8665 118.732 76.3329 118.93 76.7259C119.134 77.1188 119.42 77.4219 119.79 77.6349C120.159 77.848 120.597 77.9545 121.104 77.9545C121.44 77.9545 121.748 77.9072 122.027 77.8125C122.306 77.7178 122.545 77.5758 122.744 77.3864C122.943 77.197 123.095 76.965 123.199 76.6903L125.997 76.875C125.855 77.5473 125.564 78.1345 125.124 78.6364C124.688 79.1335 124.125 79.5218 123.433 79.8011C122.747 80.0758 121.954 80.2131 121.054 80.2131ZM128.036 84.0909V69.0909H131.018V70.9233H131.153C131.286 70.6297 131.478 70.3314 131.729 70.0284C131.984 69.7206 132.316 69.465 132.723 69.2614C133.135 69.053 133.646 68.9489 134.257 68.9489C135.053 68.9489 135.786 69.1572 136.459 69.5739C137.131 69.9858 137.669 70.6084 138.071 71.4418C138.473 72.2704 138.675 73.3097 138.675 74.5597C138.675 75.7765 138.478 76.804 138.085 77.642C137.697 78.4754 137.167 79.1075 136.494 79.5384C135.827 79.9645 135.079 80.1776 134.25 80.1776C133.663 80.1776 133.163 80.0805 132.751 79.8864C132.344 79.6922 132.01 79.4484 131.75 79.1548C131.49 78.8565 131.291 78.5559 131.153 78.2528H131.061V84.0909H128.036ZM130.997 74.5455C130.997 75.1941 131.087 75.7599 131.267 76.2429C131.447 76.7259 131.707 77.1023 132.048 77.3722C132.389 77.6373 132.804 77.7699 133.291 77.7699C133.784 77.7699 134.2 77.6349 134.541 77.3651C134.882 77.0904 135.14 76.7116 135.315 76.2287C135.495 75.741 135.585 75.1799 135.585 74.5455C135.585 73.9157 135.498 73.3617 135.322 72.8835C135.147 72.4053 134.889 72.0312 134.548 71.7614C134.207 71.4915 133.788 71.3565 133.291 71.3565C132.799 71.3565 132.382 71.4867 132.041 71.7472C131.705 72.0076 131.447 72.3769 131.267 72.8551C131.087 73.3333 130.997 73.8968 130.997 74.5455ZM139.635 71.4702V69.0909H149.522V71.4702H146.006V80H143.123V71.4702H139.635ZM153.252 72.4432H156.512C157.956 72.4432 159.083 72.7888 159.893 73.4801C160.702 74.1667 161.107 75.0852 161.107 76.2358C161.107 76.9839 160.925 77.642 160.56 78.2102C160.196 78.7737 159.67 79.214 158.984 79.5312C158.297 79.8438 157.473 80 156.512 80H151.356V69.0909H154.246V77.6207H156.512C157.019 77.6207 157.435 77.4929 157.762 77.2372C158.089 76.9815 158.254 76.6548 158.259 76.2571C158.254 75.8357 158.089 75.4924 157.762 75.2273C157.435 74.9574 157.019 74.8224 156.512 74.8224H153.252V72.4432ZM162.279 80V69.0909H165.305V80H162.279ZM171.011 78.0114L170.933 78.7926C170.872 79.4176 170.753 80.0402 170.578 80.6605C170.408 81.2855 170.228 81.8513 170.038 82.358C169.854 82.8646 169.705 83.2623 169.591 83.5511H167.631C167.702 83.2718 167.799 82.8812 167.922 82.3793C168.045 81.8821 168.161 81.3234 168.27 80.7031C168.379 80.0829 168.447 79.4508 168.476 78.8068L168.511 78.0114H171.011ZM177.723 80V69.0909H180.749V73.3239H181.601L184.57 69.0909H188.121L184.264 74.5028L188.163 80H184.57L181.878 76.1293H180.749V80H177.723ZM192.553 80.206C191.857 80.206 191.236 80.0852 190.692 79.8438C190.147 79.5975 189.716 79.2353 189.399 78.7571C189.087 78.2741 188.93 77.6728 188.93 76.9531C188.93 76.3471 189.042 75.8381 189.264 75.4261C189.487 75.0142 189.79 74.6828 190.173 74.4318C190.557 74.1809 190.992 73.9915 191.48 73.8636C191.973 73.7358 192.489 73.6458 193.028 73.5938C193.663 73.5275 194.174 73.4659 194.562 73.4091C194.951 73.3475 195.232 73.2576 195.408 73.1392C195.583 73.0208 195.67 72.8456 195.67 72.6136V72.571C195.67 72.1212 195.528 71.7732 195.244 71.527C194.965 71.2808 194.567 71.1577 194.051 71.1577C193.507 71.1577 193.073 71.2784 192.751 71.5199C192.429 71.7566 192.216 72.0549 192.112 72.4148L189.314 72.1875C189.456 71.5246 189.735 70.9517 190.152 70.4688C190.569 69.9811 191.106 69.607 191.764 69.3466C192.427 69.0814 193.194 68.9489 194.065 68.9489C194.671 68.9489 195.251 69.0199 195.805 69.1619C196.364 69.304 196.859 69.5241 197.29 69.8224C197.725 70.1207 198.069 70.5043 198.32 70.973C198.571 71.437 198.696 71.9934 198.696 72.642V80H195.827V78.4872H195.741C195.566 78.8281 195.332 79.1288 195.038 79.3892C194.745 79.6449 194.392 79.8461 193.98 79.9929C193.568 80.1349 193.092 80.206 192.553 80.206ZM193.419 78.1179C193.864 78.1179 194.257 78.0303 194.598 77.8551C194.939 77.6752 195.206 77.4337 195.401 77.1307C195.595 76.8277 195.692 76.4844 195.692 76.1009V74.9432C195.597 75.0047 195.467 75.0616 195.301 75.1136C195.14 75.161 194.958 75.206 194.754 75.2486C194.551 75.2865 194.347 75.322 194.143 75.3551C193.94 75.3835 193.755 75.4096 193.589 75.4332C193.234 75.4853 192.924 75.5682 192.659 75.6818C192.394 75.7955 192.188 75.9493 192.041 76.1435C191.894 76.3329 191.821 76.5696 191.821 76.8537C191.821 77.2656 191.97 77.5805 192.268 77.7983C192.571 78.0114 192.955 78.1179 193.419 78.1179ZM210.511 69.0909V80H207.641V69.0909H210.511ZM209.112 73.8778V76.2642C208.879 76.3684 208.591 76.4678 208.245 76.5625C207.899 76.6525 207.537 76.7259 207.158 76.7827C206.78 76.8395 206.424 76.8679 206.093 76.8679C204.526 76.8679 203.292 76.5459 202.393 75.902C201.493 75.2533 201.043 74.2187 201.043 72.7983V69.0767H203.898V72.7983C203.898 73.2197 203.969 73.5535 204.112 73.7997C204.258 74.0459 204.49 74.2235 204.808 74.3324C205.129 74.4366 205.558 74.4886 206.093 74.4886C206.59 74.4886 207.078 74.4366 207.556 74.3324C208.034 74.2282 208.553 74.0767 209.112 73.8778ZM217.831 80.2131C216.709 80.2131 215.743 79.9858 214.934 79.5312C214.129 79.072 213.508 78.4233 213.073 77.5852C212.637 76.7424 212.419 75.7457 212.419 74.5952C212.419 73.473 212.637 72.4882 213.073 71.6406C213.508 70.7931 214.122 70.1326 214.912 69.6591C215.708 69.1856 216.641 68.9489 217.711 68.9489C218.43 68.9489 219.1 69.0649 219.721 69.2969C220.346 69.5241 220.89 69.8674 221.354 70.3267C221.823 70.786 222.187 71.3636 222.448 72.0597C222.708 72.7509 222.838 73.5606 222.838 74.4886V75.3196H213.627V73.4446H219.99C219.99 73.009 219.896 72.6231 219.706 72.2869C219.517 71.9508 219.254 71.688 218.918 71.4986C218.587 71.3045 218.201 71.2074 217.76 71.2074C217.301 71.2074 216.894 71.3139 216.539 71.527C216.188 71.7353 215.914 72.017 215.715 72.3722C215.516 72.7225 215.414 73.1132 215.409 73.544V75.3267C215.409 75.8665 215.509 76.3329 215.708 76.7259C215.911 77.1188 216.198 77.4219 216.567 77.6349C216.936 77.848 217.374 77.9545 217.881 77.9545C218.217 77.9545 218.525 77.9072 218.804 77.8125C219.084 77.7178 219.323 77.5758 219.522 77.3864C219.721 77.197 219.872 76.965 219.976 76.6903L222.775 76.875C222.632 77.5473 222.341 78.1345 221.901 78.6364C221.465 79.1335 220.902 79.5218 220.211 79.8011C219.524 80.0758 218.731 80.2131 217.831 80.2131ZM229.742 80.2131C228.624 80.2131 227.663 79.9763 226.858 79.5028C226.058 79.0246 225.443 78.3617 225.012 77.5142C224.586 76.6667 224.373 75.6913 224.373 74.5881C224.373 73.4706 224.588 72.4905 225.019 71.6477C225.454 70.8002 226.072 70.1397 226.873 69.6662C227.673 69.188 228.624 68.9489 229.728 68.9489C230.679 68.9489 231.513 69.1217 232.228 69.4673C232.943 69.813 233.508 70.2983 233.925 70.9233C234.342 71.5483 234.571 72.2822 234.614 73.125H231.759C231.678 72.5805 231.465 72.1425 231.12 71.8111C230.779 71.4749 230.331 71.3068 229.777 71.3068C229.309 71.3068 228.899 71.4347 228.549 71.6903C228.203 71.9413 227.933 72.3082 227.739 72.7912C227.545 73.2741 227.448 73.8589 227.448 74.5455C227.448 75.2415 227.542 75.8333 227.732 76.321C227.926 76.8087 228.198 77.1804 228.549 77.4361C228.899 77.6918 229.309 77.8196 229.777 77.8196C230.123 77.8196 230.433 77.7486 230.708 77.6065C230.987 77.4645 231.217 77.2585 231.397 76.9886C231.581 76.714 231.702 76.3849 231.759 76.0014H234.614C234.567 76.8348 234.339 77.5687 233.932 78.2031C233.53 78.8329 232.973 79.3253 232.263 79.6804C231.553 80.0355 230.712 80.2131 229.742 80.2131ZM235.807 71.4702V69.0909H245.694V71.4702H242.178V80H239.294V71.4702H235.807ZM247.528 80V69.0909H252.18C253.524 69.0909 254.587 69.3466 255.369 69.858C256.15 70.3693 256.54 71.0961 256.54 72.0384C256.54 72.6302 256.32 73.1226 255.88 73.5156C255.44 73.9086 254.829 74.1738 254.048 74.3111C254.701 74.3584 255.257 74.5076 255.717 74.7585C256.181 75.0047 256.533 75.3243 256.775 75.7173C257.021 76.1103 257.144 76.5459 257.144 77.0241C257.144 77.6444 256.978 78.1771 256.647 78.6222C256.32 79.0672 255.84 79.4081 255.205 79.6449C254.576 79.8816 253.806 80 252.897 80H247.528ZM250.347 77.7344H252.897C253.318 77.7344 253.647 77.6349 253.884 77.4361C254.126 77.2325 254.246 76.9555 254.246 76.6051C254.246 76.2169 254.126 75.9115 253.884 75.6889C253.647 75.4664 253.318 75.3551 252.897 75.3551H250.347V77.7344ZM250.347 73.5795H252.244C252.547 73.5795 252.805 73.5369 253.018 73.4517C253.236 73.3617 253.401 73.2339 253.515 73.0682C253.633 72.9025 253.692 72.706 253.692 72.4787C253.692 72.1425 253.558 71.8797 253.288 71.6903C253.018 71.5009 252.648 71.4062 252.18 71.4062H250.347V73.5795ZM262.162 80.206C261.466 80.206 260.846 80.0852 260.301 79.8438C259.757 79.5975 259.326 79.2353 259.009 78.7571C258.696 78.2741 258.54 77.6728 258.54 76.9531C258.54 76.3471 258.651 75.8381 258.874 75.4261C259.096 75.0142 259.399 74.6828 259.783 74.4318C260.166 74.1809 260.602 73.9915 261.089 73.8636C261.582 73.7358 262.098 73.6458 262.638 73.5938C263.272 73.5275 263.784 73.4659 264.172 73.4091C264.56 73.3475 264.842 73.2576 265.017 73.1392C265.192 73.0208 265.28 72.8456 265.28 72.6136V72.571C265.28 72.1212 265.138 71.7732 264.854 71.527C264.574 71.2808 264.177 71.1577 263.661 71.1577C263.116 71.1577 262.683 71.2784 262.361 71.5199C262.039 71.7566 261.826 72.0549 261.722 72.4148L258.923 72.1875C259.065 71.5246 259.345 70.9517 259.761 70.4688C260.178 69.9811 260.715 69.607 261.374 69.3466C262.036 69.0814 262.804 68.9489 263.675 68.9489C264.281 68.9489 264.861 69.0199 265.415 69.1619C265.973 69.304 266.468 69.5241 266.899 69.8224C267.335 70.1207 267.678 70.5043 267.929 70.973C268.18 71.437 268.305 71.9934 268.305 72.642V80H265.436V78.4872H265.351C265.176 78.8281 264.941 79.1288 264.648 79.3892C264.354 79.6449 264.001 79.8461 263.589 79.9929C263.178 80.1349 262.702 80.206 262.162 80.206ZM263.028 78.1179C263.473 78.1179 263.866 78.0303 264.207 77.8551C264.548 77.6752 264.816 77.4337 265.01 77.1307C265.204 76.8277 265.301 76.4844 265.301 76.1009V74.9432C265.206 75.0047 265.076 75.0616 264.911 75.1136C264.75 75.161 264.567 75.206 264.364 75.2486C264.16 75.2865 263.956 75.322 263.753 75.3551C263.549 75.3835 263.365 75.4096 263.199 75.4332C262.844 75.4853 262.534 75.5682 262.268 75.6818C262.003 75.7955 261.797 75.9493 261.651 76.1435C261.504 76.3329 261.43 76.5696 261.43 76.8537C261.43 77.2656 261.58 77.5805 261.878 77.7983C262.181 78.0114 262.564 78.1179 263.028 78.1179ZM278.57 78.0114L278.492 78.7926C278.43 79.4176 278.312 80.0402 278.137 80.6605C277.966 81.2855 277.786 81.8513 277.597 82.358C277.412 82.8646 277.263 83.2623 277.15 83.5511H275.189C275.26 83.2718 275.357 82.8812 275.48 82.3793C275.604 81.8821 275.72 81.3234 275.828 80.7031C275.937 80.0829 276.006 79.4508 276.034 78.8068L276.07 78.0114H278.57ZM285.282 80V69.0909H289.934C291.278 69.0909 292.341 69.3466 293.123 69.858C293.904 70.3693 294.294 71.0961 294.294 72.0384C294.294 72.6302 294.074 73.1226 293.634 73.5156C293.194 73.9086 292.583 74.1738 291.801 74.3111C292.455 74.3584 293.011 74.5076 293.471 74.7585C293.935 75.0047 294.287 75.3243 294.529 75.7173C294.775 76.1103 294.898 76.5459 294.898 77.0241C294.898 77.6444 294.732 78.1771 294.401 78.6222C294.074 79.0672 293.594 79.4081 292.959 79.6449C292.329 79.8816 291.56 80 290.651 80H285.282ZM288.101 77.7344H290.651C291.072 77.7344 291.401 77.6349 291.638 77.4361C291.88 77.2325 292 76.9555 292 76.6051C292 76.2169 291.88 75.9115 291.638 75.6889C291.401 75.4664 291.072 75.3551 290.651 75.3551H288.101V77.7344ZM288.101 73.5795H289.998C290.301 73.5795 290.559 73.5369 290.772 73.4517C290.989 73.3617 291.155 73.2339 291.269 73.0682C291.387 72.9025 291.446 72.706 291.446 72.4787C291.446 72.1425 291.311 71.8797 291.042 71.6903C290.772 71.5009 290.402 71.4062 289.934 71.4062H288.101V73.5795ZM301.734 80.2131C300.617 80.2131 299.655 79.9763 298.85 79.5028C298.05 79.0246 297.435 78.3617 297.004 77.5142C296.578 76.6667 296.365 75.6913 296.365 74.5881C296.365 73.4706 296.58 72.4905 297.011 71.6477C297.447 70.8002 298.065 70.1397 298.865 69.6662C299.665 69.188 300.617 68.9489 301.72 68.9489C302.672 68.9489 303.505 69.1217 304.22 69.4673C304.935 69.813 305.501 70.2983 305.917 70.9233C306.334 71.5483 306.564 72.2822 306.606 73.125H303.751C303.671 72.5805 303.458 72.1425 303.112 71.8111C302.771 71.4749 302.324 71.3068 301.77 71.3068C301.301 71.3068 300.891 71.4347 300.541 71.6903C300.195 71.9413 299.925 72.3082 299.731 72.7912C299.537 73.2741 299.44 73.8589 299.44 74.5455C299.44 75.2415 299.535 75.8333 299.724 76.321C299.918 76.8087 300.19 77.1804 300.541 77.4361C300.891 77.6918 301.301 77.8196 301.77 77.8196C302.115 77.8196 302.425 77.7486 302.7 77.6065C302.979 77.4645 303.209 77.2585 303.389 76.9886C303.574 76.714 303.694 76.3849 303.751 76.0014H306.606C306.559 76.8348 306.332 77.5687 305.924 78.2031C305.522 78.8329 304.966 79.3253 304.255 79.6804C303.545 80.0355 302.705 80.2131 301.734 80.2131ZM308.543 80V69.0909H311.569V73.3239H312.421L315.39 69.0909H318.941L315.085 74.5028L318.984 80H315.39L312.698 76.1293H311.569V80H308.543ZM320.262 84.0909V69.0909H323.245V70.9233H323.38C323.513 70.6297 323.704 70.3314 323.955 70.0284C324.211 69.7206 324.542 69.465 324.95 69.2614C325.362 69.053 325.873 68.9489 326.484 68.9489C327.279 68.9489 328.013 69.1572 328.685 69.5739C329.358 69.9858 329.895 70.6084 330.298 71.4418C330.7 72.2704 330.901 73.3097 330.901 74.5597C330.901 75.7765 330.705 76.804 330.312 77.642C329.924 78.4754 329.393 79.1075 328.721 79.5384C328.053 79.9645 327.305 80.1776 326.477 80.1776C325.889 80.1776 325.39 80.0805 324.978 79.8864C324.571 79.6922 324.237 79.4484 323.977 79.1548C323.716 78.8565 323.517 78.5559 323.38 78.2528H323.288V84.0909H320.262ZM323.224 74.5455C323.224 75.1941 323.314 75.7599 323.494 76.2429C323.674 76.7259 323.934 77.1023 324.275 77.3722C324.616 77.6373 325.03 77.7699 325.518 77.7699C326.01 77.7699 326.427 77.6349 326.768 77.3651C327.109 77.0904 327.367 76.7116 327.542 76.2287C327.722 75.741 327.812 75.1799 327.812 74.5455C327.812 73.9157 327.724 73.3617 327.549 72.8835C327.374 72.4053 327.116 72.0312 326.775 71.7614C326.434 71.4915 326.015 71.3565 325.518 71.3565C325.025 71.3565 324.609 71.4867 324.268 71.7472C323.932 72.0076 323.674 72.3769 323.494 72.8551C323.314 73.3333 323.224 73.8968 323.224 74.5455ZM334.815 72.4432H338.075C339.519 72.4432 340.646 72.7888 341.455 73.4801C342.265 74.1667 342.67 75.0852 342.67 76.2358C342.67 76.9839 342.487 77.642 342.123 78.2102C341.758 78.7737 341.233 79.214 340.546 79.5312C339.86 79.8438 339.036 80 338.075 80H332.918V69.0909H335.809V77.6207H338.075C338.581 77.6207 338.998 77.4929 339.325 77.2372C339.651 76.9815 339.817 76.6548 339.822 76.2571C339.817 75.8357 339.651 75.4924 339.325 75.2273C338.998 74.9574 338.581 74.8224 338.075 74.8224H334.815V72.4432ZM343.842 80V69.0909H346.867V80H343.842ZM349.286 80V69.0909H353.938C355.282 69.0909 356.345 69.3466 357.126 69.858C357.908 70.3693 358.298 71.0961 358.298 72.0384C358.298 72.6302 358.078 73.1226 357.638 73.5156C357.197 73.9086 356.587 74.1738 355.805 74.3111C356.459 74.3584 357.015 74.5076 357.474 74.7585C357.938 75.0047 358.291 75.3243 358.533 75.7173C358.779 76.1103 358.902 76.5459 358.902 77.0241C358.902 77.6444 358.736 78.1771 358.405 78.6222C358.078 79.0672 357.598 79.4081 356.963 79.6449C356.333 79.8816 355.564 80 354.655 80H349.286ZM352.105 77.7344H354.655C355.076 77.7344 355.405 77.6349 355.642 77.4361C355.884 77.2325 356.004 76.9555 356.004 76.6051C356.004 76.2169 355.884 75.9115 355.642 75.6889C355.405 75.4664 355.076 75.3551 354.655 75.3551H352.105V77.7344ZM352.105 73.5795H354.001C354.304 73.5795 354.563 73.5369 354.776 73.4517C354.993 73.3617 355.159 73.2339 355.273 73.0682C355.391 72.9025 355.45 72.706 355.45 72.4787C355.45 72.1425 355.315 71.8797 355.045 71.6903C354.776 71.5009 354.406 71.4062 353.938 71.4062H352.105V73.5795ZM363.92 80.206C363.224 80.206 362.603 80.0852 362.059 79.8438C361.514 79.5975 361.084 79.2353 360.766 78.7571C360.454 78.2741 360.298 77.6728 360.298 76.9531C360.298 76.3471 360.409 75.8381 360.631 75.4261C360.854 75.0142 361.157 74.6828 361.54 74.4318C361.924 74.1809 362.36 73.9915 362.847 73.8636C363.34 73.7358 363.856 73.6458 364.396 73.5938C365.03 73.5275 365.541 73.4659 365.93 73.4091C366.318 73.3475 366.6 73.2576 366.775 73.1392C366.95 73.0208 367.038 72.8456 367.038 72.6136V72.571C367.038 72.1212 366.896 71.7732 366.612 71.527C366.332 71.2808 365.934 71.1577 365.418 71.1577C364.874 71.1577 364.441 71.2784 364.119 71.5199C363.797 71.7566 363.584 72.0549 363.479 72.4148L360.681 72.1875C360.823 71.5246 361.103 70.9517 361.519 70.4688C361.936 69.9811 362.473 69.607 363.131 69.3466C363.794 69.0814 364.561 68.9489 365.433 68.9489C366.039 68.9489 366.619 69.0199 367.173 69.1619C367.731 69.304 368.226 69.5241 368.657 69.8224C369.093 70.1207 369.436 70.5043 369.687 70.973C369.938 71.437 370.063 71.9934 370.063 72.642V80H367.194V78.4872H367.109C366.933 78.8281 366.699 79.1288 366.406 79.3892C366.112 79.6449 365.759 79.8461 365.347 79.9929C364.935 80.1349 364.46 80.206 363.92 80.206ZM364.786 78.1179C365.231 78.1179 365.624 78.0303 365.965 77.8551C366.306 77.6752 366.574 77.4337 366.768 77.1307C366.962 76.8277 367.059 76.4844 367.059 76.1009V74.9432C366.964 75.0047 366.834 75.0616 366.668 75.1136C366.507 75.161 366.325 75.206 366.121 75.2486C365.918 75.2865 365.714 75.322 365.511 75.3551C365.307 75.3835 365.122 75.4096 364.957 75.4332C364.602 75.4853 364.291 75.5682 364.026 75.6818C363.761 75.7955 363.555 75.9493 363.408 76.1435C363.262 76.3329 363.188 76.5696 363.188 76.8537C363.188 77.2656 363.337 77.5805 363.636 77.7983C363.939 78.0114 364.322 78.1179 364.786 78.1179ZM371.315 71.4702V69.0909H381.201V71.4702H377.686V80H374.802V71.4702H371.315ZM384.932 72.4432H388.192C389.636 72.4432 390.763 72.7888 391.572 73.4801C392.382 74.1667 392.787 75.0852 392.787 76.2358C392.787 76.9839 392.605 77.642 392.24 78.2102C391.875 78.7737 391.35 79.214 390.663 79.5312C389.977 79.8438 389.153 80 388.192 80H383.036V69.0909H385.926V77.6207H388.192C388.698 77.6207 389.115 77.4929 389.442 77.2372C389.768 76.9815 389.934 76.6548 389.939 76.2571C389.934 75.8357 389.768 75.4924 389.442 75.2273C389.115 74.9574 388.698 74.8224 388.192 74.8224H384.932V72.4432ZM399.422 80V69.0909H408.961V80H406.07V71.4702H402.277V80H399.422ZM411.375 84.0909V69.0909H414.358V70.9233H414.493C414.626 70.6297 414.818 70.3314 415.069 70.0284C415.324 69.7206 415.656 69.465 416.063 69.2614C416.475 69.053 416.986 68.9489 417.597 68.9489C418.392 68.9489 419.126 69.1572 419.799 69.5739C420.471 69.9858 421.008 70.6084 421.411 71.4418C421.813 72.2704 422.015 73.3097 422.015 74.5597C422.015 75.7765 421.818 76.804 421.425 77.642C421.037 78.4754 420.507 79.1075 419.834 79.5384C419.167 79.9645 418.418 80.1776 417.59 80.1776C417.003 80.1776 416.503 80.0805 416.091 79.8864C415.684 79.6922 415.35 79.4484 415.09 79.1548C414.829 78.8565 414.631 78.5559 414.493 78.2528H414.401V84.0909H411.375ZM414.337 74.5455C414.337 75.1941 414.427 75.7599 414.607 76.2429C414.787 76.7259 415.047 77.1023 415.388 77.3722C415.729 77.6373 416.143 77.7699 416.631 77.7699C417.123 77.7699 417.54 77.6349 417.881 77.3651C418.222 77.0904 418.48 76.7116 418.655 76.2287C418.835 75.741 418.925 75.1799 418.925 74.5455C418.925 73.9157 418.837 73.3617 418.662 72.8835C418.487 72.4053 418.229 72.0312 417.888 71.7614C417.547 71.4915 417.128 71.3565 416.631 71.3565C416.139 71.3565 415.722 71.4867 415.381 71.7472C415.045 72.0076 414.787 72.3769 414.607 72.8551C414.427 73.3333 414.337 73.8968 414.337 74.5455ZM428.961 80.2131C427.857 80.2131 426.903 79.9787 426.098 79.5099C425.298 79.0365 424.68 78.3783 424.245 77.5355C423.809 76.688 423.591 75.7055 423.591 74.5881C423.591 73.4612 423.809 72.4763 424.245 71.6335C424.68 70.786 425.298 70.1278 426.098 69.6591C426.903 69.1856 427.857 68.9489 428.961 68.9489C430.064 68.9489 431.016 69.1856 431.816 69.6591C432.621 70.1278 433.241 70.786 433.676 71.6335C434.112 72.4763 434.33 73.4612 434.33 74.5881C434.33 75.7055 434.112 76.688 433.676 77.5355C433.241 78.3783 432.621 79.0365 431.816 79.5099C431.016 79.9787 430.064 80.2131 428.961 80.2131ZM428.975 77.8693C429.477 77.8693 429.896 77.7273 430.232 77.4432C430.568 77.1544 430.821 76.7614 430.992 76.2642C431.167 75.767 431.255 75.2012 431.255 74.5668C431.255 73.9323 431.167 73.3665 430.992 72.8693C430.821 72.3722 430.568 71.9792 430.232 71.6903C429.896 71.4015 429.477 71.2571 428.975 71.2571C428.468 71.2571 428.042 71.4015 427.696 71.6903C427.355 71.9792 427.097 72.3722 426.922 72.8693C426.752 73.3665 426.667 73.9323 426.667 74.5668C426.667 75.2012 426.752 75.767 426.922 76.2642C427.097 76.7614 427.355 77.1544 427.696 77.4432C428.042 77.7273 428.468 77.8693 428.975 77.8693ZM435.241 71.4702V69.0909H445.127V71.4702H441.612V80H438.728V71.4702H435.241ZM449.852 76.0085L453.779 69.0909H456.762V80H453.879V73.0611L449.966 80H446.961V69.0909H449.852V76.0085ZM459.188 80V69.0909H463.84C465.185 69.0909 466.248 69.3466 467.029 69.858C467.81 70.3693 468.201 71.0961 468.201 72.0384C468.201 72.6302 467.98 73.1226 467.54 73.5156C467.1 73.9086 466.489 74.1738 465.708 74.3111C466.361 74.3584 466.917 74.5076 467.377 74.7585C467.841 75.0047 468.194 75.3243 468.435 75.7173C468.681 76.1103 468.804 76.5459 468.804 77.0241C468.804 77.6444 468.639 78.1771 468.307 78.6222C467.98 79.0672 467.5 79.4081 466.865 79.6449C466.236 79.8816 465.466 80 464.557 80H459.188ZM462.007 77.7344H464.557C464.979 77.7344 465.308 77.6349 465.544 77.4361C465.786 77.2325 465.907 76.9555 465.907 76.6051C465.907 76.2169 465.786 75.9115 465.544 75.6889C465.308 75.4664 464.979 75.3551 464.557 75.3551H462.007V77.7344ZM462.007 73.5795H463.904C464.207 73.5795 464.465 73.5369 464.678 73.4517C464.896 73.3617 465.061 73.2339 465.175 73.0682C465.293 72.9025 465.353 72.706 465.353 72.4787C465.353 72.1425 465.218 71.8797 464.948 71.6903C464.678 71.5009 464.309 71.4062 463.84 71.4062H462.007V73.5795ZM475.64 80.2131C474.537 80.2131 473.583 79.9787 472.778 79.5099C471.978 79.0365 471.36 78.3783 470.924 77.5355C470.489 76.688 470.271 75.7055 470.271 74.5881C470.271 73.4612 470.489 72.4763 470.924 71.6335C471.36 70.786 471.978 70.1278 472.778 69.6591C473.583 69.1856 474.537 68.9489 475.64 68.9489C476.743 68.9489 477.695 69.1856 478.495 69.6591C479.3 70.1278 479.921 70.786 480.356 71.6335C480.792 72.4763 481.01 73.4612 481.01 74.5881C481.01 75.7055 480.792 76.688 480.356 77.5355C479.921 78.3783 479.3 79.0365 478.495 79.5099C477.695 79.9787 476.743 80.2131 475.64 80.2131ZM475.654 77.8693C476.156 77.8693 476.575 77.7273 476.912 77.4432C477.248 77.1544 477.501 76.7614 477.672 76.2642C477.847 75.767 477.934 75.2012 477.934 74.5668C477.934 73.9323 477.847 73.3665 477.672 72.8693C477.501 72.3722 477.248 71.9792 476.912 71.6903C476.575 71.4015 476.156 71.2571 475.654 71.2571C475.148 71.2571 474.722 71.4015 474.376 71.6903C474.035 71.9792 473.777 72.3722 473.602 72.8693C473.431 73.3665 473.346 73.9323 473.346 74.5668C473.346 75.2012 473.431 75.767 473.602 76.2642C473.777 76.7614 474.035 77.1544 474.376 77.4432C474.722 77.7273 475.148 77.8693 475.654 77.8693ZM482.977 84.0909V69.0909H485.96V70.9233H486.095C486.227 70.6297 486.419 70.3314 486.67 70.0284C486.926 69.7206 487.257 69.465 487.664 69.2614C488.076 69.053 488.588 68.9489 489.199 68.9489C489.994 68.9489 490.728 69.1572 491.4 69.5739C492.073 69.9858 492.61 70.6084 493.012 71.4418C493.415 72.2704 493.616 73.3097 493.616 74.5597C493.616 75.7765 493.42 76.804 493.027 77.642C492.638 78.4754 492.108 79.1075 491.436 79.5384C490.768 79.9645 490.02 80.1776 489.191 80.1776C488.604 80.1776 488.105 80.0805 487.693 79.8864C487.286 79.6922 486.952 79.4484 486.691 79.1548C486.431 78.8565 486.232 78.5559 486.095 78.2528H486.002V84.0909H482.977ZM485.939 74.5455C485.939 75.1941 486.029 75.7599 486.208 76.2429C486.388 76.7259 486.649 77.1023 486.99 77.3722C487.331 77.6373 487.745 77.7699 488.233 77.7699C488.725 77.7699 489.142 77.6349 489.483 77.3651C489.824 77.0904 490.082 76.7116 490.257 76.2287C490.437 75.741 490.527 75.1799 490.527 74.5455C490.527 73.9157 490.439 73.3617 490.264 72.8835C490.089 72.4053 489.831 72.0312 489.49 71.7614C489.149 71.4915 488.73 71.3565 488.233 71.3565C487.74 71.3565 487.324 71.4867 486.983 71.7472C486.646 72.0076 486.388 72.3769 486.208 72.8551C486.029 73.3333 485.939 73.8968 485.939 74.5455ZM500.605 80.2131C499.483 80.2131 498.517 79.9858 497.707 79.5312C496.902 79.072 496.282 78.4233 495.846 77.5852C495.411 76.7424 495.193 75.7457 495.193 74.5952C495.193 73.473 495.411 72.4882 495.846 71.6406C496.282 70.7931 496.895 70.1326 497.686 69.6591C498.481 69.1856 499.414 68.9489 500.484 68.9489C501.204 68.9489 501.874 69.0649 502.494 69.2969C503.119 69.5241 503.663 69.8674 504.127 70.3267C504.596 70.786 504.961 71.3636 505.221 72.0597C505.482 72.7509 505.612 73.5606 505.612 74.4886V75.3196H496.4V73.4446H502.764C502.764 73.009 502.669 72.6231 502.48 72.2869C502.29 71.9508 502.028 71.688 501.691 71.4986C501.36 71.3045 500.974 71.2074 500.534 71.2074C500.074 71.2074 499.667 71.3139 499.312 71.527C498.962 71.7353 498.687 72.017 498.488 72.3722C498.289 72.7225 498.188 73.1132 498.183 73.544V75.3267C498.183 75.8665 498.282 76.3329 498.481 76.7259C498.685 77.1188 498.971 77.4219 499.341 77.6349C499.71 77.848 500.148 77.9545 500.654 77.9545C500.991 77.9545 501.298 77.9072 501.578 77.8125C501.857 77.7178 502.096 77.5758 502.295 77.3864C502.494 77.197 502.645 76.965 502.75 76.6903L505.548 76.875C505.406 77.5473 505.115 78.1345 504.674 78.6364C504.239 79.1335 503.675 79.5218 502.984 79.8011C502.297 80.0758 501.504 80.2131 500.605 80.2131ZM517.054 69.0909V80H514.184V69.0909H517.054ZM515.654 73.8778V76.2642C515.422 76.3684 515.134 76.4678 514.788 76.5625C514.442 76.6525 514.08 76.7259 513.701 76.7827C513.323 76.8395 512.967 76.8679 512.636 76.8679C511.069 76.8679 509.835 76.5459 508.936 75.902C508.036 75.2533 507.586 74.2187 507.586 72.7983V69.0767H510.441V72.7983C510.441 73.2197 510.512 73.5535 510.654 73.7997C510.801 74.0459 511.033 74.2235 511.35 74.3324C511.672 74.4366 512.101 74.4886 512.636 74.4886C513.133 74.4886 513.621 74.4366 514.099 74.3324C514.577 74.2282 515.096 74.0767 515.654 73.8778ZM522.293 76.0085L526.221 69.0909H529.204V80H526.32V73.0611L522.407 80H519.403V69.0909H522.293V76.0085ZM538.021 80V71.4631H535.976C535.422 71.4631 535 71.5909 534.712 71.8466C534.423 72.1023 534.281 72.4053 534.286 72.7557C534.281 73.1108 534.418 73.4115 534.697 73.6577C534.982 73.8991 535.398 74.0199 535.947 74.0199H539.03V76.0653H535.947C535.015 76.0653 534.207 75.9233 533.526 75.6392C532.844 75.3551 532.318 74.9598 531.949 74.4531C531.58 73.9418 531.397 73.3475 531.402 72.6705C531.397 71.9602 531.58 71.3376 531.949 70.8026C532.318 70.2628 532.846 69.8437 533.533 69.5455C534.224 69.2424 535.038 69.0909 535.976 69.0909H540.841V80H538.021ZM531.089 80L534.122 74.3182H537.013L533.987 80H531.089ZM544.96 80.1847C544.491 80.1847 544.089 80.0189 543.753 79.6875C543.421 79.3513 543.256 78.9489 543.256 78.4801C543.256 78.0161 543.421 77.6184 543.753 77.2869C544.089 76.9555 544.491 76.7898 544.96 76.7898C545.415 76.7898 545.813 76.9555 546.153 77.2869C546.494 77.6184 546.665 78.0161 546.665 78.4801C546.665 78.7926 546.584 79.0791 546.423 79.3395C546.267 79.5952 546.061 79.8011 545.805 79.9574C545.55 80.1089 545.268 80.1847 544.96 80.1847Z" fill="black"/>
</svg>
