<svg width="650" height="99" viewBox="0 0 650 99" fill="none" xmlns="http://www.w3.org/2000/svg">
<rect width="650" height="99" rx="30" fill="#D9D9D9" fill-opacity="0.4"/>
<path d="M30.1316 31V21.1818H38.7161V31H36.1145V23.3232H32.7012V31H30.1316ZM40.8894 34.6818V21.1818H43.574V22.831H43.6955C43.8148 22.5668 43.9874 22.2983 44.2132 22.0256C44.4434 21.7486 44.7417 21.5185 45.1081 21.3352C45.4789 21.1477 45.9391 21.054 46.4888 21.054C47.2047 21.054 47.8652 21.2415 48.4703 21.6165C49.0755 21.9872 49.5591 22.5476 49.9213 23.2976C50.2836 24.0433 50.4647 24.9787 50.4647 26.1037C50.4647 27.1989 50.2878 28.1236 49.9341 28.8778C49.5847 29.6278 49.1074 30.1967 48.5023 30.5845C47.9015 30.968 47.2282 31.1598 46.4824 31.1598C45.954 31.1598 45.5044 31.0724 45.1337 30.8977C44.7672 30.723 44.4668 30.5036 44.2324 30.2393C43.998 29.9709 43.8191 29.7003 43.6955 29.4276H43.6124V34.6818H40.8894ZM43.5549 26.0909C43.5549 26.6747 43.6358 27.1839 43.7978 27.6186C43.9597 28.0533 44.1941 28.392 44.5009 28.6349C44.8077 28.8736 45.1806 28.9929 45.6195 28.9929C46.0627 28.9929 46.4377 28.8714 46.7445 28.6286C47.0513 28.3814 47.2836 28.0405 47.4412 27.6058C47.6032 27.1669 47.6841 26.6619 47.6841 26.0909C47.6841 25.5241 47.6053 25.0256 47.4476 24.5952C47.29 24.1648 47.0577 23.8281 46.7509 23.5852C46.4441 23.3423 46.0669 23.2209 45.6195 23.2209C45.1763 23.2209 44.8013 23.3381 44.4945 23.5724C44.1919 23.8068 43.9597 24.1392 43.7978 24.5696C43.6358 25 43.5549 25.5071 43.5549 26.0909ZM56.7161 31.1918C55.7232 31.1918 54.8645 30.9808 54.1401 30.5589C53.4199 30.1328 52.8638 29.5405 52.4718 28.782C52.0797 28.0192 51.8837 27.1349 51.8837 26.1293C51.8837 25.1151 52.0797 24.2287 52.4718 23.4702C52.8638 22.7074 53.4199 22.1151 54.1401 21.6932C54.8645 21.267 55.7232 21.054 56.7161 21.054C57.709 21.054 58.5655 21.267 59.2857 21.6932C60.0101 22.1151 60.5684 22.7074 60.9604 23.4702C61.3525 24.2287 61.5485 25.1151 61.5485 26.1293C61.5485 27.1349 61.3525 28.0192 60.9604 28.782C60.5684 29.5405 60.0101 30.1328 59.2857 30.5589C58.5655 30.9808 57.709 31.1918 56.7161 31.1918ZM56.7289 29.0824C57.1806 29.0824 57.5577 28.9545 57.8603 28.6989C58.1628 28.4389 58.3908 28.0852 58.5442 27.6378C58.7019 27.1903 58.7807 26.6811 58.7807 26.1101C58.7807 25.5391 58.7019 25.0298 58.5442 24.5824C58.3908 24.1349 58.1628 23.7812 57.8603 23.5213C57.5577 23.2614 57.1806 23.1314 56.7289 23.1314C56.2729 23.1314 55.8894 23.2614 55.5783 23.5213C55.2715 23.7812 55.0392 24.1349 54.8816 24.5824C54.7282 25.0298 54.6515 25.5391 54.6515 26.1101C54.6515 26.6811 54.7282 27.1903 54.8816 27.6378C55.0392 28.0852 55.2715 28.4389 55.5783 28.6989C55.8894 28.9545 56.2729 29.0824 56.7289 29.0824ZM69.0719 31V23.3168H67.231C66.7324 23.3168 66.3532 23.4318 66.0932 23.6619C65.8333 23.892 65.7054 24.1648 65.7097 24.4801C65.7054 24.7997 65.829 25.0703 66.0804 25.2919C66.3361 25.5092 66.7111 25.6179 67.2054 25.6179H69.9796V27.4588H67.2054C66.3659 27.4588 65.6394 27.331 65.0257 27.0753C64.4121 26.8196 63.9391 26.4638 63.6067 26.0078C63.2743 25.5476 63.1103 25.0128 63.1145 24.4034C63.1103 23.7642 63.2743 23.2038 63.6067 22.7223C63.9391 22.2365 64.4142 21.8594 65.0321 21.5909C65.6543 21.3182 66.3873 21.1818 67.231 21.1818H71.6096V31H69.0719ZM62.8333 31L65.5627 25.8864H68.1642L65.4412 31H62.8333ZM73.7253 31V21.1818H77.9121C79.1223 21.1818 80.079 21.4119 80.7821 21.8722C81.4853 22.3324 81.8368 22.9865 81.8368 23.8345C81.8368 24.3672 81.6387 24.8104 81.2424 25.1641C80.8461 25.5178 80.2963 25.7564 79.5932 25.88C80.1813 25.9226 80.682 26.0568 81.0953 26.2827C81.513 26.5043 81.8304 26.7919 82.0478 27.1456C82.2694 27.4993 82.3801 27.8913 82.3801 28.3217C82.3801 28.88 82.231 29.3594 81.9327 29.7599C81.6387 30.1605 81.2061 30.4673 80.6351 30.6804C80.0684 30.8935 79.3759 31 78.5577 31H73.7253ZM76.263 28.9609H78.5577C78.937 28.9609 79.2331 28.8714 79.4462 28.6925C79.6635 28.5092 79.7722 28.2599 79.7722 27.9446C79.7722 27.5952 79.6635 27.3203 79.4462 27.12C79.2331 26.9197 78.937 26.8196 78.5577 26.8196H76.263V28.9609ZM76.263 25.2216H77.9696C78.2424 25.2216 78.4746 25.1832 78.6664 25.1065C78.8624 25.0256 79.0115 24.9105 79.1138 24.7614C79.2203 24.6122 79.2736 24.4354 79.2736 24.2308C79.2736 23.9283 79.1522 23.6918 78.9093 23.5213C78.6664 23.3509 78.334 23.2656 77.9121 23.2656H76.263V25.2216ZM83.5211 31L83.5083 28.8395H83.8343C84.0645 28.8395 84.2626 28.7841 84.4288 28.6733C84.5993 28.5582 84.7399 28.3729 84.8507 28.1172C84.9615 27.8615 85.0488 27.5227 85.1127 27.1009C85.1767 26.6747 85.2193 26.1506 85.2406 25.5284L85.4004 21.1818H92.8663V31H90.2711V23.3232H87.8485L87.6951 26.321C87.6568 27.1435 87.5566 27.8509 87.3947 28.4432C87.237 29.0355 87.0176 29.5213 86.7363 29.9006C86.4551 30.2756 86.1163 30.5526 85.72 30.7315C85.3237 30.9105 84.8635 31 84.3393 31H83.5211ZM100.73 31V23.3168H98.8892C98.3906 23.3168 98.0114 23.4318 97.7514 23.6619C97.4915 23.892 97.3636 24.1648 97.3679 24.4801C97.3636 24.7997 97.4872 25.0703 97.7386 25.2919C97.9943 25.5092 98.3693 25.6179 98.8636 25.6179H101.638V27.4588H98.8636C98.0241 27.4588 97.2976 27.331 96.6839 27.0753C96.0703 26.8196 95.5973 26.4638 95.2649 26.0078C94.9325 25.5476 94.7685 25.0128 94.7727 24.4034C94.7685 23.7642 94.9325 23.2038 95.2649 22.7223C95.5973 22.2365 96.0724 21.8594 96.6903 21.5909C97.3125 21.3182 98.0455 21.1818 98.8892 21.1818H103.268V31H100.73ZM94.4915 31L97.2209 25.8864H99.8224L97.0994 31H94.4915ZM109.858 31.1918C108.848 31.1918 107.979 30.9872 107.25 30.5781C106.526 30.1648 105.967 29.581 105.575 28.8267C105.183 28.0682 104.987 27.1712 104.987 26.1357C104.987 25.1257 105.183 24.2393 105.575 23.4766C105.967 22.7138 106.519 22.1193 107.231 21.6932C107.947 21.267 108.786 21.054 109.749 21.054C110.397 21.054 111 21.1584 111.558 21.3672C112.121 21.5717 112.611 21.8807 113.028 22.294C113.45 22.7074 113.778 23.2273 114.013 23.8537C114.247 24.4759 114.364 25.2045 114.364 26.0398V26.7876H106.074V25.1001H111.801C111.801 24.7081 111.716 24.3608 111.545 24.0582C111.375 23.7557 111.138 23.5192 110.836 23.3487C110.538 23.174 110.19 23.0866 109.794 23.0866C109.381 23.0866 109.014 23.1825 108.695 23.3743C108.379 23.5618 108.132 23.8153 107.953 24.1349C107.774 24.4503 107.683 24.8018 107.678 25.1896V26.794C107.678 27.2798 107.768 27.6996 107.947 28.0533C108.13 28.407 108.388 28.6797 108.72 28.8714C109.053 29.0632 109.447 29.1591 109.903 29.1591C110.205 29.1591 110.482 29.1165 110.734 29.0312C110.985 28.946 111.2 28.8182 111.379 28.6477C111.558 28.4773 111.695 28.2685 111.788 28.0213L114.307 28.1875C114.179 28.7926 113.917 29.321 113.521 29.7727C113.129 30.2202 112.621 30.5696 111.999 30.821C111.381 31.0682 110.668 31.1918 109.858 31.1918ZM115.384 23.3232V21.1818H124.282V23.3232H121.118V31H118.522V23.3232H115.384ZM130.017 31.1918C129.011 31.1918 128.146 30.9787 127.422 30.5526C126.702 30.1222 126.148 29.5256 125.76 28.7628C125.376 28 125.184 27.1222 125.184 26.1293C125.184 25.1236 125.378 24.2415 125.766 23.483C126.158 22.7202 126.714 22.1257 127.434 21.6996C128.155 21.2692 129.011 21.054 130.004 21.054C130.861 21.054 131.611 21.2095 132.254 21.5206C132.898 21.8317 133.407 22.2685 133.782 22.831C134.157 23.3935 134.363 24.054 134.402 24.8125H131.832C131.76 24.3224 131.568 23.9283 131.257 23.63C130.95 23.3274 130.547 23.1761 130.049 23.1761C129.627 23.1761 129.258 23.2912 128.943 23.5213C128.632 23.7472 128.389 24.0774 128.214 24.5121C128.04 24.9467 127.952 25.473 127.952 26.0909C127.952 26.7173 128.037 27.25 128.208 27.6889C128.383 28.1278 128.628 28.4624 128.943 28.6925C129.258 28.9226 129.627 29.0376 130.049 29.0376C130.36 29.0376 130.639 28.9737 130.886 28.8459C131.138 28.718 131.344 28.5327 131.506 28.2898C131.672 28.0426 131.781 27.7464 131.832 27.4013H134.402C134.359 28.1513 134.155 28.8118 133.788 29.3828C133.426 29.9496 132.925 30.3928 132.286 30.7124C131.647 31.032 130.89 31.1918 130.017 31.1918ZM141.898 31V23.3168H140.057C139.559 23.3168 139.179 23.4318 138.919 23.6619C138.659 23.892 138.532 24.1648 138.536 24.4801C138.532 24.7997 138.655 25.0703 138.907 25.2919C139.162 25.5092 139.537 25.6179 140.032 25.6179H142.806V27.4588H140.032C139.192 27.4588 138.466 27.331 137.852 27.0753C137.238 26.8196 136.765 26.4638 136.433 26.0078C136.1 25.5476 135.936 25.0128 135.941 24.4034C135.936 23.7642 136.1 23.2038 136.433 22.7223C136.765 22.2365 137.24 21.8594 137.858 21.5909C138.48 21.3182 139.213 21.1818 140.057 21.1818H144.436V31H141.898ZM135.659 31L138.389 25.8864H140.99L138.267 31H135.659ZM150.718 31V21.1818H154.904C156.115 21.1818 157.071 21.4119 157.774 21.8722C158.477 22.3324 158.829 22.9865 158.829 23.8345C158.829 24.3672 158.631 24.8104 158.235 25.1641C157.838 25.5178 157.289 25.7564 156.585 25.88C157.173 25.9226 157.674 26.0568 158.088 26.2827C158.505 26.5043 158.823 26.7919 159.04 27.1456C159.262 27.4993 159.372 27.8913 159.372 28.3217C159.372 28.88 159.223 29.3594 158.925 29.7599C158.631 30.1605 158.198 30.4673 157.627 30.6804C157.061 30.8935 156.368 31 155.55 31H150.718ZM153.255 28.9609H155.55C155.929 28.9609 156.225 28.8714 156.438 28.6925C156.656 28.5092 156.764 28.2599 156.764 27.9446C156.764 27.5952 156.656 27.3203 156.438 27.12C156.225 26.9197 155.929 26.8196 155.55 26.8196H153.255V28.9609ZM153.255 25.2216H154.962C155.235 25.2216 155.467 25.1832 155.659 25.1065C155.855 25.0256 156.004 24.9105 156.106 24.7614C156.213 24.6122 156.266 24.4354 156.266 24.2308C156.266 23.9283 156.144 23.6918 155.901 23.5213C155.659 23.3509 155.326 23.2656 154.904 23.2656H153.255V25.2216ZM169.953 34.3366V17.9091H172.669V34.3366H169.953ZM169.953 31.1918C169.199 31.1918 168.51 31.0703 167.888 30.8274C167.266 30.5803 166.729 30.233 166.277 29.7855C165.826 29.3338 165.476 28.799 165.229 28.1811C164.982 27.5589 164.858 26.875 164.858 26.1293C164.858 25.375 164.982 24.6889 165.229 24.071C165.476 23.4489 165.826 22.9141 166.277 22.4666C166.729 22.0149 167.266 21.6676 167.888 21.4247C168.51 21.1776 169.199 21.054 169.953 21.054H170.458V31.1918H169.953ZM169.953 29.0696H170.253V23.1761H169.953C169.586 23.1761 169.26 23.2528 168.975 23.4062C168.689 23.5597 168.449 23.7706 168.252 24.0391C168.056 24.3033 167.907 24.6143 167.805 24.9723C167.707 25.3303 167.658 25.7159 167.658 26.1293C167.658 26.6747 167.748 27.1712 167.926 27.6186C168.105 28.0618 168.368 28.4155 168.713 28.6797C169.058 28.9396 169.471 29.0696 169.953 29.0696ZM172.669 31.1918H172.164V21.054H172.669C173.424 21.054 174.112 21.1776 174.734 21.4247C175.356 21.6676 175.893 22.0149 176.345 22.4666C176.797 22.9141 177.146 23.4489 177.393 24.071C177.64 24.6889 177.764 25.375 177.764 26.1293C177.764 26.875 177.64 27.5589 177.393 28.1811C177.146 28.799 176.797 29.3338 176.345 29.7855C175.893 30.233 175.356 30.5803 174.734 30.8274C174.112 31.0703 173.424 31.1918 172.669 31.1918ZM172.669 29.0696C173.036 29.0696 173.362 28.995 173.647 28.8459C173.933 28.6925 174.174 28.4815 174.37 28.2131C174.566 27.9446 174.715 27.6335 174.817 27.2798C174.919 26.9219 174.971 26.5384 174.971 26.1293C174.971 25.5795 174.879 25.0831 174.696 24.6399C174.517 24.1925 174.257 23.8366 173.916 23.5724C173.575 23.3082 173.159 23.1761 172.669 23.1761H172.369V29.0696H172.669ZM183.982 31.1918C182.989 31.1918 182.13 30.9808 181.406 30.5589C180.686 30.1328 180.129 29.5405 179.737 28.782C179.345 28.0192 179.149 27.1349 179.149 26.1293C179.149 25.1151 179.345 24.2287 179.737 23.4702C180.129 22.7074 180.686 22.1151 181.406 21.6932C182.13 21.267 182.989 21.054 183.982 21.054C184.975 21.054 185.831 21.267 186.551 21.6932C187.276 22.1151 187.834 22.7074 188.226 23.4702C188.618 24.2287 188.814 25.1151 188.814 26.1293C188.814 27.1349 188.618 28.0192 188.226 28.782C187.834 29.5405 187.276 30.1328 186.551 30.5589C185.831 30.9808 184.975 31.1918 183.982 31.1918ZM183.994 29.0824C184.446 29.0824 184.823 28.9545 185.126 28.6989C185.428 28.4389 185.656 28.0852 185.81 27.6378C185.968 27.1903 186.046 26.6811 186.046 26.1101C186.046 25.5391 185.968 25.0298 185.81 24.5824C185.656 24.1349 185.428 23.7812 185.126 23.5213C184.823 23.2614 184.446 23.1314 183.994 23.1314C183.539 23.1314 183.155 23.2614 182.844 23.5213C182.537 23.7812 182.305 24.1349 182.147 24.5824C181.994 25.0298 181.917 25.5391 181.917 26.1101C181.917 26.6811 181.994 27.1903 182.147 27.6378C182.305 28.0852 182.537 28.4389 182.844 28.6989C183.155 28.9545 183.539 29.0824 183.994 29.0824ZM190.585 34.6818V21.1818H193.269V22.831H193.391C193.51 22.5668 193.683 22.2983 193.909 22.0256C194.139 21.7486 194.437 21.5185 194.803 21.3352C195.174 21.1477 195.634 21.054 196.184 21.054C196.9 21.054 197.561 21.2415 198.166 21.6165C198.771 21.9872 199.254 22.5476 199.617 23.2976C199.979 24.0433 200.16 24.9787 200.16 26.1037C200.16 27.1989 199.983 28.1236 199.629 28.8778C199.28 29.6278 198.803 30.1967 198.198 30.5845C197.597 30.968 196.923 31.1598 196.178 31.1598C195.649 31.1598 195.2 31.0724 194.829 30.8977C194.463 30.723 194.162 30.5036 193.928 30.2393C193.693 29.9709 193.514 29.7003 193.391 29.4276H193.308V34.6818H190.585ZM193.25 26.0909C193.25 26.6747 193.331 27.1839 193.493 27.6186C193.655 28.0533 193.889 28.392 194.196 28.6349C194.503 28.8736 194.876 28.9929 195.315 28.9929C195.758 28.9929 196.133 28.8714 196.44 28.6286C196.747 28.3814 196.979 28.0405 197.137 27.6058C197.298 27.1669 197.379 26.6619 197.379 26.0909C197.379 25.5241 197.301 25.0256 197.143 24.5952C196.985 24.1648 196.753 23.8281 196.446 23.5852C196.139 23.3423 195.762 23.2209 195.315 23.2209C194.872 23.2209 194.497 23.3381 194.19 23.5724C193.887 23.8068 193.655 24.1392 193.493 24.5696C193.331 25 193.25 25.5071 193.25 26.0909ZM207.779 27.9893L210.438 21.1818H212.509L208.681 31H206.872L203.132 21.1818H205.197L207.779 27.9893ZM204.577 21.1818V31H201.975V21.1818H204.577ZM211.116 31V21.1818H213.686V31H211.116ZM218.393 27.4077L221.928 21.1818H224.613V31H222.018V24.755L218.496 31H215.792V21.1818H218.393V27.4077ZM226.796 34.6818V21.1818H229.48V22.831H229.602C229.721 22.5668 229.894 22.2983 230.119 22.0256C230.35 21.7486 230.648 21.5185 231.014 21.3352C231.385 21.1477 231.845 21.054 232.395 21.054C233.111 21.054 233.771 21.2415 234.377 21.6165C234.982 21.9872 235.465 22.5476 235.828 23.2976C236.19 24.0433 236.371 24.9787 236.371 26.1037C236.371 27.1989 236.194 28.1236 235.84 28.8778C235.491 29.6278 235.014 30.1967 234.409 30.5845C233.808 30.968 233.134 31.1598 232.389 31.1598C231.86 31.1598 231.411 31.0724 231.04 30.8977C230.673 30.723 230.373 30.5036 230.139 30.2393C229.904 29.9709 229.725 29.7003 229.602 29.4276H229.519V34.6818H226.796ZM229.461 26.0909C229.461 26.6747 229.542 27.1839 229.704 27.6186C229.866 28.0533 230.1 28.392 230.407 28.6349C230.714 28.8736 231.087 28.9929 231.526 28.9929C231.969 28.9929 232.344 28.8714 232.651 28.6286C232.958 28.3814 233.19 28.0405 233.347 27.6058C233.509 27.1669 233.59 26.6619 233.59 26.0909C233.59 25.5241 233.512 25.0256 233.354 24.5952C233.196 24.1648 232.964 23.8281 232.657 23.5852C232.35 23.3423 231.973 23.2209 231.526 23.2209C231.083 23.2209 230.708 23.3381 230.401 23.5724C230.098 23.8068 229.866 24.1392 229.704 24.5696C229.542 25 229.461 25.5071 229.461 26.0909ZM242.622 31.1918C241.629 31.1918 240.771 30.9808 240.046 30.5589C239.326 30.1328 238.77 29.5405 238.378 28.782C237.986 28.0192 237.79 27.1349 237.79 26.1293C237.79 25.1151 237.986 24.2287 238.378 23.4702C238.77 22.7074 239.326 22.1151 240.046 21.6932C240.771 21.267 241.629 21.054 242.622 21.054C243.615 21.054 244.472 21.267 245.192 21.6932C245.916 22.1151 246.475 22.7074 246.867 23.4702C247.259 24.2287 247.455 25.1151 247.455 26.1293C247.455 27.1349 247.259 28.0192 246.867 28.782C246.475 29.5405 245.916 30.1328 245.192 30.5589C244.472 30.9808 243.615 31.1918 242.622 31.1918ZM242.635 29.0824C243.087 29.0824 243.464 28.9545 243.767 28.6989C244.069 28.4389 244.297 28.0852 244.45 27.6378C244.608 27.1903 244.687 26.6811 244.687 26.1101C244.687 25.5391 244.608 25.0298 244.45 24.5824C244.297 24.1349 244.069 23.7812 243.767 23.5213C243.464 23.2614 243.087 23.1314 242.635 23.1314C242.179 23.1314 241.796 23.2614 241.485 23.5213C241.178 23.7812 240.945 24.1349 240.788 24.5824C240.634 25.0298 240.558 25.5391 240.558 26.1101C240.558 26.6811 240.634 27.1903 240.788 27.6378C240.945 28.0852 241.178 28.4389 241.485 28.6989C241.796 28.9545 242.179 29.0824 242.635 29.0824ZM249.225 31V21.1818H253.412C254.622 21.1818 255.579 21.4119 256.282 21.8722C256.985 22.3324 257.337 22.9865 257.337 23.8345C257.337 24.3672 257.139 24.8104 256.742 25.1641C256.346 25.5178 255.796 25.7564 255.093 25.88C255.681 25.9226 256.182 26.0568 256.595 26.2827C257.013 26.5043 257.33 26.7919 257.548 27.1456C257.769 27.4993 257.88 27.8913 257.88 28.3217C257.88 28.88 257.731 29.3594 257.433 29.7599C257.139 30.1605 256.706 30.4673 256.135 30.6804C255.568 30.8935 254.876 31 254.058 31H249.225ZM251.763 28.9609H254.058C254.437 28.9609 254.733 28.8714 254.946 28.6925C255.164 28.5092 255.272 28.2599 255.272 27.9446C255.272 27.5952 255.164 27.3203 254.946 27.12C254.733 26.9197 254.437 26.8196 254.058 26.8196H251.763V28.9609ZM251.763 25.2216H253.47C253.742 25.2216 253.975 25.1832 254.166 25.1065C254.362 25.0256 254.512 24.9105 254.614 24.7614C254.72 24.6122 254.774 24.4354 254.774 24.2308C254.774 23.9283 254.652 23.6918 254.409 23.5213C254.166 23.3509 253.834 23.2656 253.412 23.2656H251.763V25.2216ZM262.396 31.1854C261.77 31.1854 261.211 31.0767 260.721 30.8594C260.231 30.6378 259.844 30.3118 259.558 29.8814C259.277 29.4467 259.136 28.9055 259.136 28.2578C259.136 27.7124 259.236 27.2543 259.437 26.8835C259.637 26.5128 259.91 26.2145 260.255 25.9886C260.6 25.7628 260.992 25.5923 261.431 25.4773C261.874 25.3622 262.339 25.2812 262.824 25.2344C263.395 25.1747 263.856 25.1193 264.205 25.0682C264.555 25.0128 264.808 24.9318 264.966 24.8253C265.123 24.7187 265.202 24.5611 265.202 24.3523V24.3139C265.202 23.9091 265.074 23.5959 264.819 23.3743C264.567 23.1527 264.209 23.0419 263.745 23.0419C263.255 23.0419 262.865 23.1506 262.575 23.3679C262.285 23.581 262.094 23.8494 262 24.1733L259.481 23.9688C259.609 23.3722 259.861 22.8565 260.236 22.4219C260.611 21.983 261.094 21.6463 261.687 21.4119C262.283 21.1733 262.974 21.054 263.758 21.054C264.303 21.054 264.825 21.1179 265.324 21.2457C265.827 21.3736 266.272 21.5717 266.66 21.8402C267.052 22.1087 267.361 22.4538 267.586 22.8757C267.812 23.2933 267.925 23.794 267.925 24.3778V31H265.343V29.6385H265.266C265.108 29.9453 264.898 30.2159 264.633 30.4503C264.369 30.6804 264.052 30.8615 263.681 30.9936C263.31 31.1214 262.882 31.1854 262.396 31.1854ZM263.176 29.3061C263.577 29.3061 263.93 29.2273 264.237 29.0696C264.544 28.9077 264.785 28.6903 264.959 28.4176C265.134 28.1449 265.221 27.8359 265.221 27.4908V26.4489C265.136 26.5043 265.019 26.5554 264.87 26.6023C264.725 26.6449 264.561 26.6854 264.378 26.7237C264.194 26.7578 264.011 26.7898 263.828 26.8196C263.645 26.8452 263.479 26.8686 263.329 26.8899C263.01 26.9368 262.731 27.0114 262.492 27.1136C262.253 27.2159 262.068 27.3544 261.936 27.5291C261.804 27.6996 261.738 27.9126 261.738 28.1683C261.738 28.5391 261.872 28.8224 262.14 29.0185C262.413 29.2102 262.758 29.3061 263.176 29.3061ZM276.871 25.0043V27.1456H271.744V25.0043H276.871ZM272.639 21.1818V31H270.038V21.1818H272.639ZM278.578 21.1818V31H275.995V21.1818H278.578ZM283.292 27.4077L286.827 21.1818H289.511V31H286.916V24.755L283.394 31H280.69V21.1818H283.292V27.4077ZM294.296 27.4077L297.83 21.1818H300.515V31H297.92V24.755L294.398 31H291.694V21.1818H294.296V27.4077ZM311.3 31.1918C310.307 31.1918 309.449 30.9808 308.724 30.5589C308.004 30.1328 307.448 29.5405 307.056 28.782C306.664 28.0192 306.468 27.1349 306.468 26.1293C306.468 25.1151 306.664 24.2287 307.056 23.4702C307.448 22.7074 308.004 22.1151 308.724 21.6932C309.449 21.267 310.307 21.054 311.3 21.054C312.293 21.054 313.15 21.267 313.87 21.6932C314.594 22.1151 315.152 22.7074 315.544 23.4702C315.936 24.2287 316.132 25.1151 316.132 26.1293C316.132 27.1349 315.936 28.0192 315.544 28.782C315.152 29.5405 314.594 30.1328 313.87 30.5589C313.15 30.9808 312.293 31.1918 311.3 31.1918ZM311.313 29.0824C311.765 29.0824 312.142 28.9545 312.444 28.6989C312.747 28.4389 312.975 28.0852 313.128 27.6378C313.286 27.1903 313.365 26.6811 313.365 26.1101C313.365 25.5391 313.286 25.0298 313.128 24.5824C312.975 24.1349 312.747 23.7812 312.444 23.5213C312.142 23.2614 311.765 23.1314 311.313 23.1314C310.857 23.1314 310.473 23.2614 310.162 23.5213C309.855 23.7812 309.623 24.1349 309.466 24.5824C309.312 25.0298 309.235 25.5391 309.235 26.1101C309.235 26.6811 309.312 27.1903 309.466 27.6378C309.623 28.0852 309.855 28.4389 310.162 28.6989C310.473 28.9545 310.857 29.0824 311.313 29.0824ZM317.903 31V21.1818H326.488V31H323.886V23.3232H320.473V31H317.903ZM328.661 34.6818V21.1818H331.346V22.831H331.467C331.586 22.5668 331.759 22.2983 331.985 22.0256C332.215 21.7486 332.513 21.5185 332.88 21.3352C333.25 21.1477 333.711 21.054 334.26 21.054C334.976 21.054 335.637 21.2415 336.242 21.6165C336.847 21.9872 337.331 22.5476 337.693 23.2976C338.055 24.0433 338.236 24.9787 338.236 26.1037C338.236 27.1989 338.059 28.1236 337.706 28.8778C337.356 29.6278 336.879 30.1967 336.274 30.5845C335.673 30.968 335 31.1598 334.254 31.1598C333.725 31.1598 333.276 31.0724 332.905 30.8977C332.539 30.723 332.238 30.5036 332.004 30.2393C331.77 29.9709 331.591 29.7003 331.467 29.4276H331.384V34.6818H328.661ZM331.326 26.0909C331.326 26.6747 331.407 27.1839 331.569 27.6186C331.731 28.0533 331.966 28.392 332.272 28.6349C332.579 28.8736 332.952 28.9929 333.391 28.9929C333.834 28.9929 334.209 28.8714 334.516 28.6286C334.823 28.3814 335.055 28.0405 335.213 27.6058C335.375 27.1669 335.456 26.6619 335.456 26.0909C335.456 25.5241 335.377 25.0256 335.219 24.5952C335.061 24.1648 334.829 23.8281 334.522 23.5852C334.216 23.3423 333.838 23.2209 333.391 23.2209C332.948 23.2209 332.573 23.3381 332.266 23.5724C331.963 23.8068 331.731 24.1392 331.569 24.5696C331.407 25 331.326 25.5071 331.326 26.0909ZM344.526 31.1918C343.516 31.1918 342.647 30.9872 341.918 30.5781C341.194 30.1648 340.635 29.581 340.243 28.8267C339.851 28.0682 339.655 27.1712 339.655 26.1357C339.655 25.1257 339.851 24.2393 340.243 23.4766C340.635 22.7138 341.187 22.1193 341.899 21.6932C342.615 21.267 343.454 21.054 344.417 21.054C345.065 21.054 345.668 21.1584 346.226 21.3672C346.789 21.5717 347.279 21.8807 347.696 22.294C348.118 22.7074 348.446 23.2273 348.681 23.8537C348.915 24.4759 349.032 25.2045 349.032 26.0398V26.7876H340.742V25.1001H346.469C346.469 24.7081 346.384 24.3608 346.213 24.0582C346.043 23.7557 345.806 23.5192 345.504 23.3487C345.206 23.174 344.858 23.0866 344.462 23.0866C344.049 23.0866 343.682 23.1825 343.363 23.3743C343.047 23.5618 342.8 23.8153 342.621 24.1349C342.442 24.4503 342.35 24.8018 342.346 25.1896V26.794C342.346 27.2798 342.436 27.6996 342.615 28.0533C342.798 28.407 343.056 28.6797 343.388 28.8714C343.721 29.0632 344.115 29.1591 344.571 29.1591C344.873 29.1591 345.15 29.1165 345.402 29.0312C345.653 28.946 345.868 28.8182 346.047 28.6477C346.226 28.4773 346.363 28.2685 346.456 28.0213L348.975 28.1875C348.847 28.7926 348.585 29.321 348.189 29.7727C347.797 30.2202 347.289 30.5696 346.667 30.821C346.049 31.0682 345.336 31.1918 344.526 31.1918ZM350.042 33.8764V28.8395H350.797C351.014 28.7031 351.189 28.4858 351.321 28.1875C351.457 27.8892 351.568 27.5376 351.653 27.1328C351.743 26.728 351.811 26.2912 351.858 25.8224C351.909 25.3494 351.953 24.8722 351.992 24.3906L352.248 21.1818H359.777V28.8395H361.299V33.8764H358.703V31H352.701V33.8764H350.042ZM353.507 28.8395H357.208V23.2784H354.561L354.459 24.3906C354.387 25.4389 354.282 26.3295 354.146 27.0625C354.01 27.7912 353.797 28.3835 353.507 28.8395ZM367.36 31.1918C366.35 31.1918 365.481 30.9872 364.752 30.5781C364.028 30.1648 363.469 29.581 363.077 28.8267C362.685 28.0682 362.489 27.1712 362.489 26.1357C362.489 25.1257 362.685 24.2393 363.077 23.4766C363.469 22.7138 364.021 22.1193 364.733 21.6932C365.449 21.267 366.288 21.054 367.251 21.054C367.899 21.054 368.502 21.1584 369.06 21.3672C369.623 21.5717 370.113 21.8807 370.53 22.294C370.952 22.7074 371.28 23.2273 371.515 23.8537C371.749 24.4759 371.866 25.2045 371.866 26.0398V26.7876H363.576V25.1001H369.303C369.303 24.7081 369.218 24.3608 369.047 24.0582C368.877 23.7557 368.64 23.5192 368.338 23.3487C368.04 23.174 367.692 23.0866 367.296 23.0866C366.883 23.0866 366.516 23.1825 366.197 23.3743C365.881 23.5618 365.634 23.8153 365.455 24.1349C365.276 24.4503 365.184 24.8018 365.18 25.1896V26.794C365.18 27.2798 365.27 27.6996 365.449 28.0533C365.632 28.407 365.89 28.6797 366.222 28.8714C366.555 29.0632 366.949 29.1591 367.405 29.1591C367.707 29.1591 367.984 29.1165 368.236 29.0312C368.487 28.946 368.702 28.8182 368.881 28.6477C369.06 28.4773 369.197 28.2685 369.29 28.0213L371.809 28.1875C371.681 28.7926 371.419 29.321 371.023 29.7727C370.631 30.2202 370.123 30.5696 369.501 30.821C368.883 31.0682 368.17 31.1918 367.36 31.1918ZM373.068 31L373.055 28.8395H373.381C373.611 28.8395 373.809 28.7841 373.976 28.6733C374.146 28.5582 374.287 28.3729 374.398 28.1172C374.508 27.8615 374.596 27.5227 374.66 27.1009C374.724 26.6747 374.766 26.1506 374.787 25.5284L374.947 21.1818H382.413V31H379.818V23.3232H377.395L377.242 26.321C377.204 27.1435 377.104 27.8509 376.942 28.4432C376.784 29.0355 376.564 29.5213 376.283 29.9006C376.002 30.2756 375.663 30.5526 375.267 30.7315C374.871 30.9105 374.41 31 373.886 31H373.068ZM388.999 31.1918C387.989 31.1918 387.119 30.9872 386.391 30.5781C385.666 30.1648 385.108 29.581 384.716 28.8267C384.324 28.0682 384.128 27.1712 384.128 26.1357C384.128 25.1257 384.324 24.2393 384.716 23.4766C385.108 22.7138 385.66 22.1193 386.371 21.6932C387.087 21.267 387.927 21.054 388.89 21.054C389.538 21.054 390.141 21.1584 390.699 21.3672C391.261 21.5717 391.751 21.8807 392.169 22.294C392.591 22.7074 392.919 23.2273 393.153 23.8537C393.388 24.4759 393.505 25.2045 393.505 26.0398V26.7876H385.214V25.1001H390.942C390.942 24.7081 390.857 24.3608 390.686 24.0582C390.516 23.7557 390.279 23.5192 389.977 23.3487C389.678 23.174 389.331 23.0866 388.935 23.0866C388.521 23.0866 388.155 23.1825 387.835 23.3743C387.52 23.5618 387.273 23.8153 387.094 24.1349C386.915 24.4503 386.823 24.8018 386.819 25.1896V26.794C386.819 27.2798 386.908 27.6996 387.087 28.0533C387.271 28.407 387.528 28.6797 387.861 28.8714C388.193 29.0632 388.587 29.1591 389.043 29.1591C389.346 29.1591 389.623 29.1165 389.874 29.0312C390.126 28.946 390.341 28.8182 390.52 28.6477C390.699 28.4773 390.835 28.2685 390.929 28.0213L393.447 28.1875C393.32 28.7926 393.058 29.321 392.661 29.7727C392.269 30.2202 391.762 30.5696 391.14 30.821C390.522 31.0682 389.808 31.1918 388.999 31.1918ZM402.115 25.0043V27.1456H396.989V25.0043H402.115ZM397.884 21.1818V31H395.282V21.1818H397.884ZM403.822 21.1818V31H401.239V21.1818H403.822ZM412.767 25.0043V27.1456H407.641V25.0043H412.767ZM408.536 21.1818V31H405.934V21.1818H408.536ZM414.474 21.1818V31H411.892V21.1818H414.474ZM421.023 31.1918C420.03 31.1918 419.171 30.9808 418.447 30.5589C417.727 30.1328 417.17 29.5405 416.778 28.782C416.386 28.0192 416.19 27.1349 416.19 26.1293C416.19 25.1151 416.386 24.2287 416.778 23.4702C417.17 22.7074 417.727 22.1151 418.447 21.6932C419.171 21.267 420.03 21.054 421.023 21.054C422.016 21.054 422.872 21.267 423.592 21.6932C424.317 22.1151 424.875 22.7074 425.267 23.4702C425.659 24.2287 425.855 25.1151 425.855 26.1293C425.855 27.1349 425.659 28.0192 425.267 28.782C424.875 29.5405 424.317 30.1328 423.592 30.5589C422.872 30.9808 422.016 31.1918 421.023 31.1918ZM421.036 29.0824C421.487 29.0824 421.864 28.9545 422.167 28.6989C422.469 28.4389 422.697 28.0852 422.851 27.6378C423.009 27.1903 423.087 26.6811 423.087 26.1101C423.087 25.5391 423.009 25.0298 422.851 24.5824C422.697 24.1349 422.469 23.7812 422.167 23.5213C421.864 23.2614 421.487 23.1314 421.036 23.1314C420.58 23.1314 420.196 23.2614 419.885 23.5213C419.578 23.7812 419.346 24.1349 419.188 24.5824C419.035 25.0298 418.958 25.5391 418.958 26.1101C418.958 26.6811 419.035 27.1903 419.188 27.6378C419.346 28.0852 419.578 28.4389 419.885 28.6989C420.196 28.9545 420.58 29.0824 421.036 29.0824ZM430.227 27.4077L433.762 21.1818H436.447V31H433.852V24.755L430.33 31H427.626V21.1818H430.227V27.4077ZM433.295 17.7557H435.194C435.19 18.5312 434.902 19.1555 434.331 19.6286C433.764 20.1016 432.997 20.3381 432.03 20.3381C431.058 20.3381 430.289 20.1016 429.722 19.6286C429.156 19.1555 428.872 18.5312 428.872 17.7557H430.758C430.754 18.0497 430.847 18.3139 431.039 18.5483C431.235 18.7827 431.565 18.8999 432.03 18.8999C432.482 18.8999 432.805 18.7848 433.001 18.5547C433.197 18.3246 433.295 18.0582 433.295 17.7557ZM442.796 31V21.1818H451.38V31H448.779V23.3232H445.365V31H442.796ZM457.99 31.1918C456.997 31.1918 456.138 30.9808 455.414 30.5589C454.693 30.1328 454.137 29.5405 453.745 28.782C453.353 28.0192 453.157 27.1349 453.157 26.1293C453.157 25.1151 453.353 24.2287 453.745 23.4702C454.137 22.7074 454.693 22.1151 455.414 21.6932C456.138 21.267 456.997 21.054 457.99 21.054C458.982 21.054 459.839 21.267 460.559 21.6932C461.284 22.1151 461.842 22.7074 462.234 23.4702C462.626 24.2287 462.822 25.1151 462.822 26.1293C462.822 27.1349 462.626 28.0192 462.234 28.782C461.842 29.5405 461.284 30.1328 460.559 30.5589C459.839 30.9808 458.982 31.1918 457.99 31.1918ZM458.002 29.0824C458.454 29.0824 458.831 28.9545 459.134 28.6989C459.436 28.4389 459.664 28.0852 459.818 27.6378C459.975 27.1903 460.054 26.6811 460.054 26.1101C460.054 25.5391 459.975 25.0298 459.818 24.5824C459.664 24.1349 459.436 23.7812 459.134 23.5213C458.831 23.2614 458.454 23.1314 458.002 23.1314C457.546 23.1314 457.163 23.2614 456.852 23.5213C456.545 23.7812 456.313 24.1349 456.155 24.5824C456.002 25.0298 455.925 25.5391 455.925 26.1101C455.925 26.6811 456.002 27.1903 456.155 27.6378C456.313 28.0852 456.545 28.4389 456.852 28.6989C457.163 28.9545 457.546 29.0824 458.002 29.0824ZM464.088 28.2195H466.727C466.74 28.5433 466.885 28.799 467.162 28.9865C467.439 29.174 467.797 29.2678 468.236 29.2678C468.679 29.2678 469.052 29.1655 469.355 28.9609C469.657 28.7521 469.808 28.4538 469.808 28.0661C469.808 27.8274 469.749 27.6207 469.629 27.446C469.51 27.267 469.344 27.1264 469.131 27.0241C468.918 26.9219 468.671 26.8707 468.389 26.8707H466.977V25.0874H468.389C468.811 25.0874 469.135 24.9893 469.361 24.7933C469.591 24.5973 469.706 24.3523 469.706 24.0582C469.706 23.7259 469.587 23.4595 469.348 23.2592C469.114 23.0547 468.796 22.9524 468.396 22.9524C467.991 22.9524 467.654 23.044 467.386 23.2273C467.122 23.4062 466.985 23.6406 466.977 23.9304H464.35C464.358 23.3423 464.535 22.8331 464.88 22.4027C465.23 21.9723 465.698 21.6399 466.286 21.4055C466.879 21.1712 467.541 21.054 468.274 21.054C469.075 21.054 469.766 21.1669 470.345 21.3928C470.929 21.6143 471.377 21.9318 471.688 22.3452C472.003 22.7585 472.161 23.2507 472.161 23.8217C472.161 24.3416 471.99 24.7763 471.649 25.1257C471.308 25.4751 470.831 25.7244 470.218 25.8736V25.9759C470.622 26.0014 470.989 26.1101 471.317 26.3018C471.645 26.4936 471.907 26.7578 472.103 27.0945C472.299 27.4268 472.397 27.821 472.397 28.277C472.397 28.8864 472.218 29.4084 471.86 29.843C471.507 30.2777 471.017 30.6122 470.39 30.8466C469.768 31.0767 469.054 31.1918 468.249 31.1918C467.465 31.1918 466.762 31.0788 466.139 30.853C465.521 30.6229 465.029 30.2862 464.663 29.843C464.301 29.3999 464.109 28.8587 464.088 28.2195ZM476.669 27.4077L480.203 21.1818H482.888V31H480.293V24.755L476.771 31H474.067V21.1818H476.669V27.4077ZM493.656 21.1818V29.1207H495.222V34.1577H492.575V31H485.071V21.1818H487.673V28.8587H491.086V21.1818H493.656ZM499.503 27.4077L503.037 21.1818H505.722V31H503.127V24.755L499.605 31H496.901V21.1818H499.503V27.4077ZM510.507 27.4077L514.041 21.1818H516.726V31H514.131V24.755L510.609 31H507.905V21.1818H510.507V27.4077ZM513.575 17.7557H515.473C515.469 18.5312 515.181 19.1555 514.61 19.6286C514.044 20.1016 513.276 20.3381 512.309 20.3381C511.338 20.3381 510.568 20.1016 510.002 19.6286C509.435 19.1555 509.151 18.5312 509.151 17.7557H511.037C511.033 18.0497 511.127 18.3139 511.318 18.5483C511.514 18.7827 511.845 18.8999 512.309 18.8999C512.761 18.8999 513.085 18.7848 513.281 18.5547C513.477 18.3246 513.575 18.0582 513.575 17.7557ZM531.596 21.1818V31H529.013V21.1818H531.596ZM530.336 25.4901V27.6378C530.127 27.7315 529.868 27.821 529.556 27.9062C529.245 27.9872 528.919 28.0533 528.578 28.1044C528.238 28.1555 527.918 28.1811 527.62 28.1811C526.209 28.1811 525.099 27.8913 524.289 27.3118C523.48 26.728 523.075 25.7969 523.075 24.5185V21.169H525.645V24.5185C525.645 24.8977 525.708 25.1982 525.836 25.4197C525.968 25.6413 526.177 25.8011 526.463 25.8991C526.752 25.9929 527.138 26.0398 527.62 26.0398C528.067 26.0398 528.506 25.9929 528.936 25.8991C529.367 25.8054 529.833 25.669 530.336 25.4901ZM538.184 31.1918C537.174 31.1918 536.305 30.9872 535.576 30.5781C534.852 30.1648 534.294 29.581 533.901 28.8267C533.509 28.0682 533.313 27.1712 533.313 26.1357C533.313 25.1257 533.509 24.2393 533.901 23.4766C534.294 22.7138 534.845 22.1193 535.557 21.6932C536.273 21.267 537.112 21.054 538.075 21.054C538.723 21.054 539.326 21.1584 539.884 21.3672C540.447 21.5717 540.937 21.8807 541.355 22.294C541.776 22.7074 542.105 23.2273 542.339 23.8537C542.573 24.4759 542.691 25.2045 542.691 26.0398V26.7876H534.4V25.1001H540.127C540.127 24.7081 540.042 24.3608 539.872 24.0582C539.701 23.7557 539.465 23.5192 539.162 23.3487C538.864 23.174 538.517 23.0866 538.12 23.0866C537.707 23.0866 537.34 23.1825 537.021 23.3743C536.705 23.5618 536.458 23.8153 536.279 24.1349C536.1 24.4503 536.009 24.8018 536.004 25.1896V26.794C536.004 27.2798 536.094 27.6996 536.273 28.0533C536.456 28.407 536.714 28.6797 537.046 28.8714C537.379 29.0632 537.773 29.1591 538.229 29.1591C538.531 29.1591 538.808 29.1165 539.06 29.0312C539.311 28.946 539.526 28.8182 539.705 28.6477C539.884 28.4773 540.021 28.2685 540.115 28.0213L542.633 28.1875C542.505 28.7926 542.243 29.321 541.847 29.7727C541.455 30.2202 540.948 30.5696 540.325 30.821C539.708 31.0682 538.994 31.1918 538.184 31.1918ZM543.892 31L543.879 28.8395H544.205C544.436 28.8395 544.634 28.7841 544.8 28.6733C544.97 28.5582 545.111 28.3729 545.222 28.1172C545.333 27.8615 545.42 27.5227 545.484 27.1009C545.548 26.6747 545.59 26.1506 545.612 25.5284L545.771 21.1818H553.237V31H550.642V23.3232H548.22L548.066 26.321C548.028 27.1435 547.928 27.8509 547.766 28.4432C547.608 29.0355 547.389 29.5213 547.107 29.9006C546.826 30.2756 546.487 30.5526 546.091 30.7315C545.695 30.9105 545.235 31 544.71 31H543.892ZM559.784 31.1918C558.792 31.1918 557.933 30.9808 557.208 30.5589C556.488 30.1328 555.932 29.5405 555.54 28.782C555.148 28.0192 554.952 27.1349 554.952 26.1293C554.952 25.1151 555.148 24.2287 555.54 23.4702C555.932 22.7074 556.488 22.1151 557.208 21.6932C557.933 21.267 558.792 21.054 559.784 21.054C560.777 21.054 561.634 21.267 562.354 21.6932C563.078 22.1151 563.637 22.7074 564.029 23.4702C564.421 24.2287 564.617 25.1151 564.617 26.1293C564.617 27.1349 564.421 28.0192 564.029 28.782C563.637 29.5405 563.078 30.1328 562.354 30.5589C561.634 30.9808 560.777 31.1918 559.784 31.1918ZM559.797 29.0824C560.249 29.0824 560.626 28.9545 560.929 28.6989C561.231 28.4389 561.459 28.0852 561.613 27.6378C561.77 27.1903 561.849 26.6811 561.849 26.1101C561.849 25.5391 561.77 25.0298 561.613 24.5824C561.459 24.1349 561.231 23.7812 560.929 23.5213C560.626 23.2614 560.249 23.1314 559.797 23.1314C559.341 23.1314 558.958 23.2614 558.647 23.5213C558.34 23.7812 558.108 24.1349 557.95 24.5824C557.797 25.0298 557.72 25.5391 557.72 26.1101C557.72 26.6811 557.797 27.1903 557.95 27.6378C558.108 28.0852 558.34 28.4389 558.647 28.6989C558.958 28.9545 559.341 29.0824 559.797 29.0824ZM566.387 31V21.1818H570.574C571.784 21.1818 572.741 21.4119 573.444 21.8722C574.147 22.3324 574.499 22.9865 574.499 23.8345C574.499 24.3672 574.301 24.8104 573.904 25.1641C573.508 25.5178 572.958 25.7564 572.255 25.88C572.843 25.9226 573.344 26.0568 573.757 26.2827C574.175 26.5043 574.493 26.7919 574.71 27.1456C574.931 27.4993 575.042 27.8913 575.042 28.3217C575.042 28.88 574.893 29.3594 574.595 29.7599C574.301 30.1605 573.868 30.4673 573.297 30.6804C572.73 30.8935 572.038 31 571.22 31H566.387ZM568.925 28.9609H571.22C571.599 28.9609 571.895 28.8714 572.108 28.6925C572.326 28.5092 572.434 28.2599 572.434 27.9446C572.434 27.5952 572.326 27.3203 572.108 27.12C571.895 26.9197 571.599 26.8196 571.22 26.8196H568.925V28.9609ZM568.925 25.2216H570.632C570.904 25.2216 571.137 25.1832 571.328 25.1065C571.525 25.0256 571.674 24.9105 571.776 24.7614C571.882 24.6122 571.936 24.4354 571.936 24.2308C571.936 23.9283 571.814 23.6918 571.571 23.5213C571.328 23.3509 570.996 23.2656 570.574 23.2656H568.925V25.2216ZM581.233 31.1918C580.223 31.1918 579.354 30.9872 578.625 30.5781C577.901 30.1648 577.342 29.581 576.95 28.8267C576.558 28.0682 576.362 27.1712 576.362 26.1357C576.362 25.1257 576.558 24.2393 576.95 23.4766C577.342 22.7138 577.894 22.1193 578.606 21.6932C579.322 21.267 580.161 21.054 581.124 21.054C581.772 21.054 582.375 21.1584 582.933 21.3672C583.496 21.5717 583.986 21.8807 584.403 22.294C584.825 22.7074 585.153 23.2273 585.388 23.8537C585.622 24.4759 585.739 25.2045 585.739 26.0398V26.7876H577.449V25.1001H583.176C583.176 24.7081 583.091 24.3608 582.92 24.0582C582.75 23.7557 582.513 23.5192 582.211 23.3487C581.913 23.174 581.565 23.0866 581.169 23.0866C580.756 23.0866 580.389 23.1825 580.07 23.3743C579.754 23.5618 579.507 23.8153 579.328 24.1349C579.149 24.4503 579.058 24.8018 579.053 25.1896V26.794C579.053 27.2798 579.143 27.6996 579.322 28.0533C579.505 28.407 579.763 28.6797 580.095 28.8714C580.428 29.0632 580.822 29.1591 581.278 29.1591C581.58 29.1591 581.857 29.1165 582.109 29.0312C582.36 28.946 582.575 28.8182 582.754 28.6477C582.933 28.4773 583.07 28.2685 583.163 28.0213L585.682 28.1875C585.554 28.7926 585.292 29.321 584.896 29.7727C584.504 30.2202 583.996 30.5696 583.374 30.821C582.756 31.0682 582.043 31.1918 581.233 31.1918ZM587.516 31V21.1818H590.239V24.9915H591.006L593.678 21.1818H596.874L593.403 26.0526L596.913 31H593.678L591.256 27.5163H590.239V31H587.516ZM600.863 31.1854C600.237 31.1854 599.678 31.0767 599.188 30.8594C598.698 30.6378 598.31 30.3118 598.025 29.8814C597.744 29.4467 597.603 28.9055 597.603 28.2578C597.603 27.7124 597.703 27.2543 597.903 26.8835C598.104 26.5128 598.376 26.2145 598.722 25.9886C599.067 25.7628 599.459 25.5923 599.898 25.4773C600.341 25.3622 600.805 25.2812 601.291 25.2344C601.862 25.1747 602.322 25.1193 602.672 25.0682C603.021 25.0128 603.275 24.9318 603.433 24.8253C603.59 24.7187 603.669 24.5611 603.669 24.3523V24.3139C603.669 23.9091 603.541 23.5959 603.286 23.3743C603.034 23.1527 602.676 23.0419 602.212 23.0419C601.722 23.0419 601.332 23.1506 601.042 23.3679C600.752 23.581 600.56 23.8494 600.467 24.1733L597.948 23.9688C598.076 23.3722 598.327 22.8565 598.702 22.4219C599.077 21.983 599.561 21.6463 600.153 21.4119C600.75 21.1733 601.44 21.054 602.224 21.054C602.77 21.054 603.292 21.1179 603.79 21.2457C604.293 21.3736 604.739 21.5717 605.126 21.8402C605.518 22.1087 605.827 22.4538 606.053 22.8757C606.279 23.2933 606.392 23.794 606.392 24.3778V31H603.81V29.6385H603.733C603.575 29.9453 603.364 30.2159 603.1 30.4503C602.836 30.6804 602.518 30.8615 602.148 30.9936C601.777 31.1214 601.349 31.1854 600.863 31.1854ZM601.643 29.3061C602.043 29.3061 602.397 29.2273 602.704 29.0696C603.011 28.9077 603.251 28.6903 603.426 28.4176C603.601 28.1449 603.688 27.8359 603.688 27.4908V26.4489C603.603 26.5043 603.486 26.5554 603.337 26.6023C603.192 26.6449 603.028 26.6854 602.844 26.7237C602.661 26.7578 602.478 26.7898 602.295 26.8196C602.112 26.8452 601.945 26.8686 601.796 26.8899C601.477 26.9368 601.197 27.0114 600.959 27.1136C600.72 27.2159 600.535 27.3544 600.403 27.5291C600.271 27.6996 600.205 27.9126 600.205 28.1683C600.205 28.5391 600.339 28.8224 600.607 29.0185C600.88 29.2102 601.225 29.3061 601.643 29.3061ZM612.671 31V21.1818H616.857C618.068 21.1818 619.024 21.4119 619.727 21.8722C620.431 22.3324 620.782 22.9865 620.782 23.8345C620.782 24.3672 620.584 24.8104 620.188 25.1641C619.791 25.5178 619.242 25.7564 618.539 25.88C619.127 25.9226 619.627 26.0568 620.041 26.2827C620.458 26.5043 620.776 26.7919 620.993 27.1456C621.215 27.4993 621.325 27.8913 621.325 28.3217C621.325 28.88 621.176 29.3594 620.878 29.7599C620.584 30.1605 620.151 30.4673 619.58 30.6804C619.014 30.8935 618.321 31 617.503 31H612.671ZM615.208 28.9609H617.503C617.882 28.9609 618.178 28.8714 618.392 28.6925C618.609 28.5092 618.718 28.2599 618.718 27.9446C618.718 27.5952 618.609 27.3203 618.392 27.12C618.178 26.9197 617.882 26.8196 617.503 26.8196H615.208V28.9609ZM615.208 25.2216H616.915C617.188 25.2216 617.42 25.1832 617.612 25.1065C617.808 25.0256 617.957 24.9105 618.059 24.7614C618.166 24.6122 618.219 24.4354 618.219 24.2308C618.219 23.9283 618.097 23.6918 617.855 23.5213C617.612 23.3509 617.279 23.2656 616.857 23.2656H615.208V25.2216ZM59.177 53.1918C58.1841 53.1918 57.3255 52.9808 56.601 52.5589C55.8809 52.1328 55.3248 51.5405 54.9327 50.782C54.5407 50.0192 54.3446 49.1349 54.3446 48.1293C54.3446 47.1151 54.5407 46.2287 54.9327 45.4702C55.3248 44.7074 55.8809 44.1151 56.601 43.6932C57.3255 43.267 58.1841 43.054 59.177 43.054C60.1699 43.054 61.0265 43.267 61.7466 43.6932C62.4711 44.1151 63.0293 44.7074 63.4213 45.4702C63.8134 46.2287 64.0094 47.1151 64.0094 48.1293C64.0094 49.1349 63.8134 50.0192 63.4213 50.782C63.0293 51.5405 62.4711 52.1328 61.7466 52.5589C61.0265 52.9808 60.1699 53.1918 59.177 53.1918ZM59.1898 51.0824C59.6415 51.0824 60.0186 50.9545 60.3212 50.6989C60.6238 50.4389 60.8517 50.0852 61.0051 49.6378C61.1628 49.1903 61.2417 48.6811 61.2417 48.1101C61.2417 47.5391 61.1628 47.0298 61.0051 46.5824C60.8517 46.1349 60.6238 45.7812 60.3212 45.5213C60.0186 45.2614 59.6415 45.1314 59.1898 45.1314C58.7338 45.1314 58.3503 45.2614 58.0392 45.5213C57.7324 45.7812 57.5002 46.1349 57.3425 46.5824C57.1891 47.0298 57.1124 47.5391 57.1124 48.1101C57.1124 48.6811 57.1891 49.1903 57.3425 49.6378C57.5002 50.0852 57.7324 50.4389 58.0392 50.6989C58.3503 50.9545 58.7338 51.0824 59.1898 51.0824ZM64.8292 45.3232V43.1818H73.7269V45.3232H70.5629V53H67.9677V45.3232H64.8292ZM82.2108 47.0043V49.1456H77.0843V47.0043H82.2108ZM77.9792 43.1818V53H75.3777V43.1818H77.9792ZM83.9174 43.1818V53H81.3351V43.1818H83.9174ZM90.4661 53.1918C89.4732 53.1918 88.6145 52.9808 87.8901 52.5589C87.1699 52.1328 86.6138 51.5405 86.2218 50.782C85.8297 50.0192 85.6337 49.1349 85.6337 48.1293C85.6337 47.1151 85.8297 46.2287 86.2218 45.4702C86.6138 44.7074 87.1699 44.1151 87.8901 43.6932C88.6145 43.267 89.4732 43.054 90.4661 43.054C91.459 43.054 92.3155 43.267 93.0357 43.6932C93.7601 44.1151 94.3184 44.7074 94.7104 45.4702C95.1025 46.2287 95.2985 47.1151 95.2985 48.1293C95.2985 49.1349 95.1025 50.0192 94.7104 50.782C94.3184 51.5405 93.7601 52.1328 93.0357 52.5589C92.3155 52.9808 91.459 53.1918 90.4661 53.1918ZM90.4789 51.0824C90.9306 51.0824 91.3077 50.9545 91.6103 50.6989C91.9128 50.4389 92.1408 50.0852 92.2942 49.6378C92.4519 49.1903 92.5307 48.6811 92.5307 48.1101C92.5307 47.5391 92.4519 47.0298 92.2942 46.5824C92.1408 46.1349 91.9128 45.7812 91.6103 45.5213C91.3077 45.2614 90.9306 45.1314 90.4789 45.1314C90.0229 45.1314 89.6394 45.2614 89.3283 45.5213C89.0215 45.7812 88.7892 46.1349 88.6316 46.5824C88.4782 47.0298 88.4015 47.5391 88.4015 48.1101C88.4015 48.6811 88.4782 49.1903 88.6316 49.6378C88.7892 50.0852 89.0215 50.4389 89.3283 50.6989C89.6394 50.9545 90.0229 51.0824 90.4789 51.0824ZM97.0691 43.1818H99.6706V50.8395H102.438V43.1818H105.04V50.8395H107.808V43.1818H110.409V53H97.0691V43.1818ZM116.995 53.1918C115.985 53.1918 115.115 52.9872 114.387 52.5781C113.662 52.1648 113.104 51.581 112.712 50.8267C112.32 50.0682 112.124 49.1712 112.124 48.1357C112.124 47.1257 112.32 46.2393 112.712 45.4766C113.104 44.7138 113.656 44.1193 114.368 43.6932C115.083 43.267 115.923 43.054 116.886 43.054C117.534 43.054 118.137 43.1584 118.695 43.3672C119.257 43.5717 119.748 43.8807 120.165 44.294C120.587 44.7074 120.915 45.2273 121.15 45.8537C121.384 46.4759 121.501 47.2045 121.501 48.0398V48.7876H113.211V47.1001H118.938C118.938 46.7081 118.853 46.3608 118.682 46.0582C118.512 45.7557 118.275 45.5192 117.973 45.3487C117.674 45.174 117.327 45.0866 116.931 45.0866C116.517 45.0866 116.151 45.1825 115.831 45.3743C115.516 45.5618 115.269 45.8153 115.09 46.1349C114.911 46.4503 114.819 46.8018 114.815 47.1896V48.794C114.815 49.2798 114.904 49.6996 115.083 50.0533C115.267 50.407 115.525 50.6797 115.857 50.8714C116.189 51.0632 116.583 51.1591 117.039 51.1591C117.342 51.1591 117.619 51.1165 117.87 51.0312C118.122 50.946 118.337 50.8182 118.516 50.6477C118.695 50.4773 118.831 50.2685 118.925 50.0213L121.444 50.1875C121.316 50.7926 121.054 51.321 120.657 51.7727C120.265 52.2202 119.758 52.5696 119.136 52.821C118.518 53.0682 117.804 53.1918 116.995 53.1918ZM130.111 47.0043V49.1456H124.985V47.0043H130.111ZM125.88 43.1818V53H123.278V43.1818H125.88ZM131.818 43.1818V53H129.235V43.1818H131.818ZM136.532 49.4077L140.067 43.1818H142.751V53H140.156V46.755L136.634 53H133.93V43.1818H136.532V49.4077ZM150.687 53V45.3168H148.846C148.348 45.3168 147.968 45.4318 147.708 45.6619C147.449 45.892 147.321 46.1648 147.325 46.4801C147.321 46.7997 147.444 47.0703 147.696 47.2919C147.951 47.5092 148.326 47.6179 148.821 47.6179H151.595V49.4588H148.821C147.981 49.4588 147.255 49.331 146.641 49.0753C146.027 48.8196 145.554 48.4638 145.222 48.0078C144.89 47.5476 144.725 47.0128 144.73 46.4034C144.725 45.7642 144.89 45.2038 145.222 44.7223C145.554 44.2365 146.029 43.8594 146.647 43.5909C147.27 43.3182 148.002 43.1818 148.846 43.1818H153.225V53H150.687ZM144.449 53L147.178 47.8864H149.779L147.056 53H144.449ZM157.616 43.1818L159.419 46.6143L161.266 43.1818H164.059L161.215 48.0909L164.136 53H161.355L159.419 49.6058L157.514 53H154.701L157.616 48.0909L154.804 43.1818H157.616ZM175.646 49.9893L178.306 43.1818H180.377L176.548 53H174.739L170.999 43.1818H173.064L175.646 49.9893ZM172.444 43.1818V53H169.843V43.1818H172.444ZM178.983 53V43.1818H181.553V53H178.983ZM188.133 53.1918C187.123 53.1918 186.254 52.9872 185.525 52.5781C184.801 52.1648 184.243 51.581 183.851 50.8267C183.459 50.0682 183.263 49.1712 183.263 48.1357C183.263 47.1257 183.459 46.2393 183.851 45.4766C184.243 44.7138 184.795 44.1193 185.506 43.6932C186.222 43.267 187.062 43.054 188.025 43.054C188.672 43.054 189.275 43.1584 189.834 43.3672C190.396 43.5717 190.886 43.8807 191.304 44.294C191.726 44.7074 192.054 45.2273 192.288 45.8537C192.523 46.4759 192.64 47.2045 192.64 48.0398V48.7876H184.349V47.1001H190.077C190.077 46.7081 189.991 46.3608 189.821 46.0582C189.65 45.7557 189.414 45.5192 189.111 45.3487C188.813 45.174 188.466 45.0866 188.069 45.0866C187.656 45.0866 187.29 45.1825 186.97 45.3743C186.655 45.5618 186.407 45.8153 186.229 46.1349C186.05 46.4503 185.958 46.8018 185.954 47.1896V48.794C185.954 49.2798 186.043 49.6996 186.222 50.0533C186.405 50.407 186.663 50.6797 186.996 50.8714C187.328 51.0632 187.722 51.1591 188.178 51.1591C188.481 51.1591 188.758 51.1165 189.009 51.0312C189.26 50.946 189.476 50.8182 189.655 50.6477C189.834 50.4773 189.97 50.2685 190.064 50.0213L192.582 50.1875C192.454 50.7926 192.192 51.321 191.796 51.7727C191.404 52.2202 190.897 52.5696 190.275 52.821C189.657 53.0682 188.943 53.1918 188.133 53.1918ZM193.602 53L197.034 47.8928L193.621 43.1818H196.727L199.278 47.0234H199.7V43.1818H202.423V47.0234H202.832L205.382 43.1818H208.489L205.082 47.8928L208.508 53H205.331L202.806 49.1648H202.423V53H199.7V49.1648H199.316L196.779 53H193.602ZM209.277 55.8764V50.8395H210.031C210.248 50.7031 210.423 50.4858 210.555 50.1875C210.691 49.8892 210.802 49.5376 210.887 49.1328C210.977 48.728 211.045 48.2912 211.092 47.8224C211.143 47.3494 211.188 46.8722 211.226 46.3906L211.482 43.1818H219.012V50.8395H220.533V55.8764H217.938V53H211.936V55.8764H209.277ZM212.741 50.8395H216.442V45.2784H213.796L213.694 46.3906C213.621 47.4389 213.517 48.3295 213.38 49.0625C213.244 49.7912 213.031 50.3835 212.741 50.8395ZM223.801 56.6818C223.456 56.6818 223.132 56.6541 222.829 56.5987C222.531 56.5476 222.284 56.4815 222.088 56.4006L222.702 54.3679C223.021 54.4659 223.309 54.5192 223.564 54.5277C223.824 54.5362 224.048 54.4766 224.236 54.3487C224.427 54.2209 224.583 54.0036 224.702 53.6967L224.862 53.2812L221.34 43.1818H224.204L226.236 50.392H226.339L228.39 43.1818H231.273L227.457 54.0611C227.274 54.5895 227.025 55.0497 226.709 55.4418C226.398 55.8381 226.004 56.1428 225.527 56.3558C225.05 56.5732 224.474 56.6818 223.801 56.6818ZM236.257 53L236.245 50.8395H236.571C236.801 50.8395 236.999 50.7841 237.165 50.6733C237.336 50.5582 237.476 50.3729 237.587 50.1172C237.698 49.8615 237.785 49.5227 237.849 49.1009C237.913 48.6747 237.956 48.1506 237.977 47.5284L238.137 43.1818H245.603V53H243.007V45.3232H240.585L240.431 48.321C240.393 49.1435 240.293 49.8509 240.131 50.4432C239.973 51.0355 239.754 51.5213 239.473 51.9006C239.191 52.2756 238.853 52.5526 238.456 52.7315C238.06 52.9105 237.6 53 237.076 53H236.257ZM253.14 47.0618V49.2223H247.816V47.0618H253.14ZM249.919 43.1818V53H247.202V43.1818H249.919ZM256.081 53.1918C255.109 53.1918 254.27 52.9744 253.562 52.5398C252.855 52.1051 252.309 51.5043 251.926 50.7372C251.547 49.9702 251.357 49.0902 251.357 48.0973C251.357 47.1044 251.547 46.2287 251.926 45.4702C252.309 44.7116 252.855 44.1193 253.562 43.6932C254.27 43.267 255.109 43.054 256.081 43.054C257.057 43.054 257.896 43.267 258.599 43.6932C259.307 44.1193 259.85 44.7116 260.229 45.4702C260.613 46.2287 260.805 47.1044 260.805 48.0973C260.805 49.0902 260.613 49.9702 260.229 50.7372C259.85 51.5043 259.307 52.1051 258.599 52.5398C257.896 52.9744 257.057 53.1918 256.081 53.1918ZM256.081 50.9929C256.588 50.9929 256.997 50.8693 257.308 50.6222C257.619 50.3707 257.847 50.0277 257.992 49.593C258.137 49.1541 258.209 48.6555 258.209 48.0973C258.209 47.5391 258.137 47.0447 257.992 46.6143C257.847 46.1797 257.619 45.8388 257.308 45.5916C256.997 45.3445 256.588 45.2209 256.081 45.2209C255.578 45.2209 255.169 45.3445 254.854 45.5916C254.538 45.8345 254.306 46.1712 254.157 46.6016C254.012 47.032 253.939 47.5305 253.939 48.0973C253.939 48.6598 254.012 49.1584 254.157 49.593C254.306 50.0277 254.538 50.3707 254.854 50.6222C255.169 50.8693 255.578 50.9929 256.081 50.9929ZM261.888 55.8764V50.8395H262.642C262.86 50.7031 263.034 50.4858 263.166 50.1875C263.303 49.8892 263.414 49.5376 263.499 49.1328C263.588 48.728 263.656 48.2912 263.703 47.8224C263.754 47.3494 263.799 46.8722 263.838 46.3906L264.093 43.1818H271.623V50.8395H273.144V55.8764H270.549V53H264.547V55.8764H261.888ZM265.352 50.8395H269.053V45.2784H266.407L266.305 46.3906C266.232 47.4389 266.128 48.3295 265.992 49.0625C265.855 49.7912 265.642 50.3835 265.352 50.8395ZM276.438 46.1989H279.372C280.672 46.1989 281.686 46.5099 282.414 47.1321C283.143 47.75 283.507 48.5767 283.507 49.6122C283.507 50.2855 283.343 50.8778 283.015 51.3892C282.687 51.8963 282.214 52.2926 281.596 52.5781C280.978 52.8594 280.237 53 279.372 53H274.731V43.1818H277.333V50.8587H279.372C279.828 50.8587 280.203 50.7436 280.497 50.5135C280.791 50.2834 280.94 49.9893 280.944 49.6314C280.94 49.2521 280.791 48.9432 280.497 48.7045C280.203 48.4616 279.828 48.3402 279.372 48.3402H276.438V46.1989ZM291.117 49.9893L293.776 43.1818H295.847L292.018 53H290.21L286.47 43.1818H288.535L291.117 49.9893ZM287.915 43.1818V53H285.313V43.1818H287.915ZM294.454 53V43.1818H297.023V53H294.454ZM301.731 49.4077L305.266 43.1818H307.951V53H305.355V46.755L301.833 53H299.13V43.1818H301.731V49.4077ZM316.901 49.4077L320.436 43.1818H323.121V53H320.525V46.755L317.003 53H314.3V43.1818H316.901V49.4077ZM333.906 53.1918C332.9 53.1918 332.035 52.9787 331.31 52.5526C330.59 52.1222 330.036 51.5256 329.648 50.7628C329.265 50 329.073 49.1222 329.073 48.1293C329.073 47.1236 329.267 46.2415 329.655 45.483C330.047 44.7202 330.603 44.1257 331.323 43.6996C332.043 43.2692 332.9 43.054 333.893 43.054C334.749 43.054 335.499 43.2095 336.143 43.5206C336.786 43.8317 337.295 44.2685 337.67 44.831C338.045 45.3935 338.252 46.054 338.29 46.8125H335.721C335.648 46.3224 335.457 45.9283 335.146 45.63C334.839 45.3274 334.436 45.1761 333.938 45.1761C333.516 45.1761 333.147 45.2912 332.832 45.5213C332.521 45.7472 332.278 46.0774 332.103 46.5121C331.928 46.9467 331.841 47.473 331.841 48.0909C331.841 48.7173 331.926 49.25 332.097 49.6889C332.271 50.1278 332.516 50.4624 332.832 50.6925C333.147 50.9226 333.516 51.0376 333.938 51.0376C334.249 51.0376 334.528 50.9737 334.775 50.8459C335.026 50.718 335.233 50.5327 335.395 50.2898C335.561 50.0426 335.67 49.7464 335.721 49.4013H338.29C338.248 50.1513 338.043 50.8118 337.677 51.3828C337.315 51.9496 336.814 52.3928 336.175 52.7124C335.536 53.032 334.779 53.1918 333.906 53.1918ZM344.47 53.1918C343.477 53.1918 342.618 52.9808 341.894 52.5589C341.174 52.1328 340.618 51.5405 340.226 50.782C339.834 50.0192 339.638 49.1349 339.638 48.1293C339.638 47.1151 339.834 46.2287 340.226 45.4702C340.618 44.7074 341.174 44.1151 341.894 43.6932C342.618 43.267 343.477 43.054 344.47 43.054C345.463 43.054 346.319 43.267 347.04 43.6932C347.764 44.1151 348.322 44.7074 348.714 45.4702C349.106 46.2287 349.302 47.1151 349.302 48.1293C349.302 49.1349 349.106 50.0192 348.714 50.782C348.322 51.5405 347.764 52.1328 347.04 52.5589C346.319 52.9808 345.463 53.1918 344.47 53.1918ZM344.483 51.0824C344.934 51.0824 345.312 50.9545 345.614 50.6989C345.917 50.4389 346.145 50.0852 346.298 49.6378C346.456 49.1903 346.535 48.6811 346.535 48.1101C346.535 47.5391 346.456 47.0298 346.298 46.5824C346.145 46.1349 345.917 45.7812 345.614 45.5213C345.312 45.2614 344.934 45.1314 344.483 45.1314C344.027 45.1314 343.643 45.2614 343.332 45.5213C343.025 45.7812 342.793 46.1349 342.635 46.5824C342.482 47.0298 342.405 47.5391 342.405 48.1101C342.405 48.6811 342.482 49.1903 342.635 49.6378C342.793 50.0852 343.025 50.4389 343.332 50.6989C343.643 50.9545 344.027 51.0824 344.483 51.0824ZM359.657 43.1818V51.1207H361.224V56.1577H358.577V53H351.073V43.1818H353.675V50.8587H357.088V43.1818H359.657ZM365.505 49.4077L369.039 43.1818H371.724V53H369.129V46.755L365.607 53H362.903V43.1818H365.505V49.4077ZM376.707 53.1854C376.08 53.1854 375.522 53.0767 375.032 52.8594C374.542 52.6378 374.154 52.3118 373.869 51.8814C373.587 51.4467 373.447 50.9055 373.447 50.2578C373.447 49.7124 373.547 49.2543 373.747 48.8835C373.947 48.5128 374.22 48.2145 374.565 47.9886C374.911 47.7628 375.303 47.5923 375.741 47.4773C376.185 47.3622 376.649 47.2812 377.135 47.2344C377.706 47.1747 378.166 47.1193 378.516 47.0682C378.865 47.0128 379.119 46.9318 379.276 46.8253C379.434 46.7187 379.513 46.5611 379.513 46.3523V46.3139C379.513 45.9091 379.385 45.5959 379.129 45.3743C378.878 45.1527 378.52 45.0419 378.055 45.0419C377.565 45.0419 377.175 45.1506 376.886 45.3679C376.596 45.581 376.404 45.8494 376.31 46.1733L373.792 45.9688C373.92 45.3722 374.171 44.8565 374.546 44.4219C374.921 43.983 375.405 43.6463 375.997 43.4119C376.594 43.1733 377.284 43.054 378.068 43.054C378.614 43.054 379.136 43.1179 379.634 43.2457C380.137 43.3736 380.582 43.5717 380.97 43.8402C381.362 44.1087 381.671 44.4538 381.897 44.8757C382.123 45.2933 382.236 45.794 382.236 46.3778V53H379.653V51.6385H379.577C379.419 51.9453 379.208 52.2159 378.944 52.4503C378.68 52.6804 378.362 52.8615 377.991 52.9936C377.621 53.1214 377.192 53.1854 376.707 53.1854ZM377.487 51.3061C377.887 51.3061 378.241 51.2273 378.548 51.0696C378.854 50.9077 379.095 50.6903 379.27 50.4176C379.445 50.1449 379.532 49.8359 379.532 49.4908V48.4489C379.447 48.5043 379.33 48.5554 379.18 48.6023C379.036 48.6449 378.871 48.6854 378.688 48.7237C378.505 48.7578 378.322 48.7898 378.138 48.8196C377.955 48.8452 377.789 48.8686 377.64 48.8899C377.32 48.9368 377.041 49.0114 376.803 49.1136C376.564 49.2159 376.379 49.3544 376.246 49.5291C376.114 49.6996 376.048 49.9126 376.048 50.1683C376.048 50.5391 376.183 50.8224 376.451 51.0185C376.724 51.2102 377.069 51.3061 377.487 51.3061ZM383.773 53L383.76 50.8395H384.086C384.316 50.8395 384.515 50.7841 384.681 50.6733C384.851 50.5582 384.992 50.3729 385.103 50.1172C385.213 49.8615 385.301 49.5227 385.365 49.1009C385.429 48.6747 385.471 48.1506 385.493 47.5284L385.652 43.1818H393.118V53H390.523V45.3232H388.1L387.947 48.321C387.909 49.1435 387.809 49.8509 387.647 50.4432C387.489 51.0355 387.27 51.5213 386.988 51.9006C386.707 52.2756 386.368 52.5526 385.972 52.7315C385.576 52.9105 385.115 53 384.591 53H383.773ZM396.936 46.1989H399.87C401.17 46.1989 402.184 46.5099 402.912 47.1321C403.641 47.75 404.006 48.5767 404.006 49.6122C404.006 50.2855 403.841 50.8778 403.513 51.3892C403.185 51.8963 402.712 52.2926 402.094 52.5781C401.476 52.8594 400.735 53 399.87 53H395.229V43.1818H397.831V50.8587H399.87C400.326 50.8587 400.701 50.7436 400.995 50.5135C401.289 50.2834 401.438 49.9893 401.442 49.6314C401.438 49.2521 401.289 48.9432 400.995 48.7045C400.701 48.4616 400.326 48.3402 399.87 48.3402H396.936V46.1989ZM412.644 47.0043V49.1456H407.518V47.0043H412.644ZM408.413 43.1818V53H405.811V43.1818H408.413ZM414.351 43.1818V53H411.769V43.1818H414.351ZM418.17 46.1989H421.104C422.404 46.1989 423.418 46.5099 424.147 47.1321C424.876 47.75 425.24 48.5767 425.24 49.6122C425.24 50.2855 425.076 50.8778 424.748 51.3892C424.42 51.8963 423.947 52.2926 423.329 52.5781C422.711 52.8594 421.969 53 421.104 53H416.464V43.1818H419.065V50.8587H421.104C421.56 50.8587 421.935 50.7436 422.229 50.5135C422.523 50.2834 422.672 49.9893 422.677 49.6314C422.672 49.2521 422.523 48.9432 422.229 48.7045C421.935 48.4616 421.56 48.3402 421.104 48.3402H418.17V46.1989ZM426.295 53V43.1818H429.018V53H426.295ZM436.998 49.9893L439.657 43.1818H441.728L437.899 53H436.09L432.351 43.1818H434.416L436.998 49.9893ZM433.796 43.1818V53H431.194V43.1818H433.796ZM440.335 53V43.1818H442.904V53H440.335ZM447.612 49.4077L451.147 43.1818H453.831V53H451.236V46.755L447.714 53H445.01V43.1818H447.612V49.4077ZM462.782 49.4077L466.317 43.1818H469.001V53H466.406V46.755L462.884 53H460.18V43.1818H462.782V49.4077ZM475.35 53V43.1818H478.073V46.9915H478.84L481.512 43.1818H484.708L481.237 48.0526L484.747 53H481.512L479.09 49.5163H478.073V53H475.35ZM487.737 56.6818C487.391 56.6818 487.067 56.6541 486.765 56.5987C486.467 56.5476 486.219 56.4815 486.023 56.4006L486.637 54.3679C486.957 54.4659 487.244 54.5192 487.5 54.5277C487.76 54.5362 487.984 54.4766 488.171 54.3487C488.363 54.2209 488.518 54.0036 488.638 53.6967L488.798 53.2812L485.276 43.1818H488.139L490.172 50.392H490.274L492.326 43.1818H495.209L491.393 54.0611C491.21 54.5895 490.96 55.0497 490.645 55.4418C490.334 55.8381 489.94 56.1428 489.462 56.3558C488.985 56.5732 488.41 56.6818 487.737 56.6818ZM495.236 53L495.223 50.8395H495.549C495.779 50.8395 495.977 50.7841 496.144 50.6733C496.314 50.5582 496.455 50.3729 496.566 50.1172C496.676 49.8615 496.764 49.5227 496.828 49.1009C496.892 48.6747 496.934 48.1506 496.955 47.5284L497.115 43.1818H504.581V53H501.986V45.3232H499.563L499.41 48.321C499.372 49.1435 499.271 49.8509 499.11 50.4432C498.952 51.0355 498.732 51.5213 498.451 51.9006C498.17 52.2756 497.831 52.5526 497.435 52.7315C497.039 52.9105 496.578 53 496.054 53H495.236ZM508.399 46.1989H511.333C512.632 46.1989 513.647 46.5099 514.375 47.1321C515.104 47.75 515.468 48.5767 515.468 49.6122C515.468 50.2855 515.304 50.8778 514.976 51.3892C514.648 51.8963 514.175 52.2926 513.557 52.5781C512.939 52.8594 512.198 53 511.333 53H506.692V43.1818H509.294V50.8587H511.333C511.789 50.8587 512.164 50.7436 512.458 50.5135C512.752 50.2834 512.901 49.9893 512.905 49.6314C512.901 49.2521 512.752 48.9432 512.458 48.7045C512.164 48.4616 511.789 48.3402 511.333 48.3402H508.399V46.1989ZM515.743 45.3232V43.1818H524.641V45.3232H521.477V53H518.882V45.3232H515.743ZM527.973 56.6818C527.628 56.6818 527.304 56.6541 527.001 56.5987C526.703 56.5476 526.456 56.4815 526.26 56.4006L526.873 54.3679C527.193 54.4659 527.481 54.5192 527.736 54.5277C527.996 54.5362 528.22 54.4766 528.407 54.3487C528.599 54.2209 528.755 54.0036 528.874 53.6967L529.034 53.2812L525.512 43.1818H528.376L530.408 50.392H530.51L532.562 43.1818H535.445L531.629 54.0611C531.446 54.5895 531.197 55.0497 530.881 55.4418C530.57 55.8381 530.176 56.1428 529.699 56.3558C529.221 56.5732 528.646 56.6818 527.973 56.6818ZM536.839 56.6818V43.1818H539.523V44.831H539.645C539.764 44.5668 539.937 44.2983 540.162 44.0256C540.393 43.7486 540.691 43.5185 541.057 43.3352C541.428 43.1477 541.888 43.054 542.438 43.054C543.154 43.054 543.814 43.2415 544.42 43.6165C545.025 43.9872 545.508 44.5476 545.871 45.2976C546.233 46.0433 546.414 46.9787 546.414 48.1037C546.414 49.1989 546.237 50.1236 545.883 50.8778C545.534 51.6278 545.057 52.1967 544.452 52.5845C543.851 52.968 543.177 53.1598 542.432 53.1598C541.903 53.1598 541.454 53.0724 541.083 52.8977C540.716 52.723 540.416 52.5036 540.182 52.2393C539.947 51.9709 539.768 51.7003 539.645 51.4276H539.562V56.6818H536.839ZM539.504 48.0909C539.504 48.6747 539.585 49.1839 539.747 49.6186C539.909 50.0533 540.143 50.392 540.45 50.6349C540.757 50.8736 541.13 50.9929 541.569 50.9929C542.012 50.9929 542.387 50.8714 542.694 50.6286C543.001 50.3814 543.233 50.0405 543.39 49.6058C543.552 49.1669 543.633 48.6619 543.633 48.0909C543.633 47.5241 543.555 47.0256 543.397 46.5952C543.239 46.1648 543.007 45.8281 542.7 45.5852C542.393 45.3423 542.016 45.2209 541.569 45.2209C541.126 45.2209 540.751 45.3381 540.444 45.5724C540.141 45.8068 539.909 46.1392 539.747 46.5696C539.585 47 539.504 47.5071 539.504 48.0909ZM555.062 47.0043V49.1456H549.936V47.0043H555.062ZM550.831 43.1818V53H548.229V43.1818H550.831ZM556.769 43.1818V53H554.187V43.1818H556.769ZM560.588 46.1989H563.522C564.822 46.1989 565.836 46.5099 566.565 47.1321C567.294 47.75 567.658 48.5767 567.658 49.6122C567.658 50.2855 567.494 50.8778 567.166 51.3892C566.838 51.8963 566.365 52.2926 565.747 52.5781C565.129 52.8594 564.387 53 563.522 53H558.882V43.1818H561.483V50.8587H563.522C563.978 50.8587 564.353 50.7436 564.647 50.5135C564.941 50.2834 565.09 49.9893 565.095 49.6314C565.09 49.2521 564.941 48.9432 564.647 48.7045C564.353 48.4616 563.978 48.3402 563.522 48.3402H560.588V46.1989ZM568.713 53V43.1818H571.436V53H568.713ZM579.416 49.9893L582.075 43.1818H584.146L580.317 53H578.508L574.769 43.1818H576.834L579.416 49.9893ZM576.214 43.1818V53H573.612V43.1818H576.214ZM582.753 53V43.1818H585.322V53H582.753ZM590.03 49.4077L593.565 43.1818H596.249V53H593.654V46.755L590.132 53H587.428V43.1818H590.03V49.4077ZM42.8469 75.1918C41.854 75.1918 40.9954 74.9808 40.271 74.5589C39.5508 74.1328 38.9947 73.5405 38.6026 72.782C38.2106 72.0192 38.0146 71.1349 38.0146 70.1293C38.0146 69.1151 38.2106 68.2287 38.6026 67.4702C38.9947 66.7074 39.5508 66.1151 40.271 65.6932C40.9954 65.267 41.854 65.054 42.8469 65.054C43.8398 65.054 44.6964 65.267 45.4165 65.6932C46.141 66.1151 46.6992 66.7074 47.0913 67.4702C47.4833 68.2287 47.6793 69.1151 47.6793 70.1293C47.6793 71.1349 47.4833 72.0192 47.0913 72.782C46.6992 73.5405 46.141 74.1328 45.4165 74.5589C44.6964 74.9808 43.8398 75.1918 42.8469 75.1918ZM42.8597 73.0824C43.3114 73.0824 43.6886 72.9545 43.9911 72.6989C44.2937 72.4389 44.5217 72.0852 44.6751 71.6378C44.8327 71.1903 44.9116 70.6811 44.9116 70.1101C44.9116 69.5391 44.8327 69.0298 44.6751 68.5824C44.5217 68.1349 44.2937 67.7812 43.9911 67.5213C43.6886 67.2614 43.3114 67.1314 42.8597 67.1314C42.4038 67.1314 42.0202 67.2614 41.7092 67.5213C41.4023 67.7812 41.1701 68.1349 41.0124 68.5824C40.859 69.0298 40.7823 69.5391 40.7823 70.1101C40.7823 70.6811 40.859 71.1903 41.0124 71.6378C41.1701 72.0852 41.4023 72.4389 41.7092 72.6989C42.0202 72.9545 42.4038 73.0824 42.8597 73.0824ZM48.4991 67.3232V65.1818H57.3968V67.3232H54.2328V75H51.6376V67.3232H48.4991ZM65.8807 69.0043V71.1456H60.7543V69.0043H65.8807ZM61.6491 65.1818V75H59.0476V65.1818H61.6491ZM67.5874 65.1818V75H65.005V65.1818H67.5874ZM74.136 75.1918C73.1431 75.1918 72.2844 74.9808 71.56 74.5589C70.8398 74.1328 70.2837 73.5405 69.8917 72.782C69.4996 72.0192 69.3036 71.1349 69.3036 70.1293C69.3036 69.1151 69.4996 68.2287 69.8917 67.4702C70.2837 66.7074 70.8398 66.1151 71.56 65.6932C72.2844 65.267 73.1431 65.054 74.136 65.054C75.1289 65.054 75.9854 65.267 76.7056 65.6932C77.43 66.1151 77.9883 66.7074 78.3803 67.4702C78.7724 68.2287 78.9684 69.1151 78.9684 70.1293C78.9684 71.1349 78.7724 72.0192 78.3803 72.782C77.9883 73.5405 77.43 74.1328 76.7056 74.5589C75.9854 74.9808 75.1289 75.1918 74.136 75.1918ZM74.1488 73.0824C74.6005 73.0824 74.9776 72.9545 75.2802 72.6989C75.5827 72.4389 75.8107 72.0852 75.9641 71.6378C76.1218 71.1903 76.2006 70.6811 76.2006 70.1101C76.2006 69.5391 76.1218 69.0298 75.9641 68.5824C75.8107 68.1349 75.5827 67.7812 75.2802 67.5213C74.9776 67.2614 74.6005 67.1314 74.1488 67.1314C73.6928 67.1314 73.3093 67.2614 72.9982 67.5213C72.6914 67.7812 72.4592 68.1349 72.3015 68.5824C72.1481 69.0298 72.0714 69.5391 72.0714 70.1101C72.0714 70.6811 72.1481 71.1903 72.3015 71.6378C72.4592 72.0852 72.6914 72.4389 72.9982 72.6989C73.3093 72.9545 73.6928 73.0824 74.1488 73.0824ZM80.739 65.1818H83.3406V72.8395H86.1083V65.1818H88.7099V72.8395H91.4776V65.1818H94.0792V75H80.739V65.1818ZM100.665 75.1918C99.6547 75.1918 98.7853 74.9872 98.0566 74.5781C97.3322 74.1648 96.774 73.581 96.3819 72.8267C95.9899 72.0682 95.7939 71.1712 95.7939 70.1357C95.7939 69.1257 95.9899 68.2393 96.3819 67.4766C96.774 66.7138 97.3258 66.1193 98.0375 65.6932C98.7534 65.267 99.5929 65.054 100.556 65.054C101.204 65.054 101.807 65.1584 102.365 65.3672C102.927 65.5717 103.417 65.8807 103.835 66.294C104.257 66.7074 104.585 67.2273 104.819 67.8537C105.054 68.4759 105.171 69.2045 105.171 70.0398V70.7876H96.8805V69.1001H102.608C102.608 68.7081 102.523 68.3608 102.352 68.0582C102.182 67.7557 101.945 67.5192 101.643 67.3487C101.344 67.174 100.997 67.0866 100.601 67.0866C100.187 67.0866 99.8208 67.1825 99.5012 67.3743C99.1859 67.5618 98.9387 67.8153 98.7598 68.1349C98.5808 68.4503 98.4892 68.8018 98.4849 69.1896V70.794C98.4849 71.2798 98.5744 71.6996 98.7534 72.0533C98.9366 72.407 99.1944 72.6797 99.5268 72.8714C99.8592 73.0632 100.253 73.1591 100.709 73.1591C101.012 73.1591 101.289 73.1165 101.54 73.0312C101.792 72.946 102.007 72.8182 102.186 72.6477C102.365 72.4773 102.501 72.2685 102.595 72.0213L105.113 72.1875C104.986 72.7926 104.724 73.321 104.327 73.7727C103.935 74.2202 103.428 74.5696 102.806 74.821C102.188 75.0682 101.474 75.1918 100.665 75.1918ZM113.781 69.0043V71.1456H108.655V69.0043H113.781ZM109.55 65.1818V75H106.948V65.1818H109.55ZM115.488 65.1818V75H112.905V65.1818H115.488ZM120.202 71.4077L123.737 65.1818H126.421V75H123.826V68.755L120.304 75H117.6V65.1818H120.202V71.4077ZM134.357 75V67.3168H132.516C132.018 67.3168 131.638 67.4318 131.378 67.6619C131.118 67.892 130.991 68.1648 130.995 68.4801C130.991 68.7997 131.114 69.0703 131.366 69.2919C131.621 69.5092 131.996 69.6179 132.491 69.6179H135.265V71.4588H132.491C131.651 71.4588 130.925 71.331 130.311 71.0753C129.697 70.8196 129.224 70.4638 128.892 70.0078C128.559 69.5476 128.395 69.0128 128.4 68.4034C128.395 67.7642 128.559 67.2038 128.892 66.7223C129.224 66.2365 129.699 65.8594 130.317 65.5909C130.939 65.3182 131.672 65.1818 132.516 65.1818H136.895V75H134.357ZM128.118 75L130.848 69.8864H133.449L130.726 75H128.118ZM144.814 71.9893L147.474 65.1818H149.545L145.716 75H143.907L140.167 65.1818H142.232L144.814 71.9893ZM141.612 65.1818V75H139.01V65.1818H141.612ZM148.151 75V65.1818H150.721V75H148.151ZM155.428 71.4077L158.963 65.1818H161.648V75H159.053V68.755L155.531 75H152.827V65.1818H155.428V71.4077ZM170.598 71.4077L174.133 65.1818H176.818V75H174.223V68.755L170.701 75H167.997V65.1818H170.598V71.4077ZM187.603 75.1918C186.61 75.1918 185.751 74.9808 185.027 74.5589C184.307 74.1328 183.751 73.5405 183.358 72.782C182.966 72.0192 182.77 71.1349 182.77 70.1293C182.77 69.1151 182.966 68.2287 183.358 67.4702C183.751 66.7074 184.307 66.1151 185.027 65.6932C185.751 65.267 186.61 65.054 187.603 65.054C188.596 65.054 189.452 65.267 190.172 65.6932C190.897 66.1151 191.455 66.7074 191.847 67.4702C192.239 68.2287 192.435 69.1151 192.435 70.1293C192.435 71.1349 192.239 72.0192 191.847 72.782C191.455 73.5405 190.897 74.1328 190.172 74.5589C189.452 74.9808 188.596 75.1918 187.603 75.1918ZM187.616 73.0824C188.067 73.0824 188.444 72.9545 188.747 72.6989C189.05 72.4389 189.278 72.0852 189.431 71.6378C189.589 71.1903 189.667 70.6811 189.667 70.1101C189.667 69.5391 189.589 69.0298 189.431 68.5824C189.278 68.1349 189.05 67.7812 188.747 67.5213C188.444 67.2614 188.067 67.1314 187.616 67.1314C187.16 67.1314 186.776 67.2614 186.465 67.5213C186.158 67.7812 185.926 68.1349 185.768 68.5824C185.615 69.0298 185.538 69.5391 185.538 70.1101C185.538 70.6811 185.615 71.1903 185.768 71.6378C185.926 72.0852 186.158 72.4389 186.465 72.6989C186.776 72.9545 187.16 73.0824 187.616 73.0824ZM194.206 75V65.1818H202.79V75H200.189V67.3232H196.775V75H194.206ZM204.964 78.6818V65.1818H207.648V66.831H207.77C207.889 66.5668 208.062 66.2983 208.287 66.0256C208.518 65.7486 208.816 65.5185 209.182 65.3352C209.553 65.1477 210.013 65.054 210.563 65.054C211.279 65.054 211.939 65.2415 212.545 65.6165C213.15 65.9872 213.633 66.5476 213.996 67.2976C214.358 68.0433 214.539 68.9787 214.539 70.1037C214.539 71.1989 214.362 72.1236 214.008 72.8778C213.659 73.6278 213.182 74.1967 212.577 74.5845C211.976 74.968 211.302 75.1598 210.557 75.1598C210.028 75.1598 209.579 75.0724 209.208 74.8977C208.841 74.723 208.541 74.5036 208.307 74.2393C208.072 73.9709 207.893 73.7003 207.77 73.4276H207.687V78.6818H204.964ZM207.629 70.0909C207.629 70.6747 207.71 71.1839 207.872 71.6186C208.034 72.0533 208.268 72.392 208.575 72.6349C208.882 72.8736 209.255 72.9929 209.694 72.9929C210.137 72.9929 210.512 72.8714 210.819 72.6286C211.126 72.3814 211.358 72.0405 211.515 71.6058C211.677 71.1669 211.758 70.6619 211.758 70.0909C211.758 69.5241 211.68 69.0256 211.522 68.5952C211.364 68.1648 211.132 67.8281 210.825 67.5852C210.518 67.3423 210.141 67.2209 209.694 67.2209C209.251 67.2209 208.876 67.3381 208.569 67.5724C208.266 67.8068 208.034 68.1392 207.872 68.5696C207.71 69 207.629 69.5071 207.629 70.0909ZM220.829 75.1918C219.819 75.1918 218.949 74.9872 218.221 74.5781C217.496 74.1648 216.938 73.581 216.546 72.8267C216.154 72.0682 215.958 71.1712 215.958 70.1357C215.958 69.1257 216.154 68.2393 216.546 67.4766C216.938 66.7138 217.49 66.1193 218.202 65.6932C218.917 65.267 219.757 65.054 220.72 65.054C221.368 65.054 221.971 65.1584 222.529 65.3672C223.091 65.5717 223.581 65.8807 223.999 66.294C224.421 66.7074 224.749 67.2273 224.983 67.8537C225.218 68.4759 225.335 69.2045 225.335 70.0398V70.7876H217.045V69.1001H222.772C222.772 68.7081 222.687 68.3608 222.516 68.0582C222.346 67.7557 222.109 67.5192 221.807 67.3487C221.508 67.174 221.161 67.0866 220.765 67.0866C220.351 67.0866 219.985 67.1825 219.665 67.3743C219.35 67.5618 219.103 67.8153 218.924 68.1349C218.745 68.4503 218.653 68.8018 218.649 69.1896V70.794C218.649 71.2798 218.738 71.6996 218.917 72.0533C219.101 72.407 219.358 72.6797 219.691 72.8714C220.023 73.0632 220.417 73.1591 220.873 73.1591C221.176 73.1591 221.453 73.1165 221.704 73.0312C221.956 72.946 222.171 72.8182 222.35 72.6477C222.529 72.4773 222.665 72.2685 222.759 72.0213L225.278 72.1875C225.15 72.7926 224.888 73.321 224.491 73.7727C224.099 74.2202 223.592 74.5696 222.97 74.821C222.352 75.0682 221.638 75.1918 220.829 75.1918ZM226.345 77.8764V72.8395H227.099C227.317 72.7031 227.491 72.4858 227.623 72.1875C227.76 71.8892 227.871 71.5376 227.956 71.1328C228.045 70.728 228.113 70.2912 228.16 69.8224C228.211 69.3494 228.256 68.8722 228.295 68.3906L228.55 65.1818H236.08V72.8395H237.601V77.8764H235.006V75H229.004V77.8764H226.345ZM229.809 72.8395H233.51V67.2784H230.864L230.762 68.3906C230.689 69.4389 230.585 70.3295 230.449 71.0625C230.312 71.7912 230.099 72.3835 229.809 72.8395ZM243.663 75.1918C242.653 75.1918 241.783 74.9872 241.055 74.5781C240.33 74.1648 239.772 73.581 239.38 72.8267C238.988 72.0682 238.792 71.1712 238.792 70.1357C238.792 69.1257 238.988 68.2393 239.38 67.4766C239.772 66.7138 240.324 66.1193 241.036 65.6932C241.751 65.267 242.591 65.054 243.554 65.054C244.202 65.054 244.805 65.1584 245.363 65.3672C245.925 65.5717 246.415 65.8807 246.833 66.294C247.255 66.7074 247.583 67.2273 247.817 67.8537C248.052 68.4759 248.169 69.2045 248.169 70.0398V70.7876H239.879V69.1001H245.606C245.606 68.7081 245.521 68.3608 245.35 68.0582C245.18 67.7557 244.943 67.5192 244.641 67.3487C244.342 67.174 243.995 67.0866 243.599 67.0866C243.185 67.0866 242.819 67.1825 242.499 67.3743C242.184 67.5618 241.937 67.8153 241.758 68.1349C241.579 68.4503 241.487 68.8018 241.483 69.1896V70.794C241.483 71.2798 241.572 71.6996 241.751 72.0533C241.935 72.407 242.192 72.6797 242.525 72.8714C242.857 73.0632 243.251 73.1591 243.707 73.1591C244.01 73.1591 244.287 73.1165 244.538 73.0312C244.79 72.946 245.005 72.8182 245.184 72.6477C245.363 72.4773 245.499 72.2685 245.593 72.0213L248.112 72.1875C247.984 72.7926 247.722 73.321 247.325 73.7727C246.933 74.2202 246.426 74.5696 245.804 74.821C245.186 75.0682 244.472 75.1918 243.663 75.1918ZM249.371 75L249.358 72.8395H249.684C249.914 72.8395 250.112 72.7841 250.278 72.6733C250.449 72.5582 250.589 72.3729 250.7 72.1172C250.811 71.8615 250.898 71.5227 250.962 71.1009C251.026 70.6747 251.069 70.1506 251.09 69.5284L251.25 65.1818H258.716V75H256.121V67.3232H253.698L253.545 70.321C253.506 71.1435 253.406 71.8509 253.244 72.4432C253.087 73.0355 252.867 73.5213 252.586 73.9006C252.305 74.2756 251.966 74.5526 251.57 74.7315C251.173 74.9105 250.713 75 250.189 75H249.371ZM266.58 75V67.3168H264.739C264.24 67.3168 263.861 67.4318 263.601 67.6619C263.341 67.892 263.213 68.1648 263.218 68.4801C263.213 68.7997 263.337 69.0703 263.588 69.2919C263.844 69.5092 264.219 69.6179 264.713 69.6179H267.487V71.4588H264.713C263.874 71.4588 263.147 71.331 262.534 71.0753C261.92 70.8196 261.447 70.4638 261.115 70.0078C260.782 69.5476 260.618 69.0128 260.622 68.4034C260.618 67.7642 260.782 67.2038 261.115 66.7223C261.447 66.2365 261.922 65.8594 262.54 65.5909C263.162 65.3182 263.895 65.1818 264.739 65.1818H269.117V75H266.58ZM260.341 75L263.07 69.8864H265.672L262.949 75H260.341ZM275.708 75.1918C274.698 75.1918 273.828 74.9872 273.1 74.5781C272.375 74.1648 271.817 73.581 271.425 72.8267C271.033 72.0682 270.837 71.1712 270.837 70.1357C270.837 69.1257 271.033 68.2393 271.425 67.4766C271.817 66.7138 272.369 66.1193 273.08 65.6932C273.796 65.267 274.636 65.054 275.599 65.054C276.247 65.054 276.85 65.1584 277.408 65.3672C277.97 65.5717 278.46 65.8807 278.878 66.294C279.3 66.7074 279.628 67.2273 279.862 67.8537C280.097 68.4759 280.214 69.2045 280.214 70.0398V70.7876H271.923V69.1001H277.651C277.651 68.7081 277.566 68.3608 277.395 68.0582C277.225 67.7557 276.988 67.5192 276.686 67.3487C276.387 67.174 276.04 67.0866 275.644 67.0866C275.23 67.0866 274.864 67.1825 274.544 67.3743C274.229 67.5618 273.982 67.8153 273.803 68.1349C273.624 68.4503 273.532 68.8018 273.528 69.1896V70.794C273.528 71.2798 273.617 71.6996 273.796 72.0533C273.98 72.407 274.237 72.6797 274.57 72.8714C274.902 73.0632 275.296 73.1591 275.752 73.1591C276.055 73.1591 276.332 73.1165 276.583 73.0312C276.835 72.946 277.05 72.8182 277.229 72.6477C277.408 72.4773 277.544 72.2685 277.638 72.0213L280.156 72.1875C280.029 72.7926 279.767 73.321 279.37 73.7727C278.978 74.2202 278.471 74.5696 277.849 74.821C277.231 75.0682 276.517 75.1918 275.708 75.1918ZM281.233 67.3232V65.1818H290.131V67.3232H286.967V75H284.372V67.3232H281.233ZM295.866 75.1918C294.861 75.1918 293.996 74.9787 293.271 74.5526C292.551 74.1222 291.997 73.5256 291.609 72.7628C291.226 72 291.034 71.1222 291.034 70.1293C291.034 69.1236 291.228 68.2415 291.616 67.483C292.008 66.7202 292.564 66.1257 293.284 65.6996C294.004 65.2692 294.861 65.054 295.854 65.054C296.71 65.054 297.46 65.2095 298.104 65.5206C298.747 65.8317 299.256 66.2685 299.631 66.831C300.006 67.3935 300.213 68.054 300.251 68.8125H297.682C297.609 68.3224 297.418 67.9283 297.107 67.63C296.8 67.3274 296.397 67.1761 295.898 67.1761C295.477 67.1761 295.108 67.2912 294.793 67.5213C294.482 67.7472 294.239 68.0774 294.064 68.5121C293.889 68.9467 293.802 69.473 293.802 70.0909C293.802 70.7173 293.887 71.25 294.058 71.6889C294.232 72.1278 294.477 72.4624 294.793 72.6925C295.108 72.9226 295.477 73.0376 295.898 73.0376C296.21 73.0376 296.489 72.9737 296.736 72.8459C296.987 72.718 297.194 72.5327 297.356 72.2898C297.522 72.0426 297.631 71.7464 297.682 71.4013H300.251C300.209 72.1513 300.004 72.8118 299.638 73.3828C299.276 73.9496 298.775 74.3928 298.136 74.7124C297.496 75.032 296.74 75.1918 295.866 75.1918ZM307.748 75V67.3168H305.907C305.408 67.3168 305.029 67.4318 304.769 67.6619C304.509 67.892 304.381 68.1648 304.385 68.4801C304.381 68.7997 304.505 69.0703 304.756 69.2919C305.012 69.5092 305.387 69.6179 305.881 69.6179H308.655V71.4588H305.881C305.042 71.4588 304.315 71.331 303.702 71.0753C303.088 70.8196 302.615 70.4638 302.282 70.0078C301.95 69.5476 301.786 69.0128 301.79 68.4034C301.786 67.7642 301.95 67.2038 302.282 66.7223C302.615 66.2365 303.09 65.8594 303.708 65.5909C304.33 65.3182 305.063 65.1818 305.907 65.1818H310.285V75H307.748ZM301.509 75L304.238 69.8864H306.84L304.117 75H301.509ZM316.567 75V65.1818H319.29V68.9915H320.057L322.729 65.1818H325.925L322.454 70.0526L325.963 75H322.729L320.306 71.5163H319.29V75H316.567ZM328.953 78.6818C328.608 78.6818 328.284 78.6541 327.982 78.5987C327.683 78.5476 327.436 78.4815 327.24 78.4006L327.854 76.3679C328.173 76.4659 328.461 76.5192 328.717 76.5277C328.977 76.5362 329.2 76.4766 329.388 76.3487C329.58 76.2209 329.735 76.0036 329.855 75.6967L330.014 75.2812L326.492 65.1818H329.356L331.389 72.392H331.491L333.543 65.1818H336.426L332.61 76.0611C332.426 76.5895 332.177 77.0497 331.862 77.4418C331.551 77.8381 331.156 78.1428 330.679 78.3558C330.202 78.5732 329.627 78.6818 328.953 78.6818ZM336.453 75L336.44 72.8395H336.766C336.996 72.8395 337.194 72.7841 337.36 72.6733C337.531 72.5582 337.672 72.3729 337.782 72.1172C337.893 71.8615 337.98 71.5227 338.044 71.1009C338.108 70.6747 338.151 70.1506 338.172 69.5284L338.332 65.1818H345.798V75H343.203V67.3232H340.78L340.627 70.321C340.588 71.1435 340.488 71.8509 340.326 72.4432C340.169 73.0355 339.949 73.5213 339.668 73.9006C339.387 74.2756 339.048 74.5526 338.652 74.7315C338.255 74.9105 337.795 75 337.271 75H336.453ZM349.616 68.1989H352.55C353.849 68.1989 354.863 68.5099 355.592 69.1321C356.321 69.75 356.685 70.5767 356.685 71.6122C356.685 72.2855 356.521 72.8778 356.193 73.3892C355.865 73.8963 355.392 74.2926 354.774 74.5781C354.156 74.8594 353.415 75 352.55 75H347.909V65.1818H350.51V72.8587H352.55C353.006 72.8587 353.381 72.7436 353.675 72.5135C353.969 72.2834 354.118 71.9893 354.122 71.6314C354.118 71.2521 353.969 70.9432 353.675 70.7045C353.381 70.4616 353.006 70.3402 352.55 70.3402H349.616V68.1989ZM356.96 67.3232V65.1818H365.858V67.3232H362.694V75H360.099V67.3232H356.96ZM369.19 78.6818C368.844 78.6818 368.521 78.6541 368.218 78.5987C367.92 78.5476 367.673 78.4815 367.477 78.4006L368.09 76.3679C368.41 76.4659 368.697 76.5192 368.953 76.5277C369.213 76.5362 369.437 76.4766 369.624 76.3487C369.816 76.2209 369.972 76.0036 370.091 75.6967L370.251 75.2812L366.729 65.1818H369.592L371.625 72.392H371.727L373.779 65.1818H376.662L372.846 76.0611C372.663 76.5895 372.413 77.0497 372.098 77.4418C371.787 77.8381 371.393 78.1428 370.915 78.3558C370.438 78.5732 369.863 78.6818 369.19 78.6818ZM378.055 78.6818V65.1818H380.74V66.831H380.862C380.981 66.5668 381.153 66.2983 381.379 66.0256C381.609 65.7486 381.908 65.5185 382.274 65.3352C382.645 65.1477 383.105 65.054 383.655 65.054C384.371 65.054 385.031 65.2415 385.636 65.6165C386.241 65.9872 386.725 66.5476 387.087 67.2976C387.45 68.0433 387.631 68.9787 387.631 70.1037C387.631 71.1989 387.454 72.1236 387.1 72.8778C386.751 73.6278 386.273 74.1967 385.668 74.5845C385.067 74.968 384.394 75.1598 383.648 75.1598C383.12 75.1598 382.67 75.0724 382.3 74.8977C381.933 74.723 381.633 74.5036 381.398 74.2393C381.164 73.9709 380.985 73.7003 380.862 73.4276H380.778V78.6818H378.055ZM380.721 70.0909C380.721 70.6747 380.802 71.1839 380.964 71.6186C381.126 72.0533 381.36 72.392 381.667 72.6349C381.974 72.8736 382.347 72.9929 382.786 72.9929C383.229 72.9929 383.604 72.8714 383.911 72.6286C384.217 72.3814 384.45 72.0405 384.607 71.6058C384.769 71.1669 384.85 70.6619 384.85 70.0909C384.85 69.5241 384.771 69.0256 384.614 68.5952C384.456 68.1648 384.224 67.8281 383.917 67.5852C383.61 67.3423 383.233 67.2209 382.786 67.2209C382.342 67.2209 381.967 67.3381 381.661 67.5724C381.358 67.8068 381.126 68.1392 380.964 68.5696C380.802 69 380.721 69.5071 380.721 70.0909ZM393.882 75.1918C392.889 75.1918 392.031 74.9808 391.306 74.5589C390.586 74.1328 390.03 73.5405 389.638 72.782C389.246 72.0192 389.05 71.1349 389.05 70.1293C389.05 69.1151 389.246 68.2287 389.638 67.4702C390.03 66.7074 390.586 66.1151 391.306 65.6932C392.031 65.267 392.889 65.054 393.882 65.054C394.875 65.054 395.732 65.267 396.452 65.6932C397.176 66.1151 397.734 66.7074 398.126 67.4702C398.518 68.2287 398.714 69.1151 398.714 70.1293C398.714 71.1349 398.518 72.0192 398.126 72.782C397.734 73.5405 397.176 74.1328 396.452 74.5589C395.732 74.9808 394.875 75.1918 393.882 75.1918ZM393.895 73.0824C394.347 73.0824 394.724 72.9545 395.026 72.6989C395.329 72.4389 395.557 72.0852 395.71 71.6378C395.868 71.1903 395.947 70.6811 395.947 70.1101C395.947 69.5391 395.868 69.0298 395.71 68.5824C395.557 68.1349 395.329 67.7812 395.026 67.5213C394.724 67.2614 394.347 67.1314 393.895 67.1314C393.439 67.1314 393.055 67.2614 392.744 67.5213C392.438 67.7812 392.205 68.1349 392.048 68.5824C391.894 69.0298 391.817 69.5391 391.817 70.1101C391.817 70.6811 391.894 71.1903 392.048 71.6378C392.205 72.0852 392.438 72.4389 392.744 72.6989C393.055 72.9545 393.439 73.0824 393.895 73.0824ZM403.087 71.4077L406.621 65.1818H409.306V75H406.711V68.755L403.189 75H400.485V65.1818H403.087V71.4077ZM406.155 61.7557H408.053C408.049 62.5312 407.761 63.1555 407.19 63.6286C406.624 64.1016 405.857 64.3381 404.889 64.3381C403.918 64.3381 403.148 64.1016 402.582 63.6286C402.015 63.1555 401.732 62.5312 401.732 61.7557H403.617C403.613 62.0497 403.707 62.3139 403.898 62.5483C404.094 62.7827 404.425 62.8999 404.889 62.8999C405.341 62.8999 405.665 62.7848 405.861 62.5547C406.057 62.3246 406.155 62.0582 406.155 61.7557ZM424.176 65.1818V75H421.593V65.1818H424.176ZM422.916 69.4901V71.6378C422.708 71.7315 422.448 71.821 422.137 71.9062C421.825 71.9872 421.499 72.0533 421.159 72.1044C420.818 72.1555 420.498 72.1811 420.2 72.1811C418.789 72.1811 417.679 71.8913 416.869 71.3118C416.06 70.728 415.655 69.7969 415.655 68.5185V65.169H418.225V68.5185C418.225 68.8977 418.289 69.1982 418.416 69.4197C418.548 69.6413 418.757 69.8011 419.043 69.8991C419.333 69.9929 419.718 70.0398 420.2 70.0398C420.647 70.0398 421.086 69.9929 421.517 69.8991C421.947 69.8054 422.414 69.669 422.916 69.4901ZM430.764 75.1918C429.754 75.1918 428.885 74.9872 428.156 74.5781C427.432 74.1648 426.874 73.581 426.482 72.8267C426.089 72.0682 425.893 71.1712 425.893 70.1357C425.893 69.1257 426.089 68.2393 426.482 67.4766C426.874 66.7138 427.425 66.1193 428.137 65.6932C428.853 65.267 429.692 65.054 430.656 65.054C431.303 65.054 431.906 65.1584 432.464 65.3672C433.027 65.5717 433.517 65.8807 433.935 66.294C434.357 66.7074 434.685 67.2273 434.919 67.8537C435.153 68.4759 435.271 69.2045 435.271 70.0398V70.7876H426.98V69.1001H432.707C432.707 68.7081 432.622 68.3608 432.452 68.0582C432.281 67.7557 432.045 67.5192 431.742 67.3487C431.444 67.174 431.097 67.0866 430.7 67.0866C430.287 67.0866 429.92 67.1825 429.601 67.3743C429.286 67.5618 429.038 67.8153 428.859 68.1349C428.68 68.4503 428.589 68.8018 428.585 69.1896V70.794C428.585 71.2798 428.674 71.6996 428.853 72.0533C429.036 72.407 429.294 72.6797 429.626 72.8714C429.959 73.0632 430.353 73.1591 430.809 73.1591C431.112 73.1591 431.388 73.1165 431.64 73.0312C431.891 72.946 432.107 72.8182 432.286 72.6477C432.464 72.4773 432.601 72.2685 432.695 72.0213L435.213 72.1875C435.085 72.7926 434.823 73.321 434.427 73.7727C434.035 74.2202 433.528 74.5696 432.906 74.821C432.288 75.0682 431.574 75.1918 430.764 75.1918ZM436.472 75L436.46 72.8395H436.786C437.016 72.8395 437.214 72.7841 437.38 72.6733C437.55 72.5582 437.691 72.3729 437.802 72.1172C437.913 71.8615 438 71.5227 438.064 71.1009C438.128 70.6747 438.17 70.1506 438.192 69.5284L438.352 65.1818H445.817V75H443.222V67.3232H440.8L440.646 70.321C440.608 71.1435 440.508 71.8509 440.346 72.4432C440.188 73.0355 439.969 73.5213 439.688 73.9006C439.406 74.2756 439.067 74.5526 438.671 74.7315C438.275 74.9105 437.815 75 437.29 75H436.472ZM452.365 75.1918C451.372 75.1918 450.513 74.9808 449.789 74.5589C449.068 74.1328 448.512 73.5405 448.12 72.782C447.728 72.0192 447.532 71.1349 447.532 70.1293C447.532 69.1151 447.728 68.2287 448.12 67.4702C448.512 66.7074 449.068 66.1151 449.789 65.6932C450.513 65.267 451.372 65.054 452.365 65.054C453.357 65.054 454.214 65.267 454.934 65.6932C455.659 66.1151 456.217 66.7074 456.609 67.4702C457.001 68.2287 457.197 69.1151 457.197 70.1293C457.197 71.1349 457.001 72.0192 456.609 72.782C456.217 73.5405 455.659 74.1328 454.934 74.5589C454.214 74.9808 453.357 75.1918 452.365 75.1918ZM452.377 73.0824C452.829 73.0824 453.206 72.9545 453.509 72.6989C453.811 72.4389 454.039 72.0852 454.193 71.6378C454.35 71.1903 454.429 70.6811 454.429 70.1101C454.429 69.5391 454.35 69.0298 454.193 68.5824C454.039 68.1349 453.811 67.7812 453.509 67.5213C453.206 67.2614 452.829 67.1314 452.377 67.1314C451.921 67.1314 451.538 67.2614 451.227 67.5213C450.92 67.7812 450.688 68.1349 450.53 68.5824C450.377 69.0298 450.3 69.5391 450.3 70.1101C450.3 70.6811 450.377 71.1903 450.53 71.6378C450.688 72.0852 450.92 72.4389 451.227 72.6989C451.538 72.9545 451.921 73.0824 452.377 73.0824ZM458.968 75V65.1818H463.154C464.365 65.1818 465.321 65.4119 466.024 65.8722C466.727 66.3324 467.079 66.9865 467.079 67.8345C467.079 68.3672 466.881 68.8104 466.485 69.1641C466.088 69.5178 465.539 69.7564 464.835 69.88C465.423 69.9226 465.924 70.0568 466.338 70.2827C466.755 70.5043 467.073 70.7919 467.29 71.1456C467.512 71.4993 467.622 71.8913 467.622 72.3217C467.622 72.88 467.473 73.3594 467.175 73.7599C466.881 74.1605 466.448 74.4673 465.877 74.6804C465.311 74.8935 464.618 75 463.8 75H458.968ZM461.505 72.9609H463.8C464.179 72.9609 464.475 72.8714 464.688 72.6925C464.906 72.5092 465.014 72.2599 465.014 71.9446C465.014 71.5952 464.906 71.3203 464.688 71.12C464.475 70.9197 464.179 70.8196 463.8 70.8196H461.505V72.9609ZM461.505 69.2216H463.212C463.485 69.2216 463.717 69.1832 463.909 69.1065C464.105 69.0256 464.254 68.9105 464.356 68.7614C464.463 68.6122 464.516 68.4354 464.516 68.2308C464.516 67.9283 464.394 67.6918 464.151 67.5213C463.909 67.3509 463.576 67.2656 463.154 67.2656H461.505V69.2216ZM473.813 75.1918C472.803 75.1918 471.934 74.9872 471.205 74.5781C470.481 74.1648 469.922 73.581 469.53 72.8267C469.138 72.0682 468.942 71.1712 468.942 70.1357C468.942 69.1257 469.138 68.2393 469.53 67.4766C469.922 66.7138 470.474 66.1193 471.186 65.6932C471.902 65.267 472.741 65.054 473.704 65.054C474.352 65.054 474.955 65.1584 475.513 65.3672C476.076 65.5717 476.566 65.8807 476.983 66.294C477.405 66.7074 477.733 67.2273 477.968 67.8537C478.202 68.4759 478.319 69.2045 478.319 70.0398V70.7876H470.029V69.1001H475.756C475.756 68.7081 475.671 68.3608 475.501 68.0582C475.33 67.7557 475.094 67.5192 474.791 67.3487C474.493 67.174 474.145 67.0866 473.749 67.0866C473.336 67.0866 472.969 67.1825 472.65 67.3743C472.334 67.5618 472.087 67.8153 471.908 68.1349C471.729 68.4503 471.638 68.8018 471.633 69.1896V70.794C471.633 71.2798 471.723 71.6996 471.902 72.0533C472.085 72.407 472.343 72.6797 472.675 72.8714C473.008 73.0632 473.402 73.1591 473.858 73.1591C474.16 73.1591 474.437 73.1165 474.689 73.0312C474.94 72.946 475.155 72.8182 475.334 72.6477C475.513 72.4773 475.65 72.2685 475.743 72.0213L478.262 72.1875C478.134 72.7926 477.872 73.321 477.476 73.7727C477.084 74.2202 476.577 74.5696 475.954 74.821C475.336 75.0682 474.623 75.1918 473.813 75.1918ZM488.617 65.1818V75H486.035V65.1818H488.617ZM487.358 69.4901V71.6378C487.149 71.7315 486.889 71.821 486.578 71.9062C486.267 71.9872 485.941 72.0533 485.6 72.1044C485.259 72.1555 484.939 72.1811 484.641 72.1811C483.231 72.1811 482.121 71.8913 481.311 71.3118C480.501 70.728 480.096 69.7969 480.096 68.5185V65.169H482.666V68.5185C482.666 68.8977 482.73 69.1982 482.858 69.4197C482.99 69.6413 483.199 69.8011 483.484 69.8991C483.774 69.9929 484.16 70.0398 484.641 70.0398C485.089 70.0398 485.528 69.9929 485.958 69.8991C486.388 69.8054 486.855 69.669 487.358 69.4901ZM495.206 75.1918C494.196 75.1918 493.326 74.9872 492.598 74.5781C491.873 74.1648 491.315 73.581 490.923 72.8267C490.531 72.0682 490.335 71.1712 490.335 70.1357C490.335 69.1257 490.531 68.2393 490.923 67.4766C491.315 66.7138 491.867 66.1193 492.578 65.6932C493.294 65.267 494.134 65.054 495.097 65.054C495.745 65.054 496.348 65.1584 496.906 65.3672C497.468 65.5717 497.958 65.8807 498.376 66.294C498.798 66.7074 499.126 67.2273 499.36 67.8537C499.595 68.4759 499.712 69.2045 499.712 70.0398V70.7876H491.422V69.1001H497.149C497.149 68.7081 497.064 68.3608 496.893 68.0582C496.723 67.7557 496.486 67.5192 496.184 67.3487C495.885 67.174 495.538 67.0866 495.142 67.0866C494.728 67.0866 494.362 67.1825 494.042 67.3743C493.727 67.5618 493.48 67.8153 493.301 68.1349C493.122 68.4503 493.03 68.8018 493.026 69.1896V70.794C493.026 71.2798 493.115 71.6996 493.294 72.0533C493.478 72.407 493.735 72.6797 494.068 72.8714C494.4 73.0632 494.794 73.1591 495.25 73.1591C495.553 73.1591 495.83 73.1165 496.081 73.0312C496.333 72.946 496.548 72.8182 496.727 72.6477C496.906 72.4773 497.042 72.2685 497.136 72.0213L499.654 72.1875C499.527 72.7926 499.265 73.321 498.868 73.7727C498.476 74.2202 497.969 74.5696 497.347 74.821C496.729 75.0682 496.015 75.1918 495.206 75.1918ZM505.925 75.1918C504.919 75.1918 504.054 74.9787 503.33 74.5526C502.61 74.1222 502.056 73.5256 501.668 72.7628C501.284 72 501.093 71.1222 501.093 70.1293C501.093 69.1236 501.287 68.2415 501.674 67.483C502.066 66.7202 502.623 66.1257 503.343 65.6996C504.063 65.2692 504.919 65.054 505.912 65.054C506.769 65.054 507.519 65.2095 508.162 65.5206C508.806 65.8317 509.315 66.2685 509.69 66.831C510.065 67.3935 510.272 68.054 510.31 68.8125H507.74C507.668 68.3224 507.476 67.9283 507.165 67.63C506.858 67.3274 506.456 67.1761 505.957 67.1761C505.535 67.1761 505.167 67.2912 504.851 67.5213C504.54 67.7472 504.297 68.0774 504.123 68.5121C503.948 68.9467 503.86 69.473 503.86 70.0909C503.86 70.7173 503.946 71.25 504.116 71.6889C504.291 72.1278 504.536 72.4624 504.851 72.6925C505.167 72.9226 505.535 73.0376 505.957 73.0376C506.268 73.0376 506.547 72.9737 506.794 72.8459C507.046 72.718 507.252 72.5327 507.414 72.2898C507.581 72.0426 507.689 71.7464 507.74 71.4013H510.31C510.267 72.1513 510.063 72.8118 509.696 73.3828C509.334 73.9496 508.833 74.3928 508.194 74.7124C507.555 75.032 506.799 75.1918 505.925 75.1918ZM512.053 75V65.1818H514.776V68.9915H515.544L518.215 65.1818H521.411L517.941 70.0526L521.45 75H518.215L515.793 71.5163H514.776V75H512.053ZM526.632 75.1918C525.639 75.1918 524.781 74.9808 524.056 74.5589C523.336 74.1328 522.78 73.5405 522.388 72.782C521.996 72.0192 521.8 71.1349 521.8 70.1293C521.8 69.1151 521.996 68.2287 522.388 67.4702C522.78 66.7074 523.336 66.1151 524.056 65.6932C524.781 65.267 525.639 65.054 526.632 65.054C527.625 65.054 528.482 65.267 529.202 65.6932C529.926 66.1151 530.484 66.7074 530.876 67.4702C531.268 68.2287 531.464 69.1151 531.464 70.1293C531.464 71.1349 531.268 72.0192 530.876 72.782C530.484 73.5405 529.926 74.1328 529.202 74.5589C528.482 74.9808 527.625 75.1918 526.632 75.1918ZM526.645 73.0824C527.097 73.0824 527.474 72.9545 527.776 72.6989C528.079 72.4389 528.307 72.0852 528.46 71.6378C528.618 71.1903 528.697 70.6811 528.697 70.1101C528.697 69.5391 528.618 69.0298 528.46 68.5824C528.307 68.1349 528.079 67.7812 527.776 67.5213C527.474 67.2614 527.097 67.1314 526.645 67.1314C526.189 67.1314 525.805 67.2614 525.494 67.5213C525.188 67.7812 524.955 68.1349 524.798 68.5824C524.644 69.0298 524.567 69.5391 524.567 70.1101C524.567 70.6811 524.644 71.1903 524.798 71.6378C524.955 72.0852 525.188 72.4389 525.494 72.6989C525.805 72.9545 526.189 73.0824 526.645 73.0824ZM535.837 71.4077L539.371 65.1818H542.056V75H539.461V68.755L535.939 75H533.235V65.1818H535.837V71.4077ZM538.905 61.7557H540.803C540.799 62.5312 540.511 63.1555 539.94 63.6286C539.374 64.1016 538.607 64.3381 537.639 64.3381C536.668 64.3381 535.898 64.1016 535.332 63.6286C534.765 63.1555 534.482 62.5312 534.482 61.7557H536.367C536.363 62.0497 536.457 62.3139 536.648 62.5483C536.844 62.7827 537.175 62.8999 537.639 62.8999C538.091 62.8999 538.415 62.7848 538.611 62.5547C538.807 62.3246 538.905 62.0582 538.905 61.7557ZM554.209 71.9893L556.868 65.1818H558.939L555.11 75H553.301L549.562 65.1818H551.627L554.209 71.9893ZM551.007 65.1818V75H548.405V65.1818H551.007ZM557.546 75V65.1818H560.115V75H557.546ZM563.928 68.1989H566.862C568.162 68.1989 569.176 68.5099 569.905 69.1321C570.633 69.75 570.998 70.5767 570.998 71.6122C570.998 72.2855 570.834 72.8778 570.506 73.3892C570.177 73.8963 569.704 74.2926 569.086 74.5781C568.469 74.8594 567.727 75 566.862 75H562.221V65.1818H564.823V72.8587H566.862C567.318 72.8587 567.693 72.7436 567.987 72.5135C568.281 72.2834 568.43 71.9893 568.434 71.6314C568.43 71.2521 568.281 70.9432 567.987 70.7045C567.693 70.4616 567.318 70.3402 566.862 70.3402H563.928V68.1989ZM572.052 75V65.1818H574.775V75H572.052ZM581.388 75.1918C580.382 75.1918 579.517 74.9787 578.793 74.5526C578.073 74.1222 577.519 73.5256 577.131 72.7628C576.747 72 576.556 71.1222 576.556 70.1293C576.556 69.1236 576.749 68.2415 577.137 67.483C577.529 66.7202 578.085 66.1257 578.806 65.6996C579.526 65.2692 580.382 65.054 581.375 65.054C582.232 65.054 582.982 65.2095 583.625 65.5206C584.269 65.8317 584.778 66.2685 585.153 66.831C585.528 67.3935 585.735 68.054 585.773 68.8125H583.203C583.131 68.3224 582.939 67.9283 582.628 67.63C582.321 67.3274 581.919 67.1761 581.42 67.1761C580.998 67.1761 580.629 67.2912 580.314 67.5213C580.003 67.7472 579.76 68.0774 579.585 68.5121C579.411 68.9467 579.323 69.473 579.323 70.0909C579.323 70.7173 579.409 71.25 579.579 71.6889C579.754 72.1278 579.999 72.4624 580.314 72.6925C580.629 72.9226 580.998 73.0376 581.42 73.0376C581.731 73.0376 582.01 72.9737 582.257 72.8459C582.509 72.718 582.715 72.5327 582.877 72.2898C583.044 72.0426 583.152 71.7464 583.203 71.4013H585.773C585.73 72.1513 585.526 72.8118 585.159 73.3828C584.797 73.9496 584.296 74.3928 583.657 74.7124C583.018 75.032 582.262 75.1918 581.388 75.1918ZM586.941 75L586.928 72.8395H587.254C587.484 72.8395 587.683 72.7841 587.849 72.6733C588.019 72.5582 588.16 72.3729 588.271 72.1172C588.381 71.8615 588.469 71.5227 588.533 71.1009C588.597 70.6747 588.639 70.1506 588.661 69.5284L588.82 65.1818H596.286V75H593.691V67.3232H591.268L591.115 70.321C591.077 71.1435 590.977 71.8509 590.815 72.4432C590.657 73.0355 590.438 73.5213 590.156 73.9006C589.875 74.2756 589.536 74.5526 589.14 74.7315C588.744 74.9105 588.283 75 587.759 75H586.941ZM600.999 71.4077L604.534 65.1818H607.218V75H604.623V68.755L601.101 75H598.397V65.1818H600.999V71.4077ZM610.993 75.1662C610.571 75.1662 610.209 75.017 609.906 74.7188C609.608 74.4162 609.459 74.054 609.459 73.6321C609.459 73.2145 609.608 72.8565 609.906 72.5582C610.209 72.2599 610.571 72.1108 610.993 72.1108C611.402 72.1108 611.76 72.2599 612.067 72.5582C612.373 72.8565 612.527 73.2145 612.527 73.6321C612.527 73.9134 612.454 74.1712 612.309 74.4055C612.169 74.6357 611.983 74.821 611.753 74.9616C611.523 75.098 611.27 75.1662 610.993 75.1662Z" fill="black"/>
</svg>
