<svg width="650" height="99" viewBox="0 0 650 99" fill="none" xmlns="http://www.w3.org/2000/svg">
<rect width="650" height="99" rx="30" fill="#D9D9D9" fill-opacity="0.4"/>
<path d="M30.9705 35.7074V17.4545H33.989V35.7074H30.9705ZM30.9705 32.2131C30.1325 32.2131 29.3678 32.0781 28.6765 31.8082C27.9852 31.5336 27.3886 31.1477 26.8867 30.6506C26.3848 30.1487 25.9966 29.5545 25.7219 28.8679C25.4473 28.1766 25.31 27.4167 25.31 26.5881C25.31 25.75 25.4473 24.9877 25.7219 24.3011C25.9966 23.6098 26.3848 23.0156 26.8867 22.5185C27.3886 22.0166 27.9852 21.6307 28.6765 21.3608C29.3678 21.0862 30.1325 20.9489 30.9705 20.9489H31.5316V32.2131H30.9705ZM30.9705 29.8551H31.3043V23.3068H30.9705C30.5633 23.3068 30.2011 23.392 29.8839 23.5625C29.5666 23.733 29.2991 23.9673 29.0813 24.2656C28.8635 24.5592 28.6978 24.9048 28.5842 25.3026C28.4753 25.7003 28.4208 26.1288 28.4208 26.5881C28.4208 27.1941 28.5202 27.7457 28.7191 28.2429C28.918 28.7353 29.2092 29.1283 29.5927 29.4219C29.9762 29.7107 30.4355 29.8551 30.9705 29.8551ZM33.989 32.2131H33.4279V20.9489H33.989C34.8271 20.9489 35.5917 21.0862 36.283 21.3608C36.9743 21.6307 37.5709 22.0166 38.0728 22.5185C38.5747 23.0156 38.963 23.6098 39.2376 24.3011C39.5122 24.9877 39.6495 25.75 39.6495 26.5881C39.6495 27.4167 39.5122 28.1766 39.2376 28.8679C38.963 29.5545 38.5747 30.1487 38.0728 30.6506C37.5709 31.1477 36.9743 31.5336 36.283 31.8082C35.5917 32.0781 34.8271 32.2131 33.989 32.2131ZM33.989 29.8551C34.3962 29.8551 34.7584 29.7723 35.0756 29.6065C35.3929 29.4361 35.6604 29.2017 35.8782 28.9034C36.096 28.6051 36.2617 28.2595 36.3754 27.8665C36.489 27.4687 36.5458 27.0426 36.5458 26.5881C36.5458 25.9773 36.444 25.4257 36.2404 24.9332C36.0415 24.4361 35.7527 24.0407 35.3739 23.7472C34.9951 23.4536 34.5335 23.3068 33.989 23.3068H33.6552V29.8551H33.989ZM43.1456 36.0909C42.7621 36.0909 42.4022 36.0601 42.0661 35.9986C41.7346 35.9418 41.46 35.8684 41.2422 35.7784L41.924 33.5199C42.2791 33.6288 42.5987 33.688 42.8828 33.6974C43.1716 33.7069 43.4202 33.6406 43.6286 33.4986C43.8416 33.3565 44.0144 33.1151 44.147 32.7741L44.3246 32.3125L40.4112 21.0909H43.593L45.8516 29.1023H45.9652L48.245 21.0909H51.4482L47.2081 33.179C47.0045 33.7661 46.7275 34.2775 46.3771 34.7131C46.0315 35.1534 45.5935 35.492 45.0632 35.7287C44.5329 35.9702 43.8937 36.0909 43.1456 36.0909ZM60.5888 25.3381V27.7173H54.8928V25.3381H60.5888ZM55.8871 21.0909V32H52.9964V21.0909H55.8871ZM62.4851 21.0909V32H59.6158V21.0909H62.4851ZM64.8324 32V21.0909H67.858V25.3239H68.7102L71.679 21.0909H75.2301L71.3736 26.5028L75.2727 32H71.679L68.9872 28.1293H67.858V32H64.8324ZM86.0895 21.0909V29.9119H87.8295V35.5085H84.8892V32H76.5511V21.0909H79.4418V29.6207H83.2344V21.0909H86.0895ZM92.5863 28.0085L96.5138 21.0909H99.4968V32H96.6133V25.0611L92.6999 32H89.6957V21.0909H92.5863V28.0085ZM108.314 32V23.4631H106.269C105.715 23.4631 105.293 23.5909 105.005 23.8466C104.716 24.1023 104.574 24.4053 104.578 24.7557C104.574 25.1108 104.711 25.4115 104.99 25.6577C105.275 25.8991 105.691 26.0199 106.24 26.0199H109.323V28.0653H106.24C105.308 28.0653 104.5 27.9233 103.819 27.6392C103.137 27.3551 102.611 26.9598 102.242 26.4531C101.873 25.9418 101.69 25.3475 101.695 24.6705C101.69 23.9602 101.873 23.3376 102.242 22.8026C102.611 22.2628 103.139 21.8437 103.826 21.5455C104.517 21.2424 105.331 21.0909 106.269 21.0909H111.134V32H108.314ZM101.382 32L104.415 26.3182H107.306L104.28 32H101.382ZM117.553 28.9105H120.486C120.5 29.2704 120.661 29.5545 120.969 29.7628C121.277 29.9711 121.674 30.0753 122.162 30.0753C122.654 30.0753 123.069 29.9616 123.405 29.7344C123.741 29.5024 123.909 29.1709 123.909 28.7401C123.909 28.4749 123.843 28.2453 123.71 28.0511C123.578 27.8523 123.393 27.696 123.156 27.5824C122.92 27.4687 122.645 27.4119 122.332 27.4119H120.763V25.4304H122.332C122.801 25.4304 123.161 25.3215 123.412 25.1037C123.668 24.8859 123.795 24.6136 123.795 24.2869C123.795 23.9176 123.663 23.6217 123.398 23.3991C123.137 23.1719 122.785 23.0582 122.339 23.0582C121.89 23.0582 121.516 23.16 121.217 23.3636C120.924 23.5625 120.772 23.8229 120.763 24.1449H117.844C117.853 23.4915 118.05 22.9257 118.433 22.4474C118.821 21.9692 119.342 21.5999 119.996 21.3395C120.654 21.0791 121.39 20.9489 122.205 20.9489C123.095 20.9489 123.862 21.0743 124.506 21.3253C125.154 21.5715 125.652 21.9242 125.997 22.3835C126.348 22.8428 126.523 23.3897 126.523 24.0241C126.523 24.6018 126.333 25.0848 125.955 25.473C125.576 25.8613 125.045 26.1383 124.364 26.304V26.4176C124.813 26.446 125.221 26.5668 125.585 26.7798C125.95 26.9929 126.241 27.2865 126.459 27.6605C126.677 28.0298 126.786 28.4678 126.786 28.9744C126.786 29.6515 126.587 30.2315 126.189 30.7145C125.796 31.1974 125.251 31.5691 124.555 31.8295C123.864 32.0852 123.071 32.2131 122.176 32.2131C121.305 32.2131 120.524 32.0876 119.832 31.8366C119.146 31.581 118.599 31.2069 118.192 30.7145C117.789 30.2221 117.576 29.6207 117.553 28.9105ZM131.752 32.206C131.056 32.206 130.435 32.0852 129.891 31.8438C129.346 31.5975 128.916 31.2353 128.598 30.7571C128.286 30.2741 128.13 29.6728 128.13 28.9531C128.13 28.3471 128.241 27.8381 128.463 27.4261C128.686 27.0142 128.989 26.6828 129.373 26.4318C129.756 26.1809 130.192 25.9915 130.679 25.8636C131.172 25.7358 131.688 25.6458 132.228 25.5938C132.862 25.5275 133.373 25.4659 133.762 25.4091C134.15 25.3475 134.432 25.2576 134.607 25.1392C134.782 25.0208 134.87 24.8456 134.87 24.6136V24.571C134.87 24.1212 134.728 23.7732 134.444 23.527C134.164 23.2808 133.766 23.1577 133.25 23.1577C132.706 23.1577 132.273 23.2784 131.951 23.5199C131.629 23.7566 131.416 24.0549 131.311 24.4148L128.513 24.1875C128.655 23.5246 128.935 22.9517 129.351 22.4688C129.768 21.9811 130.305 21.607 130.963 21.3466C131.626 21.0814 132.393 20.9489 133.265 20.9489C133.871 20.9489 134.451 21.0199 135.005 21.1619C135.563 21.304 136.058 21.5241 136.489 21.8224C136.925 22.1207 137.268 22.5043 137.519 22.973C137.77 23.437 137.895 23.9934 137.895 24.642V32H135.026V30.4872H134.941C134.766 30.8281 134.531 31.1288 134.238 31.3892C133.944 31.6449 133.591 31.8461 133.179 31.9929C132.767 32.1349 132.292 32.206 131.752 32.206ZM132.618 30.1179C133.063 30.1179 133.456 30.0303 133.797 29.8551C134.138 29.6752 134.406 29.4337 134.6 29.1307C134.794 28.8277 134.891 28.4844 134.891 28.1009V26.9432C134.796 27.0047 134.666 27.0616 134.5 27.1136C134.339 27.161 134.157 27.206 133.953 27.2486C133.75 27.2865 133.546 27.322 133.343 27.3551C133.139 27.3835 132.954 27.4096 132.789 27.4332C132.434 27.4853 132.123 27.5682 131.858 27.6818C131.593 27.7955 131.387 27.9493 131.24 28.1435C131.094 28.3329 131.02 28.5696 131.02 28.8537C131.02 29.2656 131.169 29.5805 131.468 29.7983C131.771 30.0114 132.154 30.1179 132.618 30.1179ZM140.243 32V21.0909H143.268V25.3239H144.12L147.089 21.0909H150.64L146.784 26.5028L150.683 32H147.089L144.397 28.1293H143.268V32H140.243ZM151.322 32L151.308 29.5994H151.67C151.926 29.5994 152.146 29.5379 152.331 29.4148C152.52 29.2869 152.676 29.081 152.799 28.7969C152.922 28.5128 153.02 28.1364 153.091 27.6676C153.162 27.1941 153.209 26.6117 153.233 25.9205L153.41 21.0909H161.706V32H158.822V23.4702H156.13L155.96 26.8011C155.917 27.715 155.806 28.5009 155.626 29.1591C155.451 29.8172 155.207 30.357 154.895 30.7784C154.582 31.1951 154.206 31.5028 153.765 31.7017C153.325 31.9006 152.814 32 152.231 32H151.322ZM170.081 25.402V27.8026H164.165V25.402H170.081ZM166.501 21.0909V32H163.483V21.0909H166.501ZM173.348 32.2131C172.268 32.2131 171.336 31.9716 170.55 31.4886C169.764 31.0057 169.158 30.3381 168.732 29.4858C168.31 28.6335 168.099 27.6558 168.099 26.5526C168.099 25.4493 168.31 24.4763 168.732 23.6335C169.158 22.7907 169.764 22.1326 170.55 21.6591C171.336 21.1856 172.268 20.9489 173.348 20.9489C174.432 20.9489 175.365 21.1856 176.146 21.6591C176.932 22.1326 177.536 22.7907 177.957 23.6335C178.384 24.4763 178.597 25.4493 178.597 26.5526C178.597 27.6558 178.384 28.6335 177.957 29.4858C177.536 30.3381 176.932 31.0057 176.146 31.4886C175.365 31.9716 174.432 32.2131 173.348 32.2131ZM173.348 29.7699C173.911 29.7699 174.366 29.6326 174.712 29.358C175.057 29.0786 175.311 28.6974 175.472 28.2145C175.633 27.7268 175.713 27.1728 175.713 26.5526C175.713 25.9323 175.633 25.383 175.472 24.9048C175.311 24.4219 175.057 24.0431 174.712 23.7685C174.366 23.4938 173.911 23.3565 173.348 23.3565C172.789 23.3565 172.335 23.4938 171.984 23.7685C171.634 24.0384 171.376 24.4124 171.21 24.8906C171.049 25.3688 170.969 25.9228 170.969 26.5526C170.969 27.1776 171.049 27.7315 171.21 28.2145C171.376 28.6974 171.634 29.0786 171.984 29.358C172.335 29.6326 172.789 29.7699 173.348 29.7699ZM190.12 21.0909V32H187.251V21.0909H190.12ZM188.721 25.8778V28.2642C188.489 28.3684 188.2 28.4678 187.854 28.5625C187.509 28.6525 187.147 28.7259 186.768 28.7827C186.389 28.8395 186.034 28.8679 185.702 28.8679C184.135 28.8679 182.902 28.5459 182.002 27.902C181.103 27.2533 180.653 26.2187 180.653 24.7983V21.0767H183.508V24.7983C183.508 25.2197 183.579 25.5535 183.721 25.7997C183.868 26.0459 184.1 26.2235 184.417 26.3324C184.739 26.4366 185.167 26.4886 185.702 26.4886C186.2 26.4886 186.687 26.4366 187.165 26.3324C187.644 26.2282 188.162 26.0767 188.721 25.8778ZM195.58 32.206C194.884 32.206 194.264 32.0852 193.719 31.8438C193.175 31.5975 192.744 31.2353 192.426 30.7571C192.114 30.2741 191.958 29.6728 191.958 28.9531C191.958 28.3471 192.069 27.8381 192.292 27.4261C192.514 27.0142 192.817 26.6828 193.201 26.4318C193.584 26.1809 194.02 25.9915 194.507 25.8636C195 25.7358 195.516 25.6458 196.056 25.5938C196.69 25.5275 197.202 25.4659 197.59 25.4091C197.978 25.3475 198.26 25.2576 198.435 25.1392C198.61 25.0208 198.698 24.8456 198.698 24.6136V24.571C198.698 24.1212 198.556 23.7732 198.272 23.527C197.992 23.2808 197.595 23.1577 197.078 23.1577C196.534 23.1577 196.101 23.2784 195.779 23.5199C195.457 23.7566 195.244 24.0549 195.14 24.4148L192.341 24.1875C192.483 23.5246 192.763 22.9517 193.179 22.4688C193.596 21.9811 194.133 21.607 194.792 21.3466C195.454 21.0814 196.221 20.9489 197.093 20.9489C197.699 20.9489 198.279 21.0199 198.833 21.1619C199.391 21.304 199.886 21.5241 200.317 21.8224C200.753 22.1207 201.096 22.5043 201.347 22.973C201.598 23.437 201.723 23.9934 201.723 24.642V32H198.854V30.4872H198.769C198.594 30.8281 198.359 31.1288 198.066 31.3892C197.772 31.6449 197.419 31.8461 197.007 31.9929C196.596 32.1349 196.12 32.206 195.58 32.206ZM196.446 30.1179C196.891 30.1179 197.284 30.0303 197.625 29.8551C197.966 29.6752 198.234 29.4337 198.428 29.1307C198.622 28.8277 198.719 28.4844 198.719 28.1009V26.9432C198.624 27.0047 198.494 27.0616 198.328 27.1136C198.167 27.161 197.985 27.206 197.782 27.2486C197.578 27.2865 197.374 27.322 197.171 27.3551C196.967 27.3835 196.783 27.4096 196.617 27.4332C196.262 27.4853 195.952 27.5682 195.686 27.6818C195.421 27.7955 195.215 27.9493 195.069 28.1435C194.922 28.3329 194.848 28.5696 194.848 28.8537C194.848 29.2656 194.998 29.5805 195.296 29.7983C195.599 30.0114 195.982 30.1179 196.446 30.1179ZM209.042 32.2131C207.92 32.2131 206.954 31.9858 206.145 31.5312C205.34 31.072 204.719 30.4233 204.284 29.5852C203.848 28.7424 203.63 27.7457 203.63 26.5952C203.63 25.473 203.848 24.4882 204.284 23.6406C204.719 22.7931 205.333 22.1326 206.123 21.6591C206.919 21.1856 207.851 20.9489 208.922 20.9489C209.641 20.9489 210.311 21.0649 210.931 21.2969C211.556 21.5241 212.101 21.8674 212.565 22.3267C213.034 22.786 213.398 23.3636 213.659 24.0597C213.919 24.7509 214.049 25.5606 214.049 26.4886V27.3196H204.838V25.4446H211.201C211.201 25.009 211.107 24.6231 210.917 24.2869C210.728 23.9508 210.465 23.688 210.129 23.4986C209.797 23.3045 209.412 23.2074 208.971 23.2074C208.512 23.2074 208.105 23.3139 207.75 23.527C207.399 23.7353 207.125 24.017 206.926 24.3722C206.727 24.7225 206.625 25.1132 206.62 25.544V27.3267C206.62 27.8665 206.72 28.3329 206.919 28.7259C207.122 29.1188 207.409 29.4219 207.778 29.6349C208.147 29.848 208.585 29.9545 209.092 29.9545C209.428 29.9545 209.736 29.9072 210.015 29.8125C210.295 29.7178 210.534 29.5758 210.733 29.3864C210.931 29.197 211.083 28.965 211.187 28.6903L213.985 28.875C213.843 29.5473 213.552 30.1345 213.112 30.6364C212.676 31.1335 212.113 31.5218 211.422 31.8011C210.735 32.0758 209.942 32.2131 209.042 32.2131ZM215.182 23.4702V21.0909H225.069V23.4702H221.553V32H218.669V23.4702H215.182ZM231.441 32.2131C230.324 32.2131 229.362 31.9763 228.558 31.5028C227.757 31.0246 227.142 30.3617 226.711 29.5142C226.285 28.6667 226.072 27.6913 226.072 26.5881C226.072 25.4706 226.287 24.4905 226.718 23.6477C227.154 22.8002 227.772 22.1397 228.572 21.6662C229.372 21.188 230.324 20.9489 231.427 20.9489C232.379 20.9489 233.212 21.1217 233.927 21.4673C234.642 21.813 235.208 22.2983 235.624 22.9233C236.041 23.5483 236.271 24.2822 236.313 25.125H233.458C233.378 24.5805 233.165 24.1425 232.819 23.8111C232.478 23.4749 232.031 23.3068 231.477 23.3068C231.008 23.3068 230.598 23.4347 230.248 23.6903C229.902 23.9413 229.632 24.3082 229.438 24.7912C229.244 25.2741 229.147 25.8589 229.147 26.5455C229.147 27.2415 229.242 27.8333 229.431 28.321C229.625 28.8087 229.897 29.1804 230.248 29.4361C230.598 29.6918 231.008 29.8196 231.477 29.8196C231.822 29.8196 232.132 29.7486 232.407 29.6065C232.686 29.4645 232.916 29.2585 233.096 28.9886C233.281 28.714 233.401 28.3849 233.458 28.0014H236.313C236.266 28.8348 236.039 29.5687 235.631 30.2031C235.229 30.8329 234.673 31.3253 233.962 31.6804C233.252 32.0355 232.412 32.2131 231.441 32.2131ZM244.642 32V23.4631H242.597C242.043 23.4631 241.622 23.5909 241.333 23.8466C241.044 24.1023 240.902 24.4053 240.907 24.7557C240.902 25.1108 241.039 25.4115 241.319 25.6577C241.603 25.8991 242.019 26.0199 242.569 26.0199H245.651V28.0653H242.569C241.636 28.0653 240.828 27.9233 240.147 27.6392C239.465 27.3551 238.939 26.9598 238.57 26.4531C238.201 25.9418 238.018 25.3475 238.023 24.6705C238.018 23.9602 238.201 23.3376 238.57 22.8026C238.939 22.2628 239.467 21.8437 240.154 21.5455C240.845 21.2424 241.659 21.0909 242.597 21.0909H247.462V32H244.642ZM237.711 32L240.743 26.3182H243.634L240.608 32H237.711ZM254.442 32V21.0909H259.094C260.438 21.0909 261.501 21.3466 262.283 21.858C263.064 22.3693 263.455 23.0961 263.455 24.0384C263.455 24.6302 263.234 25.1226 262.794 25.5156C262.354 25.9086 261.743 26.1738 260.962 26.3111C261.615 26.3584 262.171 26.5076 262.631 26.7585C263.095 27.0047 263.447 27.3243 263.689 27.7173C263.935 28.1103 264.058 28.5459 264.058 29.0241C264.058 29.6444 263.893 30.1771 263.561 30.6222C263.234 31.0672 262.754 31.4081 262.119 31.6449C261.49 31.8816 260.72 32 259.811 32H254.442ZM257.261 29.7344H259.811C260.232 29.7344 260.562 29.6349 260.798 29.4361C261.04 29.2325 261.161 28.9555 261.161 28.6051C261.161 28.2169 261.04 27.9115 260.798 27.6889C260.562 27.4664 260.232 27.3551 259.811 27.3551H257.261V29.7344ZM257.261 25.5795H259.158C259.461 25.5795 259.719 25.5369 259.932 25.4517C260.15 25.3617 260.315 25.2339 260.429 25.0682C260.547 24.9025 260.607 24.706 260.607 24.4787C260.607 24.1425 260.472 23.8797 260.202 23.6903C259.932 23.5009 259.562 23.4062 259.094 23.4062H257.261V25.5795ZM270.026 23.4702V21.0909H279.912V23.4702H276.397V32H273.513V23.4702H270.026ZM286.285 32.2131C285.182 32.2131 284.228 31.9787 283.423 31.5099C282.622 31.0365 282.004 30.3783 281.569 29.5355C281.133 28.688 280.915 27.7055 280.915 26.5881C280.915 25.4612 281.133 24.4763 281.569 23.6335C282.004 22.786 282.622 22.1278 283.423 21.6591C284.228 21.1856 285.182 20.9489 286.285 20.9489C287.388 20.9489 288.34 21.1856 289.14 21.6591C289.945 22.1278 290.565 22.786 291.001 23.6335C291.436 24.4763 291.654 25.4612 291.654 26.5881C291.654 27.7055 291.436 28.688 291.001 29.5355C290.565 30.3783 289.945 31.0365 289.14 31.5099C288.34 31.9787 287.388 32.2131 286.285 32.2131ZM286.299 29.8693C286.801 29.8693 287.22 29.7273 287.556 29.4432C287.892 29.1544 288.146 28.7614 288.316 28.2642C288.491 27.767 288.579 27.2012 288.579 26.5668C288.579 25.9323 288.491 25.3665 288.316 24.8693C288.146 24.3722 287.892 23.9792 287.556 23.6903C287.22 23.4015 286.801 23.2571 286.299 23.2571C285.792 23.2571 285.366 23.4015 285.021 23.6903C284.68 23.9792 284.422 24.3722 284.246 24.8693C284.076 25.3665 283.991 25.9323 283.991 26.5668C283.991 27.2012 284.076 27.767 284.246 28.2642C284.422 28.7614 284.68 29.1544 285.021 29.4432C285.366 29.7273 285.792 29.8693 286.299 29.8693ZM300.07 28.6548L303.025 21.0909H305.326L301.072 32H299.062L294.907 21.0909H297.201L300.07 28.6548ZM296.512 21.0909V32H293.621V21.0909H296.512ZM303.778 32V21.0909H306.633V32H303.778ZM312.261 30.0114L312.183 30.7926C312.122 31.4176 312.003 32.0402 311.828 32.6605C311.658 33.2855 311.478 33.8513 311.288 34.358C311.104 34.8646 310.955 35.2623 310.841 35.5511H308.881C308.952 35.2718 309.049 34.8812 309.172 34.3793C309.295 33.8821 309.411 33.3234 309.52 32.7031C309.629 32.0829 309.697 31.4508 309.726 30.8068L309.761 30.0114H312.261ZM328.44 21.0909V32H325.571V21.0909H328.44ZM327.041 25.8778V28.2642C326.809 28.3684 326.52 28.4678 326.175 28.5625C325.829 28.6525 325.467 28.7259 325.088 28.7827C324.709 28.8395 324.354 28.8679 324.023 28.8679C322.455 28.8679 321.222 28.5459 320.322 27.902C319.423 27.2533 318.973 26.2187 318.973 24.7983V21.0767H321.828V24.7983C321.828 25.2197 321.899 25.5535 322.041 25.7997C322.188 26.0459 322.42 26.2235 322.737 26.3324C323.059 26.4366 323.488 26.4886 324.023 26.4886C324.52 26.4886 325.008 26.4366 325.486 26.3324C325.964 26.2282 326.482 26.0767 327.041 25.8778ZM329.694 23.4702V21.0909H339.58V23.4702H336.065V32H333.181V23.4702H329.694ZM345.953 32.2131C344.85 32.2131 343.895 31.9787 343.091 31.5099C342.29 31.0365 341.672 30.3783 341.237 29.5355C340.801 28.688 340.583 27.7055 340.583 26.5881C340.583 25.4612 340.801 24.4763 341.237 23.6335C341.672 22.786 342.29 22.1278 343.091 21.6591C343.895 21.1856 344.85 20.9489 345.953 20.9489C347.056 20.9489 348.008 21.1856 348.808 21.6591C349.613 22.1278 350.233 22.786 350.669 23.6335C351.104 24.4763 351.322 25.4612 351.322 26.5881C351.322 27.7055 351.104 28.688 350.669 29.5355C350.233 30.3783 349.613 31.0365 348.808 31.5099C348.008 31.9787 347.056 32.2131 345.953 32.2131ZM345.967 29.8693C346.469 29.8693 346.888 29.7273 347.224 29.4432C347.56 29.1544 347.814 28.7614 347.984 28.2642C348.159 27.767 348.247 27.2012 348.247 26.5668C348.247 25.9323 348.159 25.3665 347.984 24.8693C347.814 24.3722 347.56 23.9792 347.224 23.6903C346.888 23.4015 346.469 23.2571 345.967 23.2571C345.46 23.2571 345.034 23.4015 344.689 23.6903C344.348 23.9792 344.09 24.3722 343.914 24.8693C343.744 25.3665 343.659 25.9323 343.659 26.5668C343.659 27.2012 343.744 27.767 343.914 28.2642C344.09 28.7614 344.348 29.1544 344.689 29.4432C345.034 29.7273 345.46 29.8693 345.967 29.8693ZM363.138 35.7074V17.4545H366.157V35.7074H363.138ZM363.138 32.2131C362.3 32.2131 361.536 32.0781 360.844 31.8082C360.153 31.5336 359.557 31.1477 359.055 30.6506C358.553 30.1487 358.165 29.5545 357.89 28.8679C357.615 28.1766 357.478 27.4167 357.478 26.5881C357.478 25.75 357.615 24.9877 357.89 24.3011C358.165 23.6098 358.553 23.0156 359.055 22.5185C359.557 22.0166 360.153 21.6307 360.844 21.3608C361.536 21.0862 362.3 20.9489 363.138 20.9489H363.7V32.2131H363.138ZM363.138 29.8551H363.472V23.3068H363.138C362.731 23.3068 362.369 23.392 362.052 23.5625C361.735 23.733 361.467 23.9673 361.249 24.2656C361.031 24.5592 360.866 24.9048 360.752 25.3026C360.643 25.7003 360.589 26.1288 360.589 26.5881C360.589 27.1941 360.688 27.7457 360.887 28.2429C361.086 28.7353 361.377 29.1283 361.761 29.4219C362.144 29.7107 362.603 29.8551 363.138 29.8551ZM366.157 32.2131H365.596V20.9489H366.157C366.995 20.9489 367.76 21.0862 368.451 21.3608C369.142 21.6307 369.739 22.0166 370.241 22.5185C370.743 23.0156 371.131 23.6098 371.406 24.3011C371.68 24.9877 371.817 25.75 371.817 26.5881C371.817 27.4167 371.68 28.1766 371.406 28.8679C371.131 29.5545 370.743 30.1487 370.241 30.6506C369.739 31.1477 369.142 31.5336 368.451 31.8082C367.76 32.0781 366.995 32.2131 366.157 32.2131ZM366.157 29.8551C366.564 29.8551 366.926 29.7723 367.244 29.6065C367.561 29.4361 367.828 29.2017 368.046 28.9034C368.264 28.6051 368.43 28.2595 368.543 27.8665C368.657 27.4687 368.714 27.0426 368.714 26.5881C368.714 25.9773 368.612 25.4257 368.408 24.9332C368.21 24.4361 367.921 24.0407 367.542 23.7472C367.163 23.4536 366.701 23.3068 366.157 23.3068H365.823V29.8551H366.157ZM376.688 28.0085L380.615 21.0909H383.598V32H380.715V25.0611L376.801 32H373.797V21.0909H376.688V28.0085ZM385.385 32L385.37 29.5994H385.733C385.988 29.5994 386.208 29.5379 386.393 29.4148C386.583 29.2869 386.739 29.081 386.862 28.7969C386.985 28.5128 387.082 28.1364 387.153 27.6676C387.224 27.1941 387.271 26.6117 387.295 25.9205L387.473 21.0909H395.768V32H392.885V23.4702H390.193L390.022 26.8011C389.98 27.715 389.868 28.5009 389.689 29.1591C389.513 29.8172 389.27 30.357 388.957 30.7784C388.645 31.1951 388.268 31.5028 387.828 31.7017C387.387 31.9006 386.876 32 386.294 32H385.385ZM403.043 32.2131C401.939 32.2131 400.985 31.9787 400.18 31.5099C399.38 31.0365 398.762 30.3783 398.327 29.5355C397.891 28.688 397.673 27.7055 397.673 26.5881C397.673 25.4612 397.891 24.4763 398.327 23.6335C398.762 22.786 399.38 22.1278 400.18 21.6591C400.985 21.1856 401.939 20.9489 403.043 20.9489C404.146 20.9489 405.098 21.1856 405.898 21.6591C406.703 22.1278 407.323 22.786 407.759 23.6335C408.194 24.4763 408.412 25.4612 408.412 26.5881C408.412 27.7055 408.194 28.688 407.759 29.5355C407.323 30.3783 406.703 31.0365 405.898 31.5099C405.098 31.9787 404.146 32.2131 403.043 32.2131ZM403.057 29.8693C403.559 29.8693 403.978 29.7273 404.314 29.4432C404.65 29.1544 404.903 28.7614 405.074 28.2642C405.249 27.767 405.337 27.2012 405.337 26.5668C405.337 25.9323 405.249 25.3665 405.074 24.8693C404.903 24.3722 404.65 23.9792 404.314 23.6903C403.978 23.4015 403.559 23.2571 403.057 23.2571C402.55 23.2571 402.124 23.4015 401.778 23.6903C401.438 23.9792 401.179 24.3722 401.004 24.8693C400.834 25.3665 400.749 25.9323 400.749 26.5668C400.749 27.2012 400.834 27.767 401.004 28.2642C401.179 28.7614 401.438 29.1544 401.778 29.4432C402.124 29.7273 402.55 29.8693 403.057 29.8693ZM415.308 32.2131C414.191 32.2131 413.23 31.9763 412.425 31.5028C411.625 31.0246 411.009 30.3617 410.578 29.5142C410.152 28.6667 409.939 27.6913 409.939 26.5881C409.939 25.4706 410.154 24.4905 410.585 23.6477C411.021 22.8002 411.639 22.1397 412.439 21.6662C413.239 21.188 414.191 20.9489 415.294 20.9489C416.246 20.9489 417.079 21.1217 417.794 21.4673C418.509 21.813 419.075 22.2983 419.491 22.9233C419.908 23.5483 420.138 24.2822 420.18 25.125H417.325C417.245 24.5805 417.032 24.1425 416.686 23.8111C416.345 23.4749 415.898 23.3068 415.344 23.3068C414.875 23.3068 414.465 23.4347 414.115 23.6903C413.769 23.9413 413.5 24.3082 413.305 24.7912C413.111 25.2741 413.014 25.8589 413.014 26.5455C413.014 27.2415 413.109 27.8333 413.298 28.321C413.492 28.8087 413.765 29.1804 414.115 29.4361C414.465 29.6918 414.875 29.8196 415.344 29.8196C415.689 29.8196 416 29.7486 416.274 29.6065C416.554 29.4645 416.783 29.2585 416.963 28.9886C417.148 28.714 417.268 28.3849 417.325 28.0014H420.18C420.133 28.8348 419.906 29.5687 419.499 30.2031C419.096 30.8329 418.54 31.3253 417.83 31.6804C417.119 32.0355 416.279 32.2131 415.308 32.2131ZM427.047 32.2131C425.943 32.2131 424.989 31.9787 424.184 31.5099C423.384 31.0365 422.766 30.3783 422.331 29.5355C421.895 28.688 421.677 27.7055 421.677 26.5881C421.677 25.4612 421.895 24.4763 422.331 23.6335C422.766 22.786 423.384 22.1278 424.184 21.6591C424.989 21.1856 425.943 20.9489 427.047 20.9489C428.15 20.9489 429.101 21.1856 429.902 21.6591C430.707 22.1278 431.327 22.786 431.762 23.6335C432.198 24.4763 432.416 25.4612 432.416 26.5881C432.416 27.7055 432.198 28.688 431.762 29.5355C431.327 30.3783 430.707 31.0365 429.902 31.5099C429.101 31.9787 428.15 32.2131 427.047 32.2131ZM427.061 29.8693C427.563 29.8693 427.982 29.7273 428.318 29.4432C428.654 29.1544 428.907 28.7614 429.078 28.2642C429.253 27.767 429.341 27.2012 429.341 26.5668C429.341 25.9323 429.253 25.3665 429.078 24.8693C428.907 24.3722 428.654 23.9792 428.318 23.6903C427.982 23.4015 427.563 23.2571 427.061 23.2571C426.554 23.2571 426.128 23.4015 425.782 23.6903C425.441 23.9792 425.183 24.3722 425.008 24.8693C424.838 25.3665 424.752 25.9323 424.752 26.5668C424.752 27.2012 424.838 27.767 425.008 28.2642C425.183 28.7614 425.441 29.1544 425.782 29.4432C426.128 29.7273 426.554 29.8693 427.061 29.8693ZM439.603 35.7074V17.4545H442.622V35.7074H439.603ZM439.603 32.2131C438.765 32.2131 438.001 32.0781 437.309 31.8082C436.618 31.5336 436.021 31.1477 435.52 30.6506C435.018 30.1487 434.629 29.5545 434.355 28.8679C434.08 28.1766 433.943 27.4167 433.943 26.5881C433.943 25.75 434.08 24.9877 434.355 24.3011C434.629 23.6098 435.018 23.0156 435.52 22.5185C436.021 22.0166 436.618 21.6307 437.309 21.3608C438.001 21.0862 438.765 20.9489 439.603 20.9489H440.164V32.2131H439.603ZM439.603 29.8551H439.937V23.3068H439.603C439.196 23.3068 438.834 23.392 438.517 23.5625C438.199 23.733 437.932 23.9673 437.714 24.2656C437.496 24.5592 437.331 24.9048 437.217 25.3026C437.108 25.7003 437.054 26.1288 437.054 26.5881C437.054 27.1941 437.153 27.7457 437.352 28.2429C437.551 28.7353 437.842 29.1283 438.225 29.4219C438.609 29.7107 439.068 29.8551 439.603 29.8551ZM442.622 32.2131H442.061V20.9489H442.622C443.46 20.9489 444.225 21.0862 444.916 21.3608C445.607 21.6307 446.204 22.0166 446.706 22.5185C447.208 23.0156 447.596 23.6098 447.87 24.3011C448.145 24.9877 448.282 25.75 448.282 26.5881C448.282 27.4167 448.145 28.1766 447.87 28.8679C447.596 29.5545 447.208 30.1487 446.706 30.6506C446.204 31.1477 445.607 31.5336 444.916 31.8082C444.225 32.0781 443.46 32.2131 442.622 32.2131ZM442.622 29.8551C443.029 29.8551 443.391 29.7723 443.708 29.6065C444.026 29.4361 444.293 29.2017 444.511 28.9034C444.729 28.6051 444.895 28.2595 445.008 27.8665C445.122 27.4687 445.179 27.0426 445.179 26.5881C445.179 25.9773 445.077 25.4257 444.873 24.9332C444.674 24.4361 444.386 24.0407 444.007 23.7472C443.628 23.4536 443.166 23.3068 442.622 23.3068H442.288V29.8551H442.622ZM453.153 28.0085L457.08 21.0909H460.063V32H457.18V25.0611L453.266 32H450.262V21.0909H453.153V28.0085ZM468.881 32V23.4631H466.835C466.281 23.4631 465.86 23.5909 465.571 23.8466C465.282 24.1023 465.14 24.4053 465.145 24.7557C465.14 25.1108 465.277 25.4115 465.557 25.6577C465.841 25.8991 466.258 26.0199 466.807 26.0199H469.889V28.0653H466.807C465.874 28.0653 465.067 27.9233 464.385 27.6392C463.703 27.3551 463.178 26.9598 462.808 26.4531C462.439 25.9418 462.257 25.3475 462.261 24.6705C462.257 23.9602 462.439 23.3376 462.808 22.8026C463.178 22.2628 463.705 21.8437 464.392 21.5455C465.083 21.2424 465.898 21.0909 466.835 21.0909H471.7V32H468.881ZM461.949 32L464.982 26.3182H467.872L464.847 32H461.949ZM478.68 32V21.0909H483.332C484.677 21.0909 485.74 21.3466 486.521 21.858C487.302 22.3693 487.693 23.0961 487.693 24.0384C487.693 24.6302 487.473 25.1226 487.032 25.5156C486.592 25.9086 485.981 26.1738 485.2 26.3111C485.853 26.3584 486.41 26.5076 486.869 26.7585C487.333 27.0047 487.686 27.3243 487.927 27.7173C488.173 28.1103 488.297 28.5459 488.297 29.0241C488.297 29.6444 488.131 30.1771 487.799 30.6222C487.473 31.0672 486.992 31.4081 486.358 31.6449C485.728 31.8816 484.958 32 484.049 32H478.68ZM481.5 29.7344H484.049C484.471 29.7344 484.8 29.6349 485.037 29.4361C485.278 29.2325 485.399 28.9555 485.399 28.6051C485.399 28.2169 485.278 27.9115 485.037 27.6889C484.8 27.4664 484.471 27.3551 484.049 27.3551H481.5V29.7344ZM481.5 25.5795H483.396C483.699 25.5795 483.957 25.5369 484.17 25.4517C484.388 25.3617 484.554 25.2339 484.667 25.0682C484.786 24.9025 484.845 24.706 484.845 24.4787C484.845 24.1425 484.71 23.8797 484.44 23.6903C484.17 23.5009 483.801 23.4062 483.332 23.4062H481.5V25.5795ZM492.1 24.4432H495.36C496.804 24.4432 497.931 24.7888 498.74 25.4801C499.55 26.1667 499.955 27.0852 499.955 28.2358C499.955 28.9839 499.773 29.642 499.408 30.2102C499.043 30.7737 498.518 31.214 497.831 31.5312C497.145 31.8438 496.321 32 495.36 32H490.203V21.0909H493.094V29.6207H495.36C495.866 29.6207 496.283 29.4929 496.61 29.2372C496.936 28.9815 497.102 28.6548 497.107 28.2571C497.102 27.8357 496.936 27.4924 496.61 27.2273C496.283 26.9574 495.866 26.8224 495.36 26.8224H492.1V24.4432ZM501.127 32V21.0909H504.152V32H501.127ZM506.571 36.0909V21.0909H509.554V22.9233H509.689C509.821 22.6297 510.013 22.3314 510.264 22.0284C510.52 21.7206 510.851 21.465 511.258 21.2614C511.67 21.053 512.181 20.9489 512.792 20.9489C513.588 20.9489 514.322 21.1572 514.994 21.5739C515.666 21.9858 516.204 22.6084 516.606 23.4418C517.009 24.2704 517.21 25.3097 517.21 26.5597C517.21 27.7765 517.013 28.804 516.62 29.642C516.232 30.4754 515.702 31.1075 515.029 31.5384C514.362 31.9645 513.614 32.1776 512.785 32.1776C512.198 32.1776 511.699 32.0805 511.287 31.8864C510.879 31.6922 510.546 31.4484 510.285 31.1548C510.025 30.8565 509.826 30.5559 509.689 30.2528H509.596V36.0909H506.571ZM509.532 26.5455C509.532 27.1941 509.622 27.7599 509.802 28.2429C509.982 28.7259 510.243 29.1023 510.583 29.3722C510.924 29.6373 511.339 29.7699 511.826 29.7699C512.319 29.7699 512.735 29.6349 513.076 29.3651C513.417 29.0904 513.675 28.7116 513.85 28.2287C514.03 27.741 514.12 27.1799 514.12 26.5455C514.12 25.9157 514.033 25.3617 513.858 24.8835C513.682 24.4053 513.424 24.0312 513.083 23.7614C512.743 23.4915 512.324 23.3565 511.826 23.3565C511.334 23.3565 510.917 23.4867 510.576 23.7472C510.24 24.0076 509.982 24.3769 509.802 24.8551C509.622 25.3333 509.532 25.8968 509.532 26.5455ZM522.338 32.206C521.642 32.206 521.021 32.0852 520.477 31.8438C519.932 31.5975 519.502 31.2353 519.184 30.7571C518.872 30.2741 518.716 29.6728 518.716 28.9531C518.716 28.3471 518.827 27.8381 519.049 27.4261C519.272 27.0142 519.575 26.6828 519.958 26.4318C520.342 26.1809 520.778 25.9915 521.265 25.8636C521.758 25.7358 522.274 25.6458 522.814 25.5938C523.448 25.5275 523.959 25.4659 524.348 25.4091C524.736 25.3475 525.018 25.2576 525.193 25.1392C525.368 25.0208 525.456 24.8456 525.456 24.6136V24.571C525.456 24.1212 525.314 23.7732 525.029 23.527C524.75 23.2808 524.352 23.1577 523.836 23.1577C523.292 23.1577 522.859 23.2784 522.537 23.5199C522.215 23.7566 522.002 24.0549 521.897 24.4148L519.099 24.1875C519.241 23.5246 519.52 22.9517 519.937 22.4688C520.354 21.9811 520.891 21.607 521.549 21.3466C522.212 21.0814 522.979 20.9489 523.85 20.9489C524.457 20.9489 525.037 21.0199 525.591 21.1619C526.149 21.304 526.644 21.5241 527.075 21.8224C527.511 22.1207 527.854 22.5043 528.105 22.973C528.356 23.437 528.481 23.9934 528.481 24.642V32H525.612V30.4872H525.527C525.351 30.8281 525.117 31.1288 524.824 31.3892C524.53 31.6449 524.177 31.8461 523.765 31.9929C523.353 32.1349 522.877 32.206 522.338 32.206ZM523.204 30.1179C523.649 30.1179 524.042 30.0303 524.383 29.8551C524.724 29.6752 524.992 29.4337 525.186 29.1307C525.38 28.8277 525.477 28.4844 525.477 28.1009V26.9432C525.382 27.0047 525.252 27.0616 525.086 27.1136C524.925 27.161 524.743 27.206 524.539 27.2486C524.336 27.2865 524.132 27.322 523.929 27.3551C523.725 27.3835 523.54 27.4096 523.375 27.4332C523.02 27.4853 522.709 27.5682 522.444 27.6818C522.179 27.7955 521.973 27.9493 521.826 28.1435C521.68 28.3329 521.606 28.5696 521.606 28.8537C521.606 29.2656 521.755 29.5805 522.054 29.7983C522.357 30.0114 522.74 30.1179 523.204 30.1179ZM539.898 17.0852L540.821 19.0597C540.514 19.3153 540.173 19.5047 539.799 19.6278C539.425 19.7462 538.977 19.8243 538.456 19.8622C537.94 19.9001 537.31 19.9261 536.567 19.9403C535.724 19.9498 535.038 20.0848 534.507 20.3452C533.977 20.6056 533.575 21.0152 533.3 21.5739C533.025 22.1278 532.846 22.8523 532.76 23.7472H532.867C533.194 23.0795 533.653 22.5634 534.245 22.1989C534.841 21.8343 535.578 21.652 536.453 21.652C537.382 21.652 538.194 21.8556 538.89 22.2628C539.59 22.67 540.135 23.2547 540.523 24.017C540.911 24.7794 541.105 25.6932 541.105 26.7585C541.105 27.8665 540.888 28.83 540.452 29.6491C540.021 30.4635 539.408 31.0956 538.613 31.5455C537.817 31.9905 536.87 32.2131 535.772 32.2131C534.668 32.2131 533.717 31.9811 532.917 31.517C532.121 31.053 531.506 30.3688 531.07 29.4645C530.639 28.5601 530.424 27.4474 530.424 26.1264V25.2315C530.424 22.6037 530.935 20.6553 531.958 19.3864C532.98 18.1174 534.484 17.4735 536.468 17.4545C537.007 17.4451 537.495 17.4427 537.931 17.4474C538.366 17.4522 538.748 17.4309 539.074 17.3835C539.406 17.3362 539.68 17.2367 539.898 17.0852ZM535.786 29.8693C536.25 29.8693 536.648 29.7486 536.979 29.5071C537.315 29.2656 537.573 28.92 537.753 28.4702C537.938 28.0204 538.03 27.483 538.03 26.858C538.03 26.2377 537.938 25.7121 537.753 25.2812C537.573 24.8456 537.315 24.5142 536.979 24.2869C536.643 24.0597 536.24 23.946 535.772 23.946C535.421 23.946 535.106 24.0099 534.827 24.1378C534.548 24.2656 534.309 24.455 534.11 24.706C533.916 24.9522 533.764 25.2576 533.655 25.6222C533.551 25.982 533.499 26.3939 533.499 26.858C533.499 27.7907 533.7 28.527 534.103 29.0668C534.51 29.6018 535.071 29.8693 535.786 29.8693ZM546.224 32.206C545.528 32.206 544.908 32.0852 544.364 31.8438C543.819 31.5975 543.388 31.2353 543.071 30.7571C542.759 30.2741 542.602 29.6728 542.602 28.9531C542.602 28.3471 542.714 27.8381 542.936 27.4261C543.159 27.0142 543.462 26.6828 543.845 26.4318C544.229 26.1809 544.664 25.9915 545.152 25.8636C545.644 25.7358 546.161 25.6458 546.7 25.5938C547.335 25.5275 547.846 25.4659 548.234 25.4091C548.623 25.3475 548.904 25.2576 549.08 25.1392C549.255 25.0208 549.342 24.8456 549.342 24.6136V24.571C549.342 24.1212 549.2 23.7732 548.916 23.527C548.637 23.2808 548.239 23.1577 547.723 23.1577C547.179 23.1577 546.745 23.2784 546.423 23.5199C546.101 23.7566 545.888 24.0549 545.784 24.4148L542.986 24.1875C543.128 23.5246 543.407 22.9517 543.824 22.4688C544.241 21.9811 544.778 21.607 545.436 21.3466C546.099 21.0814 546.866 20.9489 547.737 20.9489C548.343 20.9489 548.923 21.0199 549.477 21.1619C550.036 21.304 550.531 21.5241 550.962 21.8224C551.397 22.1207 551.741 22.5043 551.991 22.973C552.242 23.437 552.368 23.9934 552.368 24.642V32H549.499V30.4872H549.413C549.238 30.8281 549.004 31.1288 548.71 31.3892C548.417 31.6449 548.064 31.8461 547.652 31.9929C547.24 32.1349 546.764 32.206 546.224 32.206ZM547.091 30.1179C547.536 30.1179 547.929 30.0303 548.27 29.8551C548.611 29.6752 548.878 29.4337 549.072 29.1307C549.267 28.8277 549.364 28.4844 549.364 28.1009V26.9432C549.269 27.0047 549.139 27.0616 548.973 27.1136C548.812 27.161 548.63 27.206 548.426 27.2486C548.223 27.2865 548.019 27.322 547.815 27.3551C547.612 27.3835 547.427 27.4096 547.261 27.4332C546.906 27.4853 546.596 27.5682 546.331 27.6818C546.066 27.7955 545.86 27.9493 545.713 28.1435C545.566 28.3329 545.493 28.5696 545.493 28.8537C545.493 29.2656 545.642 29.5805 545.94 29.7983C546.243 30.0114 546.627 30.1179 547.091 30.1179ZM553.62 23.4702V21.0909H563.506V23.4702H559.99V32H557.107V23.4702H553.62ZM567.237 24.4432H570.496C571.941 24.4432 573.067 24.7888 573.877 25.4801C574.687 26.1667 575.092 27.0852 575.092 28.2358C575.092 28.9839 574.909 29.642 574.545 30.2102C574.18 30.7737 573.655 31.214 572.968 31.5312C572.281 31.8438 571.458 32 570.496 32H565.34V21.0909H568.231V29.6207H570.496C571.003 29.6207 571.42 29.4929 571.746 29.2372C572.073 28.9815 572.239 28.6548 572.244 28.2571C572.239 27.8357 572.073 27.4924 571.746 27.2273C571.42 26.9574 571.003 26.8224 570.496 26.8224H567.237V24.4432ZM576.263 32V21.0909H579.289V32H576.263ZM581.707 32V21.0909H586.359C587.704 21.0909 588.767 21.3466 589.548 21.858C590.33 22.3693 590.72 23.0961 590.72 24.0384C590.72 24.6302 590.5 25.1226 590.06 25.5156C589.619 25.9086 589.009 26.1738 588.227 26.3111C588.881 26.3584 589.437 26.5076 589.896 26.7585C590.36 27.0047 590.713 27.3243 590.955 27.7173C591.201 28.1103 591.324 28.5459 591.324 29.0241C591.324 29.6444 591.158 30.1771 590.827 30.6222C590.5 31.0672 590.019 31.4081 589.385 31.6449C588.755 31.8816 587.986 32 587.077 32H581.707ZM584.527 29.7344H587.077C587.498 29.7344 587.827 29.6349 588.064 29.4361C588.305 29.2325 588.426 28.9555 588.426 28.6051C588.426 28.2169 588.305 27.9115 588.064 27.6889C587.827 27.4664 587.498 27.3551 587.077 27.3551H584.527V29.7344ZM584.527 25.5795H586.423C586.726 25.5795 586.984 25.5369 587.197 25.4517C587.415 25.3617 587.581 25.2339 587.695 25.0682C587.813 24.9025 587.872 24.706 587.872 24.4787C587.872 24.1425 587.737 23.8797 587.467 23.6903C587.197 23.5009 586.828 23.4062 586.359 23.4062H584.527V25.5795ZM596.342 32.206C595.646 32.206 595.025 32.0852 594.481 31.8438C593.936 31.5975 593.505 31.2353 593.188 30.7571C592.876 30.2741 592.719 29.6728 592.719 28.9531C592.719 28.3471 592.831 27.8381 593.053 27.4261C593.276 27.0142 593.579 26.6828 593.962 26.4318C594.346 26.1809 594.781 25.9915 595.269 25.8636C595.762 25.7358 596.278 25.6458 596.817 25.5938C597.452 25.5275 597.963 25.4659 598.352 25.4091C598.74 25.3475 599.022 25.2576 599.197 25.1392C599.372 25.0208 599.46 24.8456 599.46 24.6136V24.571C599.46 24.1212 599.317 23.7732 599.033 23.527C598.754 23.2808 598.356 23.1577 597.84 23.1577C597.296 23.1577 596.862 23.2784 596.54 23.5199C596.219 23.7566 596.005 24.0549 595.901 24.4148L593.103 24.1875C593.245 23.5246 593.524 22.9517 593.941 22.4688C594.358 21.9811 594.895 21.607 595.553 21.3466C596.216 21.0814 596.983 20.9489 597.854 20.9489C598.46 20.9489 599.04 21.0199 599.594 21.1619C600.153 21.304 600.648 21.5241 601.079 21.8224C601.514 22.1207 601.858 22.5043 602.109 22.973C602.36 23.437 602.485 23.9934 602.485 24.642V32H599.616V30.4872H599.531C599.355 30.8281 599.121 31.1288 598.827 31.3892C598.534 31.6449 598.181 31.8461 597.769 31.9929C597.357 32.1349 596.881 32.206 596.342 32.206ZM597.208 30.1179C597.653 30.1179 598.046 30.0303 598.387 29.8551C598.728 29.6752 598.996 29.4337 599.19 29.1307C599.384 28.8277 599.481 28.4844 599.481 28.1009V26.9432C599.386 27.0047 599.256 27.0616 599.09 27.1136C598.929 27.161 598.747 27.206 598.543 27.2486C598.34 27.2865 598.136 27.322 597.933 27.3551C597.729 27.3835 597.544 27.4096 597.379 27.4332C597.023 27.4853 596.713 27.5682 596.448 27.6818C596.183 27.7955 595.977 27.9493 595.83 28.1435C595.683 28.3329 595.61 28.5696 595.61 28.8537C595.61 29.2656 595.759 29.5805 596.058 29.7983C596.361 30.0114 596.744 30.1179 597.208 30.1179ZM609.804 32.2131C608.682 32.2131 607.716 31.9858 606.906 31.5312C606.101 31.072 605.481 30.4233 605.045 29.5852C604.61 28.7424 604.392 27.7457 604.392 26.5952C604.392 25.473 604.61 24.4882 605.045 23.6406C605.481 22.7931 606.094 22.1326 606.885 21.6591C607.68 21.1856 608.613 20.9489 609.683 20.9489C610.403 20.9489 611.073 21.0649 611.693 21.2969C612.318 21.5241 612.863 21.8674 613.327 22.3267C613.795 22.786 614.16 23.3636 614.42 24.0597C614.681 24.7509 614.811 25.5606 614.811 26.4886V27.3196H605.599V25.4446H611.963C611.963 25.009 611.868 24.6231 611.679 24.2869C611.49 23.9508 611.227 23.688 610.891 23.4986C610.559 23.3045 610.173 23.2074 609.733 23.2074C609.274 23.2074 608.866 23.3139 608.511 23.527C608.161 23.7353 607.886 24.017 607.688 24.3722C607.489 24.7225 607.387 25.1132 607.382 25.544V27.3267C607.382 27.8665 607.482 28.3329 607.68 28.7259C607.884 29.1188 608.17 29.4219 608.54 29.6349C608.909 29.848 609.347 29.9545 609.854 29.9545C610.19 29.9545 610.498 29.9072 610.777 29.8125C611.056 29.7178 611.295 29.5758 611.494 29.3864C611.693 29.197 611.845 28.965 611.949 28.6903L614.747 28.875C614.605 29.5473 614.314 30.1345 613.874 30.6364C613.438 31.1335 612.875 31.5218 612.183 31.8011C611.497 32.0758 610.704 32.2131 609.804 32.2131ZM615.944 23.4702V21.0909H625.83V23.4702H622.315V32H619.431V23.4702H615.944ZM19.7516 56.2131C18.6484 56.2131 17.6943 55.9787 16.8894 55.5099C16.0892 55.0365 15.4713 54.3783 15.0357 53.5355C14.6001 52.688 14.3823 51.7055 14.3823 50.5881C14.3823 49.4612 14.6001 48.4763 15.0357 47.6335C15.4713 46.786 16.0892 46.1278 16.8894 45.6591C17.6943 45.1856 18.6484 44.9489 19.7516 44.9489C20.8548 44.9489 21.8065 45.1856 22.6067 45.6591C23.4116 46.1278 24.0319 46.786 24.4675 47.6335C24.9031 48.4763 25.1209 49.4612 25.1209 50.5881C25.1209 51.7055 24.9031 52.688 24.4675 53.5355C24.0319 54.3783 23.4116 55.0365 22.6067 55.5099C21.8065 55.9787 20.8548 56.2131 19.7516 56.2131ZM19.7658 53.8693C20.2677 53.8693 20.6867 53.7273 21.0229 53.4432C21.3591 53.1544 21.6124 52.7614 21.7828 52.2642C21.958 51.767 22.0456 51.2012 22.0456 50.5668C22.0456 49.9323 21.958 49.3665 21.7828 48.8693C21.6124 48.3722 21.3591 47.9792 21.0229 47.6903C20.6867 47.4015 20.2677 47.2571 19.7658 47.2571C19.2592 47.2571 18.833 47.4015 18.4874 47.6903C18.1465 47.9792 17.8884 48.3722 17.7132 48.8693C17.5428 49.3665 17.4576 49.9323 17.4576 50.5668C17.4576 51.2012 17.5428 51.767 17.7132 52.2642C17.8884 52.7614 18.1465 53.1544 18.4874 53.4432C18.833 53.7273 19.2592 53.8693 19.7658 53.8693ZM32.0172 56.2131C30.8998 56.2131 29.9386 55.9763 29.1337 55.5028C28.3335 55.0246 27.718 54.3617 27.2871 53.5142C26.861 52.6667 26.6479 51.6913 26.6479 50.5881C26.6479 49.4706 26.8633 48.4905 27.2942 47.6477C27.7298 46.8002 28.3477 46.1397 29.1479 45.6662C29.9481 45.188 30.8998 44.9489 32.003 44.9489C32.9547 44.9489 33.7881 45.1217 34.503 45.4673C35.218 45.813 35.7838 46.2983 36.2005 46.9233C36.6171 47.5483 36.8468 48.2822 36.8894 49.125H34.0343C33.9538 48.5805 33.7407 48.1425 33.3951 47.8111C33.0542 47.4749 32.6067 47.3068 32.0527 47.3068C31.584 47.3068 31.1744 47.4347 30.824 47.6903C30.4784 47.9413 30.2085 48.3082 30.0144 48.7912C29.8203 49.2741 29.7232 49.8589 29.7232 50.5455C29.7232 51.2415 29.8179 51.8333 30.0073 52.321C30.2014 52.8087 30.4737 53.1804 30.824 53.4361C31.1744 53.6918 31.584 53.8196 32.0527 53.8196C32.3984 53.8196 32.7085 53.7486 32.9831 53.6065C33.2625 53.4645 33.4921 53.2585 33.6721 52.9886C33.8567 52.714 33.9775 52.3849 34.0343 52.0014H36.8894C36.842 52.8348 36.6148 53.5687 36.2076 54.2031C35.8051 54.8329 35.2488 55.3253 34.5385 55.6804C33.8283 56.0355 32.9879 56.2131 32.0172 56.2131ZM46.4189 49.3381V51.7173H40.7228V49.3381H46.4189ZM41.7172 45.0909V56H38.8265V45.0909H41.7172ZM48.3152 45.0909V56H45.4458V45.0909H48.3152ZM55.5914 56.2131C54.4882 56.2131 53.5342 55.9787 52.7292 55.5099C51.929 55.0365 51.3111 54.3783 50.8755 53.5355C50.4399 52.688 50.2221 51.7055 50.2221 50.5881C50.2221 49.4612 50.4399 48.4763 50.8755 47.6335C51.3111 46.786 51.929 46.1278 52.7292 45.6591C53.5342 45.1856 54.4882 44.9489 55.5914 44.9489C56.6947 44.9489 57.6464 45.1856 58.4466 45.6591C59.2515 46.1278 59.8717 46.786 60.3074 47.6335C60.743 48.4763 60.9608 49.4612 60.9608 50.5881C60.9608 51.7055 60.743 52.688 60.3074 53.5355C59.8717 54.3783 59.2515 55.0365 58.4466 55.5099C57.6464 55.9787 56.6947 56.2131 55.5914 56.2131ZM55.6056 53.8693C56.1075 53.8693 56.5266 53.7273 56.8627 53.4432C57.1989 53.1544 57.4522 52.7614 57.6227 52.2642C57.7979 51.767 57.8855 51.2012 57.8855 50.5668C57.8855 49.9323 57.7979 49.3665 57.6227 48.8693C57.4522 48.3722 57.1989 47.9792 56.8627 47.6903C56.5266 47.4015 56.1075 47.2571 55.6056 47.2571C55.099 47.2571 54.6729 47.4015 54.3272 47.6903C53.9863 47.9792 53.7283 48.3722 53.5531 48.8693C53.3826 49.3665 53.2974 49.9323 53.2974 50.5668C53.2974 51.2012 53.3826 51.767 53.5531 52.2642C53.7283 52.7614 53.9863 53.1544 54.3272 53.4432C54.6729 53.7273 55.099 53.8693 55.6056 53.8693ZM62.9281 56V45.0909H67.5801C68.9248 45.0909 69.9877 45.3466 70.769 45.858C71.5502 46.3693 71.9409 47.0961 71.9409 48.0384C71.9409 48.6302 71.7207 49.1226 71.2804 49.5156C70.84 49.9086 70.2292 50.1738 69.448 50.3111C70.1014 50.3584 70.6577 50.5076 71.117 50.7585C71.581 51.0047 71.9338 51.3243 72.1752 51.7173C72.4215 52.1103 72.5446 52.5459 72.5446 53.0241C72.5446 53.6444 72.3788 54.1771 72.0474 54.6222C71.7207 55.0672 71.2401 55.4081 70.6056 55.6449C69.9759 55.8816 69.2065 56 68.2974 56H62.9281ZM65.7477 53.7344H68.2974C68.7188 53.7344 69.0479 53.6349 69.2846 53.4361C69.5261 53.2325 69.6468 52.9555 69.6468 52.6051C69.6468 52.2169 69.5261 51.9115 69.2846 51.6889C69.0479 51.4664 68.7188 51.3551 68.2974 51.3551H65.7477V53.7344ZM65.7477 49.5795H67.644C67.947 49.5795 68.2051 49.5369 68.4181 49.4517C68.6359 49.3617 68.8017 49.2339 68.9153 49.0682C69.0337 48.9025 69.0929 48.706 69.0929 48.4787C69.0929 48.1425 68.9579 47.8797 68.688 47.6903C68.4181 47.5009 68.0488 47.4062 67.5801 47.4062H65.7477V49.5795ZM82.0439 49.3381V51.7173H76.3478V49.3381H82.0439ZM77.3422 45.0909V56H74.4515V45.0909H77.3422ZM83.9402 45.0909V56H81.0708V45.0909H83.9402ZM88.1838 48.4432H91.4437C92.8878 48.4432 94.0147 48.7888 94.8244 49.4801C95.6341 50.1667 96.0389 51.0852 96.0389 52.2358C96.0389 52.9839 95.8566 53.642 95.492 54.2102C95.1274 54.7737 94.6019 55.214 93.9153 55.5312C93.2288 55.8438 92.4049 56 91.4437 56H86.2875V45.0909H89.1781V53.6207H91.4437C91.9503 53.6207 92.367 53.4929 92.6937 53.2372C93.0204 52.9815 93.1861 52.6548 93.1909 52.2571C93.1861 51.8357 93.0204 51.4924 92.6937 51.2273C92.367 50.9574 91.9503 50.8224 91.4437 50.8224H88.1838V48.4432ZM97.2108 56V45.0909H100.236V56H97.2108ZM107.626 56.2131C106.504 56.2131 105.538 55.9858 104.729 55.5312C103.924 55.072 103.303 54.4233 102.868 53.5852C102.432 52.7424 102.214 51.7457 102.214 50.5952C102.214 49.473 102.432 48.4882 102.868 47.6406C103.303 46.7931 103.916 46.1326 104.707 45.6591C105.503 45.1856 106.435 44.9489 107.506 44.9489C108.225 44.9489 108.895 45.0649 109.515 45.2969C110.14 45.5241 110.685 45.8674 111.149 46.3267C111.618 46.786 111.982 47.3636 112.243 48.0597C112.503 48.7509 112.633 49.5606 112.633 50.4886V51.3196H103.422V49.4446H109.785C109.785 49.009 109.691 48.6231 109.501 48.2869C109.312 47.9508 109.049 47.688 108.713 47.4986C108.381 47.3045 107.996 47.2074 107.555 47.2074C107.096 47.2074 106.689 47.3139 106.334 47.527C105.983 47.7353 105.709 48.017 105.51 48.3722C105.311 48.7225 105.209 49.1132 105.204 49.544V51.3267C105.204 51.8665 105.304 52.3329 105.503 52.7259C105.706 53.1188 105.993 53.4219 106.362 53.6349C106.731 53.848 107.169 53.9545 107.676 53.9545C108.012 53.9545 108.32 53.9072 108.599 53.8125C108.879 53.7178 109.118 53.5758 109.317 53.3864C109.515 53.197 109.667 52.965 109.771 52.6903L112.569 52.875C112.427 53.5473 112.136 54.1345 111.696 54.6364C111.26 55.1335 110.697 55.5218 110.006 55.8011C109.319 56.0758 108.526 56.2131 107.626 56.2131ZM125.686 52.6548L128.64 45.0909H130.941L126.687 56H124.677L120.522 45.0909H122.816L125.686 52.6548ZM122.127 45.0909V56H119.237V45.0909H122.127ZM129.393 56V45.0909H132.248V56H129.393ZM139.56 56.2131C138.438 56.2131 137.472 55.9858 136.662 55.5312C135.857 55.072 135.237 54.4233 134.801 53.5852C134.366 52.7424 134.148 51.7457 134.148 50.5952C134.148 49.473 134.366 48.4882 134.801 47.6406C135.237 46.7931 135.85 46.1326 136.641 45.6591C137.436 45.1856 138.369 44.9489 139.439 44.9489C140.159 44.9489 140.829 45.0649 141.449 45.2969C142.074 45.5241 142.619 45.8674 143.083 46.3267C143.551 46.786 143.916 47.3636 144.176 48.0597C144.437 48.7509 144.567 49.5606 144.567 50.4886V51.3196H135.355V49.4446H141.719C141.719 49.009 141.624 48.6231 141.435 48.2869C141.245 47.9508 140.983 47.688 140.646 47.4986C140.315 47.3045 139.929 47.2074 139.489 47.2074C139.03 47.2074 138.622 47.3139 138.267 47.527C137.917 47.7353 137.642 48.017 137.443 48.3722C137.244 48.7225 137.143 49.1132 137.138 49.544V51.3267C137.138 51.8665 137.237 52.3329 137.436 52.7259C137.64 53.1188 137.926 53.4219 138.296 53.6349C138.665 53.848 139.103 53.9545 139.61 53.9545C139.946 53.9545 140.253 53.9072 140.533 53.8125C140.812 53.7178 141.051 53.5758 141.25 53.3864C141.449 53.197 141.601 52.965 141.705 52.6903L144.503 52.875C144.361 53.5473 144.07 54.1345 143.629 54.6364C143.194 55.1335 142.63 55.5218 141.939 55.8011C141.253 56.0758 140.459 56.2131 139.56 56.2131ZM145.7 47.4702V45.0909H155.586V47.4702H152.07V56H149.187V47.4702H145.7ZM161.959 56.2131C160.855 56.2131 159.901 55.9787 159.096 55.5099C158.296 55.0365 157.678 54.3783 157.243 53.5355C156.807 52.688 156.589 51.7055 156.589 50.5881C156.589 49.4612 156.807 48.4763 157.243 47.6335C157.678 46.786 158.296 46.1278 159.096 45.6591C159.901 45.1856 160.855 44.9489 161.959 44.9489C163.062 44.9489 164.014 45.1856 164.814 45.6591C165.619 46.1278 166.239 46.786 166.675 47.6335C167.11 48.4763 167.328 49.4612 167.328 50.5881C167.328 51.7055 167.11 52.688 166.675 53.5355C166.239 54.3783 165.619 55.0365 164.814 55.5099C164.014 55.9787 163.062 56.2131 161.959 56.2131ZM161.973 53.8693C162.475 53.8693 162.894 53.7273 163.23 53.4432C163.566 53.1544 163.819 52.7614 163.99 52.2642C164.165 51.767 164.253 51.2012 164.253 50.5668C164.253 49.9323 164.165 49.3665 163.99 48.8693C163.819 48.3722 163.566 47.9792 163.23 47.6903C162.894 47.4015 162.475 47.2571 161.973 47.2571C161.466 47.2571 161.04 47.4015 160.694 47.6903C160.354 47.9792 160.095 48.3722 159.92 48.8693C159.75 49.3665 159.665 49.9323 159.665 50.5668C159.665 51.2012 159.75 51.767 159.92 52.2642C160.095 52.7614 160.354 53.1544 160.694 53.4432C161.04 53.7273 161.466 53.8693 161.973 53.8693ZM168.443 59.196V53.5994H169.281C169.523 53.4479 169.717 53.2064 169.863 52.875C170.015 52.5436 170.138 52.1529 170.233 51.7031C170.332 51.2533 170.408 50.768 170.46 50.2472C170.517 49.7216 170.567 49.1913 170.609 48.6562L170.893 45.0909H179.26V53.5994H180.95V59.196H178.067V56H171.398V59.196H168.443ZM172.292 53.5994H176.405V47.4205H173.464L173.351 48.6562C173.27 49.821 173.154 50.8106 173.003 51.625C172.851 52.4347 172.614 53.0928 172.292 53.5994ZM184.61 48.4432H187.869C189.314 48.4432 190.441 48.7888 191.25 49.4801C192.06 50.1667 192.465 51.0852 192.465 52.2358C192.465 52.9839 192.282 53.642 191.918 54.2102C191.553 54.7737 191.028 55.214 190.341 55.5312C189.655 55.8438 188.831 56 187.869 56H182.713V45.0909H185.604V53.6207H187.869C188.376 53.6207 188.793 53.4929 189.119 53.2372C189.446 52.9815 189.612 52.6548 189.617 52.2571C189.612 51.8357 189.446 51.4924 189.119 51.2273C188.793 50.9574 188.376 50.8224 187.869 50.8224H184.61V48.4432ZM193.637 56V45.0909H196.662V56H193.637ZM203.709 56V45.0909H213.248V56H210.357V47.4702H206.564V56H203.709ZM220.591 56.2131C219.488 56.2131 218.534 55.9787 217.729 55.5099C216.929 55.0365 216.311 54.3783 215.876 53.5355C215.44 52.688 215.222 51.7055 215.222 50.5881C215.222 49.4612 215.44 48.4763 215.876 47.6335C216.311 46.786 216.929 46.1278 217.729 45.6591C218.534 45.1856 219.488 44.9489 220.591 44.9489C221.695 44.9489 222.646 45.1856 223.447 45.6591C224.251 46.1278 224.872 46.786 225.307 47.6335C225.743 48.4763 225.961 49.4612 225.961 50.5881C225.961 51.7055 225.743 52.688 225.307 53.5355C224.872 54.3783 224.251 55.0365 223.447 55.5099C222.646 55.9787 221.695 56.2131 220.591 56.2131ZM220.606 53.8693C221.108 53.8693 221.527 53.7273 221.863 53.4432C222.199 53.1544 222.452 52.7614 222.623 52.2642C222.798 51.767 222.885 51.2012 222.885 50.5668C222.885 49.9323 222.798 49.3665 222.623 48.8693C222.452 48.3722 222.199 47.9792 221.863 47.6903C221.527 47.4015 221.108 47.2571 220.606 47.2571C220.099 47.2571 219.673 47.4015 219.327 47.6903C218.986 47.9792 218.728 48.3722 218.553 48.8693C218.383 49.3665 218.297 49.9323 218.297 50.5668C218.297 51.2012 218.383 51.767 218.553 52.2642C218.728 52.7614 218.986 53.1544 219.327 53.4432C219.673 53.7273 220.099 53.8693 220.606 53.8693ZM227.367 52.9105H230.3C230.314 53.2704 230.475 53.5545 230.783 53.7628C231.091 53.9711 231.489 54.0753 231.976 54.0753C232.469 54.0753 232.883 53.9616 233.219 53.7344C233.555 53.5024 233.724 53.1709 233.724 52.7401C233.724 52.4749 233.657 52.2453 233.525 52.0511C233.392 51.8523 233.207 51.696 232.971 51.5824C232.734 51.4687 232.459 51.4119 232.147 51.4119H230.577V49.4304H232.147C232.616 49.4304 232.975 49.3215 233.226 49.1037C233.482 48.8859 233.61 48.6136 233.61 48.2869C233.61 47.9176 233.477 47.6217 233.212 47.3991C232.952 47.1719 232.599 47.0582 232.154 47.0582C231.704 47.0582 231.33 47.16 231.032 47.3636C230.738 47.5625 230.587 47.8229 230.577 48.1449H227.658C227.668 47.4915 227.864 46.9257 228.248 46.4474C228.636 45.9692 229.157 45.5999 229.81 45.3395C230.468 45.0791 231.205 44.9489 232.019 44.9489C232.909 44.9489 233.676 45.0743 234.32 45.3253C234.969 45.5715 235.466 45.9242 235.812 46.3835C236.162 46.8428 236.337 47.3897 236.337 48.0241C236.337 48.6018 236.148 49.0848 235.769 49.473C235.39 49.8613 234.86 50.1383 234.178 50.304V50.4176C234.628 50.446 235.035 50.5668 235.4 50.7798C235.764 50.9929 236.055 51.2865 236.273 51.6605C236.491 52.0298 236.6 52.4678 236.6 52.9744C236.6 53.6515 236.401 54.2315 236.003 54.7145C235.61 55.1974 235.066 55.5691 234.37 55.8295C233.679 56.0852 232.885 56.2131 231.991 56.2131C231.119 56.2131 230.338 56.0876 229.647 55.8366C228.96 55.581 228.413 55.2069 228.006 54.7145C227.604 54.2221 227.391 53.6207 227.367 52.9105ZM246.048 49.3381V51.7173H240.352V49.3381H246.048ZM241.346 45.0909V56H238.455V45.0909H241.346ZM247.944 45.0909V56H245.075V45.0909H247.944ZM253.402 56.206C252.706 56.206 252.086 56.0852 251.541 55.8438C250.997 55.5975 250.566 55.2353 250.249 54.7571C249.936 54.2741 249.78 53.6728 249.78 52.9531C249.78 52.3471 249.891 51.8381 250.114 51.4261C250.336 51.0142 250.639 50.6828 251.023 50.4318C251.406 50.1809 251.842 49.9915 252.33 49.8636C252.822 49.7358 253.338 49.6458 253.878 49.5938C254.512 49.5275 255.024 49.4659 255.412 49.4091C255.8 49.3475 256.082 49.2576 256.257 49.1392C256.432 49.0208 256.52 48.8456 256.52 48.6136V48.571C256.52 48.1212 256.378 47.7732 256.094 47.527C255.815 47.2808 255.417 47.1577 254.901 47.1577C254.356 47.1577 253.923 47.2784 253.601 47.5199C253.279 47.7566 253.066 48.0549 252.962 48.4148L250.164 48.1875C250.306 47.5246 250.585 46.9517 251.002 46.4688C251.418 45.9811 251.956 45.607 252.614 45.3466C253.277 45.0814 254.044 44.9489 254.915 44.9489C255.521 44.9489 256.101 45.0199 256.655 45.1619C257.214 45.304 257.709 45.5241 258.139 45.8224C258.575 46.1207 258.918 46.5043 259.169 46.973C259.42 47.437 259.546 47.9934 259.546 48.642V56H256.676V54.4872H256.591C256.416 54.8281 256.182 55.1288 255.888 55.3892C255.594 55.6449 255.242 55.8461 254.83 55.9929C254.418 56.1349 253.942 56.206 253.402 56.206ZM254.269 54.1179C254.714 54.1179 255.107 54.0303 255.448 53.8551C255.789 53.6752 256.056 53.4337 256.25 53.1307C256.444 52.8277 256.541 52.4844 256.541 52.1009V50.9432C256.447 51.0047 256.316 51.0616 256.151 51.1136C255.99 51.161 255.807 51.206 255.604 51.2486C255.4 51.2865 255.197 51.322 254.993 51.3551C254.789 51.3835 254.605 51.4096 254.439 51.4332C254.084 51.4853 253.774 51.5682 253.509 51.6818C253.244 51.7955 253.038 51.9493 252.891 52.1435C252.744 52.3329 252.671 52.5696 252.671 52.8537C252.671 53.2656 252.82 53.5805 253.118 53.7983C253.421 54.0114 253.805 54.1179 254.269 54.1179ZM269.485 49.3381V51.7173H263.789V49.3381H269.485ZM264.784 45.0909V56H261.893V45.0909H264.784ZM271.382 45.0909V56H268.512V45.0909H271.382ZM276.619 52.0085L280.547 45.0909H283.53V56H280.646V49.0611L276.733 56H273.729V45.0909H276.619V52.0085ZM292.347 56V47.4631H290.302C289.748 47.4631 289.327 47.5909 289.038 47.8466C288.749 48.1023 288.607 48.4053 288.612 48.7557C288.607 49.1108 288.744 49.4115 289.024 49.6577C289.308 49.8991 289.724 50.0199 290.274 50.0199H293.356V52.0653H290.274C289.341 52.0653 288.534 51.9233 287.852 51.6392C287.17 51.3551 286.644 50.9598 286.275 50.4531C285.906 49.9418 285.723 49.3475 285.728 48.6705C285.723 47.9602 285.906 47.3376 286.275 46.8026C286.644 46.2628 287.172 45.8437 287.859 45.5455C288.55 45.2424 289.365 45.0909 290.302 45.0909H295.167V56H292.347ZM285.416 56L288.448 50.3182H291.339L288.313 56H285.416ZM307.076 56.2131C305.973 56.2131 305.019 55.9787 304.214 55.5099C303.413 55.0365 302.796 54.3783 302.36 53.5355C301.924 52.688 301.706 51.7055 301.706 50.5881C301.706 49.4612 301.924 48.4763 302.36 47.6335C302.796 46.786 303.413 46.1278 304.214 45.6591C305.019 45.1856 305.973 44.9489 307.076 44.9489C308.179 44.9489 309.131 45.1856 309.931 45.6591C310.736 46.1278 311.356 46.786 311.792 47.6335C312.227 48.4763 312.445 49.4612 312.445 50.5881C312.445 51.7055 312.227 52.688 311.792 53.5355C311.356 54.3783 310.736 55.0365 309.931 55.5099C309.131 55.9787 308.179 56.2131 307.076 56.2131ZM307.09 53.8693C307.592 53.8693 308.011 53.7273 308.347 53.4432C308.683 53.1544 308.937 52.7614 309.107 52.2642C309.282 51.767 309.37 51.2012 309.37 50.5668C309.37 49.9323 309.282 49.3665 309.107 48.8693C308.937 48.3722 308.683 47.9792 308.347 47.6903C308.011 47.4015 307.592 47.2571 307.09 47.2571C306.583 47.2571 306.157 47.4015 305.812 47.6903C305.471 47.9792 305.213 48.3722 305.037 48.8693C304.867 49.3665 304.782 49.9323 304.782 50.5668C304.782 51.2012 304.867 51.767 305.037 52.2642C305.213 52.7614 305.471 53.1544 305.812 53.4432C306.157 53.7273 306.583 53.8693 307.09 53.8693ZM314.412 56V45.0909H317.438V49.3239H318.29L321.259 45.0909H324.81L320.954 50.5028L324.853 56H321.259L318.567 52.1293H317.438V56H314.412ZM326.131 60.0909V45.0909H329.114V46.9233H329.249C329.382 46.6297 329.573 46.3314 329.824 46.0284C330.08 45.7206 330.412 45.465 330.819 45.2614C331.231 45.053 331.742 44.9489 332.353 44.9489C333.148 44.9489 333.882 45.1572 334.555 45.5739C335.227 45.9858 335.764 46.6084 336.167 47.4418C336.569 48.2704 336.77 49.3097 336.77 50.5597C336.77 51.7765 336.574 52.804 336.181 53.642C335.793 54.4754 335.262 55.1075 334.59 55.5384C333.922 55.9645 333.174 56.1776 332.346 56.1776C331.759 56.1776 331.259 56.0805 330.847 55.8864C330.44 55.6922 330.106 55.4484 329.846 55.1548C329.585 54.8565 329.386 54.5559 329.249 54.2528H329.157V60.0909H326.131ZM329.093 50.5455C329.093 51.1941 329.183 51.7599 329.363 52.2429C329.543 52.7259 329.803 53.1023 330.144 53.3722C330.485 53.6373 330.899 53.7699 331.387 53.7699C331.879 53.7699 332.296 53.6349 332.637 53.3651C332.978 53.0904 333.236 52.7116 333.411 52.2287C333.591 51.741 333.681 51.1799 333.681 50.5455C333.681 49.9157 333.593 49.3617 333.418 48.8835C333.243 48.4053 332.985 48.0312 332.644 47.7614C332.303 47.4915 331.884 47.3565 331.387 47.3565C330.894 47.3565 330.478 47.4867 330.137 47.7472C329.801 48.0076 329.543 48.3769 329.363 48.8551C329.183 49.3333 329.093 49.8968 329.093 50.5455ZM340.304 60.0909C339.92 60.0909 339.56 60.0601 339.224 59.9986C338.893 59.9418 338.618 59.8684 338.4 59.7784L339.082 57.5199C339.437 57.6288 339.757 57.688 340.041 57.6974C340.33 57.7069 340.578 57.6406 340.787 57.4986C341 57.3565 341.173 57.1151 341.305 56.7741L341.483 56.3125L337.569 45.0909H340.751L343.01 53.1023H343.123L345.403 45.0909H348.606L344.366 57.179C344.163 57.7661 343.886 58.2775 343.535 58.7131C343.19 59.1534 342.752 59.492 342.221 59.7287C341.691 59.9702 341.052 60.0909 340.304 60.0909ZM349.444 56L353.258 50.3253L349.466 45.0909H352.917L355.751 49.3594H356.22V45.0909H359.246V49.3594H359.7L362.534 45.0909H365.986L362.2 50.3253L366.007 56H362.477L359.672 51.7386H359.246V56H356.22V51.7386H355.794L352.974 56H349.444ZM370.765 56.206C370.069 56.206 369.449 56.0852 368.905 55.8438C368.36 55.5975 367.929 55.2353 367.612 54.7571C367.3 54.2741 367.143 53.6728 367.143 52.9531C367.143 52.3471 367.255 51.8381 367.477 51.4261C367.7 51.0142 368.003 50.6828 368.386 50.4318C368.77 50.1809 369.205 49.9915 369.693 49.8636C370.185 49.7358 370.702 49.6458 371.241 49.5938C371.876 49.5275 372.387 49.4659 372.775 49.4091C373.164 49.3475 373.445 49.2576 373.621 49.1392C373.796 49.0208 373.883 48.8456 373.883 48.6136V48.571C373.883 48.1212 373.741 47.7732 373.457 47.527C373.178 47.2808 372.78 47.1577 372.264 47.1577C371.72 47.1577 371.286 47.2784 370.964 47.5199C370.642 47.7566 370.429 48.0549 370.325 48.4148L367.527 48.1875C367.669 47.5246 367.948 46.9517 368.365 46.4688C368.782 45.9811 369.319 45.607 369.977 45.3466C370.64 45.0814 371.407 44.9489 372.278 44.9489C372.884 44.9489 373.464 45.0199 374.018 45.1619C374.577 45.304 375.072 45.5241 375.503 45.8224C375.938 46.1207 376.282 46.5043 376.532 46.973C376.783 47.437 376.909 47.9934 376.909 48.642V56H374.04V54.4872H373.954C373.779 54.8281 373.545 55.1288 373.251 55.3892C372.958 55.6449 372.605 55.8461 372.193 55.9929C371.781 56.1349 371.305 56.206 370.765 56.206ZM371.632 54.1179C372.077 54.1179 372.47 54.0303 372.811 53.8551C373.152 53.6752 373.419 53.4337 373.613 53.1307C373.808 52.8277 373.905 52.4844 373.905 52.1009V50.9432C373.81 51.0047 373.68 51.0616 373.514 51.1136C373.353 51.161 373.171 51.206 372.967 51.2486C372.764 51.2865 372.56 51.322 372.356 51.3551C372.153 51.3835 371.968 51.4096 371.802 51.4332C371.447 51.4853 371.137 51.5682 370.872 51.6818C370.607 51.7955 370.401 51.9493 370.254 52.1435C370.107 52.3329 370.034 52.5696 370.034 52.8537C370.034 53.2656 370.183 53.5805 370.481 53.7983C370.784 54.0114 371.168 54.1179 371.632 54.1179ZM385.286 49.402V51.8026H379.37V49.402H385.286ZM381.706 45.0909V56H378.688V45.0909H381.706ZM388.553 56.2131C387.474 56.2131 386.541 55.9716 385.755 55.4886C384.969 55.0057 384.363 54.3381 383.937 53.4858C383.515 52.6335 383.305 51.6558 383.305 50.5526C383.305 49.4493 383.515 48.4763 383.937 47.6335C384.363 46.7907 384.969 46.1326 385.755 45.6591C386.541 45.1856 387.474 44.9489 388.553 44.9489C389.637 44.9489 390.57 45.1856 391.351 45.6591C392.137 46.1326 392.741 46.7907 393.162 47.6335C393.589 48.4763 393.802 49.4493 393.802 50.5526C393.802 51.6558 393.589 52.6335 393.162 53.4858C392.741 54.3381 392.137 55.0057 391.351 55.4886C390.57 55.9716 389.637 56.2131 388.553 56.2131ZM388.553 53.7699C389.117 53.7699 389.571 53.6326 389.917 53.358C390.262 53.0786 390.516 52.6974 390.677 52.2145C390.838 51.7268 390.918 51.1728 390.918 50.5526C390.918 49.9323 390.838 49.383 390.677 48.9048C390.516 48.4219 390.262 48.0431 389.917 47.7685C389.571 47.4938 389.117 47.3565 388.553 47.3565C387.994 47.3565 387.54 47.4938 387.189 47.7685C386.839 48.0384 386.581 48.4124 386.415 48.8906C386.254 49.3688 386.174 49.9228 386.174 50.5526C386.174 51.1776 386.254 51.7315 386.415 52.2145C386.581 52.6974 386.839 53.0786 387.189 53.358C387.54 53.6326 387.994 53.7699 388.553 53.7699ZM412.996 53.6207L412.782 59.125H410.006V56H408.791V53.6207H412.996ZM395.858 45.0909H398.748V53.5994H401.824V45.0909H404.714V53.5994H407.79V45.0909H410.68V56H395.858V45.0909ZM419.657 56.2131C418.535 56.2131 417.569 55.9858 416.76 55.5312C415.955 55.072 415.335 54.4233 414.899 53.5852C414.463 52.7424 414.246 51.7457 414.246 50.5952C414.246 49.473 414.463 48.4882 414.899 47.6406C415.335 46.7931 415.948 46.1326 416.738 45.6591C417.534 45.1856 418.467 44.9489 419.537 44.9489C420.256 44.9489 420.926 45.0649 421.547 45.2969C422.172 45.5241 422.716 45.8674 423.18 46.3267C423.649 46.786 424.014 47.3636 424.274 48.0597C424.534 48.7509 424.665 49.5606 424.665 50.4886V51.3196H415.453V49.4446H421.817C421.817 49.009 421.722 48.6231 421.532 48.2869C421.343 47.9508 421.08 47.688 420.744 47.4986C420.413 47.3045 420.027 47.2074 419.586 47.2074C419.127 47.2074 418.72 47.3139 418.365 47.527C418.015 47.7353 417.74 48.017 417.541 48.3722C417.342 48.7225 417.24 49.1132 417.236 49.544V51.3267C417.236 51.8665 417.335 52.3329 417.534 52.7259C417.738 53.1188 418.024 53.4219 418.393 53.6349C418.763 53.848 419.201 53.9545 419.707 53.9545C420.043 53.9545 420.351 53.9072 420.631 53.8125C420.91 53.7178 421.149 53.5758 421.348 53.3864C421.547 53.197 421.698 52.965 421.802 52.6903L424.601 52.875C424.459 53.5473 424.167 54.1345 423.727 54.6364C423.291 55.1335 422.728 55.5218 422.037 55.8011C421.35 56.0758 420.557 56.2131 419.657 56.2131ZM429.53 52.0085L433.457 45.0909H436.44V56H433.557V49.0611L429.643 56H426.639V45.0909H429.53V52.0085ZM432.939 41.2841H435.048C435.043 42.1458 434.724 42.8395 434.089 43.3651C433.46 43.8906 432.607 44.1534 431.532 44.1534C430.453 44.1534 429.598 43.8906 428.969 43.3651C428.339 42.8395 428.024 42.1458 428.024 41.2841H430.119C430.114 41.6108 430.219 41.9044 430.432 42.1648C430.649 42.4252 431.016 42.5554 431.532 42.5554C432.034 42.5554 432.394 42.4276 432.612 42.1719C432.83 41.9162 432.939 41.6203 432.939 41.2841ZM442.642 59.196V53.5994H443.48C443.722 53.4479 443.916 53.2064 444.063 52.875C444.214 52.5436 444.337 52.1529 444.432 51.7031C444.531 51.2533 444.607 50.768 444.659 50.2472C444.716 49.7216 444.766 49.1913 444.808 48.6562L445.093 45.0909H453.459V53.5994H455.149V59.196H452.266V56H445.597V59.196H442.642ZM446.492 53.5994H450.604V47.4205H447.664L447.55 48.6562C447.469 49.821 447.353 50.8106 447.202 51.625C447.05 52.4347 446.814 53.0928 446.492 53.5994ZM461.884 56.2131C460.762 56.2131 459.796 55.9858 458.986 55.5312C458.181 55.072 457.561 54.4233 457.126 53.5852C456.69 52.7424 456.472 51.7457 456.472 50.5952C456.472 49.473 456.69 48.4882 457.126 47.6406C457.561 46.7931 458.174 46.1326 458.965 45.6591C459.76 45.1856 460.693 44.9489 461.763 44.9489C462.483 44.9489 463.153 45.0649 463.773 45.2969C464.398 45.5241 464.943 45.8674 465.407 46.3267C465.876 46.786 466.24 47.3636 466.501 48.0597C466.761 48.7509 466.891 49.5606 466.891 50.4886V51.3196H457.68V49.4446H464.043C464.043 49.009 463.948 48.6231 463.759 48.2869C463.57 47.9508 463.307 47.688 462.971 47.4986C462.639 47.3045 462.253 47.2074 461.813 47.2074C461.354 47.2074 460.947 47.3139 460.591 47.527C460.241 47.7353 459.966 48.017 459.768 48.3722C459.569 48.7225 459.467 49.1132 459.462 49.544V51.3267C459.462 51.8665 459.562 52.3329 459.76 52.7259C459.964 53.1188 460.251 53.4219 460.62 53.6349C460.989 53.848 461.427 53.9545 461.934 53.9545C462.27 53.9545 462.578 53.9072 462.857 53.8125C463.136 53.7178 463.376 53.5758 463.574 53.3864C463.773 53.197 463.925 52.965 464.029 52.6903L466.827 52.875C466.685 53.5473 466.394 54.1345 465.954 54.6364C465.518 55.1335 464.955 55.5218 464.263 55.8011C463.577 56.0758 462.784 56.2131 461.884 56.2131ZM471.756 52.0085L475.684 45.0909H478.667V56H475.783V49.0611L471.87 56H468.866V45.0909H471.756V52.0085ZM475.165 41.2841H477.275C477.27 42.1458 476.95 42.8395 476.316 43.3651C475.686 43.8906 474.834 44.1534 473.759 44.1534C472.68 44.1534 471.825 43.8906 471.195 43.3651C470.565 42.8395 470.251 42.1458 470.251 41.2841H472.346C472.341 41.6108 472.445 41.9044 472.658 42.1648C472.876 42.4252 473.243 42.5554 473.759 42.5554C474.261 42.5554 474.621 42.4276 474.839 42.1719C475.056 41.9162 475.165 41.6203 475.165 41.2841ZM486.021 56.2131C484.904 56.2131 483.943 55.9763 483.138 55.5028C482.337 55.0246 481.722 54.3617 481.291 53.5142C480.865 52.6667 480.652 51.6913 480.652 50.5881C480.652 49.4706 480.867 48.4905 481.298 47.6477C481.734 46.8002 482.352 46.1397 483.152 45.6662C483.952 45.188 484.904 44.9489 486.007 44.9489C486.959 44.9489 487.792 45.1217 488.507 45.4673C489.222 45.813 489.788 46.2983 490.204 46.9233C490.621 47.5483 490.851 48.2822 490.893 49.125H488.038C487.958 48.5805 487.745 48.1425 487.399 47.8111C487.058 47.4749 486.611 47.3068 486.057 47.3068C485.588 47.3068 485.178 47.4347 484.828 47.6903C484.482 47.9413 484.212 48.3082 484.018 48.7912C483.824 49.2741 483.727 49.8589 483.727 50.5455C483.727 51.2415 483.822 51.8333 484.011 52.321C484.205 52.8087 484.478 53.1804 484.828 53.4361C485.178 53.6918 485.588 53.8196 486.057 53.8196C486.402 53.8196 486.712 53.7486 486.987 53.6065C487.266 53.4645 487.496 53.2585 487.676 52.9886C487.861 52.714 487.981 52.3849 488.038 52.0014H490.893C490.846 52.8348 490.619 53.5687 490.211 54.2031C489.809 54.8329 489.253 55.3253 488.542 55.6804C487.832 56.0355 486.992 56.2131 486.021 56.2131ZM492.086 47.4702V45.0909H501.973V47.4702H498.457V56H495.574V47.4702H492.086ZM503.807 56V45.0909H508.459C509.804 45.0909 510.867 45.3466 511.648 45.858C512.429 46.3693 512.82 47.0961 512.82 48.0384C512.82 48.6302 512.6 49.1226 512.159 49.5156C511.719 49.9086 511.108 50.1738 510.327 50.3111C510.98 50.3584 511.537 50.5076 511.996 50.7585C512.46 51.0047 512.813 51.3243 513.054 51.7173C513.3 52.1103 513.423 52.5459 513.423 53.0241C513.423 53.6444 513.258 54.1771 512.926 54.6222C512.6 55.0672 512.119 55.4081 511.485 55.6449C510.855 55.8816 510.085 56 509.176 56H503.807ZM506.627 53.7344H509.176C509.598 53.7344 509.927 53.6349 510.164 53.4361C510.405 53.2325 510.526 52.9555 510.526 52.6051C510.526 52.2169 510.405 51.9115 510.164 51.6889C509.927 51.4664 509.598 51.3551 509.176 51.3551H506.627V53.7344ZM506.627 49.5795H508.523C508.826 49.5795 509.084 49.5369 509.297 49.4517C509.515 49.3617 509.681 49.2339 509.794 49.0682C509.913 48.9025 509.972 48.706 509.972 48.4787C509.972 48.1425 509.837 47.8797 509.567 47.6903C509.297 47.5009 508.928 47.4062 508.459 47.4062H506.627V49.5795ZM518.221 52.0085L522.149 45.0909H525.132V56H522.248V49.0611L518.335 56H515.33V45.0909H518.221V52.0085ZM526.461 47.4702V45.0909H536.348V47.4702H532.832V56H529.949V47.4702H526.461ZM542.763 56.2131C541.641 56.2131 540.675 55.9858 539.865 55.5312C539.06 55.072 538.44 54.4233 538.004 53.5852C537.569 52.7424 537.351 51.7457 537.351 50.5952C537.351 49.473 537.569 48.4882 538.004 47.6406C538.44 46.7931 539.053 46.1326 539.844 45.6591C540.639 45.1856 541.572 44.9489 542.642 44.9489C543.362 44.9489 544.032 45.0649 544.652 45.2969C545.277 45.5241 545.822 45.8674 546.286 46.3267C546.754 46.786 547.119 47.3636 547.379 48.0597C547.64 48.7509 547.77 49.5606 547.77 50.4886V51.3196H538.558V49.4446H544.922C544.922 49.009 544.827 48.6231 544.638 48.2869C544.449 47.9508 544.186 47.688 543.85 47.4986C543.518 47.3045 543.132 47.2074 542.692 47.2074C542.233 47.2074 541.825 47.3139 541.47 47.527C541.12 47.7353 540.845 48.017 540.646 48.3722C540.448 48.7225 540.346 49.1132 540.341 49.544V51.3267C540.341 51.8665 540.441 52.3329 540.639 52.7259C540.843 53.1188 541.129 53.4219 541.499 53.6349C541.868 53.848 542.306 53.9545 542.813 53.9545C543.149 53.9545 543.457 53.9072 543.736 53.8125C544.015 53.7178 544.254 53.5758 544.453 53.3864C544.652 53.197 544.804 52.965 544.908 52.6903L547.706 52.875C547.564 53.5473 547.273 54.1345 546.833 54.6364C546.397 55.1335 545.834 55.5218 545.142 55.8011C544.456 56.0758 543.663 56.2131 542.763 56.2131ZM549.105 56L549.091 53.5994H549.453C549.709 53.5994 549.929 53.5379 550.114 53.4148C550.303 53.2869 550.459 53.081 550.583 52.7969C550.706 52.5128 550.803 52.1364 550.874 51.6676C550.945 51.1941 550.992 50.6117 551.016 49.9205L551.193 45.0909H559.489V56H556.605V47.4702H553.914L553.743 50.8011C553.7 51.715 553.589 52.5009 553.409 53.1591C553.234 53.8172 552.99 54.357 552.678 54.7784C552.365 55.1951 551.989 55.5028 551.548 55.7017C551.108 55.9006 550.597 56 550.014 56H549.105ZM563.731 48.4432H566.991C568.435 48.4432 569.562 48.7888 570.371 49.4801C571.181 50.1667 571.586 51.0852 571.586 52.2358C571.586 52.9839 571.403 53.642 571.039 54.2102C570.674 54.7737 570.149 55.214 569.462 55.5312C568.776 55.8438 567.952 56 566.991 56H561.834V45.0909H564.725V53.6207H566.991C567.497 53.6207 567.914 53.4929 568.241 53.2372C568.567 52.9815 568.733 52.6548 568.738 52.2571C568.733 51.8357 568.567 51.4924 568.241 51.2273C567.914 50.9574 567.497 50.8224 566.991 50.8224H563.731V48.4432ZM581.184 49.3381V51.7173H575.488V49.3381H581.184ZM576.483 45.0909V56H573.592V45.0909H576.483ZM583.081 45.0909V56H580.211V45.0909H583.081ZM590.357 56.2131C589.254 56.2131 588.3 55.9787 587.495 55.5099C586.695 55.0365 586.077 54.3783 585.641 53.5355C585.206 52.688 584.988 51.7055 584.988 50.5881C584.988 49.4612 585.206 48.4763 585.641 47.6335C586.077 46.786 586.695 46.1278 587.495 45.6591C588.3 45.1856 589.254 44.9489 590.357 44.9489C591.46 44.9489 592.412 45.1856 593.212 45.6591C594.017 46.1278 594.637 46.786 595.073 47.6335C595.509 48.4763 595.726 49.4612 595.726 50.5881C595.726 51.7055 595.509 52.688 595.073 53.5355C594.637 54.3783 594.017 55.0365 593.212 55.5099C592.412 55.9787 591.46 56.2131 590.357 56.2131ZM590.371 53.8693C590.873 53.8693 591.292 53.7273 591.628 53.4432C591.965 53.1544 592.218 52.7614 592.388 52.2642C592.564 51.767 592.651 51.2012 592.651 50.5668C592.651 49.9323 592.564 49.3665 592.388 48.8693C592.218 48.3722 591.965 47.9792 591.628 47.6903C591.292 47.4015 590.873 47.2571 590.371 47.2571C589.865 47.2571 589.439 47.4015 589.093 47.6903C588.752 47.9792 588.494 48.3722 588.319 48.8693C588.148 49.3665 588.063 49.9323 588.063 50.5668C588.063 51.2012 588.148 51.767 588.319 52.2642C588.494 52.7614 588.752 53.1544 589.093 53.4432C589.439 53.7273 589.865 53.8693 590.371 53.8693ZM602.623 56.2131C601.505 56.2131 600.544 55.9763 599.739 55.5028C598.939 55.0246 598.323 54.3617 597.893 53.5142C597.466 52.6667 597.253 51.6913 597.253 50.5881C597.253 49.4706 597.469 48.4905 597.9 47.6477C598.335 46.8002 598.953 46.1397 599.753 45.6662C600.554 45.188 601.505 44.9489 602.608 44.9489C603.56 44.9489 604.394 45.1217 605.108 45.4673C605.823 45.813 606.389 46.2983 606.806 46.9233C607.223 47.5483 607.452 48.2822 607.495 49.125H604.64C604.559 48.5805 604.346 48.1425 604.001 47.8111C603.66 47.4749 603.212 47.3068 602.658 47.3068C602.189 47.3068 601.78 47.4347 601.43 47.6903C601.084 47.9413 600.814 48.3082 600.62 48.7912C600.426 49.2741 600.329 49.8589 600.329 50.5455C600.329 51.2415 600.423 51.8333 600.613 52.321C600.807 52.8087 601.079 53.1804 601.43 53.4361C601.78 53.6918 602.189 53.8196 602.658 53.8196C603.004 53.8196 603.314 53.7486 603.589 53.6065C603.868 53.4645 604.098 53.2585 604.278 52.9886C604.462 52.714 604.583 52.3849 604.64 52.0014H607.495C607.448 52.8348 607.22 53.5687 606.813 54.2031C606.411 54.8329 605.854 55.3253 605.144 55.6804C604.434 56.0355 603.593 56.2131 602.623 56.2131ZM608.688 47.4702V45.0909H618.574V47.4702H615.059V56H612.175V47.4702H608.688ZM623.299 52.0085L627.227 45.0909H630.21V56H627.326V49.0611L623.413 56H620.409V45.0909H623.299V52.0085ZM634.404 56.1847C633.935 56.1847 633.532 56.0189 633.196 55.6875C632.865 55.3513 632.699 54.9489 632.699 54.4801C632.699 54.0161 632.865 53.6184 633.196 53.2869C633.532 52.9555 633.935 52.7898 634.404 52.7898C634.858 52.7898 635.256 52.9555 635.597 53.2869C635.938 53.6184 636.108 54.0161 636.108 54.4801C636.108 54.7926 636.028 55.0791 635.867 55.3395C635.71 55.5952 635.504 55.8011 635.249 55.9574C634.993 56.1089 634.711 56.1847 634.404 56.1847Z" fill="black"/>
</svg>
