<svg width="650" height="99" viewBox="0 0 650 99" fill="none" xmlns="http://www.w3.org/2000/svg">
<rect width="650" height="99" rx="30" fill="#D9D9D9" fill-opacity="0.4"/>
<path d="M35.492 35.7074V17.4545H38.5105V35.7074H35.492ZM35.492 32.2131C34.6539 32.2131 33.8893 32.0781 33.198 31.8082C32.5067 31.5336 31.9101 31.1477 31.4082 30.6506C30.9063 30.1487 30.5181 29.5545 30.2434 28.8679C29.9688 28.1766 29.8315 27.4167 29.8315 26.5881C29.8315 25.75 29.9688 24.9877 30.2434 24.3011C30.5181 23.6098 30.9063 23.0156 31.4082 22.5185C31.9101 22.0166 32.5067 21.6307 33.198 21.3608C33.8893 21.0862 34.6539 20.9489 35.492 20.9489H36.0531V32.2131H35.492ZM35.492 29.8551H35.8258V23.3068H35.492C35.0848 23.3068 34.7226 23.392 34.4054 23.5625C34.0881 23.733 33.8206 23.9673 33.6028 24.2656C33.385 24.5592 33.2193 24.9048 33.1056 25.3026C32.9967 25.7003 32.9423 26.1288 32.9423 26.5881C32.9423 27.1941 33.0417 27.7457 33.2406 28.2429C33.4395 28.7353 33.7306 29.1283 34.1142 29.4219C34.4977 29.7107 34.957 29.8551 35.492 29.8551ZM38.5105 32.2131H37.9494V20.9489H38.5105C39.3485 20.9489 40.1132 21.0862 40.8045 21.3608C41.4958 21.6307 42.0924 22.0166 42.5943 22.5185C43.0962 23.0156 43.4844 23.6098 43.7591 24.3011C44.0337 24.9877 44.171 25.75 44.171 26.5881C44.171 27.4167 44.0337 28.1766 43.7591 28.8679C43.4844 29.5545 43.0962 30.1487 42.5943 30.6506C42.0924 31.1477 41.4958 31.5336 40.8045 31.8082C40.1132 32.0781 39.3485 32.2131 38.5105 32.2131ZM38.5105 29.8551C38.9177 29.8551 39.2799 29.7723 39.5971 29.6065C39.9144 29.4361 40.1819 29.2017 40.3997 28.9034C40.6175 28.6051 40.7832 28.2595 40.8968 27.8665C41.0105 27.4687 41.0673 27.0426 41.0673 26.5881C41.0673 25.9773 40.9655 25.4257 40.7619 24.9332C40.563 24.4361 40.2742 24.0407 39.8954 23.7472C39.5166 23.4536 39.055 23.3068 38.5105 23.3068H38.1767V29.8551H38.5105ZM47.6671 36.0909C47.2836 36.0909 46.9237 36.0601 46.5875 35.9986C46.2561 35.9418 45.9815 35.8684 45.7637 35.7784L46.4455 33.5199C46.8006 33.6288 47.1202 33.688 47.4043 33.6974C47.6931 33.7069 47.9417 33.6406 48.15 33.4986C48.3631 33.3565 48.5359 33.1151 48.6685 32.7741L48.8461 32.3125L44.9327 21.0909H48.1145L50.373 29.1023H50.4867L52.7665 21.0909H55.9696L51.7296 33.179C51.526 33.7661 51.249 34.2775 50.8986 34.7131C50.553 35.1534 50.115 35.492 49.5847 35.7287C49.0544 35.9702 48.4152 36.0909 47.6671 36.0909ZM65.1103 25.3381V27.7173H59.4142V25.3381H65.1103ZM60.4086 21.0909V32H57.5179V21.0909H60.4086ZM67.0066 21.0909V32H64.1373V21.0909H67.0066ZM69.3539 32V21.0909H72.3794V25.3239H73.2317L76.2005 21.0909H79.7516L75.8951 26.5028L79.7942 32H76.2005L73.5087 28.1293H72.3794V32H69.3539ZM90.611 21.0909V29.9119H92.351V35.5085H89.4107V32H81.0726V21.0909H83.9632V29.6207H87.7559V21.0909H90.611ZM97.1078 28.0085L101.035 21.0909H104.018V32H101.135V25.0611L97.2214 32H94.2172V21.0909H97.1078V28.0085ZM112.836 32V23.4631H110.79C110.236 23.4631 109.815 23.5909 109.526 23.8466C109.237 24.1023 109.095 24.4053 109.1 24.7557C109.095 25.1108 109.233 25.4115 109.512 25.6577C109.796 25.8991 110.213 26.0199 110.762 26.0199H113.844V28.0653H110.762C109.829 28.0653 109.022 27.9233 108.34 27.6392C107.658 27.3551 107.133 26.9598 106.763 26.4531C106.394 25.9418 106.212 25.3475 106.216 24.6705C106.212 23.9602 106.394 23.3376 106.763 22.8026C107.133 22.2628 107.661 21.8437 108.347 21.5455C109.038 21.2424 109.853 21.0909 110.79 21.0909H115.655V32H112.836ZM105.904 32L108.937 26.3182H111.827L108.802 32H105.904ZM125.164 21.0909L127.166 24.9048L129.219 21.0909H132.323L129.162 26.5455L132.408 32H129.318L127.166 28.2287L125.05 32H121.925L125.164 26.5455L122.039 21.0909H125.164ZM137.172 32.206C136.476 32.206 135.855 32.0852 135.311 31.8438C134.766 31.5975 134.336 31.2353 134.018 30.7571C133.706 30.2741 133.55 29.6728 133.55 28.9531C133.55 28.3471 133.661 27.8381 133.883 27.4261C134.106 27.0142 134.409 26.6828 134.792 26.4318C135.176 26.1809 135.612 25.9915 136.099 25.8636C136.592 25.7358 137.108 25.6458 137.648 25.5938C138.282 25.5275 138.793 25.4659 139.182 25.4091C139.57 25.3475 139.852 25.2576 140.027 25.1392C140.202 25.0208 140.29 24.8456 140.29 24.6136V24.571C140.29 24.1212 140.148 23.7732 139.863 23.527C139.584 23.2808 139.186 23.1577 138.67 23.1577C138.126 23.1577 137.693 23.2784 137.371 23.5199C137.049 23.7566 136.836 24.0549 136.731 24.4148L133.933 24.1875C134.075 23.5246 134.354 22.9517 134.771 22.4688C135.188 21.9811 135.725 21.607 136.383 21.3466C137.046 21.0814 137.813 20.9489 138.684 20.9489C139.291 20.9489 139.871 21.0199 140.425 21.1619C140.983 21.304 141.478 21.5241 141.909 21.8224C142.345 22.1207 142.688 22.5043 142.939 22.973C143.19 23.437 143.315 23.9934 143.315 24.642V32H140.446V30.4872H140.361C140.185 30.8281 139.951 31.1288 139.657 31.3892C139.364 31.6449 139.011 31.8461 138.599 31.9929C138.187 32.1349 137.711 32.206 137.172 32.206ZM138.038 30.1179C138.483 30.1179 138.876 30.0303 139.217 29.8551C139.558 29.6752 139.826 29.4337 140.02 29.1307C140.214 28.8277 140.311 28.4844 140.311 28.1009V26.9432C140.216 27.0047 140.086 27.0616 139.92 27.1136C139.759 27.161 139.577 27.206 139.373 27.2486C139.17 27.2865 138.966 27.322 138.763 27.3551C138.559 27.3835 138.374 27.4096 138.209 27.4332C137.854 27.4853 137.543 27.5682 137.278 27.6818C137.013 27.7955 136.807 27.9493 136.66 28.1435C136.514 28.3329 136.44 28.5696 136.44 28.8537C136.44 29.2656 136.589 29.5805 136.888 29.7983C137.191 30.0114 137.574 30.1179 138.038 30.1179ZM145.662 36.0909V21.0909H148.645V22.9233H148.78C148.913 22.6297 149.105 22.3314 149.356 22.0284C149.611 21.7206 149.943 21.465 150.35 21.2614C150.762 21.053 151.273 20.9489 151.884 20.9489C152.68 20.9489 153.413 21.1572 154.086 21.5739C154.758 21.9858 155.296 22.6084 155.698 23.4418C156.1 24.2704 156.302 25.3097 156.302 26.5597C156.302 27.7765 156.105 28.804 155.712 29.642C155.324 30.4754 154.794 31.1075 154.121 31.5384C153.454 31.9645 152.706 32.1776 151.877 32.1776C151.29 32.1776 150.79 32.0805 150.378 31.8864C149.971 31.6922 149.637 31.4484 149.377 31.1548C149.117 30.8565 148.918 30.5559 148.78 30.2528H148.688V36.0909H145.662ZM148.624 26.5455C148.624 27.1941 148.714 27.7599 148.894 28.2429C149.074 28.7259 149.334 29.1023 149.675 29.3722C150.016 29.6373 150.43 29.7699 150.918 29.7699C151.411 29.7699 151.827 29.6349 152.168 29.3651C152.509 29.0904 152.767 28.7116 152.942 28.2287C153.122 27.741 153.212 27.1799 153.212 26.5455C153.212 25.9157 153.125 25.3617 152.949 24.8835C152.774 24.4053 152.516 24.0312 152.175 23.7614C151.834 23.4915 151.415 23.3565 150.918 23.3565C150.426 23.3565 150.009 23.4867 149.668 23.7472C149.332 24.0076 149.074 24.3769 148.894 24.8551C148.714 25.3333 148.624 25.8968 148.624 26.5455ZM161.43 32.206C160.733 32.206 160.113 32.0852 159.569 31.8438C159.024 31.5975 158.593 31.2353 158.276 30.7571C157.964 30.2741 157.807 29.6728 157.807 28.9531C157.807 28.3471 157.919 27.8381 158.141 27.4261C158.364 27.0142 158.667 26.6828 159.05 26.4318C159.434 26.1809 159.869 25.9915 160.357 25.8636C160.849 25.7358 161.366 25.6458 161.905 25.5938C162.54 25.5275 163.051 25.4659 163.439 25.4091C163.828 25.3475 164.109 25.2576 164.285 25.1392C164.46 25.0208 164.547 24.8456 164.547 24.6136V24.571C164.547 24.1212 164.405 23.7732 164.121 23.527C163.842 23.2808 163.444 23.1577 162.928 23.1577C162.384 23.1577 161.95 23.2784 161.628 23.5199C161.306 23.7566 161.093 24.0549 160.989 24.4148L158.191 24.1875C158.333 23.5246 158.612 22.9517 159.029 22.4688C159.446 21.9811 159.983 21.607 160.641 21.3466C161.304 21.0814 162.071 20.9489 162.942 20.9489C163.548 20.9489 164.128 21.0199 164.682 21.1619C165.241 21.304 165.736 21.5241 166.167 21.8224C166.602 22.1207 166.946 22.5043 167.197 22.973C167.448 23.437 167.573 23.9934 167.573 24.642V32H164.704V30.4872H164.618C164.443 30.8281 164.209 31.1288 163.915 31.3892C163.622 31.6449 163.269 31.8461 162.857 31.9929C162.445 32.1349 161.969 32.206 161.43 32.206ZM162.296 30.1179C162.741 30.1179 163.134 30.0303 163.475 29.8551C163.816 29.6752 164.083 29.4337 164.278 29.1307C164.472 28.8277 164.569 28.4844 164.569 28.1009V26.9432C164.474 27.0047 164.344 27.0616 164.178 27.1136C164.017 27.161 163.835 27.206 163.631 27.2486C163.428 27.2865 163.224 27.322 163.02 27.3551C162.817 27.3835 162.632 27.4096 162.466 27.4332C162.111 27.4853 161.801 27.5682 161.536 27.6818C161.271 27.7955 161.065 27.9493 160.918 28.1435C160.771 28.3329 160.698 28.5696 160.698 28.8537C160.698 29.2656 160.847 29.5805 161.145 29.7983C161.448 30.0114 161.832 30.1179 162.296 30.1179ZM169.92 32V21.0909H172.946V25.3239H173.798L176.767 21.0909H180.318L176.461 26.5028L180.361 32H176.767L174.075 28.1293H172.946V32H169.92ZM181.071 23.4702V21.0909H190.957V23.4702H187.442V32H184.558V23.4702H181.071ZM197.372 32.2131C196.25 32.2131 195.284 31.9858 194.475 31.5312C193.67 31.072 193.049 30.4233 192.614 29.5852C192.178 28.7424 191.96 27.7457 191.96 26.5952C191.96 25.473 192.178 24.4882 192.614 23.6406C193.049 22.7931 193.663 22.1326 194.453 21.6591C195.249 21.1856 196.182 20.9489 197.252 20.9489C197.971 20.9489 198.641 21.0649 199.262 21.2969C199.887 21.5241 200.431 21.8674 200.895 22.3267C201.364 22.786 201.728 23.3636 201.989 24.0597C202.249 24.7509 202.379 25.5606 202.379 26.4886V27.3196H193.168V25.4446H199.531C199.531 25.009 199.437 24.6231 199.247 24.2869C199.058 23.9508 198.795 23.688 198.459 23.4986C198.128 23.3045 197.742 23.2074 197.301 23.2074C196.842 23.2074 196.435 23.3139 196.08 23.527C195.729 23.7353 195.455 24.017 195.256 24.3722C195.057 24.7225 194.955 25.1132 194.95 25.544V27.3267C194.95 27.8665 195.05 28.3329 195.249 28.7259C195.452 29.1188 195.739 29.4219 196.108 29.6349C196.477 29.848 196.915 29.9545 197.422 29.9545C197.758 29.9545 198.066 29.9072 198.345 29.8125C198.625 29.7178 198.864 29.5758 199.063 29.3864C199.262 29.197 199.413 28.965 199.517 28.6903L202.316 28.875C202.173 29.5473 201.882 30.1345 201.442 30.6364C201.006 31.1335 200.443 31.5218 199.752 31.8011C199.065 32.0758 198.272 32.2131 197.372 32.2131ZM204.354 36.0909V21.0909H207.337V22.9233H207.472C207.604 22.6297 207.796 22.3314 208.047 22.0284C208.303 21.7206 208.634 21.465 209.041 21.2614C209.453 21.053 209.965 20.9489 210.575 20.9489C211.371 20.9489 212.105 21.1572 212.777 21.5739C213.45 21.9858 213.987 22.6084 214.389 23.4418C214.792 24.2704 214.993 25.3097 214.993 26.5597C214.993 27.7765 214.797 28.804 214.404 29.642C214.015 30.4754 213.485 31.1075 212.813 31.5384C212.145 31.9645 211.397 32.1776 210.568 32.1776C209.981 32.1776 209.482 32.0805 209.07 31.8864C208.663 31.6922 208.329 31.4484 208.068 31.1548C207.808 30.8565 207.609 30.5559 207.472 30.2528H207.379V36.0909H204.354ZM207.316 26.5455C207.316 27.1941 207.405 27.7599 207.585 28.2429C207.765 28.7259 208.026 29.1023 208.367 29.3722C208.708 29.6373 209.122 29.7699 209.61 29.7699C210.102 29.7699 210.519 29.6349 210.86 29.3651C211.2 29.0904 211.459 28.7116 211.634 28.2287C211.814 27.741 211.904 27.1799 211.904 26.5455C211.904 25.9157 211.816 25.3617 211.641 24.8835C211.466 24.4053 211.208 24.0312 210.867 23.7614C210.526 23.4915 210.107 23.3565 209.61 23.3565C209.117 23.3565 208.7 23.4867 208.36 23.7472C208.023 24.0076 207.765 24.3769 207.585 24.8551C207.405 25.3333 207.316 25.8968 207.316 26.5455ZM219.901 28.0085L223.828 21.0909H226.811V32H223.928V25.0611L220.014 32H217.01V21.0909H219.901V28.0085ZM228.676 28.9105H231.609C231.623 29.2704 231.784 29.5545 232.092 29.7628C232.4 29.9711 232.797 30.0753 233.285 30.0753C233.777 30.0753 234.192 29.9616 234.528 29.7344C234.864 29.5024 235.032 29.1709 235.032 28.7401C235.032 28.4749 234.966 28.2453 234.833 28.0511C234.701 27.8523 234.516 27.696 234.279 27.5824C234.043 27.4687 233.768 27.4119 233.455 27.4119H231.886V25.4304H233.455C233.924 25.4304 234.284 25.3215 234.535 25.1037C234.791 24.8859 234.919 24.6136 234.919 24.2869C234.919 23.9176 234.786 23.6217 234.521 23.3991C234.26 23.1719 233.908 23.0582 233.463 23.0582C233.013 23.0582 232.639 23.16 232.34 23.3636C232.047 23.5625 231.895 23.8229 231.886 24.1449H228.967C228.976 23.4915 229.173 22.9257 229.556 22.4474C229.945 21.9692 230.465 21.5999 231.119 21.3395C231.777 21.0791 232.513 20.9489 233.328 20.9489C234.218 20.9489 234.985 21.0743 235.629 21.3253C236.277 21.5715 236.775 21.9242 237.12 22.3835C237.471 22.8428 237.646 23.3897 237.646 24.0241C237.646 24.6018 237.456 25.0848 237.078 25.473C236.699 25.8613 236.169 26.1383 235.487 26.304V26.4176C235.936 26.446 236.344 26.5668 236.708 26.7798C237.073 26.9929 237.364 27.2865 237.582 27.6605C237.8 28.0298 237.909 28.4678 237.909 28.9744C237.909 29.6515 237.71 30.2315 237.312 30.7145C236.919 31.1974 236.374 31.5691 235.678 31.8295C234.987 32.0852 234.194 32.2131 233.299 32.2131C232.428 32.2131 231.647 32.0876 230.955 31.8366C230.269 31.581 229.722 31.2069 229.315 30.7145C228.912 30.2221 228.699 29.6207 228.676 28.9105ZM241.632 36.0909C241.248 36.0909 240.889 36.0601 240.552 35.9986C240.221 35.9418 239.946 35.8684 239.729 35.7784L240.41 33.5199C240.765 33.6288 241.085 33.688 241.369 33.6974C241.658 33.7069 241.907 33.6406 242.115 33.4986C242.328 33.3565 242.501 33.1151 242.633 32.7741L242.811 32.3125L238.898 21.0909H242.079L244.338 29.1023H244.452L246.731 21.0909H249.934L245.694 33.179C245.491 33.7661 245.214 34.2775 244.863 34.7131C244.518 35.1534 244.08 35.492 243.55 35.7287C243.019 35.9702 242.38 36.0909 241.632 36.0909ZM256.103 32.2131C254.981 32.2131 254.015 31.9858 253.205 31.5312C252.4 31.072 251.78 30.4233 251.344 29.5852C250.909 28.7424 250.691 27.7457 250.691 26.5952C250.691 25.473 250.909 24.4882 251.344 23.6406C251.78 22.7931 252.393 22.1326 253.184 21.6591C253.979 21.1856 254.912 20.9489 255.982 20.9489C256.702 20.9489 257.372 21.0649 257.992 21.2969C258.617 21.5241 259.162 21.8674 259.626 22.3267C260.094 22.786 260.459 23.3636 260.719 24.0597C260.98 24.7509 261.11 25.5606 261.11 26.4886V27.3196H251.898V25.4446H258.262C258.262 25.009 258.167 24.6231 257.978 24.2869C257.788 23.9508 257.526 23.688 257.189 23.4986C256.858 23.3045 256.472 23.2074 256.032 23.2074C255.573 23.2074 255.165 23.3139 254.81 23.527C254.46 23.7353 254.185 24.017 253.986 24.3722C253.787 24.7225 253.686 25.1132 253.681 25.544V27.3267C253.681 27.8665 253.78 28.3329 253.979 28.7259C254.183 29.1188 254.469 29.4219 254.839 29.6349C255.208 29.848 255.646 29.9545 256.153 29.9545C256.489 29.9545 256.796 29.9072 257.076 29.8125C257.355 29.7178 257.594 29.5758 257.793 29.3864C257.992 29.197 258.144 28.965 258.248 28.6903L261.046 28.875C260.904 29.5473 260.613 30.1345 260.172 30.6364C259.737 31.1335 259.173 31.5218 258.482 31.8011C257.796 32.0758 257.002 32.2131 256.103 32.2131ZM262.243 23.4702V21.0909H272.129V23.4702H268.613V32H265.73V23.4702H262.243ZM283.812 35.7074V17.4545H286.831V35.7074H283.812ZM283.812 32.2131C282.974 32.2131 282.21 32.0781 281.518 31.8082C280.827 31.5336 280.23 31.1477 279.729 30.6506C279.227 30.1487 278.838 29.5545 278.564 28.8679C278.289 28.1766 278.152 27.4167 278.152 26.5881C278.152 25.75 278.289 24.9877 278.564 24.3011C278.838 23.6098 279.227 23.0156 279.729 22.5185C280.23 22.0166 280.827 21.6307 281.518 21.3608C282.21 21.0862 282.974 20.9489 283.812 20.9489H284.373V32.2131H283.812ZM283.812 29.8551H284.146V23.3068H283.812C283.405 23.3068 283.043 23.392 282.726 23.5625C282.408 23.733 282.141 23.9673 281.923 24.2656C281.705 24.5592 281.54 24.9048 281.426 25.3026C281.317 25.7003 281.263 26.1288 281.263 26.5881C281.263 27.1941 281.362 27.7457 281.561 28.2429C281.76 28.7353 282.051 29.1283 282.434 29.4219C282.818 29.7107 283.277 29.8551 283.812 29.8551ZM286.831 32.2131H286.27V20.9489H286.831C287.669 20.9489 288.434 21.0862 289.125 21.3608C289.816 21.6307 290.413 22.0166 290.915 22.5185C291.416 23.0156 291.805 23.6098 292.079 24.3011C292.354 24.9877 292.491 25.75 292.491 26.5881C292.491 27.4167 292.354 28.1766 292.079 28.8679C291.805 29.5545 291.416 30.1487 290.915 30.6506C290.413 31.1477 289.816 31.5336 289.125 31.8082C288.434 32.0781 287.669 32.2131 286.831 32.2131ZM286.831 29.8551C287.238 29.8551 287.6 29.7723 287.917 29.6065C288.235 29.4361 288.502 29.2017 288.72 28.9034C288.938 28.6051 289.104 28.2595 289.217 27.8665C289.331 27.4687 289.388 27.0426 289.388 26.5881C289.388 25.9773 289.286 25.4257 289.082 24.9332C288.883 24.4361 288.595 24.0407 288.216 23.7472C287.837 23.4536 287.375 23.3068 286.831 23.3068H286.497V29.8551H286.831ZM297.362 28.0085L301.289 21.0909H304.272V32H301.389V25.0611L297.475 32H294.471V21.0909H297.362V28.0085ZM306.058 32L306.044 29.5994H306.406C306.662 29.5994 306.882 29.5379 307.067 29.4148C307.256 29.2869 307.413 29.081 307.536 28.7969C307.659 28.5128 307.756 28.1364 307.827 27.6676C307.898 27.1941 307.945 26.6117 307.969 25.9205L308.146 21.0909H316.442V32H313.558V23.4702H310.867L310.696 26.8011C310.654 27.715 310.542 28.5009 310.362 29.1591C310.187 29.8172 309.943 30.357 309.631 30.7784C309.318 31.1951 308.942 31.5028 308.502 31.7017C308.061 31.9006 307.55 32 306.968 32H306.058ZM323.716 32.2131C322.613 32.2131 321.659 31.9787 320.854 31.5099C320.054 31.0365 319.436 30.3783 319.001 29.5355C318.565 28.688 318.347 27.7055 318.347 26.5881C318.347 25.4612 318.565 24.4763 319.001 23.6335C319.436 22.786 320.054 22.1278 320.854 21.6591C321.659 21.1856 322.613 20.9489 323.716 20.9489C324.82 20.9489 325.771 21.1856 326.572 21.6591C327.376 22.1278 327.997 22.786 328.432 23.6335C328.868 24.4763 329.086 25.4612 329.086 26.5881C329.086 27.7055 328.868 28.688 328.432 29.5355C327.997 30.3783 327.376 31.0365 326.572 31.5099C325.771 31.9787 324.82 32.2131 323.716 32.2131ZM323.731 29.8693C324.233 29.8693 324.652 29.7273 324.988 29.4432C325.324 29.1544 325.577 28.7614 325.748 28.2642C325.923 27.767 326.01 27.2012 326.01 26.5668C326.01 25.9323 325.923 25.3665 325.748 24.8693C325.577 24.3722 325.324 23.9792 324.988 23.6903C324.652 23.4015 324.233 23.2571 323.731 23.2571C323.224 23.2571 322.798 23.4015 322.452 23.6903C322.111 23.9792 321.853 24.3722 321.678 24.8693C321.508 25.3665 321.422 25.9323 321.422 26.5668C321.422 27.2012 321.508 27.767 321.678 28.2642C321.853 28.7614 322.111 29.1544 322.452 29.4432C322.798 29.7273 323.224 29.8693 323.731 29.8693ZM335.982 32.2131C334.865 32.2131 333.903 31.9763 333.099 31.5028C332.298 31.0246 331.683 30.3617 331.252 29.5142C330.826 28.6667 330.613 27.6913 330.613 26.5881C330.613 25.4706 330.828 24.4905 331.259 23.6477C331.695 22.8002 332.313 22.1397 333.113 21.6662C333.913 21.188 334.865 20.9489 335.968 20.9489C336.92 20.9489 337.753 21.1217 338.468 21.4673C339.183 21.813 339.749 22.2983 340.165 22.9233C340.582 23.5483 340.812 24.2822 340.854 25.125H337.999C337.919 24.5805 337.706 24.1425 337.36 23.8111C337.019 23.4749 336.572 23.3068 336.018 23.3068C335.549 23.3068 335.139 23.4347 334.789 23.6903C334.443 23.9413 334.173 24.3082 333.979 24.7912C333.785 25.2741 333.688 25.8589 333.688 26.5455C333.688 27.2415 333.783 27.8333 333.972 28.321C334.166 28.8087 334.439 29.1804 334.789 29.4361C335.139 29.6918 335.549 29.8196 336.018 29.8196C336.363 29.8196 336.673 29.7486 336.948 29.6065C337.227 29.4645 337.457 29.2585 337.637 28.9886C337.822 28.714 337.942 28.3849 337.999 28.0014H340.854C340.807 28.8348 340.58 29.5687 340.172 30.2031C339.77 30.8329 339.214 31.3253 338.503 31.6804C337.793 32.0355 336.953 32.2131 335.982 32.2131ZM347.72 32.2131C346.617 32.2131 345.663 31.9787 344.858 31.5099C344.058 31.0365 343.44 30.3783 343.004 29.5355C342.569 28.688 342.351 27.7055 342.351 26.5881C342.351 25.4612 342.569 24.4763 343.004 23.6335C343.44 22.786 344.058 22.1278 344.858 21.6591C345.663 21.1856 346.617 20.9489 347.72 20.9489C348.824 20.9489 349.775 21.1856 350.575 21.6591C351.38 22.1278 352.001 22.786 352.436 23.6335C352.872 24.4763 353.09 25.4612 353.09 26.5881C353.09 27.7055 352.872 28.688 352.436 29.5355C352.001 30.3783 351.38 31.0365 350.575 31.5099C349.775 31.9787 348.824 32.2131 347.72 32.2131ZM347.735 29.8693C348.236 29.8693 348.655 29.7273 348.992 29.4432C349.328 29.1544 349.581 28.7614 349.752 28.2642C349.927 27.767 350.014 27.2012 350.014 26.5668C350.014 25.9323 349.927 25.3665 349.752 24.8693C349.581 24.3722 349.328 23.9792 348.992 23.6903C348.655 23.4015 348.236 23.2571 347.735 23.2571C347.228 23.2571 346.802 23.4015 346.456 23.6903C346.115 23.9792 345.857 24.3722 345.682 24.8693C345.512 25.3665 345.426 25.9323 345.426 26.5668C345.426 27.2012 345.512 27.767 345.682 28.2642C345.857 28.7614 346.115 29.1544 346.456 29.4432C346.802 29.7273 347.228 29.8693 347.735 29.8693ZM360.277 35.7074V17.4545H363.296V35.7074H360.277ZM360.277 32.2131C359.439 32.2131 358.674 32.0781 357.983 31.8082C357.292 31.5336 356.695 31.1477 356.193 30.6506C355.691 30.1487 355.303 29.5545 355.029 28.8679C354.754 28.1766 354.617 27.4167 354.617 26.5881C354.617 25.75 354.754 24.9877 355.029 24.3011C355.303 23.6098 355.691 23.0156 356.193 22.5185C356.695 22.0166 357.292 21.6307 357.983 21.3608C358.674 21.0862 359.439 20.9489 360.277 20.9489H360.838V32.2131H360.277ZM360.277 29.8551H360.611V23.3068H360.277C359.87 23.3068 359.508 23.392 359.191 23.5625C358.873 23.733 358.606 23.9673 358.388 24.2656C358.17 24.5592 358.004 24.9048 357.891 25.3026C357.782 25.7003 357.727 26.1288 357.727 26.5881C357.727 27.1941 357.827 27.7457 358.026 28.2429C358.225 28.7353 358.516 29.1283 358.899 29.4219C359.283 29.7107 359.742 29.8551 360.277 29.8551ZM363.296 32.2131H362.735V20.9489H363.296C364.134 20.9489 364.898 21.0862 365.59 21.3608C366.281 21.6307 366.878 22.0166 367.379 22.5185C367.881 23.0156 368.27 23.6098 368.544 24.3011C368.819 24.9877 368.956 25.75 368.956 26.5881C368.956 27.4167 368.819 28.1766 368.544 28.8679C368.27 29.5545 367.881 30.1487 367.379 30.6506C366.878 31.1477 366.281 31.5336 365.59 31.8082C364.898 32.0781 364.134 32.2131 363.296 32.2131ZM363.296 29.8551C363.703 29.8551 364.065 29.7723 364.382 29.6065C364.7 29.4361 364.967 29.2017 365.185 28.9034C365.403 28.6051 365.568 28.2595 365.682 27.8665C365.796 27.4687 365.852 27.0426 365.852 26.5881C365.852 25.9773 365.751 25.4257 365.547 24.9332C365.348 24.4361 365.059 24.0407 364.681 23.7472C364.302 23.4536 363.84 23.3068 363.296 23.3068H362.962V29.8551H363.296ZM373.827 28.0085L377.754 21.0909H380.737V32H377.854V25.0611L373.94 32H370.936V21.0909H373.827V28.0085ZM389.192 25.402V27.8026H383.276V25.402H389.192ZM385.613 21.0909V32H382.594V21.0909H385.613ZM392.459 32.2131C391.38 32.2131 390.447 31.9716 389.661 31.4886C388.875 31.0057 388.269 30.3381 387.843 29.4858C387.421 28.6335 387.211 27.6558 387.211 26.5526C387.211 25.4493 387.421 24.4763 387.843 23.6335C388.269 22.7907 388.875 22.1326 389.661 21.6591C390.447 21.1856 391.38 20.9489 392.459 20.9489C393.544 20.9489 394.476 21.1856 395.258 21.6591C396.044 22.1326 396.647 22.7907 397.069 23.6335C397.495 24.4763 397.708 25.4493 397.708 26.5526C397.708 27.6558 397.495 28.6335 397.069 29.4858C396.647 30.3381 396.044 31.0057 395.258 31.4886C394.476 31.9716 393.544 32.2131 392.459 32.2131ZM392.459 29.7699C393.023 29.7699 393.477 29.6326 393.823 29.358C394.169 29.0786 394.422 28.6974 394.583 28.2145C394.744 27.7268 394.824 27.1728 394.824 26.5526C394.824 25.9323 394.744 25.383 394.583 24.9048C394.422 24.4219 394.169 24.0431 393.823 23.7685C393.477 23.4938 393.023 23.3565 392.459 23.3565C391.901 23.3565 391.446 23.4938 391.096 23.7685C390.745 24.0384 390.487 24.4124 390.322 24.8906C390.161 25.3688 390.08 25.9228 390.08 26.5526C390.08 27.1776 390.161 27.7315 390.322 28.2145C390.487 28.6974 390.745 29.0786 391.096 29.358C391.446 29.6326 391.901 29.7699 392.459 29.7699ZM404.393 32V21.0909H407.419V25.3239H408.271L411.24 21.0909H414.791L410.934 26.5028L414.833 32H411.24L408.548 28.1293H407.419V32H404.393ZM419.222 32.206C418.526 32.206 417.906 32.0852 417.362 31.8438C416.817 31.5975 416.386 31.2353 416.069 30.7571C415.757 30.2741 415.6 29.6728 415.6 28.9531C415.6 28.3471 415.712 27.8381 415.934 27.4261C416.157 27.0142 416.46 26.6828 416.843 26.4318C417.227 26.1809 417.662 25.9915 418.15 25.8636C418.642 25.7358 419.159 25.6458 419.698 25.5938C420.333 25.5275 420.844 25.4659 421.232 25.4091C421.621 25.3475 421.902 25.2576 422.078 25.1392C422.253 25.0208 422.34 24.8456 422.34 24.6136V24.571C422.34 24.1212 422.198 23.7732 421.914 23.527C421.635 23.2808 421.237 23.1577 420.721 23.1577C420.177 23.1577 419.743 23.2784 419.421 23.5199C419.099 23.7566 418.886 24.0549 418.782 24.4148L415.984 24.1875C416.126 23.5246 416.405 22.9517 416.822 22.4688C417.239 21.9811 417.776 21.607 418.434 21.3466C419.097 21.0814 419.864 20.9489 420.735 20.9489C421.341 20.9489 421.921 21.0199 422.475 21.1619C423.034 21.304 423.529 21.5241 423.96 21.8224C424.395 22.1207 424.739 22.5043 424.99 22.973C425.24 23.437 425.366 23.9934 425.366 24.642V32H422.497V30.4872H422.411C422.236 30.8281 422.002 31.1288 421.708 31.3892C421.415 31.6449 421.062 31.8461 420.65 31.9929C420.238 32.1349 419.762 32.206 419.222 32.206ZM420.089 30.1179C420.534 30.1179 420.927 30.0303 421.268 29.8551C421.609 29.6752 421.876 29.4337 422.07 29.1307C422.265 28.8277 422.362 28.4844 422.362 28.1009V26.9432C422.267 27.0047 422.137 27.0616 421.971 27.1136C421.81 27.161 421.628 27.206 421.424 27.2486C421.221 27.2865 421.017 27.322 420.813 27.3551C420.61 27.3835 420.425 27.4096 420.259 27.4332C419.904 27.4853 419.594 27.5682 419.329 27.6818C419.064 27.7955 418.858 27.9493 418.711 28.1435C418.564 28.3329 418.491 28.5696 418.491 28.8537C418.491 29.2656 418.64 29.5805 418.938 29.7983C419.241 30.0114 419.625 30.1179 420.089 30.1179ZM427.713 32V21.0909H430.739V25.3239H431.591L434.56 21.0909H438.111L434.254 26.5028L438.154 32H434.56L431.868 28.1293H430.739V32H427.713ZM448.99 32.2131C447.872 32.2131 446.911 31.9763 446.106 31.5028C445.306 31.0246 444.691 30.3617 444.26 29.5142C443.834 28.6667 443.621 27.6913 443.621 26.5881C443.621 25.4706 443.836 24.4905 444.267 23.6477C444.702 22.8002 445.32 22.1397 446.121 21.6662C446.921 21.188 447.872 20.9489 448.976 20.9489C449.927 20.9489 450.761 21.1217 451.476 21.4673C452.191 21.813 452.756 22.2983 453.173 22.9233C453.59 23.5483 453.819 24.2822 453.862 25.125H451.007C450.926 24.5805 450.713 24.1425 450.368 23.8111C450.027 23.4749 449.579 23.3068 449.025 23.3068C448.557 23.3068 448.147 23.4347 447.797 23.6903C447.451 23.9413 447.181 24.3082 446.987 24.7912C446.793 25.2741 446.696 25.8589 446.696 26.5455C446.696 27.2415 446.791 27.8333 446.98 28.321C447.174 28.8087 447.446 29.1804 447.797 29.4361C448.147 29.6918 448.557 29.8196 449.025 29.8196C449.371 29.8196 449.681 29.7486 449.956 29.6065C450.235 29.4645 450.465 29.2585 450.645 28.9886C450.829 28.714 450.95 28.3849 451.007 28.0014H453.862C453.815 28.8348 453.587 29.5687 453.18 30.2031C452.778 30.8329 452.221 31.3253 451.511 31.6804C450.801 32.0355 449.961 32.2131 448.99 32.2131ZM459.86 23.4702V21.0909H469.746V23.4702H466.231V32H463.347V23.4702H459.86ZM476.119 32.2131C475.016 32.2131 474.061 31.9787 473.257 31.5099C472.456 31.0365 471.838 30.3783 471.403 29.5355C470.967 28.688 470.749 27.7055 470.749 26.5881C470.749 25.4612 470.967 24.4763 471.403 23.6335C471.838 22.786 472.456 22.1278 473.257 21.6591C474.061 21.1856 475.016 20.9489 476.119 20.9489C477.222 20.9489 478.174 21.1856 478.974 21.6591C479.779 22.1278 480.399 22.786 480.835 23.6335C481.27 24.4763 481.488 25.4612 481.488 26.5881C481.488 27.7055 481.27 28.688 480.835 29.5355C480.399 30.3783 479.779 31.0365 478.974 31.5099C478.174 31.9787 477.222 32.2131 476.119 32.2131ZM476.133 29.8693C476.635 29.8693 477.054 29.7273 477.39 29.4432C477.726 29.1544 477.98 28.7614 478.15 28.2642C478.325 27.767 478.413 27.2012 478.413 26.5668C478.413 25.9323 478.325 25.3665 478.15 24.8693C477.98 24.3722 477.726 23.9792 477.39 23.6903C477.054 23.4015 476.635 23.2571 476.133 23.2571C475.626 23.2571 475.2 23.4015 474.855 23.6903C474.514 23.9792 474.256 24.3722 474.08 24.8693C473.91 25.3665 473.825 25.9323 473.825 26.5668C473.825 27.2012 473.91 27.767 474.08 28.2642C474.256 28.7614 474.514 29.1544 474.855 29.4432C475.2 29.7273 475.626 29.8693 476.133 29.8693ZM492.923 21.0909V32H490.053V21.0909H492.923ZM491.524 25.8778V28.2642C491.292 28.3684 491.003 28.4678 490.657 28.5625C490.311 28.6525 489.949 28.7259 489.57 28.7827C489.192 28.8395 488.837 28.8679 488.505 28.8679C486.938 28.8679 485.704 28.5459 484.805 27.902C483.905 27.2533 483.455 26.2187 483.455 24.7983V21.0767H486.311V24.7983C486.311 25.2197 486.382 25.5535 486.524 25.7997C486.67 26.0459 486.902 26.2235 487.22 26.3324C487.542 26.4366 487.97 26.4886 488.505 26.4886C489.002 26.4886 489.49 26.4366 489.968 26.3324C490.446 26.2282 490.965 26.0767 491.524 25.8778ZM495.272 32V21.0909H498.297V25.3239H499.15L502.118 21.0909H505.67L501.813 26.5028L505.712 32H502.118L499.427 28.1293H498.297V32H495.272ZM509.881 28.0085L513.809 21.0909H516.792V32H513.908V25.0611L509.995 32H506.991V21.0909H509.881V28.0085ZM523.285 28.9105H526.218C526.232 29.2704 526.393 29.5545 526.701 29.7628C527.009 29.9711 527.407 30.0753 527.894 30.0753C528.387 30.0753 528.801 29.9616 529.137 29.7344C529.473 29.5024 529.642 29.1709 529.642 28.7401C529.642 28.4749 529.575 28.2453 529.443 28.0511C529.31 27.8523 529.125 27.696 528.889 27.5824C528.652 27.4687 528.377 27.4119 528.065 27.4119H526.495V25.4304H528.065C528.534 25.4304 528.893 25.3215 529.144 25.1037C529.4 24.8859 529.528 24.6136 529.528 24.2869C529.528 23.9176 529.395 23.6217 529.13 23.3991C528.87 23.1719 528.517 23.0582 528.072 23.0582C527.622 23.0582 527.248 23.16 526.95 23.3636C526.656 23.5625 526.505 23.8229 526.495 24.1449H523.576C523.586 23.4915 523.782 22.9257 524.166 22.4474C524.554 21.9692 525.075 21.5999 525.728 21.3395C526.386 21.0791 527.123 20.9489 527.937 20.9489C528.827 20.9489 529.594 21.0743 530.238 21.3253C530.887 21.5715 531.384 21.9242 531.73 22.3835C532.08 22.8428 532.255 23.3897 532.255 24.0241C532.255 24.6018 532.066 25.0848 531.687 25.473C531.308 25.8613 530.778 26.1383 530.096 26.304V26.4176C530.546 26.446 530.953 26.5668 531.318 26.7798C531.682 26.9929 531.973 27.2865 532.191 27.6605C532.409 28.0298 532.518 28.4678 532.518 28.9744C532.518 29.6515 532.319 30.2315 531.921 30.7145C531.528 31.1974 530.984 31.5691 530.288 31.8295C529.597 32.0852 528.803 32.2131 527.909 32.2131C527.037 32.2131 526.256 32.0876 525.565 31.8366C524.878 31.581 524.331 31.2069 523.924 30.7145C523.522 30.2221 523.309 29.6207 523.285 28.9105ZM534.373 36.0909V21.0909H537.356V22.9233H537.491C537.624 22.6297 537.816 22.3314 538.067 22.0284C538.322 21.7206 538.654 21.465 539.061 21.2614C539.473 21.053 539.984 20.9489 540.595 20.9489C541.39 20.9489 542.124 21.1572 542.797 21.5739C543.469 21.9858 544.006 22.6084 544.409 23.4418C544.811 24.2704 545.013 25.3097 545.013 26.5597C545.013 27.7765 544.816 28.804 544.423 29.642C544.035 30.4754 543.505 31.1075 542.832 31.5384C542.165 31.9645 541.416 32.1776 540.588 32.1776C540.001 32.1776 539.501 32.0805 539.089 31.8864C538.682 31.6922 538.348 31.4484 538.088 31.1548C537.827 30.8565 537.629 30.5559 537.491 30.2528H537.399V36.0909H534.373ZM537.335 26.5455C537.335 27.1941 537.425 27.7599 537.605 28.2429C537.785 28.7259 538.045 29.1023 538.386 29.3722C538.727 29.6373 539.141 29.7699 539.629 29.7699C540.122 29.7699 540.538 29.6349 540.879 29.3651C541.22 29.0904 541.478 28.7116 541.653 28.2287C541.833 27.741 541.923 27.1799 541.923 26.5455C541.923 25.9157 541.836 25.3617 541.66 24.8835C541.485 24.4053 541.227 24.0312 540.886 23.7614C540.545 23.4915 540.126 23.3565 539.629 23.3565C539.137 23.3565 538.72 23.4867 538.379 23.7472C538.043 24.0076 537.785 24.3769 537.605 24.8551C537.425 25.3333 537.335 25.8968 537.335 26.5455ZM552.001 32.2131C550.879 32.2131 549.913 31.9858 549.104 31.5312C548.299 31.072 547.678 30.4233 547.243 29.5852C546.807 28.7424 546.589 27.7457 546.589 26.5952C546.589 25.473 546.807 24.4882 547.243 23.6406C547.678 22.7931 548.291 22.1326 549.082 21.6591C549.878 21.1856 550.81 20.9489 551.881 20.9489C552.6 20.9489 553.27 21.0649 553.89 21.2969C554.515 21.5241 555.06 21.8674 555.524 22.3267C555.993 22.786 556.357 23.3636 556.618 24.0597C556.878 24.7509 557.008 25.5606 557.008 26.4886V27.3196H547.797V25.4446H554.16C554.16 25.009 554.066 24.6231 553.876 24.2869C553.687 23.9508 553.424 23.688 553.088 23.4986C552.756 23.3045 552.371 23.2074 551.93 23.2074C551.471 23.2074 551.064 23.3139 550.709 23.527C550.358 23.7353 550.084 24.017 549.885 24.3722C549.686 24.7225 549.584 25.1132 549.579 25.544V27.3267C549.579 27.8665 549.679 28.3329 549.878 28.7259C550.081 29.1188 550.368 29.4219 550.737 29.6349C551.106 29.848 551.544 29.9545 552.051 29.9545C552.387 29.9545 552.695 29.9072 552.974 29.8125C553.254 29.7178 553.493 29.5758 553.692 29.3864C553.89 29.197 554.042 28.965 554.146 28.6903L556.944 28.875C556.802 29.5473 556.511 30.1345 556.071 30.6364C555.635 31.1335 555.072 31.5218 554.381 31.8011C553.694 32.0758 552.901 32.2131 552.001 32.2131ZM566.575 25.3381V27.7173H560.879V25.3381H566.575ZM561.873 21.0909V32H558.983V21.0909H561.873ZM568.471 21.0909V32H565.602V21.0909H568.471ZM573.709 28.0085L577.637 21.0909H580.62V32H577.736V25.0611L573.823 32H570.819V21.0909H573.709V28.0085ZM589.437 32V23.4631H587.392C586.838 23.4631 586.416 23.5909 586.128 23.8466C585.839 24.1023 585.697 24.4053 585.702 24.7557C585.697 25.1108 585.834 25.4115 586.113 25.6577C586.398 25.8991 586.814 26.0199 587.363 26.0199H590.446V28.0653H587.363C586.431 28.0653 585.623 27.9233 584.942 27.6392C584.26 27.3551 583.734 26.9598 583.365 26.4531C582.996 25.9418 582.813 25.3475 582.818 24.6705C582.813 23.9602 582.996 23.3376 583.365 22.8026C583.734 22.2628 584.262 21.8437 584.949 21.5455C585.64 21.2424 586.454 21.0909 587.392 21.0909H592.257V32H589.437ZM582.506 32L585.538 26.3182H588.429L585.403 32H582.506ZM604.208 32.2131C603.086 32.2131 602.12 31.9858 601.311 31.5312C600.506 31.072 599.885 30.4233 599.45 29.5852C599.014 28.7424 598.796 27.7457 598.796 26.5952C598.796 25.473 599.014 24.4882 599.45 23.6406C599.885 22.7931 600.499 22.1326 601.289 21.6591C602.085 21.1856 603.017 20.9489 604.088 20.9489C604.807 20.9489 605.477 21.0649 606.097 21.2969C606.722 21.5241 607.267 21.8674 607.731 22.3267C608.2 22.786 608.564 23.3636 608.825 24.0597C609.085 24.7509 609.215 25.5606 609.215 26.4886V27.3196H600.004V25.4446H606.367C606.367 25.009 606.273 24.6231 606.083 24.2869C605.894 23.9508 605.631 23.688 605.295 23.4986C604.963 23.3045 604.578 23.2074 604.137 23.2074C603.678 23.2074 603.271 23.3139 602.916 23.527C602.565 23.7353 602.291 24.017 602.092 24.3722C601.893 24.7225 601.791 25.1132 601.786 25.544V27.3267C601.786 27.8665 601.886 28.3329 602.085 28.7259C602.288 29.1188 602.575 29.4219 602.944 29.6349C603.313 29.848 603.751 29.9545 604.258 29.9545C604.594 29.9545 604.902 29.9072 605.181 29.8125C605.461 29.7178 605.7 29.5758 605.899 29.3864C606.097 29.197 606.249 28.965 606.353 28.6903L609.151 28.875C609.009 29.5473 608.718 30.1345 608.278 30.6364C607.842 31.1335 607.279 31.5218 606.588 31.8011C605.901 32.0758 605.108 32.2131 604.208 32.2131ZM616.161 32.2131C615.039 32.2131 614.073 31.9858 613.264 31.5312C612.459 31.072 611.838 30.4233 611.403 29.5852C610.967 28.7424 610.749 27.7457 610.749 26.5952C610.749 25.473 610.967 24.4882 611.403 23.6406C611.838 22.7931 612.452 22.1326 613.242 21.6591C614.038 21.1856 614.971 20.9489 616.041 20.9489C616.76 20.9489 617.43 21.0649 618.051 21.2969C618.676 21.5241 619.22 21.8674 619.684 22.3267C620.153 22.786 620.517 23.3636 620.778 24.0597C621.038 24.7509 621.169 25.5606 621.169 26.4886V27.3196H611.957V25.4446H618.32C618.32 25.009 618.226 24.6231 618.036 24.2869C617.847 23.9508 617.584 23.688 617.248 23.4986C616.917 23.3045 616.531 23.2074 616.09 23.2074C615.631 23.2074 615.224 23.3139 614.869 23.527C614.518 23.7353 614.244 24.017 614.045 24.3722C613.846 24.7225 613.744 25.1132 613.74 25.544V27.3267C613.74 27.8665 613.839 28.3329 614.038 28.7259C614.241 29.1188 614.528 29.4219 614.897 29.6349C615.267 29.848 615.704 29.9545 616.211 29.9545C616.547 29.9545 616.855 29.9072 617.134 29.8125C617.414 29.7178 617.653 29.5758 617.852 29.3864C618.051 29.197 618.202 28.965 618.306 28.6903L621.105 28.875C620.963 29.5473 620.671 30.1345 620.231 30.6364C619.795 31.1335 619.232 31.5218 618.541 31.8011C617.854 32.0758 617.061 32.2131 616.161 32.2131ZM21.3043 56.2131C20.1869 56.2131 19.2257 55.9763 18.4208 55.5028C17.6206 55.0246 17.0051 54.3617 16.5742 53.5142C16.1481 52.6667 15.935 51.6913 15.935 50.5881C15.935 49.4706 16.1504 48.4905 16.5813 47.6477C17.0169 46.8002 17.6348 46.1397 18.435 45.6662C19.2352 45.188 20.1869 44.9489 21.2901 44.9489C22.2418 44.9489 23.0752 45.1217 23.7901 45.4673C24.5051 45.813 25.0709 46.2983 25.4876 46.9233C25.9042 47.5483 26.1339 48.2822 26.1765 49.125H23.3214C23.2409 48.5805 23.0278 48.1425 22.6822 47.8111C22.3413 47.4749 21.8938 47.3068 21.3398 47.3068C20.8711 47.3068 20.4615 47.4347 20.1112 47.6903C19.7655 47.9413 19.4956 48.3082 19.3015 48.7912C19.1074 49.2741 19.0103 49.8589 19.0103 50.5455C19.0103 51.2415 19.105 51.8333 19.2944 52.321C19.4885 52.8087 19.7608 53.1804 20.1112 53.4361C20.4615 53.6918 20.8711 53.8196 21.3398 53.8196C21.6855 53.8196 21.9956 53.7486 22.2702 53.6065C22.5496 53.4645 22.7792 53.2585 22.9592 52.9886C23.1438 52.714 23.2646 52.3849 23.3214 52.0014H26.1765C26.1291 52.8348 25.9019 53.5687 25.4947 54.2031C25.0922 54.8329 24.5359 55.3253 23.8256 55.6804C23.1154 56.0355 22.275 56.2131 21.3043 56.2131ZM28.1136 56V45.0909H37.652V56H34.7614V47.4702H30.9688V56H28.1136ZM44.9957 56.2131C43.8925 56.2131 42.9384 55.9787 42.1335 55.5099C41.3333 55.0365 40.7154 54.3783 40.2798 53.5355C39.8442 52.688 39.6264 51.7055 39.6264 50.5881C39.6264 49.4612 39.8442 48.4763 40.2798 47.6335C40.7154 46.786 41.3333 46.1278 42.1335 45.6591C42.9384 45.1856 43.8925 44.9489 44.9957 44.9489C46.099 44.9489 47.0507 45.1856 47.8509 45.6591C48.6558 46.1278 49.276 46.786 49.7116 47.6335C50.1473 48.4763 50.3651 49.4612 50.3651 50.5881C50.3651 51.7055 50.1473 52.688 49.7116 53.5355C49.276 54.3783 48.6558 55.0365 47.8509 55.5099C47.0507 55.9787 46.099 56.2131 44.9957 56.2131ZM45.0099 53.8693C45.5118 53.8693 45.9309 53.7273 46.267 53.4432C46.6032 53.1544 46.8565 52.7614 47.027 52.2642C47.2022 51.767 47.2898 51.2012 47.2898 50.5668C47.2898 49.9323 47.2022 49.3665 47.027 48.8693C46.8565 48.3722 46.6032 47.9792 46.267 47.6903C45.9309 47.4015 45.5118 47.2571 45.0099 47.2571C44.5033 47.2571 44.0772 47.4015 43.7315 47.6903C43.3906 47.9792 43.1326 48.3722 42.9574 48.8693C42.7869 49.3665 42.7017 49.9323 42.7017 50.5668C42.7017 51.2012 42.7869 51.767 42.9574 52.2642C43.1326 52.7614 43.3906 53.1544 43.7315 53.4432C44.0772 53.7273 44.5033 53.8693 45.0099 53.8693ZM57.2614 56.2131C56.1439 56.2131 55.1828 55.9763 54.3778 55.5028C53.5777 55.0246 52.9621 54.3617 52.5312 53.5142C52.1051 52.6667 51.892 51.6913 51.892 50.5881C51.892 49.4706 52.1075 48.4905 52.5384 47.6477C52.974 46.8002 53.5919 46.1397 54.392 45.6662C55.1922 45.188 56.1439 44.9489 57.2472 44.9489C58.1989 44.9489 59.0322 45.1217 59.7472 45.4673C60.4621 45.813 61.0279 46.2983 61.4446 46.9233C61.8613 47.5483 62.0909 48.2822 62.1335 49.125H59.2784C59.1979 48.5805 58.9848 48.1425 58.6392 47.8111C58.2983 47.4749 57.8509 47.3068 57.2969 47.3068C56.8281 47.3068 56.4186 47.4347 56.0682 47.6903C55.7225 47.9413 55.4527 48.3082 55.2585 48.7912C55.0644 49.2741 54.9673 49.8589 54.9673 50.5455C54.9673 51.2415 55.062 51.8333 55.2514 52.321C55.4455 52.8087 55.7178 53.1804 56.0682 53.4361C56.4186 53.6918 56.8281 53.8196 57.2969 53.8196C57.6425 53.8196 57.9527 53.7486 58.2273 53.6065C58.5066 53.4645 58.7363 53.2585 58.9162 52.9886C59.1009 52.714 59.2216 52.3849 59.2784 52.0014H62.1335C62.0862 52.8348 61.8589 53.5687 61.4517 54.2031C61.0492 54.8329 60.4929 55.3253 59.7827 55.6804C59.0724 56.0355 58.232 56.2131 57.2614 56.2131ZM68.9996 56.2131C67.8964 56.2131 66.9424 55.9787 66.1374 55.5099C65.3372 55.0365 64.7193 54.3783 64.2837 53.5355C63.8481 52.688 63.6303 51.7055 63.6303 50.5881C63.6303 49.4612 63.8481 48.4763 64.2837 47.6335C64.7193 46.786 65.3372 46.1278 66.1374 45.6591C66.9424 45.1856 67.8964 44.9489 68.9996 44.9489C70.1029 44.9489 71.0546 45.1856 71.8548 45.6591C72.6597 46.1278 73.2799 46.786 73.7156 47.6335C74.1512 48.4763 74.369 49.4612 74.369 50.5881C74.369 51.7055 74.1512 52.688 73.7156 53.5355C73.2799 54.3783 72.6597 55.0365 71.8548 55.5099C71.0546 55.9787 70.1029 56.2131 68.9996 56.2131ZM69.0138 53.8693C69.5157 53.8693 69.9348 53.7273 70.271 53.4432C70.6071 53.1544 70.8604 52.7614 71.0309 52.2642C71.2061 51.767 71.2937 51.2012 71.2937 50.5668C71.2937 49.9323 71.2061 49.3665 71.0309 48.8693C70.8604 48.3722 70.6071 47.9792 70.271 47.6903C69.9348 47.4015 69.5157 47.2571 69.0138 47.2571C68.5072 47.2571 68.0811 47.4015 67.7354 47.6903C67.3945 47.9792 67.1365 48.3722 66.9613 48.8693C66.7908 49.3665 66.7056 49.9323 66.7056 50.5668C66.7056 51.2012 66.7908 51.767 66.9613 52.2642C67.1365 52.7614 67.3945 53.1544 67.7354 53.4432C68.0811 53.7273 68.5072 53.8693 69.0138 53.8693ZM85.4059 41.0852L86.3292 43.0597C86.0214 43.3153 85.6805 43.5047 85.3065 43.6278C84.9324 43.7462 84.485 43.8243 83.9641 43.8622C83.448 43.9001 82.8183 43.9261 82.0749 43.9403C81.2321 43.9498 80.5456 44.0848 80.0153 44.3452C79.485 44.6056 79.0825 45.0152 78.8079 45.5739C78.5333 46.1278 78.3533 46.8523 78.2681 47.7472H78.3746C78.7013 47.0795 79.1606 46.5634 79.7525 46.1989C80.3491 45.8343 81.0853 45.652 81.9613 45.652C82.8893 45.652 83.7013 45.8556 84.3974 46.2628C85.0981 46.67 85.6426 47.2547 86.0309 48.017C86.4192 48.7794 86.6133 49.6932 86.6133 50.7585C86.6133 51.8665 86.3955 52.83 85.9599 53.6491C85.529 54.4635 84.9158 55.0956 84.1204 55.5455C83.3249 55.9905 82.378 56.2131 81.2795 56.2131C80.1763 56.2131 79.2246 55.9811 78.4244 55.517C77.6289 55.053 77.0134 54.3688 76.5778 53.4645C76.1469 52.5601 75.9315 51.4474 75.9315 50.1264V49.2315C75.9315 46.6037 76.4428 44.6553 77.4656 43.3864C78.4883 42.1174 79.9916 41.4735 81.9755 41.4545C82.5153 41.4451 83.003 41.4427 83.4386 41.4474C83.8742 41.4522 84.2553 41.4309 84.582 41.3835C84.9135 41.3362 85.1881 41.2367 85.4059 41.0852ZM81.2937 53.8693C81.7577 53.8693 82.1554 53.7486 82.4869 53.5071C82.823 53.2656 83.0811 52.92 83.261 52.4702C83.4457 52.0204 83.538 51.483 83.538 50.858C83.538 50.2377 83.4457 49.7121 83.261 49.2812C83.0811 48.8456 82.823 48.5142 82.4869 48.2869C82.1507 48.0597 81.7482 47.946 81.2795 47.946C80.9291 47.946 80.6142 48.0099 80.3349 48.1378C80.0555 48.2656 79.8164 48.455 79.6175 48.706C79.4234 48.9522 79.2719 49.2576 79.163 49.6222C79.0588 49.982 79.0067 50.3939 79.0067 50.858C79.0067 51.7907 79.208 52.527 79.6104 53.0668C80.0176 53.6018 80.5787 53.8693 81.2937 53.8693ZM96.2138 49.3381V51.7173H90.5178V49.3381H96.2138ZM91.5121 45.0909V56H88.6214V45.0909H91.5121ZM98.1101 45.0909V56H95.2408V45.0909H98.1101ZM105.386 56.2131C104.283 56.2131 103.329 55.9787 102.524 55.5099C101.724 55.0365 101.106 54.3783 100.67 53.5355C100.235 52.688 100.017 51.7055 100.017 50.5881C100.017 49.4612 100.235 48.4763 100.67 47.6335C101.106 46.786 101.724 46.1278 102.524 45.6591C103.329 45.1856 104.283 44.9489 105.386 44.9489C106.49 44.9489 107.441 45.1856 108.241 45.6591C109.046 46.1278 109.667 46.786 110.102 47.6335C110.538 48.4763 110.756 49.4612 110.756 50.5881C110.756 51.7055 110.538 52.688 110.102 53.5355C109.667 54.3783 109.046 55.0365 108.241 55.5099C107.441 55.9787 106.49 56.2131 105.386 56.2131ZM105.401 53.8693C105.902 53.8693 106.321 53.7273 106.658 53.4432C106.994 53.1544 107.247 52.7614 107.418 52.2642C107.593 51.767 107.68 51.2012 107.68 50.5668C107.68 49.9323 107.593 49.3665 107.418 48.8693C107.247 48.3722 106.994 47.9792 106.658 47.6903C106.321 47.4015 105.902 47.2571 105.401 47.2571C104.894 47.2571 104.468 47.4015 104.122 47.6903C103.781 47.9792 103.523 48.3722 103.348 48.8693C103.178 49.3665 103.092 49.9323 103.092 50.5668C103.092 51.2012 103.178 51.767 103.348 52.2642C103.523 52.7614 103.781 53.1544 104.122 53.4432C104.468 53.7273 104.894 53.8693 105.401 53.8693ZM117.652 56.2131C116.535 56.2131 115.573 55.9763 114.768 55.5028C113.968 55.0246 113.353 54.3617 112.922 53.5142C112.496 52.6667 112.283 51.6913 112.283 50.5881C112.283 49.4706 112.498 48.4905 112.929 47.6477C113.365 46.8002 113.982 46.1397 114.783 45.6662C115.583 45.188 116.535 44.9489 117.638 44.9489C118.589 44.9489 119.423 45.1217 120.138 45.4673C120.853 45.813 121.419 46.2983 121.835 46.9233C122.252 47.5483 122.482 48.2822 122.524 49.125H119.669C119.589 48.5805 119.375 48.1425 119.03 47.8111C118.689 47.4749 118.241 47.3068 117.688 47.3068C117.219 47.3068 116.809 47.4347 116.459 47.6903C116.113 47.9413 115.843 48.3082 115.649 48.7912C115.455 49.2741 115.358 49.8589 115.358 50.5455C115.358 51.2415 115.453 51.8333 115.642 52.321C115.836 52.8087 116.108 53.1804 116.459 53.4361C116.809 53.6918 117.219 53.8196 117.688 53.8196C118.033 53.8196 118.343 53.7486 118.618 53.6065C118.897 53.4645 119.127 53.2585 119.307 52.9886C119.491 52.714 119.612 52.3849 119.669 52.0014H122.524C122.477 52.8348 122.25 53.5687 121.842 54.2031C121.44 54.8329 120.884 55.3253 120.173 55.6804C119.463 56.0355 118.623 56.2131 117.652 56.2131ZM123.717 47.4702V45.0909H133.604V47.4702H130.088V56H127.205V47.4702H123.717ZM138.328 52.0085L142.256 45.0909H145.239V56H142.355V49.0611L138.442 56H135.438V45.0909H138.328V52.0085ZM157.222 56.2131C156.119 56.2131 155.165 55.9787 154.36 55.5099C153.56 55.0365 152.942 54.3783 152.506 53.5355C152.071 52.688 151.853 51.7055 151.853 50.5881C151.853 49.4612 152.071 48.4763 152.506 47.6335C152.942 46.786 153.56 46.1278 154.36 45.6591C155.165 45.1856 156.119 44.9489 157.222 44.9489C158.326 44.9489 159.277 45.1856 160.077 45.6591C160.882 46.1278 161.503 46.786 161.938 47.6335C162.374 48.4763 162.592 49.4612 162.592 50.5881C162.592 51.7055 162.374 52.688 161.938 53.5355C161.503 54.3783 160.882 55.0365 160.077 55.5099C159.277 55.9787 158.326 56.2131 157.222 56.2131ZM157.237 53.8693C157.738 53.8693 158.157 53.7273 158.494 53.4432C158.83 53.1544 159.083 52.7614 159.254 52.2642C159.429 51.767 159.516 51.2012 159.516 50.5668C159.516 49.9323 159.429 49.3665 159.254 48.8693C159.083 48.3722 158.83 47.9792 158.494 47.6903C158.157 47.4015 157.738 47.2571 157.237 47.2571C156.73 47.2571 156.304 47.4015 155.958 47.6903C155.617 47.9792 155.359 48.3722 155.184 48.8693C155.013 49.3665 154.928 49.9323 154.928 50.5668C154.928 51.2012 155.013 51.767 155.184 52.2642C155.359 52.7614 155.617 53.1544 155.958 53.4432C156.304 53.7273 156.73 53.8693 157.237 53.8693ZM164.559 56V45.0909H167.585V49.3239H168.437L171.406 45.0909H174.957L171.1 50.5028L174.999 56H171.406L168.714 52.1293H167.585V56H164.559ZM179.388 56.206C178.692 56.206 178.072 56.0852 177.528 55.8438C176.983 55.5975 176.552 55.2353 176.235 54.7571C175.923 54.2741 175.766 53.6728 175.766 52.9531C175.766 52.3471 175.878 51.8381 176.1 51.4261C176.323 51.0142 176.626 50.6828 177.009 50.4318C177.393 50.1809 177.828 49.9915 178.316 49.8636C178.808 49.7358 179.325 49.6458 179.864 49.5938C180.499 49.5275 181.01 49.4659 181.398 49.4091C181.787 49.3475 182.068 49.2576 182.244 49.1392C182.419 49.0208 182.506 48.8456 182.506 48.6136V48.571C182.506 48.1212 182.364 47.7732 182.08 47.527C181.801 47.2808 181.403 47.1577 180.887 47.1577C180.343 47.1577 179.909 47.2784 179.587 47.5199C179.265 47.7566 179.052 48.0549 178.948 48.4148L176.15 48.1875C176.292 47.5246 176.571 46.9517 176.988 46.4688C177.405 45.9811 177.942 45.607 178.6 45.3466C179.263 45.0814 180.03 44.9489 180.901 44.9489C181.507 44.9489 182.087 45.0199 182.641 45.1619C183.2 45.304 183.695 45.5241 184.126 45.8224C184.561 46.1207 184.905 46.5043 185.156 46.973C185.406 47.437 185.532 47.9934 185.532 48.642V56H182.663V54.4872H182.577C182.402 54.8281 182.168 55.1288 181.874 55.3892C181.581 55.6449 181.228 55.8461 180.816 55.9929C180.404 56.1349 179.928 56.206 179.388 56.206ZM180.255 54.1179C180.7 54.1179 181.093 54.0303 181.434 53.8551C181.775 53.6752 182.042 53.4337 182.237 53.1307C182.431 52.8277 182.528 52.4844 182.528 52.1009V50.9432C182.433 51.0047 182.303 51.0616 182.137 51.1136C181.976 51.161 181.794 51.206 181.59 51.2486C181.387 51.2865 181.183 51.322 180.979 51.3551C180.776 51.3835 180.591 51.4096 180.425 51.4332C180.07 51.4853 179.76 51.5682 179.495 51.6818C179.23 51.7955 179.024 51.9493 178.877 52.1435C178.73 52.3329 178.657 52.5696 178.657 52.8537C178.657 53.2656 178.806 53.5805 179.104 53.7983C179.407 54.0114 179.791 54.1179 180.255 54.1179ZM187.318 52.9105H190.251C190.266 53.2704 190.427 53.5545 190.734 53.7628C191.042 53.9711 191.44 54.0753 191.928 54.0753C192.42 54.0753 192.834 53.9616 193.17 53.7344C193.507 53.5024 193.675 53.1709 193.675 52.7401C193.675 52.4749 193.608 52.2453 193.476 52.0511C193.343 51.8523 193.159 51.696 192.922 51.5824C192.685 51.4687 192.411 51.4119 192.098 51.4119H190.528V49.4304H192.098C192.567 49.4304 192.927 49.3215 193.178 49.1037C193.433 48.8859 193.561 48.6136 193.561 48.2869C193.561 47.9176 193.429 47.6217 193.163 47.3991C192.903 47.1719 192.55 47.0582 192.105 47.0582C191.655 47.0582 191.281 47.16 190.983 47.3636C190.689 47.5625 190.538 47.8229 190.528 48.1449H187.609C187.619 47.4915 187.815 46.9257 188.199 46.4474C188.587 45.9692 189.108 45.5999 189.761 45.3395C190.42 45.0791 191.156 44.9489 191.97 44.9489C192.86 44.9489 193.627 45.0743 194.271 45.3253C194.92 45.5715 195.417 45.9242 195.763 46.3835C196.113 46.8428 196.288 47.3897 196.288 48.0241C196.288 48.6018 196.099 49.0848 195.72 49.473C195.341 49.8613 194.811 50.1383 194.129 50.304V50.4176C194.579 50.446 194.986 50.5668 195.351 50.7798C195.715 50.9929 196.007 51.2865 196.224 51.6605C196.442 52.0298 196.551 52.4678 196.551 52.9744C196.551 53.6515 196.352 54.2315 195.955 54.7145C195.562 55.1974 195.017 55.5691 194.321 55.8295C193.63 56.0852 192.837 56.2131 191.942 56.2131C191.071 56.2131 190.289 56.0876 189.598 55.8366C188.911 55.581 188.365 55.2069 187.957 54.7145C187.555 54.2221 187.342 53.6207 187.318 52.9105ZM200.303 48.4432H203.563C205.007 48.4432 206.134 48.7888 206.944 49.4801C207.753 50.1667 208.158 51.0852 208.158 52.2358C208.158 52.9839 207.976 53.642 207.611 54.2102C207.247 54.7737 206.721 55.214 206.034 55.5312C205.348 55.8438 204.524 56 203.563 56H198.407V45.0909H201.297V53.6207H203.563C204.069 53.6207 204.486 53.4929 204.813 53.2372C205.14 52.9815 205.305 52.6548 205.31 52.2571C205.305 51.8357 205.14 51.4924 204.813 51.2273C204.486 50.9574 204.069 50.8224 203.563 50.8224H200.303V48.4432ZM209.33 56V45.0909H212.355V56H209.33ZM214.774 56V45.0909H219.426C220.77 45.0909 221.833 45.3466 222.615 45.858C223.396 46.3693 223.787 47.0961 223.787 48.0384C223.787 48.6302 223.566 49.1226 223.126 49.5156C222.686 49.9086 222.075 50.1738 221.294 50.3111C221.947 50.3584 222.503 50.5076 222.963 50.7585C223.427 51.0047 223.779 51.3243 224.021 51.7173C224.267 52.1103 224.39 52.5459 224.39 53.0241C224.39 53.6444 224.225 54.1771 223.893 54.6222C223.566 55.0672 223.086 55.4081 222.451 55.6449C221.822 55.8816 221.052 56 220.143 56H214.774ZM217.593 53.7344H220.143C220.565 53.7344 220.894 53.6349 221.13 53.4361C221.372 53.2325 221.493 52.9555 221.493 52.6051C221.493 52.2169 221.372 51.9115 221.13 51.6889C220.894 51.4664 220.565 51.3551 220.143 51.3551H217.593V53.7344ZM217.593 49.5795H219.49C219.793 49.5795 220.051 49.5369 220.264 49.4517C220.482 49.3617 220.647 49.2339 220.761 49.0682C220.879 48.9025 220.939 48.706 220.939 48.4787C220.939 48.1425 220.804 47.8797 220.534 47.6903C220.264 47.5009 219.895 47.4062 219.426 47.4062H217.593V49.5795ZM229.408 56.206C228.712 56.206 228.092 56.0852 227.547 55.8438C227.003 55.5975 226.572 55.2353 226.255 54.7571C225.942 54.2741 225.786 53.6728 225.786 52.9531C225.786 52.3471 225.897 51.8381 226.12 51.4261C226.342 51.0142 226.645 50.6828 227.029 50.4318C227.412 50.1809 227.848 49.9915 228.336 49.8636C228.828 49.7358 229.344 49.6458 229.884 49.5938C230.518 49.5275 231.03 49.4659 231.418 49.4091C231.806 49.3475 232.088 49.2576 232.263 49.1392C232.438 49.0208 232.526 48.8456 232.526 48.6136V48.571C232.526 48.1212 232.384 47.7732 232.1 47.527C231.82 47.2808 231.423 47.1577 230.907 47.1577C230.362 47.1577 229.929 47.2784 229.607 47.5199C229.285 47.7566 229.072 48.0549 228.968 48.4148L226.169 48.1875C226.311 47.5246 226.591 46.9517 227.007 46.4688C227.424 45.9811 227.962 45.607 228.62 45.3466C229.283 45.0814 230.05 44.9489 230.921 44.9489C231.527 44.9489 232.107 45.0199 232.661 45.1619C233.22 45.304 233.714 45.5241 234.145 45.8224C234.581 46.1207 234.924 46.5043 235.175 46.973C235.426 47.437 235.551 47.9934 235.551 48.642V56H232.682V54.4872H232.597C232.422 54.8281 232.187 55.1288 231.894 55.3892C231.6 55.6449 231.248 55.8461 230.836 55.9929C230.424 56.1349 229.948 56.206 229.408 56.206ZM230.275 54.1179C230.72 54.1179 231.113 54.0303 231.453 53.8551C231.794 53.6752 232.062 53.4337 232.256 53.1307C232.45 52.8277 232.547 52.4844 232.547 52.1009V50.9432C232.453 51.0047 232.322 51.0616 232.157 51.1136C231.996 51.161 231.813 51.206 231.61 51.2486C231.406 51.2865 231.203 51.322 230.999 51.3551C230.795 51.3835 230.611 51.4096 230.445 51.4332C230.09 51.4853 229.78 51.5682 229.515 51.6818C229.249 51.7955 229.043 51.9493 228.897 52.1435C228.75 52.3329 228.676 52.5696 228.676 52.8537C228.676 53.2656 228.826 53.5805 229.124 53.7983C229.427 54.0114 229.81 54.1179 230.275 54.1179ZM236.803 47.4702V45.0909H246.69V47.4702H243.174V56H240.29V47.4702H236.803ZM250.42 48.4432H253.68C255.124 48.4432 256.251 48.7888 257.061 49.4801C257.87 50.1667 258.275 51.0852 258.275 52.2358C258.275 52.9839 258.093 53.642 257.728 54.2102C257.364 54.7737 256.838 55.214 256.152 55.5312C255.465 55.8438 254.641 56 253.68 56H248.524V45.0909H251.414V53.6207H253.68C254.187 53.6207 254.603 53.4929 254.93 53.2372C255.257 52.9815 255.422 52.6548 255.427 52.2571C255.422 51.8357 255.257 51.4924 254.93 51.2273C254.603 50.9574 254.187 50.8224 253.68 50.8224H250.42V48.4432ZM264.911 56V45.0909H269.562C270.907 45.0909 271.97 45.3466 272.751 45.858C273.533 46.3693 273.923 47.0961 273.923 48.0384C273.923 48.6302 273.703 49.1226 273.263 49.5156C272.822 49.9086 272.212 50.1738 271.43 50.3111C272.084 50.3584 272.64 50.5076 273.099 50.7585C273.563 51.0047 273.916 51.3243 274.158 51.7173C274.404 52.1103 274.527 52.5459 274.527 53.0241C274.527 53.6444 274.361 54.1771 274.03 54.6222C273.703 55.0672 273.223 55.4081 272.588 55.6449C271.958 55.8816 271.189 56 270.28 56H264.911ZM267.73 53.7344H270.28C270.701 53.7344 271.03 53.6349 271.267 53.4361C271.509 53.2325 271.629 52.9555 271.629 52.6051C271.629 52.2169 271.509 51.9115 271.267 51.6889C271.03 51.4664 270.701 51.3551 270.28 51.3551H267.73V53.7344ZM267.73 49.5795H269.626C269.929 49.5795 270.188 49.5369 270.401 49.4517C270.618 49.3617 270.784 49.2339 270.898 49.0682C271.016 48.9025 271.075 48.706 271.075 48.4787C271.075 48.1425 270.94 47.8797 270.67 47.6903C270.401 47.5009 270.031 47.4062 269.562 47.4062H267.73V49.5795ZM275.795 56L275.781 53.5994H276.143C276.398 53.5994 276.619 53.5379 276.803 53.4148C276.993 53.2869 277.149 53.081 277.272 52.7969C277.395 52.5128 277.492 52.1364 277.563 51.6676C277.634 51.1941 277.682 50.6117 277.705 49.9205L277.883 45.0909H286.178V56H283.295V47.4702H280.603L280.433 50.8011C280.39 51.715 280.279 52.5009 280.099 53.1591C279.924 53.8172 279.68 54.357 279.367 54.7784C279.055 55.1951 278.678 55.5028 278.238 55.7017C277.798 55.9006 277.286 56 276.704 56H275.795ZM291.414 52.0085L295.342 45.0909H298.325V56H295.441V49.0611L291.528 56H288.524V45.0909H291.414V52.0085ZM307.142 56V47.4631H305.097C304.543 47.4631 304.122 47.5909 303.833 47.8466C303.544 48.1023 303.402 48.4053 303.407 48.7557C303.402 49.1108 303.539 49.4115 303.819 49.6577C304.103 49.8991 304.519 50.0199 305.069 50.0199H308.151V52.0653H305.069C304.136 52.0653 303.328 51.9233 302.647 51.6392C301.965 51.3551 301.439 50.9598 301.07 50.4531C300.701 49.9418 300.518 49.3475 300.523 48.6705C300.518 47.9602 300.701 47.3376 301.07 46.8026C301.439 46.2628 301.967 45.8437 302.654 45.5455C303.345 45.2424 304.159 45.0909 305.097 45.0909H309.962V56H307.142ZM300.211 56L303.243 50.3182H306.134L303.108 56H300.211ZM319.905 49.3381V51.7173H314.209V49.3381H319.905ZM315.203 45.0909V56H312.313V45.0909H315.203ZM321.801 45.0909V56H318.932V45.0909H321.801ZM327.039 52.0085L330.967 45.0909H333.95V56H331.066V49.0611L327.153 56H324.149V45.0909H327.039V52.0085ZM341.347 56.2131C340.225 56.2131 339.259 55.9858 338.449 55.5312C337.644 55.072 337.024 54.4233 336.588 53.5852C336.153 52.7424 335.935 51.7457 335.935 50.5952C335.935 49.473 336.153 48.4882 336.588 47.6406C337.024 46.7931 337.637 46.1326 338.428 45.6591C339.223 45.1856 340.156 44.9489 341.226 44.9489C341.946 44.9489 342.616 45.0649 343.236 45.2969C343.861 45.5241 344.406 45.8674 344.87 46.3267C345.338 46.786 345.703 47.3636 345.963 48.0597C346.224 48.7509 346.354 49.5606 346.354 50.4886V51.3196H337.142V49.4446H343.506C343.506 49.009 343.411 48.6231 343.222 48.2869C343.033 47.9508 342.77 47.688 342.434 47.4986C342.102 47.3045 341.716 47.2074 341.276 47.2074C340.817 47.2074 340.409 47.3139 340.054 47.527C339.704 47.7353 339.429 48.017 339.23 48.3722C339.032 48.7225 338.93 49.1132 338.925 49.544V51.3267C338.925 51.8665 339.025 52.3329 339.223 52.7259C339.427 53.1188 339.713 53.4219 340.083 53.6349C340.452 53.848 340.89 53.9545 341.397 53.9545C341.733 53.9545 342.041 53.9072 342.32 53.8125C342.599 53.7178 342.838 53.5758 343.037 53.3864C343.236 53.197 343.388 52.965 343.492 52.6903L346.29 52.875C346.148 53.5473 345.857 54.1345 345.417 54.6364C344.981 55.1335 344.417 55.5218 343.726 55.8011C343.04 56.0758 342.247 56.2131 341.347 56.2131ZM360.55 49.3381V51.7173H354.854V49.3381H360.55ZM355.848 45.0909V56H352.957V45.0909H355.848ZM362.446 45.0909V56H359.577V45.0909H362.446ZM367.904 56.206C367.208 56.206 366.588 56.0852 366.043 55.8438C365.499 55.5975 365.068 55.2353 364.751 54.7571C364.438 54.2741 364.282 53.6728 364.282 52.9531C364.282 52.3471 364.393 51.8381 364.616 51.4261C364.838 51.0142 365.141 50.6828 365.525 50.4318C365.908 50.1809 366.344 49.9915 366.832 49.8636C367.324 49.7358 367.84 49.6458 368.38 49.5938C369.014 49.5275 369.526 49.4659 369.914 49.4091C370.302 49.3475 370.584 49.2576 370.759 49.1392C370.934 49.0208 371.022 48.8456 371.022 48.6136V48.571C371.022 48.1212 370.88 47.7732 370.596 47.527C370.317 47.2808 369.919 47.1577 369.403 47.1577C368.858 47.1577 368.425 47.2784 368.103 47.5199C367.781 47.7566 367.568 48.0549 367.464 48.4148L364.665 48.1875C364.808 47.5246 365.087 46.9517 365.504 46.4688C365.92 45.9811 366.458 45.607 367.116 45.3466C367.779 45.0814 368.546 44.9489 369.417 44.9489C370.023 44.9489 370.603 45.0199 371.157 45.1619C371.716 45.304 372.21 45.5241 372.641 45.8224C373.077 46.1207 373.42 46.5043 373.671 46.973C373.922 47.437 374.048 47.9934 374.048 48.642V56H371.178V54.4872H371.093C370.918 54.8281 370.683 55.1288 370.39 55.3892C370.096 55.6449 369.744 55.8461 369.332 55.9929C368.92 56.1349 368.444 56.206 367.904 56.206ZM368.771 54.1179C369.216 54.1179 369.609 54.0303 369.95 53.8551C370.29 53.6752 370.558 53.4337 370.752 53.1307C370.946 52.8277 371.043 52.4844 371.043 52.1009V50.9432C370.949 51.0047 370.818 51.0616 370.653 51.1136C370.492 51.161 370.309 51.206 370.106 51.2486C369.902 51.2865 369.699 51.322 369.495 51.3551C369.291 51.3835 369.107 51.4096 368.941 51.4332C368.586 51.4853 368.276 51.5682 368.011 51.6818C367.746 51.7955 367.54 51.9493 367.393 52.1435C367.246 52.3329 367.173 52.5696 367.173 52.8537C367.173 53.2656 367.322 53.5805 367.62 53.7983C367.923 54.0114 368.307 54.1179 368.771 54.1179ZM381.024 56V45.0909H390.562V56H387.672V47.4702H383.879V56H381.024ZM392.977 60.0909V45.0909H395.96V46.9233H396.095C396.227 46.6297 396.419 46.3314 396.67 46.0284C396.926 45.7206 397.257 45.465 397.664 45.2614C398.076 45.053 398.588 44.9489 399.199 44.9489C399.994 44.9489 400.728 45.1572 401.4 45.5739C402.073 45.9858 402.61 46.6084 403.012 47.4418C403.415 48.2704 403.616 49.3097 403.616 50.5597C403.616 51.7765 403.42 52.804 403.027 53.642C402.638 54.4754 402.108 55.1075 401.436 55.5384C400.768 55.9645 400.02 56.1776 399.191 56.1776C398.604 56.1776 398.105 56.0805 397.693 55.8864C397.286 55.6922 396.952 55.4484 396.691 55.1548C396.431 54.8565 396.232 54.5559 396.095 54.2528H396.002V60.0909H392.977ZM395.939 50.5455C395.939 51.1941 396.029 51.7599 396.208 52.2429C396.388 52.7259 396.649 53.1023 396.99 53.3722C397.331 53.6373 397.745 53.7699 398.233 53.7699C398.725 53.7699 399.142 53.6349 399.483 53.3651C399.824 53.0904 400.082 52.7116 400.257 52.2287C400.437 51.741 400.527 51.1799 400.527 50.5455C400.527 49.9157 400.439 49.3617 400.264 48.8835C400.089 48.4053 399.831 48.0312 399.49 47.7614C399.149 47.4915 398.73 47.3565 398.233 47.3565C397.74 47.3565 397.324 47.4867 396.983 47.7472C396.646 48.0076 396.388 48.3769 396.208 48.8551C396.029 49.3333 395.939 49.8968 395.939 50.5455ZM410.562 56.2131C409.459 56.2131 408.505 55.9787 407.7 55.5099C406.9 55.0365 406.282 54.3783 405.846 53.5355C405.411 52.688 405.193 51.7055 405.193 50.5881C405.193 49.4612 405.411 48.4763 405.846 47.6335C406.282 46.786 406.9 46.1278 407.7 45.6591C408.505 45.1856 409.459 44.9489 410.562 44.9489C411.665 44.9489 412.617 45.1856 413.417 45.6591C414.222 46.1278 414.842 46.786 415.278 47.6335C415.714 48.4763 415.931 49.4612 415.931 50.5881C415.931 51.7055 415.714 52.688 415.278 53.5355C414.842 54.3783 414.222 55.0365 413.417 55.5099C412.617 55.9787 411.665 56.2131 410.562 56.2131ZM410.576 53.8693C411.078 53.8693 411.497 53.7273 411.833 53.4432C412.17 53.1544 412.423 52.7614 412.593 52.2642C412.769 51.767 412.856 51.2012 412.856 50.5668C412.856 49.9323 412.769 49.3665 412.593 48.8693C412.423 48.3722 412.17 47.9792 411.833 47.6903C411.497 47.4015 411.078 47.2571 410.576 47.2571C410.07 47.2571 409.644 47.4015 409.298 47.6903C408.957 47.9792 408.699 48.3722 408.524 48.8693C408.353 49.3665 408.268 49.9323 408.268 50.5668C408.268 51.2012 408.353 51.767 408.524 52.2642C408.699 52.7614 408.957 53.1544 409.298 53.4432C409.644 53.7273 410.07 53.8693 410.576 53.8693ZM427.437 45.0909V53.9119H429.177V59.5085H426.237V56H417.899V45.0909H420.789V53.6207H424.582V45.0909H427.437ZM435.898 56.2131C434.776 56.2131 433.81 55.9858 433 55.5312C432.195 55.072 431.575 54.4233 431.139 53.5852C430.704 52.7424 430.486 51.7457 430.486 50.5952C430.486 49.473 430.704 48.4882 431.139 47.6406C431.575 46.7931 432.188 46.1326 432.979 45.6591C433.774 45.1856 434.707 44.9489 435.777 44.9489C436.497 44.9489 437.167 45.0649 437.787 45.2969C438.412 45.5241 438.956 45.8674 439.42 46.3267C439.889 46.786 440.254 47.3636 440.514 48.0597C440.775 48.7509 440.905 49.5606 440.905 50.4886V51.3196H431.693V49.4446H438.057C438.057 49.009 437.962 48.6231 437.773 48.2869C437.583 47.9508 437.321 47.688 436.984 47.4986C436.653 47.3045 436.267 47.2074 435.827 47.2074C435.367 47.2074 434.96 47.3139 434.605 47.527C434.255 47.7353 433.98 48.017 433.781 48.3722C433.582 48.7225 433.481 49.1132 433.476 49.544V51.3267C433.476 51.8665 433.575 52.3329 433.774 52.7259C433.978 53.1188 434.264 53.4219 434.634 53.6349C435.003 53.848 435.441 53.9545 435.947 53.9545C436.284 53.9545 436.591 53.9072 436.871 53.8125C437.15 53.7178 437.389 53.5758 437.588 53.3864C437.787 53.197 437.938 52.965 438.043 52.6903L440.841 52.875C440.699 53.5473 440.408 54.1345 439.967 54.6364C439.532 55.1335 438.968 55.5218 438.277 55.8011C437.59 56.0758 436.797 56.2131 435.898 56.2131ZM447.808 56.2131C446.691 56.2131 445.73 55.9763 444.925 55.5028C444.125 55.0246 443.509 54.3617 443.078 53.5142C442.652 52.6667 442.439 51.6913 442.439 50.5881C442.439 49.4706 442.654 48.4905 443.085 47.6477C443.521 46.8002 444.139 46.1397 444.939 45.6662C445.739 45.188 446.691 44.9489 447.794 44.9489C448.746 44.9489 449.579 45.1217 450.294 45.4673C451.009 45.813 451.575 46.2983 451.991 46.9233C452.408 47.5483 452.638 48.2822 452.68 49.125H449.825C449.745 48.5805 449.532 48.1425 449.186 47.8111C448.845 47.4749 448.398 47.3068 447.844 47.3068C447.375 47.3068 446.965 47.4347 446.615 47.6903C446.269 47.9413 446 48.3082 445.805 48.7912C445.611 49.2741 445.514 49.8589 445.514 50.5455C445.514 51.2415 445.609 51.8333 445.798 52.321C445.992 52.8087 446.265 53.1804 446.615 53.4361C446.965 53.6918 447.375 53.8196 447.844 53.8196C448.189 53.8196 448.5 53.7486 448.774 53.6065C449.054 53.4645 449.283 53.2585 449.463 52.9886C449.648 52.714 449.768 52.3849 449.825 52.0014H452.68C452.633 52.8348 452.406 53.5687 451.999 54.2031C451.596 54.8329 451.04 55.3253 450.33 55.6804C449.619 56.0355 448.779 56.2131 447.808 56.2131ZM459.547 56.2131C458.429 56.2131 457.468 55.9763 456.663 55.5028C455.863 55.0246 455.247 54.3617 454.816 53.5142C454.39 52.6667 454.177 51.6913 454.177 50.5881C454.177 49.4706 454.393 48.4905 454.824 47.6477C455.259 46.8002 455.877 46.1397 456.677 45.6662C457.477 45.188 458.429 44.9489 459.532 44.9489C460.484 44.9489 461.317 45.1217 462.032 45.4673C462.747 45.813 463.313 46.2983 463.73 46.9233C464.146 47.5483 464.376 48.2822 464.419 49.125H461.564C461.483 48.5805 461.27 48.1425 460.924 47.8111C460.583 47.4749 460.136 47.3068 459.582 47.3068C459.113 47.3068 458.704 47.4347 458.353 47.6903C458.008 47.9413 457.738 48.3082 457.544 48.7912C457.35 49.2741 457.252 49.8589 457.252 50.5455C457.252 51.2415 457.347 51.8333 457.537 52.321C457.731 52.8087 458.003 53.1804 458.353 53.4361C458.704 53.6918 459.113 53.8196 459.582 53.8196C459.928 53.8196 460.238 53.7486 460.512 53.6065C460.792 53.4645 461.021 53.2585 461.201 52.9886C461.386 52.714 461.507 52.3849 461.564 52.0014H464.419C464.371 52.8348 464.144 53.5687 463.737 54.2031C463.334 54.8329 462.778 55.3253 462.068 55.6804C461.358 56.0355 460.517 56.2131 459.547 56.2131ZM468.252 48.4432H471.512C472.956 48.4432 474.083 48.7888 474.893 49.4801C475.702 50.1667 476.107 51.0852 476.107 52.2358C476.107 52.9839 475.925 53.642 475.56 54.2102C475.196 54.7737 474.67 55.214 473.984 55.5312C473.297 55.8438 472.473 56 471.512 56H466.356V45.0909H469.246V53.6207H471.512C472.019 53.6207 472.435 53.4929 472.762 53.2372C473.089 52.9815 473.254 52.6548 473.259 52.2571C473.254 51.8357 473.089 51.4924 472.762 51.2273C472.435 50.9574 472.019 50.8224 471.512 50.8224H468.252V48.4432ZM477.279 56V45.0909H480.305V56H477.279ZM492.281 56.2131C491.178 56.2131 490.224 55.9787 489.419 55.5099C488.618 55.0365 488.001 54.3783 487.565 53.5355C487.129 52.688 486.912 51.7055 486.912 50.5881C486.912 49.4612 487.129 48.4763 487.565 47.6335C488.001 46.786 488.618 46.1278 489.419 45.6591C490.224 45.1856 491.178 44.9489 492.281 44.9489C493.384 44.9489 494.336 45.1856 495.136 45.6591C495.941 46.1278 496.561 46.786 496.997 47.6335C497.432 48.4763 497.65 49.4612 497.65 50.5881C497.65 51.7055 497.432 52.688 496.997 53.5355C496.561 54.3783 495.941 55.0365 495.136 55.5099C494.336 55.9787 493.384 56.2131 492.281 56.2131ZM492.295 53.8693C492.797 53.8693 493.216 53.7273 493.552 53.4432C493.888 53.1544 494.142 52.7614 494.312 52.2642C494.487 51.767 494.575 51.2012 494.575 50.5668C494.575 49.9323 494.487 49.3665 494.312 48.8693C494.142 48.3722 493.888 47.9792 493.552 47.6903C493.216 47.4015 492.797 47.2571 492.295 47.2571C491.788 47.2571 491.362 47.4015 491.017 47.6903C490.676 47.9792 490.418 48.3722 490.243 48.8693C490.072 49.3665 489.987 49.9323 489.987 50.5668C489.987 51.2012 490.072 51.767 490.243 52.2642C490.418 52.7614 490.676 53.1544 491.017 53.4432C491.362 53.7273 491.788 53.8693 492.295 53.8693ZM508.687 41.0852L509.61 43.0597C509.303 43.3153 508.962 43.5047 508.588 43.6278C508.214 43.7462 507.766 43.8243 507.245 43.8622C506.729 43.9001 506.1 43.9261 505.356 43.9403C504.513 43.9498 503.827 44.0848 503.297 44.3452C502.766 44.6056 502.364 45.0152 502.089 45.5739C501.815 46.1278 501.635 46.8523 501.549 47.7472H501.656C501.983 47.0795 502.442 46.5634 503.034 46.1989C503.63 45.8343 504.367 45.652 505.243 45.652C506.171 45.652 506.983 45.8556 507.679 46.2628C508.379 46.67 508.924 47.2547 509.312 48.017C509.7 48.7794 509.895 49.6932 509.895 50.7585C509.895 51.8665 509.677 52.83 509.241 53.6491C508.81 54.4635 508.197 55.0956 507.402 55.5455C506.606 55.9905 505.659 56.2131 504.561 56.2131C503.458 56.2131 502.506 55.9811 501.706 55.517C500.91 55.053 500.295 54.3688 499.859 53.4645C499.428 52.5601 499.213 51.4474 499.213 50.1264V49.2315C499.213 46.6037 499.724 44.6553 500.747 43.3864C501.77 42.1174 503.273 41.4735 505.257 41.4545C505.797 41.4451 506.284 41.4427 506.72 41.4474C507.155 41.4522 507.537 41.4309 507.863 41.3835C508.195 41.3362 508.469 41.2367 508.687 41.0852ZM504.575 53.8693C505.039 53.8693 505.437 53.7486 505.768 53.5071C506.104 53.2656 506.362 52.92 506.542 52.4702C506.727 52.0204 506.819 51.483 506.819 50.858C506.819 50.2377 506.727 49.7121 506.542 49.2812C506.362 48.8456 506.104 48.5142 505.768 48.2869C505.432 48.0597 505.029 47.946 504.561 47.946C504.21 47.946 503.895 48.0099 503.616 48.1378C503.337 48.2656 503.098 48.455 502.899 48.706C502.705 48.9522 502.553 49.2576 502.444 49.6222C502.34 49.982 502.288 50.3939 502.288 50.858C502.288 51.7907 502.489 52.527 502.892 53.0668C503.299 53.6018 503.86 53.8693 504.575 53.8693ZM529.04 53.6207L528.827 59.125H526.05V56H524.836V53.6207H529.04ZM511.903 45.0909H514.793V53.5994H517.869V45.0909H520.759V53.5994H523.835V45.0909H526.725V56H511.903V45.0909ZM535.702 56.2131C534.58 56.2131 533.614 55.9858 532.805 55.5312C532 55.072 531.379 54.4233 530.944 53.5852C530.508 52.7424 530.29 51.7457 530.29 50.5952C530.29 49.473 530.508 48.4882 530.944 47.6406C531.379 46.7931 531.993 46.1326 532.783 45.6591C533.579 45.1856 534.512 44.9489 535.582 44.9489C536.301 44.9489 536.971 45.0649 537.592 45.2969C538.217 45.5241 538.761 45.8674 539.225 46.3267C539.694 46.786 540.058 47.3636 540.319 48.0597C540.579 48.7509 540.71 49.5606 540.71 50.4886V51.3196H531.498V49.4446H537.862C537.862 49.009 537.767 48.6231 537.577 48.2869C537.388 47.9508 537.125 47.688 536.789 47.4986C536.458 47.3045 536.072 47.2074 535.631 47.2074C535.172 47.2074 534.765 47.3139 534.41 47.527C534.059 47.7353 533.785 48.017 533.586 48.3722C533.387 48.7225 533.285 49.1132 533.281 49.544V51.3267C533.281 51.8665 533.38 52.3329 533.579 52.7259C533.782 53.1188 534.069 53.4219 534.438 53.6349C534.808 53.848 535.246 53.9545 535.752 53.9545C536.088 53.9545 536.396 53.9072 536.675 53.8125C536.955 53.7178 537.194 53.5758 537.393 53.3864C537.592 53.197 537.743 52.965 537.847 52.6903L540.646 52.875C540.504 53.5473 540.212 54.1345 539.772 54.6364C539.336 55.1335 538.773 55.5218 538.082 55.8011C537.395 56.0758 536.602 56.2131 535.702 56.2131ZM547.613 56.2131C546.496 56.2131 545.534 55.9763 544.729 55.5028C543.929 55.0246 543.314 54.3617 542.883 53.5142C542.457 52.6667 542.244 51.6913 542.244 50.5881C542.244 49.4706 542.459 48.4905 542.89 47.6477C543.326 46.8002 543.943 46.1397 544.744 45.6662C545.544 45.188 546.496 44.9489 547.599 44.9489C548.55 44.9489 549.384 45.1217 550.099 45.4673C550.814 45.813 551.379 46.2983 551.796 46.9233C552.213 47.5483 552.442 48.2822 552.485 49.125H549.63C549.549 48.5805 549.336 48.1425 548.991 47.8111C548.65 47.4749 548.202 47.3068 547.648 47.3068C547.18 47.3068 546.77 47.4347 546.42 47.6903C546.074 47.9413 545.804 48.3082 545.61 48.7912C545.416 49.2741 545.319 49.8589 545.319 50.5455C545.319 51.2415 545.414 51.8333 545.603 52.321C545.797 52.8087 546.069 53.1804 546.42 53.4361C546.77 53.6918 547.18 53.8196 547.648 53.8196C547.994 53.8196 548.304 53.7486 548.579 53.6065C548.858 53.4645 549.088 53.2585 549.268 52.9886C549.452 52.714 549.573 52.3849 549.63 52.0014H552.485C552.438 52.8348 552.21 53.5687 551.803 54.2031C551.401 54.8329 550.844 55.3253 550.134 55.6804C549.424 56.0355 548.584 56.2131 547.613 56.2131ZM553.678 47.4702V45.0909H563.565V47.4702H560.049V56H557.165V47.4702H553.678ZM565.399 56V45.0909H570.051C571.395 45.0909 572.458 45.3466 573.24 45.858C574.021 46.3693 574.412 47.0961 574.412 48.0384C574.412 48.6302 574.191 49.1226 573.751 49.5156C573.311 49.9086 572.7 50.1738 571.919 50.3111C572.572 50.3584 573.128 50.5076 573.588 50.7585C574.052 51.0047 574.404 51.3243 574.646 51.7173C574.892 52.1103 575.015 52.5459 575.015 53.0241C575.015 53.6444 574.85 54.1771 574.518 54.6222C574.191 55.0672 573.711 55.4081 573.076 55.6449C572.447 55.8816 571.677 56 570.768 56H565.399ZM568.218 53.7344H570.768C571.19 53.7344 571.519 53.6349 571.755 53.4361C571.997 53.2325 572.118 52.9555 572.118 52.6051C572.118 52.2169 571.997 51.9115 571.755 51.6889C571.519 51.4664 571.19 51.3551 570.768 51.3551H568.218V53.7344ZM568.218 49.5795H570.115C570.418 49.5795 570.676 49.5369 570.889 49.4517C571.107 49.3617 571.272 49.2339 571.386 49.0682C571.504 48.9025 571.564 48.706 571.564 48.4787C571.564 48.1425 571.429 47.8797 571.159 47.6903C570.889 47.5009 570.52 47.4062 570.051 47.4062H568.218V49.5795ZM581.894 56.2131C580.772 56.2131 579.806 55.9858 578.996 55.5312C578.191 55.072 577.571 54.4233 577.135 53.5852C576.7 52.7424 576.482 51.7457 576.482 50.5952C576.482 49.473 576.7 48.4882 577.135 47.6406C577.571 46.7931 578.184 46.1326 578.975 45.6591C579.77 45.1856 580.703 44.9489 581.773 44.9489C582.493 44.9489 583.163 45.0649 583.783 45.2969C584.408 45.5241 584.953 45.8674 585.417 46.3267C585.885 46.786 586.25 47.3636 586.51 48.0597C586.771 48.7509 586.901 49.5606 586.901 50.4886V51.3196H577.689V49.4446H584.053C584.053 49.009 583.958 48.6231 583.769 48.2869C583.579 47.9508 583.317 47.688 582.98 47.4986C582.649 47.3045 582.263 47.2074 581.823 47.2074C581.364 47.2074 580.956 47.3139 580.601 47.527C580.251 47.7353 579.976 48.017 579.777 48.3722C579.578 48.7225 579.477 49.1132 579.472 49.544V51.3267C579.472 51.8665 579.571 52.3329 579.77 52.7259C579.974 53.1188 580.26 53.4219 580.63 53.6349C580.999 53.848 581.437 53.9545 581.944 53.9545C582.28 53.9545 582.587 53.9072 582.867 53.8125C583.146 53.7178 583.385 53.5758 583.584 53.3864C583.783 53.197 583.935 52.965 584.039 52.6903L586.837 52.875C586.695 53.5473 586.404 54.1345 585.963 54.6364C585.528 55.1335 584.964 55.5218 584.273 55.8011C583.587 56.0758 582.793 56.2131 581.894 56.2131ZM596.468 49.3381V51.7173H590.772V49.3381H596.468ZM591.766 45.0909V56H588.875V45.0909H591.766ZM598.364 45.0909V56H595.495V45.0909H598.364ZM608.304 49.3381V51.7173H602.608V49.3381H608.304ZM603.602 45.0909V56H600.711V45.0909H603.602ZM610.2 45.0909V56H607.331V45.0909H610.2ZM617.476 56.2131C616.373 56.2131 615.419 55.9787 614.614 55.5099C613.814 55.0365 613.196 54.3783 612.76 53.5355C612.325 52.688 612.107 51.7055 612.107 50.5881C612.107 49.4612 612.325 48.4763 612.76 47.6335C613.196 46.786 613.814 46.1278 614.614 45.6591C615.419 45.1856 616.373 44.9489 617.476 44.9489C618.579 44.9489 619.531 45.1856 620.331 45.6591C621.136 46.1278 621.757 46.786 622.192 47.6335C622.628 48.4763 622.846 49.4612 622.846 50.5881C622.846 51.7055 622.628 52.688 622.192 53.5355C621.757 54.3783 621.136 55.0365 620.331 55.5099C619.531 55.9787 618.579 56.2131 617.476 56.2131ZM617.49 53.8693C617.992 53.8693 618.411 53.7273 618.748 53.4432C619.084 53.1544 619.337 52.7614 619.507 52.2642C619.683 51.767 619.77 51.2012 619.77 50.5668C619.77 49.9323 619.683 49.3665 619.507 48.8693C619.337 48.3722 619.084 47.9792 618.748 47.6903C618.411 47.4015 617.992 47.2571 617.49 47.2571C616.984 47.2571 616.558 47.4015 616.212 47.6903C615.871 47.9792 615.613 48.3722 615.438 48.8693C615.267 49.3665 615.182 49.9323 615.182 50.5668C615.182 51.2012 615.267 51.767 615.438 52.2642C615.613 52.7614 615.871 53.1544 616.212 53.4432C616.558 53.7273 616.984 53.8693 617.49 53.8693ZM627.703 52.0085L631.631 45.0909H634.614V56H631.73V49.0611L627.817 56H624.813V45.0909H627.703V52.0085ZM631.113 41.2841H633.222C633.217 42.1458 632.898 42.8395 632.263 43.3651C631.633 43.8906 630.781 44.1534 629.706 44.1534C628.627 44.1534 627.772 43.8906 627.142 43.3651C626.513 42.8395 626.198 42.1458 626.198 41.2841H628.293C628.288 41.6108 628.392 41.9044 628.605 42.1648C628.823 42.4252 629.19 42.5554 629.706 42.5554C630.208 42.5554 630.568 42.4276 630.786 42.1719C631.004 41.9162 631.113 41.6203 631.113 41.2841ZM123.468 80L127.282 74.3253L123.489 69.0909H126.941L129.775 73.3594H130.243V69.0909H133.269V73.3594H133.724L136.557 69.0909H140.009L136.224 74.3253L140.03 80H136.501L133.695 75.7386H133.269V80H130.243V75.7386H129.817L126.998 80H123.468ZM144.627 76.0085L148.555 69.0909H151.538V80H148.654V73.0611L144.741 80H141.737V69.0909H144.627V76.0085ZM153.402 76.9105H156.335C156.35 77.2704 156.511 77.5545 156.818 77.7628C157.126 77.9711 157.524 78.0753 158.012 78.0753C158.504 78.0753 158.918 77.9616 159.254 77.7344C159.591 77.5024 159.759 77.1709 159.759 76.7401C159.759 76.4749 159.692 76.2453 159.56 76.0511C159.427 75.8523 159.243 75.696 159.006 75.5824C158.769 75.4687 158.494 75.4119 158.182 75.4119H156.612V73.4304H158.182C158.651 73.4304 159.011 73.3215 159.262 73.1037C159.517 72.8859 159.645 72.6136 159.645 72.2869C159.645 71.9176 159.512 71.6217 159.247 71.3991C158.987 71.1719 158.634 71.0582 158.189 71.0582C157.739 71.0582 157.365 71.16 157.067 71.3636C156.773 71.5625 156.622 71.8229 156.612 72.1449H153.693C153.703 71.4915 153.899 70.9257 154.283 70.4474C154.671 69.9692 155.192 69.5999 155.845 69.3395C156.503 69.0791 157.24 68.9489 158.054 68.9489C158.944 68.9489 159.711 69.0743 160.355 69.3253C161.004 69.5715 161.501 69.9242 161.847 70.3835C162.197 70.8428 162.372 71.3897 162.372 72.0241C162.372 72.6018 162.183 73.0848 161.804 73.473C161.425 73.8613 160.895 74.1383 160.213 74.304V74.4176C160.663 74.446 161.07 74.5668 161.435 74.7798C161.799 74.9929 162.091 75.2865 162.308 75.6605C162.526 76.0298 162.635 76.4678 162.635 76.9744C162.635 77.6515 162.436 78.2315 162.039 78.7145C161.646 79.1974 161.101 79.5691 160.405 79.8295C159.714 80.0852 158.921 80.2131 158.026 80.2131C157.155 80.2131 156.373 80.0876 155.682 79.8366C154.995 79.581 154.449 79.2069 154.041 78.7145C153.639 78.2221 153.426 77.6207 153.402 76.9105ZM172.083 73.3381V75.7173H166.387V73.3381H172.083ZM167.381 69.0909V80H164.491V69.0909H167.381ZM173.979 69.0909V80H171.11V69.0909H173.979ZM179.217 76.0085L183.145 69.0909H186.128V80H183.244V73.0611L179.331 80H176.327V69.0909H179.217V76.0085ZM191.841 78.0114L191.763 78.7926C191.702 79.4176 191.583 80.0402 191.408 80.6605C191.238 81.2855 191.058 81.8513 190.868 82.358C190.684 82.8646 190.535 83.2623 190.421 83.5511H188.461C188.532 83.2718 188.629 82.8812 188.752 82.3793C188.875 81.8821 188.991 81.3234 189.1 80.7031C189.209 80.0829 189.278 79.4508 189.306 78.8068L189.341 78.0114H191.841ZM197.985 71.4702V69.0909H207.871V71.4702H204.356V80H201.472V71.4702H197.985ZM212.426 80.206C211.73 80.206 211.109 80.0852 210.565 79.8438C210.02 79.5975 209.589 79.2353 209.272 78.7571C208.96 78.2741 208.803 77.6728 208.803 76.9531C208.803 76.3471 208.915 75.8381 209.137 75.4261C209.36 75.0142 209.663 74.6828 210.046 74.4318C210.43 74.1809 210.865 73.9915 211.353 73.8636C211.846 73.7358 212.362 73.6458 212.901 73.5938C213.536 73.5275 214.047 73.4659 214.436 73.4091C214.824 73.3475 215.106 73.2576 215.281 73.1392C215.456 73.0208 215.544 72.8456 215.544 72.6136V72.571C215.544 72.1212 215.401 71.7732 215.117 71.527C214.838 71.2808 214.44 71.1577 213.924 71.1577C213.38 71.1577 212.946 71.2784 212.624 71.5199C212.302 71.7566 212.089 72.0549 211.985 72.4148L209.187 72.1875C209.329 71.5246 209.608 70.9517 210.025 70.4688C210.442 69.9811 210.979 69.607 211.637 69.3466C212.3 69.0814 213.067 68.9489 213.938 68.9489C214.544 68.9489 215.124 69.0199 215.678 69.1619C216.237 69.304 216.732 69.5241 217.163 69.8224C217.598 70.1207 217.942 70.5043 218.193 70.973C218.444 71.437 218.569 71.9934 218.569 72.642V80H215.7V78.4872H215.615C215.439 78.8281 215.205 79.1288 214.911 79.3892C214.618 79.6449 214.265 79.8461 213.853 79.9929C213.441 80.1349 212.965 80.206 212.426 80.206ZM213.292 78.1179C213.737 78.1179 214.13 78.0303 214.471 77.8551C214.812 77.6752 215.079 77.4337 215.274 77.1307C215.468 76.8277 215.565 76.4844 215.565 76.1009V74.9432C215.47 75.0047 215.34 75.0616 215.174 75.1136C215.013 75.161 214.831 75.206 214.627 75.2486C214.424 75.2865 214.22 75.322 214.017 75.3551C213.813 75.3835 213.628 75.4096 213.463 75.4332C213.107 75.4853 212.797 75.5682 212.532 75.6818C212.267 75.7955 212.061 75.9493 211.914 76.1435C211.767 76.3329 211.694 76.5696 211.694 76.8537C211.694 77.2656 211.843 77.5805 212.142 77.7983C212.445 78.0114 212.828 78.1179 213.292 78.1179ZM220.916 80V69.0909H223.942V73.3239H224.794L227.763 69.0909H231.314L227.458 74.5028L231.357 80H227.763L225.071 76.1293H223.942V80H220.916ZM240.155 76.0085L244.082 69.0909H247.065V80H244.182V73.0611L240.268 80H237.264V69.0909H240.155V76.0085ZM261.712 73.3381V75.7173H256.016V73.3381H261.712ZM257.01 69.0909V80H254.119V69.0909H257.01ZM263.608 69.0909V80H260.739V69.0909H263.608ZM269.066 80.206C268.37 80.206 267.75 80.0852 267.205 79.8438C266.661 79.5975 266.23 79.2353 265.913 78.7571C265.6 78.2741 265.444 77.6728 265.444 76.9531C265.444 76.3471 265.555 75.8381 265.778 75.4261C266 75.0142 266.303 74.6828 266.687 74.4318C267.07 74.1809 267.506 73.9915 267.994 73.8636C268.486 73.7358 269.002 73.6458 269.542 73.5938C270.177 73.5275 270.688 73.4659 271.076 73.4091C271.464 73.3475 271.746 73.2576 271.921 73.1392C272.097 73.0208 272.184 72.8456 272.184 72.6136V72.571C272.184 72.1212 272.042 71.7732 271.758 71.527C271.479 71.2808 271.081 71.1577 270.565 71.1577C270.02 71.1577 269.587 71.2784 269.265 71.5199C268.943 71.7566 268.73 72.0549 268.626 72.4148L265.828 72.1875C265.97 71.5246 266.249 70.9517 266.666 70.4688C267.082 69.9811 267.62 69.607 268.278 69.3466C268.941 69.0814 269.708 68.9489 270.579 68.9489C271.185 68.9489 271.765 69.0199 272.319 69.1619C272.878 69.304 273.373 69.5241 273.803 69.8224C274.239 70.1207 274.582 70.5043 274.833 70.973C275.084 71.437 275.21 71.9934 275.21 72.642V80H272.34V78.4872H272.255C272.08 78.8281 271.846 79.1288 271.552 79.3892C271.258 79.6449 270.906 79.8461 270.494 79.9929C270.082 80.1349 269.606 80.206 269.066 80.206ZM269.933 78.1179C270.378 78.1179 270.771 78.0303 271.112 77.8551C271.453 77.6752 271.72 77.4337 271.914 77.1307C272.108 76.8277 272.205 76.4844 272.205 76.1009V74.9432C272.111 75.0047 271.981 75.0616 271.815 75.1136C271.654 75.161 271.472 75.206 271.268 75.2486C271.064 75.2865 270.861 75.322 270.657 75.3551C270.454 75.3835 270.269 75.4096 270.103 75.4332C269.748 75.4853 269.438 75.5682 269.173 75.6818C268.908 75.7955 268.702 75.9493 268.555 76.1435C268.408 76.3329 268.335 76.5696 268.335 76.8537C268.335 77.2656 268.484 77.5805 268.782 77.7983C269.085 78.0114 269.469 78.1179 269.933 78.1179ZM281.334 83.196V77.5994H282.172C282.413 77.4479 282.607 77.2064 282.754 76.875C282.906 76.5436 283.029 76.1529 283.123 75.7031C283.223 75.2533 283.299 74.768 283.351 74.2472C283.407 73.7216 283.457 73.1913 283.5 72.6562L283.784 69.0909H292.15V77.5994H293.841V83.196H290.957V80H284.288V83.196H281.334ZM285.183 77.5994H289.295V71.4205H286.355L286.241 72.6562C286.161 73.821 286.045 74.8106 285.893 75.625C285.742 76.4347 285.505 77.0928 285.183 77.5994ZM300.575 80.2131C299.453 80.2131 298.487 79.9858 297.678 79.5312C296.873 79.072 296.253 78.4233 295.817 77.5852C295.381 76.7424 295.164 75.7457 295.164 74.5952C295.164 73.473 295.381 72.4882 295.817 71.6406C296.253 70.7931 296.866 70.1326 297.656 69.6591C298.452 69.1856 299.385 68.9489 300.455 68.9489C301.174 68.9489 301.844 69.0649 302.465 69.2969C303.09 69.5241 303.634 69.8674 304.098 70.3267C304.567 70.786 304.932 71.3636 305.192 72.0597C305.452 72.7509 305.583 73.5606 305.583 74.4886V75.3196H296.371V73.4446H302.735C302.735 73.009 302.64 72.6231 302.45 72.2869C302.261 71.9508 301.998 71.688 301.662 71.4986C301.331 71.3045 300.945 71.2074 300.504 71.2074C300.045 71.2074 299.638 71.3139 299.283 71.527C298.932 71.7353 298.658 72.017 298.459 72.3722C298.26 72.7225 298.158 73.1132 298.154 73.544V75.3267C298.154 75.8665 298.253 76.3329 298.452 76.7259C298.655 77.1188 298.942 77.4219 299.311 77.6349C299.681 77.848 300.119 77.9545 300.625 77.9545C300.961 77.9545 301.269 77.9072 301.548 77.8125C301.828 77.7178 302.067 77.5758 302.266 77.3864C302.465 77.197 302.616 76.965 302.72 76.6903L305.519 76.875C305.377 77.5473 305.085 78.1345 304.645 78.6364C304.209 79.1335 303.646 79.5218 302.955 79.8011C302.268 80.0758 301.475 80.2131 300.575 80.2131ZM313.949 80V71.4631H311.904C311.35 71.4631 310.928 71.5909 310.639 71.8466C310.351 72.1023 310.209 72.4053 310.213 72.7557C310.209 73.1108 310.346 73.4115 310.625 73.6577C310.909 73.8991 311.326 74.0199 311.875 74.0199H314.958V76.0653H311.875C310.942 76.0653 310.135 75.9233 309.453 75.6392C308.771 75.3551 308.246 74.9598 307.877 74.4531C307.507 73.9418 307.325 73.3475 307.33 72.6705C307.325 71.9602 307.507 71.3376 307.877 70.8026C308.246 70.2628 308.774 69.8437 309.46 69.5455C310.152 69.2424 310.966 69.0909 311.904 69.0909H316.769V80H313.949ZM307.017 80L310.05 74.3182H312.941L309.915 80H307.017ZM318.024 71.4702V69.0909H327.91V71.4702H324.395V80H321.511V71.4702H318.024ZM334.325 80.2131C333.203 80.2131 332.237 79.9858 331.428 79.5312C330.623 79.072 330.003 78.4233 329.567 77.5852C329.131 76.7424 328.914 75.7457 328.914 74.5952C328.914 73.473 329.131 72.4882 329.567 71.6406C330.003 70.7931 330.616 70.1326 331.406 69.6591C332.202 69.1856 333.135 68.9489 334.205 68.9489C334.924 68.9489 335.594 69.0649 336.215 69.2969C336.84 69.5241 337.384 69.8674 337.848 70.3267C338.317 70.786 338.682 71.3636 338.942 72.0597C339.202 72.7509 339.333 73.5606 339.333 74.4886V75.3196H330.121V73.4446H336.485C336.485 73.009 336.39 72.6231 336.2 72.2869C336.011 71.9508 335.748 71.688 335.412 71.4986C335.081 71.3045 334.695 71.2074 334.254 71.2074C333.795 71.2074 333.388 71.3139 333.033 71.527C332.682 71.7353 332.408 72.017 332.209 72.3722C332.01 72.7225 331.908 73.1132 331.904 73.544V75.3267C331.904 75.8665 332.003 76.3329 332.202 76.7259C332.405 77.1188 332.692 77.4219 333.061 77.6349C333.431 77.848 333.869 77.9545 334.375 77.9545C334.711 77.9545 335.019 77.9072 335.298 77.8125C335.578 77.7178 335.817 77.5758 336.016 77.3864C336.215 77.197 336.366 76.965 336.47 76.6903L339.269 76.875C339.127 77.5473 338.835 78.1345 338.395 78.6364C337.959 79.1335 337.396 79.5218 336.705 79.8011C336.018 80.0758 335.225 80.2131 334.325 80.2131ZM340.668 80L340.654 77.5994H341.016C341.271 77.5994 341.492 77.5379 341.676 77.4148C341.866 77.2869 342.022 77.081 342.145 76.7969C342.268 76.5128 342.365 76.1364 342.436 75.6676C342.507 75.1941 342.555 74.6117 342.578 73.9205L342.756 69.0909H351.051V80H348.168V71.4702H345.476L345.306 74.8011C345.263 75.715 345.152 76.5009 344.972 77.1591C344.797 77.8172 344.553 78.357 344.24 78.7784C343.928 79.1951 343.551 79.5028 343.111 79.7017C342.671 79.9006 342.159 80 341.577 80H340.668ZM355.293 72.4432H358.553C359.997 72.4432 361.124 72.7888 361.934 73.4801C362.743 74.1667 363.148 75.0852 363.148 76.2358C363.148 76.9839 362.966 77.642 362.601 78.2102C362.237 78.7737 361.711 79.214 361.025 79.5312C360.338 79.8438 359.514 80 358.553 80H353.397V69.0909H356.287V77.6207H358.553C359.06 77.6207 359.476 77.4929 359.803 77.2372C360.13 76.9815 360.296 76.6548 360.3 76.2571C360.296 75.8357 360.13 75.4924 359.803 75.2273C359.476 74.9574 359.06 74.8224 358.553 74.8224H355.293V72.4432ZM372.747 73.3381V75.7173H367.051V73.3381H372.747ZM368.045 69.0909V80H365.155V69.0909H368.045ZM374.643 69.0909V80H371.774V69.0909H374.643ZM381.92 80.2131C380.816 80.2131 379.862 79.9787 379.057 79.5099C378.257 79.0365 377.639 78.3783 377.204 77.5355C376.768 76.688 376.55 75.7055 376.55 74.5881C376.55 73.4612 376.768 72.4763 377.204 71.6335C377.639 70.786 378.257 70.1278 379.057 69.6591C379.862 69.1856 380.816 68.9489 381.92 68.9489C383.023 68.9489 383.974 69.1856 384.775 69.6591C385.58 70.1278 386.2 70.786 386.635 71.6335C387.071 72.4763 387.289 73.4612 387.289 74.5881C387.289 75.7055 387.071 76.688 386.635 77.5355C386.2 78.3783 385.58 79.0365 384.775 79.5099C383.974 79.9787 383.023 80.2131 381.92 80.2131ZM381.934 77.8693C382.436 77.8693 382.855 77.7273 383.191 77.4432C383.527 77.1544 383.78 76.7614 383.951 76.2642C384.126 75.767 384.214 75.2012 384.214 74.5668C384.214 73.9323 384.126 73.3665 383.951 72.8693C383.78 72.3722 383.527 71.9792 383.191 71.6903C382.855 71.4015 382.436 71.2571 381.934 71.2571C381.427 71.2571 381.001 71.4015 380.655 71.6903C380.314 71.9792 380.056 72.3722 379.881 72.8693C379.711 73.3665 379.626 73.9323 379.626 74.5668C379.626 75.2012 379.711 75.767 379.881 76.2642C380.056 76.7614 380.314 77.1544 380.655 77.4432C381.001 77.7273 381.427 77.8693 381.934 77.8693ZM394.185 80.2131C393.068 80.2131 392.107 79.9763 391.302 79.5028C390.501 79.0246 389.886 78.3617 389.455 77.5142C389.029 76.6667 388.816 75.6913 388.816 74.5881C388.816 73.4706 389.031 72.4905 389.462 71.6477C389.898 70.8002 390.516 70.1397 391.316 69.6662C392.116 69.188 393.068 68.9489 394.171 68.9489C395.123 68.9489 395.956 69.1217 396.671 69.4673C397.386 69.813 397.952 70.2983 398.368 70.9233C398.785 71.5483 399.015 72.2822 399.057 73.125H396.202C396.122 72.5805 395.909 72.1425 395.563 71.8111C395.222 71.4749 394.775 71.3068 394.221 71.3068C393.752 71.3068 393.342 71.4347 392.992 71.6903C392.646 71.9413 392.376 72.3082 392.182 72.7912C391.988 73.2741 391.891 73.8589 391.891 74.5455C391.891 75.2415 391.986 75.8333 392.175 76.321C392.369 76.8087 392.642 77.1804 392.992 77.4361C393.342 77.6918 393.752 77.8196 394.221 77.8196C394.566 77.8196 394.876 77.7486 395.151 77.6065C395.43 77.4645 395.66 77.2585 395.84 76.9886C396.025 76.714 396.145 76.3849 396.202 76.0014H399.057C399.01 76.8348 398.783 77.5687 398.376 78.2031C397.973 78.8329 397.417 79.3253 396.706 79.6804C395.996 80.0355 395.156 80.2131 394.185 80.2131ZM400.251 71.4702V69.0909H410.137V71.4702H406.621V80H403.738V71.4702H400.251ZM413.867 72.4432H417.127C418.571 72.4432 419.698 72.7888 420.508 73.4801C421.318 74.1667 421.722 75.0852 421.722 76.2358C421.722 76.9839 421.54 77.642 421.176 78.2102C420.811 78.7737 420.285 79.214 419.599 79.5312C418.912 79.8438 418.088 80 417.127 80H411.971V69.0909H414.862V77.6207H417.127C417.634 77.6207 418.051 77.4929 418.377 77.2372C418.704 76.9815 418.87 76.6548 418.874 76.2571C418.87 75.8357 418.704 75.4924 418.377 75.2273C418.051 74.9574 417.634 74.8224 417.127 74.8224H413.867V72.4432ZM437.825 69.0909V80H434.956V69.0909H437.825ZM436.426 73.8778V76.2642C436.194 76.3684 435.905 76.4678 435.559 76.5625C435.214 76.6525 434.852 76.7259 434.473 76.7827C434.094 76.8395 433.739 76.8679 433.407 76.8679C431.84 76.8679 430.607 76.5459 429.707 75.902C428.808 75.2533 428.358 74.2187 428.358 72.7983V69.0767H431.213V72.7983C431.213 73.2197 431.284 73.5535 431.426 73.7997C431.573 74.0459 431.805 74.2235 432.122 74.3324C432.444 74.4366 432.872 74.4886 433.407 74.4886C433.905 74.4886 434.392 74.4366 434.871 74.3324C435.349 74.2282 435.867 74.0767 436.426 73.8778ZM445.146 80.2131C444.024 80.2131 443.058 79.9858 442.248 79.5312C441.443 79.072 440.823 78.4233 440.387 77.5852C439.952 76.7424 439.734 75.7457 439.734 74.5952C439.734 73.473 439.952 72.4882 440.387 71.6406C440.823 70.7931 441.436 70.1326 442.227 69.6591C443.022 69.1856 443.955 68.9489 445.025 68.9489C445.745 68.9489 446.415 69.0649 447.035 69.2969C447.66 69.5241 448.204 69.8674 448.669 70.3267C449.137 70.786 449.502 71.3636 449.762 72.0597C450.023 72.7509 450.153 73.5606 450.153 74.4886V75.3196H440.941V73.4446H447.305C447.305 73.009 447.21 72.6231 447.021 72.2869C446.831 71.9508 446.569 71.688 446.232 71.4986C445.901 71.3045 445.515 71.2074 445.075 71.2074C444.615 71.2074 444.208 71.3139 443.853 71.527C443.503 71.7353 443.228 72.017 443.029 72.3722C442.83 72.7225 442.729 73.1132 442.724 73.544V75.3267C442.724 75.8665 442.823 76.3329 443.022 76.7259C443.226 77.1188 443.512 77.4219 443.882 77.6349C444.251 77.848 444.689 77.9545 445.195 77.9545C445.532 77.9545 445.839 77.9072 446.119 77.8125C446.398 77.7178 446.637 77.5758 446.836 77.3864C447.035 77.197 447.186 76.965 447.291 76.6903L450.089 76.875C449.947 77.5473 449.656 78.1345 449.215 78.6364C448.78 79.1335 448.216 79.5218 447.525 79.8011C446.838 80.0758 446.045 80.2131 445.146 80.2131ZM451.488 80L451.474 77.5994H451.836C452.092 77.5994 452.312 77.5379 452.497 77.4148C452.686 77.2869 452.842 77.081 452.965 76.7969C453.088 76.5128 453.186 76.1364 453.257 75.6676C453.328 75.1941 453.375 74.6117 453.399 73.9205L453.576 69.0909H461.872V80H458.988V71.4702H456.296L456.126 74.8011C456.083 75.715 455.972 76.5009 455.792 77.1591C455.617 77.8172 455.373 78.357 455.061 78.7784C454.748 79.1951 454.372 79.5028 453.931 79.7017C453.491 79.9006 452.98 80 452.397 80H451.488ZM469.146 80.2131C468.043 80.2131 467.089 79.9787 466.284 79.5099C465.484 79.0365 464.866 78.3783 464.43 77.5355C463.995 76.688 463.777 75.7055 463.777 74.5881C463.777 73.4612 463.995 72.4763 464.43 71.6335C464.866 70.786 465.484 70.1278 466.284 69.6591C467.089 69.1856 468.043 68.9489 469.146 68.9489C470.249 68.9489 471.201 69.1856 472.001 69.6591C472.806 70.1278 473.426 70.786 473.862 71.6335C474.298 72.4763 474.515 73.4612 474.515 74.5881C474.515 75.7055 474.298 76.688 473.862 77.5355C473.426 78.3783 472.806 79.0365 472.001 79.5099C471.201 79.9787 470.249 80.2131 469.146 80.2131ZM469.16 77.8693C469.662 77.8693 470.081 77.7273 470.417 77.4432C470.754 77.1544 471.007 76.7614 471.177 76.2642C471.353 75.767 471.44 75.2012 471.44 74.5668C471.44 73.9323 471.353 73.3665 471.177 72.8693C471.007 72.3722 470.754 71.9792 470.417 71.6903C470.081 71.4015 469.662 71.2571 469.16 71.2571C468.654 71.2571 468.228 71.4015 467.882 71.6903C467.541 71.9792 467.283 72.3722 467.108 72.8693C466.937 73.3665 466.852 73.9323 466.852 74.5668C466.852 75.2012 466.937 75.767 467.108 76.2642C467.283 76.7614 467.541 77.1544 467.882 77.4432C468.228 77.7273 468.654 77.8693 469.16 77.8693ZM476.483 80V69.0909H481.135C482.479 69.0909 483.542 69.3466 484.324 69.858C485.105 70.3693 485.496 71.0961 485.496 72.0384C485.496 72.6302 485.275 73.1226 484.835 73.5156C484.395 73.9086 483.784 74.1738 483.003 74.3111C483.656 74.3584 484.212 74.5076 484.672 74.7585C485.136 75.0047 485.488 75.3243 485.73 75.7173C485.976 76.1103 486.099 76.5459 486.099 77.0241C486.099 77.6444 485.934 78.1771 485.602 78.6222C485.275 79.0672 484.795 79.4081 484.16 79.6449C483.531 79.8816 482.761 80 481.852 80H476.483ZM479.302 77.7344H481.852C482.273 77.7344 482.603 77.6349 482.839 77.4361C483.081 77.2325 483.202 76.9555 483.202 76.6051C483.202 76.2169 483.081 75.9115 482.839 75.6889C482.603 75.4664 482.273 75.3551 481.852 75.3551H479.302V77.7344ZM479.302 73.5795H481.199C481.502 73.5795 481.76 73.5369 481.973 73.4517C482.191 73.3617 482.356 73.2339 482.47 73.0682C482.588 72.9025 482.648 72.706 482.648 72.4787C482.648 72.1425 482.513 71.8797 482.243 71.6903C481.973 71.5009 481.604 71.4062 481.135 71.4062H479.302V73.5795ZM492.978 80.2131C491.856 80.2131 490.89 79.9858 490.08 79.5312C489.275 79.072 488.655 78.4233 488.219 77.5852C487.784 76.7424 487.566 75.7457 487.566 74.5952C487.566 73.473 487.784 72.4882 488.219 71.6406C488.655 70.7931 489.268 70.1326 490.059 69.6591C490.854 69.1856 491.787 68.9489 492.857 68.9489C493.577 68.9489 494.247 69.0649 494.867 69.2969C495.492 69.5241 496.037 69.8674 496.501 70.3267C496.969 70.786 497.334 71.3636 497.594 72.0597C497.855 72.7509 497.985 73.5606 497.985 74.4886V75.3196H488.773V73.4446H495.137C495.137 73.009 495.042 72.6231 494.853 72.2869C494.663 71.9508 494.401 71.688 494.064 71.4986C493.733 71.3045 493.347 71.2074 492.907 71.2074C492.448 71.2074 492.04 71.3139 491.685 71.527C491.335 71.7353 491.06 72.017 490.861 72.3722C490.662 72.7225 490.561 73.1132 490.556 73.544V75.3267C490.556 75.8665 490.655 76.3329 490.854 76.7259C491.058 77.1188 491.344 77.4219 491.714 77.6349C492.083 77.848 492.521 77.9545 493.028 77.9545C493.364 77.9545 493.671 77.9072 493.951 77.8125C494.23 77.7178 494.469 77.5758 494.668 77.3864C494.867 77.197 495.019 76.965 495.123 76.6903L497.921 76.875C497.779 77.5473 497.488 78.1345 497.047 78.6364C496.612 79.1335 496.048 79.5218 495.357 79.8011C494.671 80.0758 493.877 80.2131 492.978 80.2131ZM499.959 80V69.0909H502.985V73.3239H503.837L506.806 69.0909H510.357L506.501 74.5028L510.4 80H506.806L504.114 76.1293H502.985V80H499.959ZM514.789 80.206C514.093 80.206 513.473 80.0852 512.928 79.8438C512.384 79.5975 511.953 79.2353 511.635 78.7571C511.323 78.2741 511.167 77.6728 511.167 76.9531C511.167 76.3471 511.278 75.8381 511.501 75.4261C511.723 75.0142 512.026 74.6828 512.41 74.4318C512.793 74.1809 513.229 73.9915 513.716 73.8636C514.209 73.7358 514.725 73.6458 515.265 73.5938C515.899 73.5275 516.411 73.4659 516.799 73.4091C517.187 73.3475 517.469 73.2576 517.644 73.1392C517.819 73.0208 517.907 72.8456 517.907 72.6136V72.571C517.907 72.1212 517.765 71.7732 517.481 71.527C517.201 71.2808 516.804 71.1577 516.287 71.1577C515.743 71.1577 515.31 71.2784 514.988 71.5199C514.666 71.7566 514.453 72.0549 514.349 72.4148L511.55 72.1875C511.692 71.5246 511.972 70.9517 512.388 70.4688C512.805 69.9811 513.342 69.607 514.001 69.3466C514.663 69.0814 515.43 68.9489 516.302 68.9489C516.908 68.9489 517.488 69.0199 518.042 69.1619C518.6 69.304 519.095 69.5241 519.526 69.8224C519.962 70.1207 520.305 70.5043 520.556 70.973C520.807 71.437 520.932 71.9934 520.932 72.642V80H518.063V78.4872H517.978C517.803 78.8281 517.568 79.1288 517.275 79.3892C516.981 79.6449 516.628 79.8461 516.216 79.9929C515.805 80.1349 515.329 80.206 514.789 80.206ZM515.655 78.1179C516.1 78.1179 516.493 78.0303 516.834 77.8551C517.175 77.6752 517.443 77.4337 517.637 77.1307C517.831 76.8277 517.928 76.4844 517.928 76.1009V74.9432C517.833 75.0047 517.703 75.0616 517.537 75.1136C517.376 75.161 517.194 75.206 516.991 75.2486C516.787 75.2865 516.583 75.322 516.38 75.3551C516.176 75.3835 515.992 75.4096 515.826 75.4332C515.471 75.4853 515.161 75.5682 514.895 75.6818C514.63 75.7955 514.424 75.9493 514.278 76.1435C514.131 76.3329 514.057 76.5696 514.057 76.8537C514.057 77.2656 514.206 77.5805 514.505 77.7983C514.808 78.0114 515.191 78.1179 515.655 78.1179ZM525.048 80.1847C524.579 80.1847 524.177 80.0189 523.841 79.6875C523.509 79.3513 523.344 78.9489 523.344 78.4801C523.344 78.0161 523.509 77.6184 523.841 77.2869C524.177 76.9555 524.579 76.7898 525.048 76.7898C525.503 76.7898 525.9 76.9555 526.241 77.2869C526.582 77.6184 526.753 78.0161 526.753 78.4801C526.753 78.7926 526.672 79.0791 526.511 79.3395C526.355 79.5952 526.149 79.8011 525.893 79.9574C525.638 80.1089 525.356 80.1847 525.048 80.1847Z" fill="black"/>
</svg>
