<svg width="1310" height="338" viewBox="0 0 1310 338" fill="none" xmlns="http://www.w3.org/2000/svg">
<rect width="382" height="125" rx="41" fill="#EDEAC6" fill-opacity="0.5"/>
<rect x="464" width="382" height="125" rx="41" fill="#EDEAC6" fill-opacity="0.5"/>
<rect x="928" width="382" height="125" rx="41" fill="#EDEAC6" fill-opacity="0.5"/>
<rect x="928" y="213" width="382" height="125" rx="41" fill="#EDEAC6" fill-opacity="0.5"/>
<rect x="469" y="213" width="382" height="125" rx="41" fill="#EDEAC6" fill-opacity="0.5"/>
<path d="M458.064 62.5607C458.65 61.9749 458.65 61.0251 458.064 60.4393L448.518 50.8934C447.933 50.3076 446.983 50.3076 446.397 50.8934C445.811 51.4792 445.811 52.4289 446.397 53.0147L454.882 61.5L446.397 69.9853C445.811 70.5711 445.811 71.5208 446.397 72.1066C446.983 72.6924 447.933 72.6924 448.518 72.1066L458.064 62.5607ZM387.996 63H457.004V60H387.996V63Z" fill="#8B836E"/>
<path d="M922.064 63.5607C922.65 62.9749 922.65 62.0251 922.064 61.4393L912.518 51.8934C911.933 51.3076 910.983 51.3076 910.397 51.8934C909.811 52.4792 909.811 53.4289 910.397 54.0147L918.882 62.5L910.397 70.9853C909.811 71.5711 909.811 72.5208 910.397 73.1066C910.983 73.6924 911.933 73.6924 912.518 73.1066L922.064 63.5607ZM851.996 64H921.004V61H851.996V64Z" fill="#8B836E"/>
<path d="M853.936 274.439C853.35 275.025 853.35 275.975 853.936 276.561L863.482 286.107C864.067 286.692 865.017 286.692 865.603 286.107C866.189 285.521 866.189 284.571 865.603 283.985L857.118 275.5L865.603 267.015C866.189 266.429 866.189 265.479 865.603 264.893C865.017 264.308 864.067 264.308 863.482 264.893L853.936 274.439ZM854.996 277H924.004V274H854.996V277Z" fill="#8B836E"/>
<path d="M1117.44 204.564C1118.03 205.15 1118.98 205.15 1119.56 204.564L1129.11 195.018C1129.7 194.433 1129.7 193.483 1129.11 192.897C1128.52 192.311 1127.57 192.311 1126.99 192.897L1118.5 201.382L1110.02 192.897C1109.43 192.311 1108.48 192.311 1107.9 192.897C1107.31 193.483 1107.31 194.433 1107.9 195.018L1117.44 204.564ZM1120 203.504V134.496H1117V203.504H1120Z" fill="#8B836E"/>
</svg>
