<svg width="1260" height="812" viewBox="0 0 1260 812" fill="none" xmlns="http://www.w3.org/2000/svg">
<rect x="0.5" y="60.5" width="509.537" height="95" rx="47.5" fill="#EDEAC6" stroke="#8B836E"/>
<rect x="0.5" y="203.5" width="509.537" height="95" rx="47.5" fill="#EDEAC6" stroke="#8B836E"/>
<rect x="749.963" y="203.5" width="509.537" height="95" rx="47.5" fill="#EDEAC6" stroke="#8B836E"/>
<rect x="0.5" y="374.5" width="509.537" height="95" rx="47.5" fill="#EDEAC6" stroke="#8B836E"/>
<rect x="749.963" y="374.5" width="509.537" height="95" rx="47.5" fill="#EDEAC6" stroke="#8B836E"/>
<rect x="0.5" y="545.5" width="509.537" height="95" rx="47.5" fill="#EDEAC6" stroke="#8B836E"/>
<rect x="749.963" y="545.5" width="509.537" height="95" rx="47.5" fill="#EDEAC6" stroke="#8B836E"/>
<rect x="0.5" y="716.5" width="509.537" height="95" rx="47.5" fill="#EDEAC6" stroke="#8B836E"/>
<rect x="749.963" y="716.5" width="509.537" height="95" rx="47.5" fill="#EDEAC6" stroke="#8B836E"/>
<rect x="749.963" y="55.5" width="509.537" height="95" rx="47.5" fill="#EDEAC6" stroke="#8B836E"/>
<path d="M632.27 0.958496L631.99 764" stroke="#8B836E" stroke-width="3"/>
<path d="M526.381 101.939C525.795 102.525 525.795 103.475 526.381 104.061L535.927 113.607C536.513 114.192 537.463 114.192 538.048 113.607C538.634 113.021 538.634 112.071 538.048 111.485L529.563 103L538.048 94.5147C538.634 93.9289 538.634 92.9792 538.048 92.3934C537.463 91.8076 536.513 91.8076 535.927 92.3934L526.381 101.939ZM733.647 104.061C734.232 103.475 734.232 102.525 733.647 101.939L724.101 92.3934C723.515 91.8076 722.565 91.8076 721.979 92.3934C721.394 92.9792 721.394 93.9289 721.979 94.5147L730.465 103L721.979 111.485C721.394 112.071 721.394 113.021 721.979 113.607C722.565 114.192 723.515 114.192 724.101 113.607L733.647 104.061ZM527.442 104.5H732.586V101.5H527.442V104.5Z" fill="#8B836E"/>
<path d="M526.381 254.939C525.795 255.525 525.795 256.475 526.381 257.061L535.927 266.607C536.513 267.192 537.463 267.192 538.048 266.607C538.634 266.021 538.634 265.071 538.048 264.485L529.563 256L538.048 247.515C538.634 246.929 538.634 245.979 538.048 245.393C537.463 244.808 536.513 244.808 535.927 245.393L526.381 254.939ZM733.647 257.061C734.232 256.475 734.232 255.525 733.647 254.939L724.101 245.393C723.515 244.808 722.565 244.808 721.979 245.393C721.394 245.979 721.394 246.929 721.979 247.515L730.465 256L721.979 264.485C721.394 265.071 721.394 266.021 721.979 266.607C722.565 267.192 723.515 267.192 724.101 266.607L733.647 257.061ZM527.442 257.5H732.586V254.5H527.442V257.5Z" fill="#8B836E"/>
<path d="M526.381 420.939C525.795 421.525 525.795 422.475 526.381 423.061L535.927 432.607C536.513 433.192 537.463 433.192 538.048 432.607C538.634 432.021 538.634 431.071 538.048 430.485L529.563 422L538.048 413.515C538.634 412.929 538.634 411.979 538.048 411.393C537.463 410.808 536.513 410.808 535.927 411.393L526.381 420.939ZM733.647 423.061C734.232 422.475 734.232 421.525 733.647 420.939L724.101 411.393C723.515 410.808 722.565 410.808 721.979 411.393C721.394 411.979 721.394 412.929 721.979 413.515L730.465 422L721.979 430.485C721.394 431.071 721.394 432.021 721.979 432.607C722.565 433.192 723.515 433.192 724.101 432.607L733.647 423.061ZM527.442 423.5H732.586V420.5H527.442V423.5Z" fill="#8B836E"/>
<path d="M528.635 591.939C528.049 592.525 528.049 593.475 528.635 594.061L538.181 603.607C538.767 604.192 539.717 604.192 540.303 603.607C540.888 603.021 540.888 602.071 540.303 601.485L531.817 593L540.303 584.515C540.888 583.929 540.888 582.979 540.303 582.393C539.717 581.808 538.767 581.808 538.181 582.393L528.635 591.939ZM735.901 594.061C736.487 593.475 736.487 592.525 735.901 591.939L726.355 582.393C725.769 581.808 724.819 581.808 724.233 582.393C723.648 582.979 723.648 583.929 724.233 584.515L732.719 593L724.233 601.485C723.648 602.071 723.648 603.021 724.233 603.607C724.819 604.192 725.769 604.192 726.355 603.607L735.901 594.061ZM529.696 594.5H734.84V591.5H529.696V594.5Z" fill="#8B836E"/>
<path d="M526.381 762.939C525.795 763.525 525.795 764.475 526.381 765.061L535.927 774.607C536.513 775.192 537.463 775.192 538.048 774.607C538.634 774.021 538.634 773.071 538.048 772.485L529.563 764L538.048 755.515C538.634 754.929 538.634 753.979 538.048 753.393C537.463 752.808 536.513 752.808 535.927 753.393L526.381 762.939ZM733.647 765.061C734.232 764.475 734.232 763.525 733.647 762.939L724.101 753.393C723.515 752.808 722.565 752.808 721.979 753.393C721.394 753.979 721.394 754.929 721.979 755.515L730.465 764L721.979 772.485C721.394 773.071 721.394 774.021 721.979 774.607C722.565 775.192 723.515 775.192 724.101 774.607L733.647 765.061ZM527.442 765.5H732.586V762.5H527.442V765.5Z" fill="#8B836E"/>
</svg>
